<?xml version='1.0' encoding='ASCII' standalone='yes'?>
<svg xmlns="http://www.w3.org/2000/svg" xmlns:xlink="http://www.w3.org/1999/xlink" version="1.1" width="100.07600000000001mm" viewBox="0 0 100.07600000000001 150.1928" height="150.1928mm">
  <g>
    <g><title>SVG Image created as temp_f.svg date 2026/02/23 03:54:12 </title>
  <desc>Image generated by PCBNEW </desc>
<g style="fill:#000000; fill-opacity:1.0000;stroke:#000000; stroke-opacity:1.0000; stroke-linecap:round; stroke-linejoin:round;" transform="translate(0 0) scale(1 1)">
</g>
<g style="fill:#000000; fill-opacity:1.0000;  stroke:#000000; stroke-width:0.0212; stroke-opacity:1;  stroke-linecap:round; stroke-linejoin:round;">
<rect x="-5.024000" y="-5.000000" width="110.100000" height="70.100000" rx="0.000000"/>
</g>
<g style="fill:#FFFFFF; fill-opacity:1.0000; stroke:none;">
<circle cx="72.4760" cy="35.7000" r="1.0000"/> 
</g>
<g style="fill:#FFFFFF; fill-opacity:1.0000; stroke:none;">
<circle cx="65.9760" cy="35.7250" r="1.0000"/> 
</g>
<g style="fill:#FFFFFF; fill-opacity:1.0000; stroke:none;">
<circle cx="72.4760" cy="40.2000" r="1.0000"/> 
</g>
<g style="fill:#FFFFFF; fill-opacity:1.0000; stroke:none;">
<circle cx="65.9760" cy="40.2000" r="1.0000"/> 
<path style="fill:#FFFFFF; fill-opacity:1.0000; stroke:none;fill-rule:evenodd;" d="M 66.1010,23.6750 66.0436,23.6864 65.9949,23.7189 65.9624,23.7676 65.9510,23.8250 65.9510,24.5250 65.9624,24.5824 65.9949,24.6311 66.0436,24.6636 66.1010,24.6750 67.3010,24.6750 67.3584,24.6636 67.4071,24.6311 67.4396,24.5824 67.4510,24.5250 67.4510,23.8250 67.4396,23.7676 67.4071,23.7189 67.3584,23.6864 67.3010,23.6750 Z"/> 
<path style="fill:#FFFFFF; fill-opacity:1.0000; stroke:none;fill-rule:evenodd;" d="M 68.6010,23.6750 68.5436,23.6864 68.4949,23.7189 68.4624,23.7676 68.4510,23.8250 68.4510,24.5250 68.4624,24.5824 68.4949,24.6311 68.5436,24.6636 68.6010,24.6750 69.8010,24.6750 69.8584,24.6636 69.9071,24.6311 69.9396,24.5824 69.9510,24.5250 69.9510,23.8250 69.9396,23.7676 69.9071,23.7189 69.8584,23.6864 69.8010,23.6750 Z"/> 
<path style="fill:#FFFFFF; fill-opacity:1.0000; stroke:none;fill-rule:evenodd;" d="M 71.1010,23.6750 71.0436,23.6864 70.9949,23.7189 70.9624,23.7676 70.9510,23.8250 70.9510,24.5250 70.9624,24.5824 70.9949,24.6311 71.0436,24.6636 71.1010,24.6750 72.3010,24.6750 72.3584,24.6636 72.4071,24.6311 72.4396,24.5824 72.4510,24.5250 72.4510,23.8250 72.4396,23.7676 72.4071,23.7189 72.3584,23.6864 72.3010,23.6750 Z"/> 
<path style="fill:#FFFFFF; fill-opacity:1.0000; stroke:none;fill-rule:evenodd;" d="M 63.4760,23.6750 63.4186,23.6864 63.3699,23.7189 63.3374,23.7676 63.3260,23.8250 63.3260,24.5250 63.3374,24.5824 63.3699,24.6311 63.4186,24.6636 63.4760,24.6750 64.9260,24.6750 64.9834,24.6636 65.0321,24.6311 65.0646,24.5824 65.0760,24.5250 65.0760,23.8250 65.0646,23.7676 65.0321,23.7189 64.9834,23.6864 64.9260,23.6750 Z"/> 
<path style="fill:#FFFFFF; fill-opacity:1.0000; stroke:none;fill-rule:evenodd;" d="M 26.6510,16.7250 26.6700,16.8207 26.7242,16.9018 26.8053,16.9560 26.9010,16.9750 28.1010,16.9750 28.1967,16.9560 28.2778,16.9018 28.3320,16.8207 28.3510,16.7250 28.3510,15.2250 28.3320,15.1293 28.2778,15.0482 28.1967,14.9940 28.1010,14.9750 26.9010,14.9750 26.8053,14.9940 26.7242,15.0482 26.6700,15.1293 26.6510,15.2250 Z"/> 
</g>
<g style="fill:none;  stroke:#FFFFFF; stroke-width:1.7000; stroke-opacity:1;  stroke-linecap:round; stroke-linejoin:round;">
<path d="M30.0010 16.1250 L30.0010 15.8250 "/>
<path style="fill:#FFFFFF; fill-opacity:1.0000; stroke:none;fill-rule:evenodd;" d="M 18.1760,38.1000 18.1760,39.8000 19.8760,39.8000 19.8760,38.1000 Z"/> 
</g>
<g style="fill:#FFFFFF; fill-opacity:1.0000; stroke:none;">
<circle cx="19.0260" cy="36.4100" r="0.8500"/> 
</g>
<g style="fill:#FFFFFF; fill-opacity:1.0000; stroke:none;">
<circle cx="19.0260" cy="33.8700" r="0.8500"/> 
</g>
<g style="fill:#FFFFFF; fill-opacity:1.0000; stroke:none;">
<circle cx="19.0260" cy="31.3300" r="0.8500"/> 
</g>
<g style="fill:#FFFFFF; fill-opacity:1.0000; stroke:none;">
<circle cx="19.0260" cy="28.7900" r="0.8500"/> 
</g>
<g style="fill:#FFFFFF; fill-opacity:1.0000; stroke:none;">
<circle cx="19.0260" cy="26.2500" r="0.8500"/> 
</g>
<g style="fill:#FFFFFF; fill-opacity:1.0000; stroke:none;">
<circle cx="19.0260" cy="23.7100" r="0.8500"/> 
</g>
<g style="fill:#FFFFFF; fill-opacity:1.0000; stroke:none;">
<circle cx="19.0260" cy="21.1700" r="0.8500"/> 
<path style="fill:#FFFFFF; fill-opacity:1.0000; stroke:none;fill-rule:evenodd;" d="M 41.1260,16.6000 41.1450,16.6957 41.1992,16.7768 41.2803,16.8310 41.3760,16.8500 42.5760,16.8500 42.6717,16.8310 42.7528,16.7768 42.8070,16.6957 42.8260,16.6000 42.8260,15.1500 42.8070,15.0543 42.7528,14.9732 42.6717,14.9190 42.5760,14.9000 41.3760,14.9000 41.2803,14.9190 41.1992,14.9732 41.1450,15.0543 41.1260,15.1500 Z"/> 
</g>
<g style="fill:none;  stroke:#FFFFFF; stroke-width:1.7000; stroke-opacity:1;  stroke-linecap:round; stroke-linejoin:round;">
<path d="M44.4760 16.0000 L44.4760 15.7500 "/>
<path d="M46.9760 16.0000 L46.9760 15.7500 "/>
<path d="M49.4760 16.0000 L49.4760 15.7500 "/>
</g>
<g style="fill:#FFFFFF; fill-opacity:1.0000; stroke:none;">
<circle cx="55.6510" cy="41.4150" r="0.8500"/> 
</g>
<g style="fill:#FFFFFF; fill-opacity:1.0000; stroke:none;">
<circle cx="55.6510" cy="38.8750" r="0.8500"/> 
</g>
<g style="fill:#FFFFFF; fill-opacity:1.0000; stroke:none;">
<circle cx="55.6510" cy="36.3350" r="0.8500"/> 
</g>
<g style="fill:#FFFFFF; fill-opacity:1.0000; stroke:none;">
<circle cx="40.6510" cy="41.5350" r="0.8500"/> 
</g>
<g style="fill:#FFFFFF; fill-opacity:1.0000; stroke:none;">
<circle cx="55.6510" cy="33.7950" r="0.8500"/> 
</g>
<g style="fill:#FFFFFF; fill-opacity:1.0000; stroke:none;">
<circle cx="55.6510" cy="31.2550" r="0.8500"/> 
</g>
<g style="fill:#FFFFFF; fill-opacity:1.0000; stroke:none;">
<circle cx="40.6510" cy="46.6150" r="0.8500"/> 
</g>
<g style="fill:#FFFFFF; fill-opacity:1.0000; stroke:none;">
<circle cx="55.6510" cy="28.7150" r="0.8500"/> 
</g>
<g style="fill:#FFFFFF; fill-opacity:1.0000; stroke:none;">
<circle cx="55.6510" cy="26.1750" r="0.8500"/> 
</g>
<g style="fill:#FFFFFF; fill-opacity:1.0000; stroke:none;">
<circle cx="40.6510" cy="26.2950" r="0.8500"/> 
</g>
<g style="fill:#FFFFFF; fill-opacity:1.0000; stroke:none;">
<circle cx="40.6510" cy="28.8350" r="0.8500"/> 
</g>
<g style="fill:#FFFFFF; fill-opacity:1.0000; stroke:none;">
<circle cx="40.6510" cy="31.3750" r="0.8500"/> 
</g>
<g style="fill:#FFFFFF; fill-opacity:1.0000; stroke:none;">
<circle cx="40.6510" cy="33.9150" r="0.8500"/> 
</g>
<g style="fill:#FFFFFF; fill-opacity:1.0000; stroke:none;">
<circle cx="40.6510" cy="36.4550" r="0.8500"/> 
</g>
<g style="fill:#FFFFFF; fill-opacity:1.0000; stroke:none;">
<circle cx="40.6510" cy="38.9950" r="0.8500"/> 
</g>
<g style="fill:#FFFFFF; fill-opacity:1.0000; stroke:none;">
<circle cx="40.6510" cy="44.0750" r="0.8500"/> 
</g>
<g style="fill:#FFFFFF; fill-opacity:1.0000; stroke:none;">
<circle cx="55.6510" cy="43.9550" r="0.8500"/> 
</g>
<g style="fill:#FFFFFF; fill-opacity:1.0000; stroke:none;">
<circle cx="55.6510" cy="46.4950" r="0.8500"/> 
<path style="fill:#FFFFFF; fill-opacity:1.0000; stroke:none;fill-rule:evenodd;" d="M 27.3260,45.9500 27.4217,45.9310 27.5028,45.8768 27.5570,45.7957 27.5760,45.7000 27.5760,44.5000 27.5570,44.4043 27.5028,44.3232 27.4217,44.2690 27.3260,44.2500 25.8260,44.2500 25.7303,44.2690 25.6492,44.3232 25.5950,44.4043 25.5760,44.5000 25.5760,45.7000 25.5950,45.7957 25.6492,45.8768 25.7303,45.9310 25.8260,45.9500 Z"/> 
</g>
<g style="fill:none;  stroke:#FFFFFF; stroke-width:1.7000; stroke-opacity:1;  stroke-linecap:round; stroke-linejoin:round;">
<path d="M26.7260 42.6000 L26.4260 42.6000 "/>
</g>
<g style="fill:#FFFFFF; fill-opacity:1.0000; stroke:none;">
<circle cx="33.9760" cy="46.4250" r="0.8000"/> 
</g>
<g style="fill:#FFFFFF; fill-opacity:1.0000; stroke:none;">
<circle cx="33.9760" cy="41.4250" r="0.8000"/> 
</g>
<g style="fill:none;  stroke:#FFFFFF; stroke-width:0.7500; stroke-opacity:1;  stroke-linecap:round; stroke-linejoin:round;">
<path d="M52.3710 26.1750 L46.9760 20.7800 "/>
<path d="M46.9760 20.7800 L46.9760 15.8750 "/>
<path d="M55.6510 26.1750 L52.3710 26.1750 "/>
<path d="M41.9760 21.4000 L46.3260 25.7500 "/>
<path d="M40.6510 41.5350 L35.5260 36.4100 "/>
<path d="M41.9760 15.8750 L41.9760 21.4000 "/>
<path d="M46.3260 35.8600 L40.6510 41.5350 "/>
<path d="M35.5260 36.4100 L19.0260 36.4100 "/>
<path d="M46.3260 25.7500 L46.3260 35.8600 "/>
<path d="M55.6510 28.7150 L52.3710 28.7150 "/>
<path d="M52.3710 28.7150 L44.4760 20.8200 "/>
<path d="M44.4760 20.8200 L44.4760 15.8750 "/>
<path d="M40.6510 44.0750 L36.6260 44.0750 "/>
<path d="M36.6260 44.0750 L33.9760 41.4250 "/>
<path d="M65.9760 40.2000 L64.6510 38.8750 "/>
<path d="M72.4760 40.2000 L65.9760 40.2000 "/>
<path d="M64.6510 38.8750 L55.6510 38.8750 "/>
<path d="M27.9010 46.4250 L26.5760 45.1000 "/>
<path d="M33.9760 46.4250 L40.4610 46.4250 "/>
<path d="M33.9760 46.4250 L27.9010 46.4250 "/>
<path d="M40.4610 46.4250 L40.6510 46.6150 "/>
<path d="M31.5960 26.2950 L27.5010 22.2000 "/>
<path d="M27.5010 22.2000 L27.5010 15.9750 "/>
<path d="M40.6510 26.2950 L31.5960 26.2950 "/>
<path d="M59.5410 36.3350 L55.6510 36.3350 "/>
<path d="M71.7010 24.1750 L59.5410 36.3350 "/>
<path d="M55.6510 31.2550 L59.6511 31.2550 "/>
<path d="M59.6511 31.2550 L66.7010 24.2051 "/>
<path d="M66.7010 24.2051 L66.7010 24.1750 "/>
<path d="M69.2010 24.1750 L59.5810 33.7950 "/>
<path d="M59.5810 33.7950 L55.6510 33.7950 "/>
</g>
<g style="fill:none;  stroke:#FFFFFF; stroke-width:0.0500; stroke-opacity:1;  stroke-linecap:round; stroke-linejoin:round;">
<path d="M83.0260 11.5500 L17.0260 11.5500 "/>
<path d="M83.0260 48.5500 L85.0260 46.5500 "/>
<path d="M83.0260 11.5500 L85.0260 13.5500 "/>
<path d="M85.0260 46.5500 L85.0260 13.5500 "/>
<path d="M17.0260 11.5500 L15.0260 13.5500 "/>
<path d="M15.0260 46.5500 L15.0260 13.5500 "/>
<path d="M17.0260 48.5500 L15.0260 46.5500 "/>
<path d="M83.0260 48.5500 L17.0260 48.5500 "/>
</g>
<g style="fill:#000000; fill-opacity:1.0000; stroke:none;">
<circle cx="72.4760" cy="35.7000" r="0.1750"/> 
</g>
<g style="fill:#000000; fill-opacity:1.0000; stroke:none;">
<circle cx="65.9760" cy="35.7250" r="0.1750"/> 
</g>
<g style="fill:#000000; fill-opacity:1.0000; stroke:none;">
<circle cx="72.4760" cy="40.2000" r="0.1750"/> 
</g>
<g style="fill:#000000; fill-opacity:1.0000; stroke:none;">
<circle cx="65.9760" cy="40.2000" r="0.1750"/> 
</g>
<g style="fill:#000000; fill-opacity:1.0000; stroke:none;">
<circle cx="60.4510" cy="23.1750" r="0.1750"/> 
</g>
<g style="fill:#000000; fill-opacity:1.0000; stroke:none;">
<circle cx="77.9510" cy="23.1750" r="0.1750"/> 
</g>
<g style="fill:#000000; fill-opacity:1.0000; stroke:none;">
<circle cx="19.0260" cy="44.7500" r="0.1750"/> 
</g>
<g style="fill:#000000; fill-opacity:1.0000; stroke:none;">
<circle cx="81.0260" cy="14.7500" r="0.1750"/> 
</g>
<g style="fill:#000000; fill-opacity:1.0000; stroke:none;">
<circle cx="27.5010" cy="15.9750" r="0.1750"/> 
</g>
<g style="fill:#000000; fill-opacity:1.0000; stroke:none;">
<circle cx="30.0010" cy="15.9750" r="0.1750"/> 
</g>
<g style="fill:#000000; fill-opacity:1.0000; stroke:none;">
<circle cx="19.0260" cy="14.7500" r="0.1750"/> 
</g>
<g style="fill:#000000; fill-opacity:1.0000; stroke:none;">
<circle cx="81.0260" cy="44.7500" r="0.1750"/> 
</g>
<g style="fill:#000000; fill-opacity:1.0000; stroke:none;">
<circle cx="19.0260" cy="38.9500" r="0.1750"/> 
</g>
<g style="fill:#000000; fill-opacity:1.0000; stroke:none;">
<circle cx="19.0260" cy="36.4100" r="0.1750"/> 
</g>
<g style="fill:#000000; fill-opacity:1.0000; stroke:none;">
<circle cx="19.0260" cy="33.8700" r="0.1750"/> 
</g>
<g style="fill:#000000; fill-opacity:1.0000; stroke:none;">
<circle cx="19.0260" cy="31.3300" r="0.1750"/> 
</g>
<g style="fill:#000000; fill-opacity:1.0000; stroke:none;">
<circle cx="19.0260" cy="28.7900" r="0.1750"/> 
</g>
<g style="fill:#000000; fill-opacity:1.0000; stroke:none;">
<circle cx="19.0260" cy="26.2500" r="0.1750"/> 
</g>
<g style="fill:#000000; fill-opacity:1.0000; stroke:none;">
<circle cx="19.0260" cy="23.7100" r="0.1750"/> 
</g>
<g style="fill:#000000; fill-opacity:1.0000; stroke:none;">
<circle cx="19.0260" cy="21.1700" r="0.1750"/> 
</g>
<g style="fill:#000000; fill-opacity:1.0000; stroke:none;">
<circle cx="41.9760" cy="15.8750" r="0.1750"/> 
</g>
<g style="fill:#000000; fill-opacity:1.0000; stroke:none;">
<circle cx="44.4760" cy="15.8750" r="0.1750"/> 
</g>
<g style="fill:#000000; fill-opacity:1.0000; stroke:none;">
<circle cx="46.9760" cy="15.8750" r="0.1750"/> 
</g>
<g style="fill:#000000; fill-opacity:1.0000; stroke:none;">
<circle cx="49.4760" cy="15.8750" r="0.1750"/> 
</g>
<g style="fill:#000000; fill-opacity:1.0000; stroke:none;">
<circle cx="55.6510" cy="41.4150" r="0.1750"/> 
</g>
<g style="fill:#000000; fill-opacity:1.0000; stroke:none;">
<circle cx="55.6510" cy="38.8750" r="0.1750"/> 
</g>
<g style="fill:#000000; fill-opacity:1.0000; stroke:none;">
<circle cx="55.6510" cy="36.3350" r="0.1750"/> 
</g>
<g style="fill:#000000; fill-opacity:1.0000; stroke:none;">
<circle cx="40.6510" cy="41.5350" r="0.1750"/> 
</g>
<g style="fill:#000000; fill-opacity:1.0000; stroke:none;">
<circle cx="55.6510" cy="33.7950" r="0.1750"/> 
</g>
<g style="fill:#000000; fill-opacity:1.0000; stroke:none;">
<circle cx="55.6510" cy="31.2550" r="0.1750"/> 
</g>
<g style="fill:#000000; fill-opacity:1.0000; stroke:none;">
<circle cx="40.6510" cy="46.6150" r="0.1750"/> 
</g>
<g style="fill:#000000; fill-opacity:1.0000; stroke:none;">
<circle cx="55.6510" cy="28.7150" r="0.1750"/> 
</g>
<g style="fill:#000000; fill-opacity:1.0000; stroke:none;">
<circle cx="55.6510" cy="26.1750" r="0.1750"/> 
</g>
<g style="fill:#000000; fill-opacity:1.0000; stroke:none;">
<circle cx="40.6510" cy="26.2950" r="0.1750"/> 
</g>
<g style="fill:#000000; fill-opacity:1.0000; stroke:none;">
<circle cx="40.6510" cy="28.8350" r="0.1750"/> 
</g>
<g style="fill:#000000; fill-opacity:1.0000; stroke:none;">
<circle cx="40.6510" cy="31.3750" r="0.1750"/> 
</g>
<g style="fill:#000000; fill-opacity:1.0000; stroke:none;">
<circle cx="40.6510" cy="33.9150" r="0.1750"/> 
</g>
<g style="fill:#000000; fill-opacity:1.0000; stroke:none;">
<circle cx="40.6510" cy="36.4550" r="0.1750"/> 
</g>
<g style="fill:#000000; fill-opacity:1.0000; stroke:none;">
<circle cx="40.6510" cy="38.9950" r="0.1750"/> 
</g>
<g style="fill:#000000; fill-opacity:1.0000; stroke:none;">
<circle cx="40.6510" cy="44.0750" r="0.1750"/> 
</g>
<g style="fill:#000000; fill-opacity:1.0000; stroke:none;">
<circle cx="55.6510" cy="43.9550" r="0.1750"/> 
</g>
<g style="fill:#000000; fill-opacity:1.0000; stroke:none;">
<circle cx="55.6510" cy="46.4950" r="0.1750"/> 
</g>
<g style="fill:#000000; fill-opacity:1.0000; stroke:none;">
<circle cx="26.5760" cy="45.1000" r="0.1750"/> 
</g>
<g style="fill:#000000; fill-opacity:1.0000; stroke:none;">
<circle cx="26.5760" cy="42.6000" r="0.1750"/> 
</g>
<g style="fill:#000000; fill-opacity:1.0000; stroke:none;">
<circle cx="33.9760" cy="46.4250" r="0.1750"/> 
</g>
<g style="fill:#000000; fill-opacity:1.0000; stroke:none;">
<circle cx="33.9760" cy="41.4250" r="0.1750"/> 
</g> 
</g>
    <g transform="translate(0, 80.09639999999999) scale(1 1) "><title>SVG Image created as temp_b.svg date 2026/02/23 03:54:13 </title>
  <desc>Image generated by PCBNEW </desc>
<g style="fill:#000000; fill-opacity:1.0000;stroke:#000000; stroke-opacity:1.0000; stroke-linecap:round; stroke-linejoin:round;" transform="translate(0 0) scale(1 1)">
</g>
<g style="fill:#000000; fill-opacity:1.0000;  stroke:#000000; stroke-width:0.0212; stroke-opacity:1;  stroke-linecap:round; stroke-linejoin:round;">
<rect x="-5.000000" y="-5.000000" width="110.100000" height="70.100000" rx="0.000000"/>
</g>
<g style="fill:#FFFFFF; fill-opacity:1.0000; stroke:none;">
<circle cx="27.6000" cy="35.7000" r="1.0000"/> 
</g>
<g style="fill:#FFFFFF; fill-opacity:1.0000; stroke:none;">
<circle cx="34.1000" cy="35.7250" r="1.0000"/> 
</g>
<g style="fill:#FFFFFF; fill-opacity:1.0000; stroke:none;">
<circle cx="27.6000" cy="40.2000" r="1.0000"/> 
</g>
<g style="fill:#FFFFFF; fill-opacity:1.0000; stroke:none;">
<circle cx="34.1000" cy="40.2000" r="1.0000"/> 
<path style="fill:#FFFFFF; fill-opacity:1.0000; stroke:none;fill-rule:evenodd;" d="M 73.4250,16.7250 73.4060,16.8207 73.3518,16.9018 73.2707,16.9560 73.1750,16.9750 71.9750,16.9750 71.8793,16.9560 71.7982,16.9018 71.7440,16.8207 71.7250,16.7250 71.7250,15.2250 71.7440,15.1293 71.7982,15.0482 71.8793,14.9940 71.9750,14.9750 73.1750,14.9750 73.2707,14.9940 73.3518,15.0482 73.4060,15.1293 73.4250,15.2250 Z"/> 
</g>
<g style="fill:none;  stroke:#FFFFFF; stroke-width:1.7000; stroke-opacity:1;  stroke-linecap:round; stroke-linejoin:round;">
<path d="M70.0750 16.1250 L70.0750 15.8250 "/>
<path style="fill:#FFFFFF; fill-opacity:1.0000; stroke:none;fill-rule:evenodd;" d="M 81.9000,38.1000 81.9000,39.8000 80.2000,39.8000 80.2000,38.1000 Z"/> 
</g>
<g style="fill:#FFFFFF; fill-opacity:1.0000; stroke:none;">
<circle cx="81.0500" cy="36.4100" r="0.8500"/> 
</g>
<g style="fill:#FFFFFF; fill-opacity:1.0000; stroke:none;">
<circle cx="81.0500" cy="33.8700" r="0.8500"/> 
</g>
<g style="fill:#FFFFFF; fill-opacity:1.0000; stroke:none;">
<circle cx="81.0500" cy="31.3300" r="0.8500"/> 
</g>
<g style="fill:#FFFFFF; fill-opacity:1.0000; stroke:none;">
<circle cx="81.0500" cy="28.7900" r="0.8500"/> 
</g>
<g style="fill:#FFFFFF; fill-opacity:1.0000; stroke:none;">
<circle cx="81.0500" cy="26.2500" r="0.8500"/> 
</g>
<g style="fill:#FFFFFF; fill-opacity:1.0000; stroke:none;">
<circle cx="81.0500" cy="23.7100" r="0.8500"/> 
</g>
<g style="fill:#FFFFFF; fill-opacity:1.0000; stroke:none;">
<circle cx="81.0500" cy="21.1700" r="0.8500"/> 
<path style="fill:#FFFFFF; fill-opacity:1.0000; stroke:none;fill-rule:evenodd;" d="M 58.9500,16.6000 58.9310,16.6957 58.8768,16.7768 58.7957,16.8310 58.7000,16.8500 57.5000,16.8500 57.4043,16.8310 57.3232,16.7768 57.2690,16.6957 57.2500,16.6000 57.2500,15.1500 57.2690,15.0543 57.3232,14.9732 57.4043,14.9190 57.5000,14.9000 58.7000,14.9000 58.7957,14.9190 58.8768,14.9732 58.9310,15.0543 58.9500,15.1500 Z"/> 
</g>
<g style="fill:none;  stroke:#FFFFFF; stroke-width:1.7000; stroke-opacity:1;  stroke-linecap:round; stroke-linejoin:round;">
<path d="M55.6000 16.0000 L55.6000 15.7500 "/>
<path d="M53.1000 16.0000 L53.1000 15.7500 "/>
<path d="M50.6000 16.0000 L50.6000 15.7500 "/>
</g>
<g style="fill:#FFFFFF; fill-opacity:1.0000; stroke:none;">
<circle cx="44.4250" cy="41.4150" r="0.8500"/> 
</g>
<g style="fill:#FFFFFF; fill-opacity:1.0000; stroke:none;">
<circle cx="44.4250" cy="38.8750" r="0.8500"/> 
</g>
<g style="fill:#FFFFFF; fill-opacity:1.0000; stroke:none;">
<circle cx="44.4250" cy="36.3350" r="0.8500"/> 
</g>
<g style="fill:#FFFFFF; fill-opacity:1.0000; stroke:none;">
<circle cx="59.4250" cy="41.5350" r="0.8500"/> 
</g>
<g style="fill:#FFFFFF; fill-opacity:1.0000; stroke:none;">
<circle cx="44.4250" cy="33.7950" r="0.8500"/> 
</g>
<g style="fill:#FFFFFF; fill-opacity:1.0000; stroke:none;">
<circle cx="44.4250" cy="31.2550" r="0.8500"/> 
</g>
<g style="fill:#FFFFFF; fill-opacity:1.0000; stroke:none;">
<circle cx="59.4250" cy="46.6150" r="0.8500"/> 
</g>
<g style="fill:#FFFFFF; fill-opacity:1.0000; stroke:none;">
<circle cx="44.4250" cy="28.7150" r="0.8500"/> 
</g>
<g style="fill:#FFFFFF; fill-opacity:1.0000; stroke:none;">
<circle cx="44.4250" cy="26.1750" r="0.8500"/> 
</g>
<g style="fill:#FFFFFF; fill-opacity:1.0000; stroke:none;">
<circle cx="59.4250" cy="26.2950" r="0.8500"/> 
</g>
<g style="fill:#FFFFFF; fill-opacity:1.0000; stroke:none;">
<circle cx="59.4250" cy="28.8350" r="0.8500"/> 
</g>
<g style="fill:#FFFFFF; fill-opacity:1.0000; stroke:none;">
<circle cx="59.4250" cy="31.3750" r="0.8500"/> 
</g>
<g style="fill:#FFFFFF; fill-opacity:1.0000; stroke:none;">
<circle cx="59.4250" cy="33.9150" r="0.8500"/> 
</g>
<g style="fill:#FFFFFF; fill-opacity:1.0000; stroke:none;">
<circle cx="59.4250" cy="36.4550" r="0.8500"/> 
</g>
<g style="fill:#FFFFFF; fill-opacity:1.0000; stroke:none;">
<circle cx="59.4250" cy="38.9950" r="0.8500"/> 
</g>
<g style="fill:#FFFFFF; fill-opacity:1.0000; stroke:none;">
<circle cx="59.4250" cy="44.0750" r="0.8500"/> 
</g>
<g style="fill:#FFFFFF; fill-opacity:1.0000; stroke:none;">
<circle cx="44.4250" cy="43.9550" r="0.8500"/> 
</g>
<g style="fill:#FFFFFF; fill-opacity:1.0000; stroke:none;">
<circle cx="44.4250" cy="46.4950" r="0.8500"/> 
<path style="fill:#FFFFFF; fill-opacity:1.0000; stroke:none;fill-rule:evenodd;" d="M 72.7500,45.9500 72.6543,45.9310 72.5732,45.8768 72.5190,45.7957 72.5000,45.7000 72.5000,44.5000 72.5190,44.4043 72.5732,44.3232 72.6543,44.2690 72.7500,44.2500 74.2500,44.2500 74.3457,44.2690 74.4268,44.3232 74.4810,44.4043 74.5000,44.5000 74.5000,45.7000 74.4810,45.7957 74.4268,45.8768 74.3457,45.9310 74.2500,45.9500 Z"/> 
</g>
<g style="fill:none;  stroke:#FFFFFF; stroke-width:1.7000; stroke-opacity:1;  stroke-linecap:round; stroke-linejoin:round;">
<path d="M73.3500 42.6000 L73.6500 42.6000 "/>
</g>
<g style="fill:#FFFFFF; fill-opacity:1.0000; stroke:none;">
<circle cx="66.1000" cy="46.4250" r="0.8000"/> 
</g>
<g style="fill:#FFFFFF; fill-opacity:1.0000; stroke:none;">
<circle cx="66.1000" cy="41.4250" r="0.8000"/> 
</g>
<g style="fill:none;  stroke:#FFFFFF; stroke-width:0.7500; stroke-opacity:1;  stroke-linecap:round; stroke-linejoin:round;">
<path d="M59.4250 28.8350 L73.3850 28.8350 "/>
<path d="M73.3850 28.8350 L81.0500 21.1700 "/>
<path d="M79.8176 28.7900 L81.0500 28.7900 "/>
<path d="M74.6926 33.9150 L79.8176 28.7900 "/>
<path d="M59.4250 33.9150 L74.6926 33.9150 "/>
<path d="M74.5576 31.3750 L79.6826 26.2500 "/>
<path d="M59.4250 31.3750 L74.5576 31.3750 "/>
<path d="M79.6826 26.2500 L81.0500 26.2500 "/>
<path d="M75.9250 38.9950 L81.0500 33.8700 "/>
<path d="M59.4250 38.9950 L75.9250 38.9950 "/>
<path d="M79.7526 31.3300 L81.0500 31.3300 "/>
<path d="M74.6276 36.4550 L79.7526 31.3300 "/>
<path d="M59.4250 36.4550 L74.6276 36.4550 "/>
</g>
<g style="fill:none;  stroke:#FFFFFF; stroke-width:0.0500; stroke-opacity:1;  stroke-linecap:round; stroke-linejoin:round;">
<path d="M17.0500 11.5500 L83.0500 11.5500 "/>
<path d="M17.0500 48.5500 L15.0500 46.5500 "/>
<path d="M17.0500 11.5500 L15.0500 13.5500 "/>
<path d="M15.0500 46.5500 L15.0500 13.5500 "/>
<path d="M83.0500 11.5500 L85.0500 13.5500 "/>
<path d="M85.0500 46.5500 L85.0500 13.5500 "/>
<path d="M83.0500 48.5500 L85.0500 46.5500 "/>
<path d="M17.0500 48.5500 L83.0500 48.5500 "/>
</g>
<g style="fill:#000000; fill-opacity:1.0000; stroke:none;">
<circle cx="27.6000" cy="35.7000" r="0.1750"/> 
</g>
<g style="fill:#000000; fill-opacity:1.0000; stroke:none;">
<circle cx="34.1000" cy="35.7250" r="0.1750"/> 
</g>
<g style="fill:#000000; fill-opacity:1.0000; stroke:none;">
<circle cx="27.6000" cy="40.2000" r="0.1750"/> 
</g>
<g style="fill:#000000; fill-opacity:1.0000; stroke:none;">
<circle cx="34.1000" cy="40.2000" r="0.1750"/> 
</g>
<g style="fill:#000000; fill-opacity:1.0000; stroke:none;">
<circle cx="39.6250" cy="23.1750" r="0.1750"/> 
</g>
<g style="fill:#000000; fill-opacity:1.0000; stroke:none;">
<circle cx="22.1250" cy="23.1750" r="0.1750"/> 
</g>
<g style="fill:#000000; fill-opacity:1.0000; stroke:none;">
<circle cx="81.0500" cy="44.7500" r="0.1750"/> 
</g>
<g style="fill:#000000; fill-opacity:1.0000; stroke:none;">
<circle cx="19.0500" cy="14.7500" r="0.1750"/> 
</g>
<g style="fill:#000000; fill-opacity:1.0000; stroke:none;">
<circle cx="72.5750" cy="15.9750" r="0.1750"/> 
</g>
<g style="fill:#000000; fill-opacity:1.0000; stroke:none;">
<circle cx="70.0750" cy="15.9750" r="0.1750"/> 
</g>
<g style="fill:#000000; fill-opacity:1.0000; stroke:none;">
<circle cx="81.0500" cy="14.7500" r="0.1750"/> 
</g>
<g style="fill:#000000; fill-opacity:1.0000; stroke:none;">
<circle cx="19.0500" cy="44.7500" r="0.1750"/> 
</g>
<g style="fill:#000000; fill-opacity:1.0000; stroke:none;">
<circle cx="81.0500" cy="38.9500" r="0.1750"/> 
</g>
<g style="fill:#000000; fill-opacity:1.0000; stroke:none;">
<circle cx="81.0500" cy="36.4100" r="0.1750"/> 
</g>
<g style="fill:#000000; fill-opacity:1.0000; stroke:none;">
<circle cx="81.0500" cy="33.8700" r="0.1750"/> 
</g>
<g style="fill:#000000; fill-opacity:1.0000; stroke:none;">
<circle cx="81.0500" cy="31.3300" r="0.1750"/> 
</g>
<g style="fill:#000000; fill-opacity:1.0000; stroke:none;">
<circle cx="81.0500" cy="28.7900" r="0.1750"/> 
</g>
<g style="fill:#000000; fill-opacity:1.0000; stroke:none;">
<circle cx="81.0500" cy="26.2500" r="0.1750"/> 
</g>
<g style="fill:#000000; fill-opacity:1.0000; stroke:none;">
<circle cx="81.0500" cy="23.7100" r="0.1750"/> 
</g>
<g style="fill:#000000; fill-opacity:1.0000; stroke:none;">
<circle cx="81.0500" cy="21.1700" r="0.1750"/> 
</g>
<g style="fill:#000000; fill-opacity:1.0000; stroke:none;">
<circle cx="58.1000" cy="15.8750" r="0.1750"/> 
</g>
<g style="fill:#000000; fill-opacity:1.0000; stroke:none;">
<circle cx="55.6000" cy="15.8750" r="0.1750"/> 
</g>
<g style="fill:#000000; fill-opacity:1.0000; stroke:none;">
<circle cx="53.1000" cy="15.8750" r="0.1750"/> 
</g>
<g style="fill:#000000; fill-opacity:1.0000; stroke:none;">
<circle cx="50.6000" cy="15.8750" r="0.1750"/> 
</g>
<g style="fill:#000000; fill-opacity:1.0000; stroke:none;">
<circle cx="44.4250" cy="41.4150" r="0.1750"/> 
</g>
<g style="fill:#000000; fill-opacity:1.0000; stroke:none;">
<circle cx="44.4250" cy="38.8750" r="0.1750"/> 
</g>
<g style="fill:#000000; fill-opacity:1.0000; stroke:none;">
<circle cx="44.4250" cy="36.3350" r="0.1750"/> 
</g>
<g style="fill:#000000; fill-opacity:1.0000; stroke:none;">
<circle cx="59.4250" cy="41.5350" r="0.1750"/> 
</g>
<g style="fill:#000000; fill-opacity:1.0000; stroke:none;">
<circle cx="44.4250" cy="33.7950" r="0.1750"/> 
</g>
<g style="fill:#000000; fill-opacity:1.0000; stroke:none;">
<circle cx="44.4250" cy="31.2550" r="0.1750"/> 
</g>
<g style="fill:#000000; fill-opacity:1.0000; stroke:none;">
<circle cx="59.4250" cy="46.6150" r="0.1750"/> 
</g>
<g style="fill:#000000; fill-opacity:1.0000; stroke:none;">
<circle cx="44.4250" cy="28.7150" r="0.1750"/> 
</g>
<g style="fill:#000000; fill-opacity:1.0000; stroke:none;">
<circle cx="44.4250" cy="26.1750" r="0.1750"/> 
</g>
<g style="fill:#000000; fill-opacity:1.0000; stroke:none;">
<circle cx="59.4250" cy="26.2950" r="0.1750"/> 
</g>
<g style="fill:#000000; fill-opacity:1.0000; stroke:none;">
<circle cx="59.4250" cy="28.8350" r="0.1750"/> 
</g>
<g style="fill:#000000; fill-opacity:1.0000; stroke:none;">
<circle cx="59.4250" cy="31.3750" r="0.1750"/> 
</g>
<g style="fill:#000000; fill-opacity:1.0000; stroke:none;">
<circle cx="59.4250" cy="33.9150" r="0.1750"/> 
</g>
<g style="fill:#000000; fill-opacity:1.0000; stroke:none;">
<circle cx="59.4250" cy="36.4550" r="0.1750"/> 
</g>
<g style="fill:#000000; fill-opacity:1.0000; stroke:none;">
<circle cx="59.4250" cy="38.9950" r="0.1750"/> 
</g>
<g style="fill:#000000; fill-opacity:1.0000; stroke:none;">
<circle cx="59.4250" cy="44.0750" r="0.1750"/> 
</g>
<g style="fill:#000000; fill-opacity:1.0000; stroke:none;">
<circle cx="44.4250" cy="43.9550" r="0.1750"/> 
</g>
<g style="fill:#000000; fill-opacity:1.0000; stroke:none;">
<circle cx="44.4250" cy="46.4950" r="0.1750"/> 
</g>
<g style="fill:#000000; fill-opacity:1.0000; stroke:none;">
<circle cx="73.5000" cy="45.1000" r="0.1750"/> 
</g>
<g style="fill:#000000; fill-opacity:1.0000; stroke:none;">
<circle cx="73.5000" cy="42.6000" r="0.1750"/> 
</g>
<g style="fill:#000000; fill-opacity:1.0000; stroke:none;">
<circle cx="66.1000" cy="46.4250" r="0.1750"/> 
</g>
<g style="fill:#000000; fill-opacity:1.0000; stroke:none;">
<circle cx="66.1000" cy="41.4250" r="0.1750"/> 
</g> 
</g>
    <text x="100.07600000000001" y="148.78168888888885" font-size="3" font-family="monospace" font-weight="normal" letter-spacing="0" text-anchor="end" fill="red">File: pcb.svg | Scale: 1.0:1 | Date: Feb/23 03:54</text>
  </g>
</svg>
