<?xml version="1.0" standalone="no"?>
 <!DOCTYPE svg PUBLIC "-//W3C//DTD SVG 1.1//EN" 
 "http://www.w3.org/Graphics/SVG/1.1/DTD/svg11.dtd"> 
<svg
  xmlns:svg="http://www.w3.org/2000/svg"
  xmlns="http://www.w3.org/2000/svg"
  xmlns:xlink="http://www.w3.org/1999/xlink"
  version="1.1"
  width="69.9770mm" height="36.8554mm" viewBox="0.0000 0.0000 69.9770 36.8554">
<title>SVG Image created as temp_f.svg date 2026/01/24 11:20:41 </title>
  <desc>Image generated by PCBNEW </desc>
<g style="fill:#000000; fill-opacity:1.0000;stroke:#000000; stroke-opacity:1.0000;
stroke-linecap:round; stroke-linejoin:round;"
 transform="translate(0 0) scale(1 1)">
</g>
<g style="fill:#000000; fill-opacity:1.0000; 
stroke:#000000; stroke-width:0.0212; stroke-opacity:1; 
stroke-linecap:round; stroke-linejoin:round;">
<rect x="-5.023000" y="-5.000000" width="80.000000" height="46.875000" rx="0.000000" />
</g>
<g style="fill:#FFFFFF; fill-opacity:1.0000; stroke:none;">
<circle cx="38.4270" cy="21.9500" r="1.0000" /> 
</g>
<g style="fill:#FFFFFF; fill-opacity:1.0000; stroke:none;">
<circle cx="31.9270" cy="21.9500" r="1.0000" /> 
</g>
<g style="fill:#FFFFFF; fill-opacity:1.0000; stroke:none;">
<circle cx="38.4270" cy="26.4500" r="1.0000" /> 
</g>
<g style="fill:#FFFFFF; fill-opacity:1.0000; stroke:none;">
<circle cx="31.9270" cy="26.4500" r="1.0000" /> 
<path style="fill:#FFFFFF; fill-opacity:1.0000; stroke:none;fill-rule:evenodd;"
d="M 32.1020,11.1250
32.0446,11.1364
31.9959,11.1689
31.9634,11.2176
31.9520,11.2750
31.9520,11.9750
31.9634,12.0324
31.9959,12.0811
32.0446,12.1136
32.1020,12.1250
33.3020,12.1250
33.3594,12.1136
33.4081,12.0811
33.4406,12.0324
33.4520,11.9750
33.4520,11.2750
33.4406,11.2176
33.4081,11.1689
33.3594,11.1364
33.3020,11.1250
Z" /> 
<path style="fill:#FFFFFF; fill-opacity:1.0000; stroke:none;fill-rule:evenodd;"
d="M 34.6020,11.1250
34.5446,11.1364
34.4959,11.1689
34.4634,11.2176
34.4520,11.2750
34.4520,11.9750
34.4634,12.0324
34.4959,12.0811
34.5446,12.1136
34.6020,12.1250
35.8020,12.1250
35.8594,12.1136
35.9081,12.0811
35.9406,12.0324
35.9520,11.9750
35.9520,11.2750
35.9406,11.2176
35.9081,11.1689
35.8594,11.1364
35.8020,11.1250
Z" /> 
<path style="fill:#FFFFFF; fill-opacity:1.0000; stroke:none;fill-rule:evenodd;"
d="M 37.1020,11.1250
37.0446,11.1364
36.9959,11.1689
36.9634,11.2176
36.9520,11.2750
36.9520,11.9750
36.9634,12.0324
36.9959,12.0811
37.0446,12.1136
37.1020,12.1250
38.3020,12.1250
38.3594,12.1136
38.4081,12.0811
38.4406,12.0324
38.4520,11.9750
38.4520,11.2750
38.4406,11.2176
38.4081,11.1689
38.3594,11.1364
38.3020,11.1250
Z" /> 
<path style="fill:#FFFFFF; fill-opacity:1.0000; stroke:none;fill-rule:evenodd;"
d="M 31.3520,8.8750
31.2946,8.8864
31.2459,8.9189
31.2134,8.9676
31.2020,9.0250
31.2020,9.7250
31.2134,9.7824
31.2459,9.8311
31.2946,9.8636
31.3520,9.8750
39.0520,9.8750
39.1094,9.8636
39.1581,9.8311
39.1906,9.7824
39.2020,9.7250
39.2020,9.0250
39.1906,8.9676
39.1581,8.9189
39.1094,8.8864
39.0520,8.8750
Z" /> 
</g>
<g style="fill:#FFFFFF; fill-opacity:1.0000; stroke:none;">
<circle cx="23.2770" cy="21.9500" r="1.0000" /> 
</g>
<g style="fill:#FFFFFF; fill-opacity:1.0000; stroke:none;">
<circle cx="16.7770" cy="21.9500" r="1.0000" /> 
</g>
<g style="fill:#FFFFFF; fill-opacity:1.0000; stroke:none;">
<circle cx="23.2770" cy="26.4500" r="1.0000" /> 
</g>
<g style="fill:#FFFFFF; fill-opacity:1.0000; stroke:none;">
<circle cx="16.7770" cy="26.4500" r="1.0000" /> 
<path style="fill:#FFFFFF; fill-opacity:1.0000; stroke:none;fill-rule:evenodd;"
d="M 45.7920,6.1500
47.4920,6.1500
47.4920,4.4500
45.7920,4.4500
Z" /> 
</g>
<g style="fill:#FFFFFF; fill-opacity:1.0000; stroke:none;">
<circle cx="44.1020" cy="5.3000" r="0.8500" /> 
<path style="fill:#FFFFFF; fill-opacity:1.0000; stroke:none;fill-rule:evenodd;"
d="M 33.2770,2.3250
33.2580,2.2293
33.2038,2.1482
33.1227,2.0940
33.0270,2.0750
31.8270,2.0750
31.7313,2.0940
31.6502,2.1482
31.5960,2.2293
31.5770,2.3250
31.5770,3.8250
31.5960,3.9207
31.6502,4.0018
31.7313,4.0560
31.8270,4.0750
33.0270,4.0750
33.1227,4.0560
33.2038,4.0018
33.2580,3.9207
33.2770,3.8250
Z" /> 
</g>
<g style="fill:none; 
stroke:#FFFFFF; stroke-width:1.7000; stroke-opacity:1; 
stroke-linecap:round; stroke-linejoin:round;">
<path d="M29.9270 2.9250
L29.9270 3.2250
" />
<path style="fill:#FFFFFF; fill-opacity:1.0000; stroke:none;fill-rule:evenodd;"
d="M 3.1770,26.5000
3.1770,28.2000
4.8770,28.2000
4.8770,26.5000
Z" /> 
</g>
<g style="fill:#FFFFFF; fill-opacity:1.0000; stroke:none;">
<circle cx="4.0270" cy="24.8100" r="0.8500" /> 
</g>
<g style="fill:#FFFFFF; fill-opacity:1.0000; stroke:none;">
<circle cx="4.0270" cy="22.2700" r="0.8500" /> 
</g>
<g style="fill:#FFFFFF; fill-opacity:1.0000; stroke:none;">
<circle cx="4.0270" cy="19.7300" r="0.8500" /> 
</g>
<g style="fill:#FFFFFF; fill-opacity:1.0000; stroke:none;">
<circle cx="4.0270" cy="17.1900" r="0.8500" /> 
</g>
<g style="fill:#FFFFFF; fill-opacity:1.0000; stroke:none;">
<circle cx="4.0270" cy="14.6500" r="0.8500" /> 
</g>
<g style="fill:#FFFFFF; fill-opacity:1.0000; stroke:none;">
<circle cx="4.0270" cy="12.1100" r="0.8500" /> 
</g>
<g style="fill:#FFFFFF; fill-opacity:1.0000; stroke:none;">
<circle cx="4.0270" cy="9.5700" r="0.8500" /> 
</g>
<g style="fill:#FFFFFF; fill-opacity:1.0000; stroke:none;">
<circle cx="22.3770" cy="13.3500" r="0.9000" /> 
</g>
<g style="fill:#FFFFFF; fill-opacity:1.0000; stroke:none;">
<circle cx="19.9770" cy="13.3500" r="0.9000" /> 
</g>
<g style="fill:#FFFFFF; fill-opacity:1.0000; stroke:none;">
<circle cx="17.5770" cy="13.3500" r="0.9000" /> 
</g>
<g style="fill:#FFFFFF; fill-opacity:1.0000; stroke:none;">
<circle cx="17.5770" cy="7.7500" r="0.9000" /> 
</g>
<g style="fill:#FFFFFF; fill-opacity:1.0000; stroke:none;">
<circle cx="19.9770" cy="7.7500" r="0.9000" /> 
</g>
<g style="fill:#FFFFFF; fill-opacity:1.0000; stroke:none;">
<circle cx="22.3770" cy="7.7500" r="0.9000" /> 
<path style="fill:#FFFFFF; fill-opacity:1.0000; stroke:none;fill-rule:evenodd;"
d="M 65.9720,34.0000
67.6720,34.0000
67.6720,32.3000
65.9720,32.3000
Z" /> 
</g>
<g style="fill:#FFFFFF; fill-opacity:1.0000; stroke:none;">
<circle cx="64.2820" cy="33.1500" r="0.8500" /> 
</g>
<g style="fill:#FFFFFF; fill-opacity:1.0000; stroke:none;">
<circle cx="61.7420" cy="33.1500" r="0.8500" /> 
</g>
<g style="fill:#FFFFFF; fill-opacity:1.0000; stroke:none;">
<circle cx="59.2020" cy="33.1500" r="0.8500" /> 
</g>
<g style="fill:#FFFFFF; fill-opacity:1.0000; stroke:none;">
<circle cx="63.1120" cy="26.2000" r="0.8500" /> 
</g>
<g style="fill:#FFFFFF; fill-opacity:1.0000; stroke:none;">
<circle cx="60.5720" cy="26.2000" r="0.8500" /> 
</g>
<g style="fill:#FFFFFF; fill-opacity:1.0000; stroke:none;">
<circle cx="58.0320" cy="26.2000" r="0.8500" /> 
</g>
<g style="fill:#FFFFFF; fill-opacity:1.0000; stroke:none;">
<circle cx="63.1120" cy="10.7000" r="0.8500" /> 
</g>
<g style="fill:#FFFFFF; fill-opacity:1.0000; stroke:none;">
<circle cx="55.4920" cy="26.2000" r="0.8500" /> 
</g>
<g style="fill:#FFFFFF; fill-opacity:1.0000; stroke:none;">
<circle cx="52.9520" cy="26.2000" r="0.8500" /> 
</g>
<g style="fill:#FFFFFF; fill-opacity:1.0000; stroke:none;">
<circle cx="68.1920" cy="10.7000" r="0.8500" /> 
</g>
<g style="fill:#FFFFFF; fill-opacity:1.0000; stroke:none;">
<circle cx="50.4120" cy="26.2000" r="0.8500" /> 
</g>
<g style="fill:#FFFFFF; fill-opacity:1.0000; stroke:none;">
<circle cx="47.8720" cy="26.2000" r="0.8500" /> 
</g>
<g style="fill:#FFFFFF; fill-opacity:1.0000; stroke:none;">
<circle cx="47.8720" cy="10.7000" r="0.8500" /> 
</g>
<g style="fill:#FFFFFF; fill-opacity:1.0000; stroke:none;">
<circle cx="50.4120" cy="10.7000" r="0.8500" /> 
</g>
<g style="fill:#FFFFFF; fill-opacity:1.0000; stroke:none;">
<circle cx="52.9520" cy="10.7000" r="0.8500" /> 
</g>
<g style="fill:#FFFFFF; fill-opacity:1.0000; stroke:none;">
<circle cx="55.4920" cy="10.7000" r="0.8500" /> 
</g>
<g style="fill:#FFFFFF; fill-opacity:1.0000; stroke:none;">
<circle cx="58.0320" cy="10.7000" r="0.8500" /> 
</g>
<g style="fill:#FFFFFF; fill-opacity:1.0000; stroke:none;">
<circle cx="60.5720" cy="10.7000" r="0.8500" /> 
</g>
<g style="fill:#FFFFFF; fill-opacity:1.0000; stroke:none;">
<circle cx="65.6520" cy="10.7000" r="0.8500" /> 
</g>
<g style="fill:#FFFFFF; fill-opacity:1.0000; stroke:none;">
<circle cx="65.6520" cy="26.2000" r="0.8500" /> 
</g>
<g style="fill:#FFFFFF; fill-opacity:1.0000; stroke:none;">
<circle cx="68.1920" cy="26.2000" r="0.8500" /> 
<path style="fill:#FFFFFF; fill-opacity:1.0000; stroke:none;fill-rule:evenodd;"
d="M 67.5770,2.2500
67.5580,2.1543
67.5038,2.0732
67.4227,2.0190
67.3270,2.0000
66.1270,2.0000
66.0313,2.0190
65.9502,2.0732
65.8960,2.1543
65.8770,2.2500
65.8770,3.7500
65.8960,3.8457
65.9502,3.9268
66.0313,3.9810
66.1270,4.0000
67.3270,4.0000
67.4227,3.9810
67.5038,3.9268
67.5580,3.8457
67.5770,3.7500
Z" /> 
</g>
<g style="fill:none; 
stroke:#FFFFFF; stroke-width:1.7000; stroke-opacity:1; 
stroke-linecap:round; stroke-linejoin:round;">
<path d="M64.2270 2.8500
L64.2270 3.1500
" />
</g>
<g style="fill:#FFFFFF; fill-opacity:1.0000; stroke:none;">
<circle cx="60.5520" cy="28.8250" r="0.5000" /> 
</g>
<g style="fill:#FFFFFF; fill-opacity:1.0000; stroke:none;">
<circle cx="43.1770" cy="28.8500" r="0.5000" /> 
</g>
<g style="fill:#FFFFFF; fill-opacity:1.0000; stroke:none;">
<circle cx="63.0520" cy="28.9000" r="0.5000" /> 
</g>
<g style="fill:#FFFFFF; fill-opacity:1.0000; stroke:none;">
<circle cx="64.9520" cy="7.8500" r="0.5000" /> 
</g>
<g style="fill:#FFFFFF; fill-opacity:1.0000; stroke:none;">
<circle cx="67.3520" cy="7.9000" r="0.5000" /> 
</g>
<g style="fill:#FFFFFF; fill-opacity:1.0000; stroke:none;">
<circle cx="59.9520" cy="8.0750" r="0.5000" /> 
</g>
<g style="fill:#FFFFFF; fill-opacity:1.0000; stroke:none;">
<circle cx="26.1020" cy="3.0500" r="0.5000" /> 
</g>
<g style="fill:none; 
stroke:#FFFFFF; stroke-width:0.3000; stroke-opacity:1; 
stroke-linecap:round; stroke-linejoin:round;">
<path d="M60.5520 31.9600
L60.5520 28.8250
" />
<path d="M60.5520 28.8250
L60.4670 28.9100
" />
<path d="M61.7420 33.1500
L60.5520 31.9600
" />
</g>
<g style="fill:none; 
stroke:#FFFFFF; stroke-width:0.5000; stroke-opacity:1; 
stroke-linecap:round; stroke-linejoin:round;">
<path d="M59.2020 33.1500
L59.2020 30.4500
" />
<path d="M57.6020 28.8500
L43.1770 28.8500
" />
<path d="M59.2020 30.4500
L57.6020 28.8500
" />
</g>
<g style="fill:none; 
stroke:#FFFFFF; stroke-width:0.3000; stroke-opacity:1; 
stroke-linecap:round; stroke-linejoin:round;">
<path d="M64.2820 33.1500
L63.0520 31.9200
" />
<path d="M63.0520 28.9000
L63.0070 28.9450
" />
<path d="M63.0520 31.9200
L63.0520 28.9000
" />
</g>
<g style="fill:none; 
stroke:#FFFFFF; stroke-width:0.5000; stroke-opacity:1; 
stroke-linecap:round; stroke-linejoin:round;">
<path d="M45.2970 13.2750
L39.3520 13.2750
" />
<path d="M39.3520 13.2750
L37.7020 11.6250
" />
<path d="M47.8720 10.7000
L45.2970 13.2750
" />
<path d="M48.5750 15.0770
L36.1540 15.0770
" />
<path d="M52.9520 10.7000
L48.5750 15.0770
" />
<path d="M36.1540 15.0770
L32.7020 11.6250
" />
<path d="M46.9360 14.1760
L37.7530 14.1760
" />
<path d="M37.7530 14.1760
L35.2020 11.6250
" />
<path d="M50.4120 10.7000
L46.9360 14.1760
" />
<path d="M66.0770 6.6250
L52.3020 6.6250
" />
<path d="M66.7270 7.2750
L66.7270 3.0000
" />
<path d="M48.7520 3.0750
L32.4270 3.0750
" />
<path d="M52.3020 6.6250
L48.7520 3.0750
" />
<path d="M67.3520 7.9000
L66.0770 6.6250
" />
<path d="M67.3520 7.9000
L66.7270 7.2750
" />
</g>
<g style="fill:none; 
stroke:#FFFFFF; stroke-width:0.3000; stroke-opacity:1; 
stroke-linecap:round; stroke-linejoin:round;">
<path d="M46.6920 5.2500
L46.6420 5.3000
" />
<path d="M51.9020 8.0750
L49.0770 5.2500
" />
<path d="M49.0770 5.2500
L46.6920 5.2500
" />
<path d="M59.9520 8.0750
L51.9020 8.0750
" />
</g>
<g style="fill:none; 
stroke:#FFFFFF; stroke-width:0.5000; stroke-opacity:1; 
stroke-linecap:round; stroke-linejoin:round;">
<path d="M29.9270 3.0750
L26.1270 3.0750
" />
<path d="M26.1270 3.0750
L26.1020 3.0500
" />
<path style="fill:#FFFFFF; fill-opacity:1.0000; stroke:none;fill-rule:evenodd;"
d="M 44.6312,3.8452
44.5855,3.8980
44.5755,3.9671
44.6045,4.0307
44.6420,4.0600
44.8096,4.1454
44.8096,4.1454
44.8637,4.1847
44.8637,4.1847
44.2314,4.8170
44.2950,4.8341
44.4090,4.8999
44.5021,4.9930
44.5679,5.1070
44.5850,5.1706
45.2552,4.5004
45.2887,4.4390
45.2915,4.4127
45.2915,4.4021
45.2915,4.4021
45.2915,4.4021
45.2979,4.3425
45.3120,4.3046
45.3482,4.2077
45.3482,4.2077
45.4104,4.1246
45.4345,4.0925
45.4928,4.0488
45.5347,3.9928
45.5397,3.9231
45.5062,3.8618
45.4449,3.8283
45.4185,3.8255
44.6983,3.8255
Z" /> 
<path style="fill:#FFFFFF; fill-opacity:1.0000; stroke:none;fill-rule:evenodd;"
d="M 0.5845,0.4702
0.5387,0.5230
0.5275,0.5745
0.5275,36.3255
0.5472,36.3925
0.6000,36.4383
0.6515,36.4495
69.4025,36.4495
69.4695,36.4298
69.5153,36.3770
69.5265,36.3255
69.5265,32.2522
68.1720,32.2522
68.1720,32.9000
67.2550,32.9000
67.2879,32.9570
67.3220,33.0842
67.3220,33.2158
67.2879,33.3430
67.2550,33.4000
68.1720,33.4000
68.1720,34.0478
68.1656,34.1074
68.1656,34.1074
68.1154,34.2421
68.1154,34.2421
68.0292,34.3572
68.0292,34.3572
67.9141,34.4433
67.9141,34.4434
67.7794,34.4936
67.7794,34.4936
67.7198,34.5000
67.7198,34.5000
67.0720,34.5000
67.0720,33.5830
67.0150,33.6159
66.8878,33.6500
66.7562,33.6500
66.6290,33.6159
66.5720,33.5830
66.5720,34.5000
65.9242,34.5000
65.9242,34.5000
65.8646,34.4936
65.8646,34.4936
65.7299,34.4434
65.7299,34.4433
65.6148,34.3572
65.6148,34.3572
65.5286,34.2421
65.5286,34.2421
65.4796,34.1105
65.4377,34.0546
65.3722,34.0302
65.3040,34.0450
65.2757,34.0662
65.1618,34.1801
64.9898,34.3050
64.9898,34.3050
64.9898,34.3051
64.8004,34.4016
64.5982,34.4672
64.3883,34.5005
64.3883,34.5005
64.1757,34.5005
64.1757,34.5005
63.9658,34.4672
63.7636,34.4016
63.5742,34.3051
63.4875,34.2421
63.4022,34.1801
63.4022,34.1801
63.4022,34.1801
63.2519,34.0298
63.2519,34.0298
63.2519,34.0298
63.1270,33.8578
63.1270,33.8578
63.1269,33.8578
63.1225,33.8491
63.0745,33.7983
63.0067,33.7815
62.9406,33.8040
62.9015,33.8491
62.8970,33.8578
62.7721,34.0298
62.6218,34.1801
62.4498,34.3050
62.4498,34.3050
62.4498,34.3051
62.2604,34.4016
62.0582,34.4672
61.8483,34.5005
61.8483,34.5005
61.6357,34.5005
61.6357,34.5005
61.4258,34.4672
61.2236,34.4016
61.0342,34.3051
60.9475,34.2421
60.8622,34.1801
60.8622,34.1801
60.8622,34.1801
60.7119,34.0298
60.7119,34.0298
60.7119,34.0298
60.5870,33.8578
60.5870,33.8578
60.5869,33.8578
60.5825,33.8491
60.5345,33.7983
60.4667,33.7815
60.4006,33.8040
60.3615,33.8491
60.3570,33.8578
60.2321,34.0298
60.0818,34.1801
59.9098,34.3050
59.9098,34.3050
59.9098,34.3051
59.7204,34.4016
59.5182,34.4672
59.3083,34.5005
59.3083,34.5005
59.0957,34.5005
59.0957,34.5005
58.8858,34.4672
58.6836,34.4016
58.4942,34.3051
58.4075,34.2421
58.3222,34.1801
58.3222,34.1801
58.3222,34.1801
58.1719,34.0298
58.1719,34.0298
58.1719,34.0298
58.0470,33.8578
58.0470,33.8578
58.0469,33.8578
57.9504,33.6684
57.8848,33.4662
57.8515,33.2563
57.8515,33.0437
57.8528,33.0353
55.7775,33.0353
55.7775,33.2647
55.7672,33.3430
55.7475,33.4922
55.7053,33.6500
55.6882,33.7139
55.6003,33.9259
55.6003,33.9259
55.4856,34.1246
55.3459,34.3067
55.3459,34.3067
55.1837,34.4689
55.1837,34.4689
55.1837,34.4689
55.1515,34.4936
55.0016,34.6086
55.0016,34.6086
55.0016,34.6086
54.8029,34.7233
54.8029,34.7233
54.8029,34.7233
54.7115,34.7612
54.5909,34.8112
54.3692,34.8705
54.1417,34.9005
54.1417,34.9005
53.9123,34.9005
53.9123,34.9005
53.6848,34.8705
53.4631,34.8112
53.2511,34.7233
53.0524,34.6086
52.8703,34.4689
52.8703,34.4689
52.8703,34.4689
52.7081,34.3067
52.7081,34.3067
52.7081,34.3067
52.5684,34.1246
52.4537,33.9259
52.3658,33.7139
52.3065,33.4922
52.2765,33.2647
52.2765,33.0353
52.2765,33.0353
5.7775,33.0353
5.7775,33.2647
5.7672,33.3430
5.7475,33.4922
5.7053,33.6500
5.6882,33.7139
5.6003,33.9259
5.6003,33.9259
5.4856,34.1246
5.3459,34.3067
5.3459,34.3067
5.1837,34.4689
5.1837,34.4689
5.1837,34.4689
5.1515,34.4936
5.0016,34.6086
5.0016,34.6086
5.0016,34.6086
4.8029,34.7233
4.8029,34.7233
4.8029,34.7233
4.7115,34.7612
4.5909,34.8112
4.3692,34.8705
4.1417,34.9005
4.1417,34.9005
3.9123,34.9005
3.9123,34.9005
3.6848,34.8705
3.4631,34.8112
3.2511,34.7233
3.0524,34.6086
2.8703,34.4689
2.8703,34.4689
2.8703,34.4689
2.7081,34.3067
2.7081,34.3067
2.7081,34.3067
2.5684,34.1246
2.4537,33.9259
2.3658,33.7139
2.3065,33.4922
2.2765,33.2647
2.2765,33.0353
2.3065,32.8078
2.3658,32.5861
2.4158,32.4655
2.4537,32.3741
2.4537,32.3741
2.4537,32.3741
2.5684,32.1754
2.5684,32.1754
2.5684,32.1754
2.7081,31.9933
2.7081,31.9933
2.8703,31.8311
2.8703,31.8311
3.0524,31.6914
3.2511,31.5767
3.2511,31.5766
3.4631,31.4888
3.6848,31.4295
3.7228,31.4244
3.9123,31.3995
3.9123,31.3995
4.1417,31.3995
4.1417,31.3995
4.3583,31.4280
4.3692,31.4295
4.4629,31.4546
4.5909,31.4888
4.8029,31.5766
4.8029,31.5767
5.0016,31.6914
5.1837,31.8311
5.3459,31.9933
5.4856,32.1754
5.6003,32.3741
5.6003,32.3741
5.6882,32.5861
5.7475,32.8078
5.7475,32.8078
5.7775,33.0353
52.2765,33.0353
52.3065,32.8078
52.3658,32.5861
52.4158,32.4655
52.4537,32.3741
52.4537,32.3741
52.4537,32.3741
52.5684,32.1754
52.5684,32.1754
52.5684,32.1754
52.7081,31.9933
52.7081,31.9933
52.8703,31.8311
52.8703,31.8311
53.0524,31.6914
53.2511,31.5767
53.2511,31.5766
53.4631,31.4888
53.6848,31.4295
53.7228,31.4244
53.9123,31.3995
53.9123,31.3995
54.1417,31.3995
54.1417,31.3995
54.3583,31.4280
54.3692,31.4295
54.4629,31.4546
54.5909,31.4888
54.8029,31.5766
54.8029,31.5767
55.0016,31.6914
55.1837,31.8311
55.3459,31.9933
55.4856,32.1754
55.6003,32.3741
55.6003,32.3741
55.6882,32.5861
55.7475,32.8078
55.7475,32.8078
55.7775,33.0353
57.8528,33.0353
57.8848,32.8338
57.9504,32.6316
58.0469,32.4422
58.0470,32.4422
58.0470,32.4422
58.1719,32.2702
58.3222,32.1199
58.3222,32.1199
58.4004,32.0631
58.4431,32.0078
58.4515,31.9628
58.4515,30.8122
58.4318,30.7452
58.4152,30.7245
57.3275,29.6368
57.2661,29.6033
57.2398,29.6005
43.8916,29.6005
43.8246,29.6202
43.8176,29.6252
43.6509,29.7366
43.6509,29.7366
43.5037,29.7976
43.4688,29.8121
43.4688,29.8121
43.4688,29.8121
43.2755,29.8505
43.2755,29.8505
43.0785,29.8505
42.9437,29.8237
42.8852,29.8121
42.7031,29.7366
42.5392,29.6271
42.3999,29.4878
42.2904,29.3239
42.2149,29.1418
42.1864,28.9985
42.1765,28.9485
42.1765,28.7515
42.2149,28.5582
42.2149,28.5582
42.2149,28.5582
42.2629,28.4423
42.2904,28.3761
42.2904,28.3761
42.3999,28.2122
42.3999,28.2122
42.5392,28.0729
42.5392,28.0729
42.7031,27.9634
42.7031,27.9634
42.8852,27.8880
42.8852,27.8879
43.0785,27.8495
43.0785,27.8495
43.2755,27.8495
43.2755,27.8495
43.4688,27.8879
43.4688,27.8880
43.6509,27.9634
43.6509,27.9634
43.8198,28.0762
43.8209,28.0747
43.8773,28.0987
43.8916,28.0995
57.6759,28.0995
57.7048,28.1052
57.7048,28.1052
57.8209,28.1283
57.8209,28.1283
57.9009,28.1615
57.9009,28.1615
57.9575,28.1849
57.9575,28.1849
57.9849,28.2032
57.9849,28.2032
58.0804,28.2671
58.0804,28.2671
59.6898,29.8764
59.7093,29.8871
59.7260,29.9016
59.7393,29.9035
59.7511,29.9099
59.7732,29.9084
59.7951,29.9115
59.8074,29.9059
59.8208,29.9050
59.8386,29.8917
59.8587,29.8825
59.8660,29.8712
59.8768,29.8631
59.8845,29.8423
59.8965,29.8237
59.8996,29.8018
59.9012,29.7976
59.9015,29.7888
59.9015,29.6408
59.8818,29.5737
59.8652,29.5531
59.7749,29.4628
59.6654,29.2989
59.5899,29.1168
59.5664,28.9985
59.5515,28.9235
59.5515,28.7265
59.5899,28.5332
59.5899,28.5332
59.5899,28.5332
59.5900,28.5332
59.6654,28.3511
59.6654,28.3511
59.7749,28.1872
59.7749,28.1872
59.9142,28.0479
59.9142,28.0479
60.0781,27.9384
60.0781,27.9384
60.2602,27.8629
60.2602,27.8629
60.4535,27.8245
60.4535,27.8245
60.6505,27.8245
60.6505,27.8245
60.8438,27.8629
60.8438,27.8629
61.0259,27.9384
61.0259,27.9384
61.1898,28.0479
61.1898,28.0479
61.3291,28.1872
61.3291,28.1872
61.4386,28.3511
61.4386,28.3511
61.5140,28.5332
61.5141,28.5332
61.5525,28.7265
61.5525,28.7265
61.5525,28.9235
61.5525,28.9235
61.5525,28.9235
61.5141,29.1168
61.5140,29.1168
61.4386,29.2989
61.4386,29.2989
61.3291,29.4628
61.3291,29.4628
61.3291,29.4628
61.2388,29.5531
61.2053,29.6144
61.2025,29.6408
61.2025,31.6392
61.2111,31.6686
61.2177,31.6986
61.2214,31.7036
61.2222,31.7062
61.2388,31.7269
61.2856,31.7736
61.3113,31.7993
61.3726,31.8328
61.4208,31.8323
61.4209,31.8335
61.5259,31.8169
61.6357,31.7995
61.8483,31.7995
61.8878,31.8058
62.0582,31.8328
62.2392,31.8915
62.3090,31.8935
62.3689,31.8575
62.3997,31.7948
62.4015,31.7736
62.4015,29.7158
62.3818,29.6487
62.3652,29.6281
62.2749,29.5378
62.1654,29.3739
62.0899,29.1918
62.0515,28.9985
62.0515,28.8015
62.0515,28.8015
62.0899,28.6082
62.0899,28.6082
62.0899,28.6082
62.1107,28.5582
62.1654,28.4261
62.1654,28.4261
62.2749,28.2622
62.2749,28.2622
62.4142,28.1229
62.4142,28.1229
62.5781,28.0134
62.5781,28.0134
62.7602,27.9379
62.7602,27.9379
62.9535,27.8995
62.9535,27.8995
63.1505,27.8995
63.1505,27.8995
63.3438,27.9379
63.3438,27.9379
63.5259,28.0134
63.5259,28.0134
63.6898,28.1229
63.6898,28.1229
63.8291,28.2622
63.8291,28.2622
63.9386,28.4261
63.9386,28.4261
64.0140,28.6082
64.0141,28.6082
64.0525,28.8015
64.0525,28.8015
64.0525,28.9985
64.0525,28.9985
64.0525,28.9985
64.0141,29.1918
64.0140,29.1918
63.9386,29.3739
63.9386,29.3739
63.8291,29.5378
63.8291,29.5378
63.8291,29.5378
63.7388,29.6281
63.7053,29.6894
63.7025,29.7158
63.7025,31.5992
63.7111,31.6286
63.7177,31.6586
63.7214,31.6636
63.7222,31.6662
63.7388,31.6869
63.8513,31.7993
63.9126,31.8328
63.9608,31.8323
63.9609,31.8335
64.0659,31.8169
64.1757,31.7995
64.3883,31.7995
64.4370,31.8072
64.5982,31.8328
64.8004,31.8984
64.9898,31.9950
65.1618,32.1199
65.2757,32.2338
65.3370,32.2673
65.4067,32.2623
65.4627,32.2204
65.4796,32.1895
65.5286,32.0579
65.5286,32.0579
65.6148,31.9428
65.6148,31.9428
65.7299,31.8566
65.7299,31.8566
65.8646,31.8064
65.8646,31.8064
65.9242,31.8000
66.5720,31.8000
66.5720,32.7170
66.6290,32.6841
66.7562,32.6500
66.8878,32.6500
67.0150,32.6841
67.0720,32.7170
67.0720,31.8000
67.7198,31.8000
67.7794,31.8064
67.7794,31.8064
67.9141,31.8566
67.9141,31.8566
68.0292,31.9428
68.0292,31.9428
68.1154,32.0579
68.1154,32.0579
68.1656,32.1926
68.1656,32.1926
68.1720,32.2522
69.5265,32.2522
69.5265,27.0425
69.5068,26.9754
69.4540,26.9297
69.3849,26.9197
69.3213,26.9487
69.3022,26.9696
69.2979,26.9754
69.2221,27.0798
69.0718,27.2301
68.8998,27.3550
68.8998,27.3550
68.8998,27.3551
68.7104,27.4516
68.5082,27.5172
68.2983,27.5505
68.2983,27.5505
68.0857,27.5505
68.0857,27.5505
67.8758,27.5172
67.6736,27.4516
67.4842,27.3551
67.4347,27.3191
67.3122,27.2301
67.3122,27.2301
67.3122,27.2301
67.1619,27.0798
67.1619,27.0798
67.1619,27.0798
67.0370,26.9078
67.0370,26.9078
67.0369,26.9078
67.0325,26.8991
66.9845,26.8483
66.9167,26.8315
66.8506,26.8540
66.8115,26.8991
66.8070,26.9078
66.6821,27.0798
66.5318,27.2301
66.3598,27.3550
66.3598,27.3550
66.3598,27.3551
66.1704,27.4516
65.9682,27.5172
65.7583,27.5505
65.7583,27.5505
65.5457,27.5505
65.5457,27.5505
65.3358,27.5172
65.1336,27.4516
64.9442,27.3551
64.8947,27.3191
64.7722,27.2301
64.7722,27.2301
64.7722,27.2301
64.6219,27.0798
64.6219,27.0798
64.6219,27.0798
64.4970,26.9078
64.4970,26.9078
64.4969,26.9078
64.4925,26.8991
64.4445,26.8483
64.3767,26.8315
64.3106,26.8540
64.2715,26.8991
64.2670,26.9078
64.1421,27.0798
63.9918,27.2301
63.8198,27.3550
63.8198,27.3550
63.8198,27.3551
63.6304,27.4516
63.4282,27.5172
63.2183,27.5505
63.2183,27.5505
63.0057,27.5505
63.0057,27.5505
62.7958,27.5172
62.5936,27.4516
62.4042,27.3551
62.3547,27.3191
62.2322,27.2301
62.2322,27.2301
62.2322,27.2301
62.0819,27.0798
62.0819,27.0798
62.0819,27.0798
61.9570,26.9078
61.9570,26.9078
61.9569,26.9078
61.9525,26.8991
61.9045,26.8483
61.8367,26.8315
61.7706,26.8540
61.7315,26.8991
61.7270,26.9078
61.6021,27.0798
61.4518,27.2301
61.2798,27.3550
61.2798,27.3550
61.2798,27.3551
61.0904,27.4516
60.8882,27.5172
60.6783,27.5505
60.6783,27.5505
60.4657,27.5505
60.4657,27.5505
60.2558,27.5172
60.0536,27.4516
59.8642,27.3551
59.8147,27.3191
59.6922,27.2301
59.6922,27.2301
59.6922,27.2301
59.5419,27.0798
59.5419,27.0798
59.5419,27.0798
59.4170,26.9078
59.4170,26.9078
59.4169,26.9078
59.4125,26.8991
59.3645,26.8483
59.2967,26.8315
59.2306,26.8540
59.1915,26.8991
59.1870,26.9078
59.0621,27.0798
58.9118,27.2301
58.7398,27.3550
58.7398,27.3550
58.7398,27.3551
58.5504,27.4516
58.3482,27.5172
58.1383,27.5505
58.1383,27.5505
57.9257,27.5505
57.9257,27.5505
57.7158,27.5172
57.5136,27.4516
57.3242,27.3551
57.2747,27.3191
57.1522,27.2301
57.1522,27.2301
57.1522,27.2301
57.0019,27.0798
57.0019,27.0798
57.0019,27.0798
56.8770,26.9078
56.8770,26.9078
56.8769,26.9078
56.8725,26.8991
56.8245,26.8483
56.7567,26.8315
56.6906,26.8540
56.6515,26.8991
56.6470,26.9078
56.5221,27.0798
56.3718,27.2301
56.1998,27.3550
56.1998,27.3550
56.1998,27.3551
56.0104,27.4516
55.8082,27.5172
55.5983,27.5505
55.5983,27.5505
55.3857,27.5505
55.3857,27.5505
55.1758,27.5172
54.9736,27.4516
54.7842,27.3551
54.7347,27.3191
54.6122,27.2301
54.6122,27.2301
54.6122,27.2301
54.4619,27.0798
54.4619,27.0798
54.4619,27.0798
54.3370,26.9078
54.3370,26.9078
54.3369,26.9078
54.3325,26.8991
54.2845,26.8483
54.2167,26.8315
54.1506,26.8540
54.1115,26.8991
54.1070,26.9078
53.9821,27.0798
53.8318,27.2301
53.6598,27.3550
53.6598,27.3550
53.6598,27.3551
53.4704,27.4516
53.2682,27.5172
53.0583,27.5505
53.0583,27.5505
52.8457,27.5505
52.8457,27.5505
52.6358,27.5172
52.4336,27.4516
52.2442,27.3551
52.1947,27.3191
52.0722,27.2301
52.0722,27.2301
52.0722,27.2301
51.9219,27.0798
51.9219,27.0798
51.9219,27.0798
51.7970,26.9078
51.7970,26.9078
51.7969,26.9078
51.7925,26.8991
51.7445,26.8483
51.6767,26.8315
51.6106,26.8540
51.5715,26.8991
51.5670,26.9078
51.4421,27.0798
51.2918,27.2301
51.1198,27.3550
51.1198,27.3550
51.1198,27.3551
50.9304,27.4516
50.7282,27.5172
50.5183,27.5505
50.5183,27.5505
50.3057,27.5505
50.3057,27.5505
50.0958,27.5172
49.8936,27.4516
49.7042,27.3551
49.6547,27.3191
49.5322,27.2301
49.5322,27.2301
49.5322,27.2301
49.3819,27.0798
49.3819,27.0798
49.3819,27.0798
49.2570,26.9078
49.2570,26.9078
49.2569,26.9078
49.2525,26.8991
49.2045,26.8483
49.1367,26.8315
49.0706,26.8540
49.0315,26.8991
49.0270,26.9078
48.9021,27.0798
48.7518,27.2301
48.5798,27.3550
48.5798,27.3550
48.5798,27.3551
48.3904,27.4516
48.1882,27.5172
47.9783,27.5505
47.9783,27.5505
47.7657,27.5505
47.7657,27.5505
47.5558,27.5172
47.3536,27.4516
47.1642,27.3551
47.1147,27.3191
46.9922,27.2301
46.9922,27.2301
46.9922,27.2301
46.8419,27.0798
46.8419,27.0798
46.8419,27.0798
46.7170,26.9078
46.7170,26.9078
46.7169,26.9078
46.6204,26.7184
46.5548,26.5162
46.5256,26.3319
39.9270,26.3319
39.9270,26.5681
39.8901,26.8012
39.8171,27.0258
39.7099,27.2362
39.6497,27.3191
39.6497,27.3191
38.9508,26.6202
38.9395,26.6623
38.8671,26.7877
38.7647,26.8901
38.6393,26.9625
38.5972,26.9738
39.2961,27.6727
39.2132,27.7329
39.0028,27.8401
38.7782,27.9131
38.7782,27.9131
38.5451,27.9500
38.3089,27.9500
38.0758,27.9131
37.8512,27.8401
37.6408,27.7329
37.6408,27.7329
37.5579,27.6727
37.5579,27.6727
38.2568,26.9738
38.2147,26.9625
38.0893,26.8901
37.9869,26.7877
37.9145,26.6623
37.9032,26.6202
37.2043,27.3191
37.2043,27.3191
37.1441,27.2362
37.1441,27.2362
37.0369,27.0258
36.9639,26.8012
36.9270,26.5681
36.9270,26.3319
33.4270,26.3319
33.4270,26.5681
33.3901,26.8012
33.3171,27.0258
33.2099,27.2362
33.1497,27.3191
33.1497,27.3191
32.4508,26.6202
32.4395,26.6623
32.3671,26.7877
32.2647,26.8901
32.1393,26.9625
32.0972,26.9738
32.7961,27.6727
32.7132,27.7329
32.5028,27.8401
32.2782,27.9131
32.2782,27.9131
32.0451,27.9500
31.8089,27.9500
31.5758,27.9131
31.3512,27.8401
31.1408,27.7329
31.1408,27.7329
31.0579,27.6727
31.0579,27.6727
31.7568,26.9738
31.7147,26.9625
31.5893,26.8901
31.4869,26.7877
31.4145,26.6623
31.4032,26.6202
30.7043,27.3191
30.7043,27.3191
30.6441,27.2362
30.6441,27.2362
30.5369,27.0258
30.4639,26.8012
30.4270,26.5681
30.4270,26.3319
24.7770,26.3319
24.7770,26.5681
24.7401,26.8012
24.6671,27.0258
24.5599,27.2362
24.4997,27.3191
24.4997,27.3191
23.8008,26.6202
23.7895,26.6623
23.7171,26.7877
23.6147,26.8901
23.4893,26.9625
23.4472,26.9738
24.1461,27.6727
24.0632,27.7329
23.8528,27.8401
23.6282,27.9131
23.6282,27.9131
23.3951,27.9500
23.1589,27.9500
22.9258,27.9131
22.7012,27.8401
22.4908,27.7329
22.4908,27.7329
22.4079,27.6727
22.4079,27.6727
23.1068,26.9738
23.0647,26.9625
22.9393,26.8901
22.8369,26.7877
22.7645,26.6623
22.7532,26.6202
22.0543,27.3191
22.0543,27.3191
21.9941,27.2362
21.9941,27.2362
21.8869,27.0258
21.8139,26.8012
21.7770,26.5681
21.7770,26.3319
18.2770,26.3319
18.2770,26.5681
18.2401,26.8012
18.1671,27.0258
18.0599,27.2362
17.9997,27.3191
17.9997,27.3191
17.3008,26.6202
17.2895,26.6623
17.2171,26.7877
17.1147,26.8901
16.9893,26.9625
16.9472,26.9738
17.6461,27.6727
17.5632,27.7329
17.3528,27.8401
17.1282,27.9131
17.1282,27.9131
16.8951,27.9500
16.6589,27.9500
16.4258,27.9131
16.2012,27.8401
15.9908,27.7329
15.9908,27.7329
15.9079,27.6727
15.9079,27.6727
16.6068,26.9738
16.5647,26.9625
16.4393,26.8901
16.3369,26.7877
16.2645,26.6623
16.2532,26.6202
15.5543,27.3191
15.5543,27.3191
15.4941,27.2362
15.4941,27.2362
15.3869,27.0258
15.3139,26.8012
15.2770,26.5681
15.2770,26.3319
15.3139,26.0988
15.3869,25.8742
15.4941,25.6638
15.5543,25.5809
15.5543,25.5809
16.2532,26.2798
16.2645,26.2377
16.3369,26.1123
16.4393,26.0099
16.5647,25.9375
16.6068,25.9262
15.9079,25.2273
15.9079,25.2273
15.9908,25.1671
16.2012,25.0599
16.4258,24.9869
16.4258,24.9869
16.6589,24.9500
16.8951,24.9500
17.1282,24.9869
17.3528,25.0599
17.5632,25.1671
17.6461,25.2273
16.9472,25.9262
16.9893,25.9375
17.1147,26.0099
17.2171,26.1123
17.2895,26.2377
17.3008,26.2798
17.9997,25.5809
18.0599,25.6638
18.1671,25.8742
18.2401,26.0988
18.2770,26.3319
21.7770,26.3319
21.8139,26.0988
21.8869,25.8742
21.9941,25.6638
22.0543,25.5809
22.0543,25.5809
22.7532,26.2798
22.7645,26.2377
22.8369,26.1123
22.9393,26.0099
23.0647,25.9375
23.1068,25.9262
22.4079,25.2273
22.4079,25.2273
22.4908,25.1671
22.7012,25.0599
22.9258,24.9869
22.9258,24.9869
23.1589,24.9500
23.3951,24.9500
23.6282,24.9869
23.8528,25.0599
24.0632,25.1671
24.1461,25.2273
23.4472,25.9262
23.4893,25.9375
23.6147,26.0099
23.7171,26.1123
23.7895,26.2377
23.8008,26.2798
24.4997,25.5809
24.5599,25.6638
24.6671,25.8742
24.7401,26.0988
24.7770,26.3319
30.4270,26.3319
30.4639,26.0988
30.5369,25.8742
30.6441,25.6638
30.7043,25.5809
30.7043,25.5809
31.4032,26.2798
31.4145,26.2377
31.4869,26.1123
31.5893,26.0099
31.7147,25.9375
31.7568,25.9262
31.0579,25.2273
31.0579,25.2273
31.1408,25.1671
31.3512,25.0599
31.5758,24.9869
31.5758,24.9869
31.8089,24.9500
32.0451,24.9500
32.2782,24.9869
32.5028,25.0599
32.7132,25.1671
32.7961,25.2273
32.0972,25.9262
32.1393,25.9375
32.2647,26.0099
32.3671,26.1123
32.4395,26.2377
32.4508,26.2798
33.1497,25.5809
33.2099,25.6638
33.3171,25.8742
33.3901,26.0988
33.4270,26.3319
36.9270,26.3319
36.9639,26.0988
37.0369,25.8742
37.1441,25.6638
37.2043,25.5809
37.2043,25.5809
37.9032,26.2798
37.9145,26.2377
37.9869,26.1123
38.0893,26.0099
38.2147,25.9375
38.2568,25.9262
37.5579,25.2273
37.5579,25.2273
37.6408,25.1671
37.8512,25.0599
38.0758,24.9869
38.0758,24.9869
38.3089,24.9500
38.5451,24.9500
38.7782,24.9869
39.0028,25.0599
39.2132,25.1671
39.2961,25.2273
38.5972,25.9262
38.6393,25.9375
38.7647,26.0099
38.8671,26.1123
38.9395,26.2377
38.9508,26.2798
39.6497,25.5809
39.7099,25.6638
39.8171,25.8742
39.8901,26.0988
39.9270,26.3319
46.5256,26.3319
46.5215,26.3063
46.5215,26.0937
46.5548,25.8838
46.6204,25.6816
46.7169,25.4922
46.7170,25.4922
46.7170,25.4922
46.8221,25.3475
46.8419,25.3202
46.9922,25.1699
47.1642,25.0450
47.3536,24.9484
47.3536,24.9484
47.3536,24.9484
47.5558,24.8828
47.5558,24.8828
47.5558,24.8828
47.7170,24.8572
47.7657,24.8495
47.9783,24.8495
48.0270,24.8572
48.1882,24.8828
48.3904,24.9484
48.5798,25.0450
48.7518,25.1699
48.9021,25.3202
49.0271,25.4922
49.0315,25.5009
49.0795,25.5517
49.1473,25.5685
49.2134,25.5460
49.2525,25.5009
49.2569,25.4922
49.3819,25.3202
49.5322,25.1699
49.7042,25.0450
49.8936,24.9484
49.8936,24.9484
49.8936,24.9484
50.0958,24.8828
50.0958,24.8828
50.0958,24.8828
50.2570,24.8572
50.3057,24.8495
50.5183,24.8495
50.5670,24.8572
50.7282,24.8828
50.9304,24.9484
51.1198,25.0450
51.2918,25.1699
51.4421,25.3202
51.5671,25.4922
51.5715,25.5009
51.6195,25.5517
51.6873,25.5685
51.7534,25.5460
51.7925,25.5009
51.7969,25.4922
51.9219,25.3202
52.0722,25.1699
52.2442,25.0450
52.4336,24.9484
52.4336,24.9484
52.4336,24.9484
52.6358,24.8828
52.6358,24.8828
52.6358,24.8828
52.7970,24.8572
52.8457,24.8495
53.0583,24.8495
53.1070,24.8572
53.2682,24.8828
53.4704,24.9484
53.6598,25.0450
53.8318,25.1699
53.9821,25.3202
54.1071,25.4922
54.1115,25.5009
54.1595,25.5517
54.2273,25.5685
54.2934,25.5460
54.3325,25.5009
54.3369,25.4922
54.4619,25.3202
54.6122,25.1699
54.7842,25.0450
54.9736,24.9484
54.9736,24.9484
54.9736,24.9484
55.1758,24.8828
55.1758,24.8828
55.1758,24.8828
55.3370,24.8572
55.3857,24.8495
55.5983,24.8495
55.6470,24.8572
55.8082,24.8828
56.0104,24.9484
56.1998,25.0450
56.3718,25.1699
56.5221,25.3202
56.6471,25.4922
56.6515,25.5009
56.6995,25.5517
56.7673,25.5685
56.8334,25.5460
56.8725,25.5009
56.8770,25.4922
57.0019,25.3202
57.1522,25.1699
57.3242,25.0450
57.5136,24.9484
57.5136,24.9484
57.5136,24.9484
57.7158,24.8828
57.7158,24.8828
57.7158,24.8828
57.8770,24.8572
57.9257,24.8495
58.1383,24.8495
58.1870,24.8572
58.3482,24.8828
58.5504,24.9484
58.7398,25.0450
58.9118,25.1699
59.0621,25.3202
59.1871,25.4922
59.1915,25.5009
59.2395,25.5517
59.3073,25.5685
59.3734,25.5460
59.4125,25.5009
59.4169,25.4922
59.5419,25.3202
59.6922,25.1699
59.8642,25.0450
60.0536,24.9484
60.0536,24.9484
60.0536,24.9484
60.2558,24.8828
60.2558,24.8828
60.2558,24.8828
60.4170,24.8572
60.4657,24.8495
60.6783,24.8495
60.7270,24.8572
60.8882,24.8828
61.0904,24.9484
61.2798,25.0450
61.4518,25.1699
61.6021,25.3202
61.7271,25.4922
61.7315,25.5009
61.7795,25.5517
61.8473,25.5685
61.9134,25.5460
61.9525,25.5009
61.9569,25.4922
62.0819,25.3202
62.2322,25.1699
62.4042,25.0450
62.5936,24.9484
62.5936,24.9484
62.5936,24.9484
62.7958,24.8828
62.7958,24.8828
62.7958,24.8828
62.9570,24.8572
63.0057,24.8495
63.2183,24.8495
63.2670,24.8572
63.4282,24.8828
63.6304,24.9484
63.8198,25.0450
63.9918,25.1699
64.1421,25.3202
64.2671,25.4922
64.2715,25.5009
64.3195,25.5517
64.3873,25.5685
64.4534,25.5460
64.4925,25.5009
64.4969,25.4922
64.6219,25.3202
64.7722,25.1699
64.9442,25.0450
65.1336,24.9484
65.1336,24.9484
65.1336,24.9484
65.3358,24.8828
65.3358,24.8828
65.3358,24.8828
65.4970,24.8572
65.5457,24.8495
65.7583,24.8495
65.8070,24.8572
65.9682,24.8828
66.1704,24.9484
66.3598,25.0450
66.5318,25.1699
66.6821,25.3202
66.8071,25.4922
66.8115,25.5009
66.8595,25.5517
66.9273,25.5685
66.9934,25.5460
67.0325,25.5009
67.0369,25.4922
67.1619,25.3202
67.3122,25.1699
67.4842,25.0450
67.6736,24.9484
67.6736,24.9484
67.6736,24.9484
67.8758,24.8828
67.8758,24.8828
67.8758,24.8828
68.0370,24.8572
68.0857,24.8495
68.2983,24.8495
68.3470,24.8572
68.5082,24.8828
68.7104,24.9484
68.8998,25.0450
69.0718,25.1699
69.2221,25.3202
69.2221,25.3202
69.3022,25.4304
69.3575,25.4731
69.4271,25.4791
69.4889,25.4465
69.5233,25.3856
69.5265,25.3575
69.5265,21.8319
39.9275,21.8319
39.9275,22.0681
39.8906,22.3014
39.8176,22.5260
39.7869,22.5862
39.7103,22.7364
39.5715,22.9275
39.4045,23.0945
39.2134,23.2333
39.1140,23.2840
39.0030,23.3406
39.0030,23.3406
39.0030,23.3406
38.8826,23.3797
38.7784,23.4136
38.5451,23.4505
38.5451,23.4505
38.3089,23.4505
38.0756,23.4136
37.8510,23.3406
37.6406,23.2333
37.4495,23.0945
37.2825,22.9275
37.1437,22.7364
37.0364,22.5260
36.9634,22.3014
36.9265,22.0681
36.9265,21.8319
33.4275,21.8319
33.4275,22.0681
33.3906,22.3014
33.3176,22.5260
33.2869,22.5862
33.2103,22.7364
33.0715,22.9275
32.9045,23.0945
32.7134,23.2333
32.6140,23.2840
32.5030,23.3406
32.5030,23.3406
32.5030,23.3406
32.3826,23.3797
32.2784,23.4136
32.0451,23.4505
32.0451,23.4505
31.8089,23.4505
31.5756,23.4136
31.3510,23.3406
31.1406,23.2333
30.9495,23.0945
30.7825,22.9275
30.6437,22.7364
30.5364,22.5260
30.4634,22.3014
30.4265,22.0681
30.4265,21.8319
24.7775,21.8319
24.7775,22.0681
24.7406,22.3014
24.6676,22.5260
24.6369,22.5862
24.5603,22.7364
24.4215,22.9275
24.2545,23.0945
24.0634,23.2333
23.9640,23.2840
23.8530,23.3406
23.8530,23.3406
23.8530,23.3406
23.7326,23.3797
23.6284,23.4136
23.3951,23.4505
23.3951,23.4505
23.1589,23.4505
22.9256,23.4136
22.7010,23.3406
22.4906,23.2333
22.2995,23.0945
22.1325,22.9275
21.9937,22.7364
21.8864,22.5260
21.8134,22.3014
21.7765,22.0681
21.7765,21.8319
18.2775,21.8319
18.2775,22.0681
18.2406,22.3014
18.1676,22.5260
18.1369,22.5862
18.0603,22.7364
17.9215,22.9275
17.7545,23.0945
17.5634,23.2333
17.4640,23.2840
17.3530,23.3406
17.3530,23.3406
17.3530,23.3406
17.2326,23.3797
17.1284,23.4136
16.8951,23.4505
16.8951,23.4505
16.6589,23.4505
16.4256,23.4136
16.2010,23.3406
15.9906,23.2333
15.7995,23.0945
15.6325,22.9275
15.4937,22.7364
15.3864,22.5260
15.3134,22.3014
15.2765,22.0681
15.2765,21.8319
15.3134,21.5986
15.3812,21.3902
15.3864,21.3740
15.3864,21.3740
15.3864,21.3740
15.4430,21.2630
15.4937,21.1636
15.6325,20.9725
15.7995,20.8055
15.9906,20.6667
16.2010,20.5594
16.4256,20.4864
16.6589,20.4495
16.6589,20.4495
16.8951,20.4495
16.8951,20.4495
17.1284,20.4864
17.3530,20.5594
17.5634,20.6667
17.6724,20.7459
17.7545,20.8055
17.7545,20.8055
17.7545,20.8055
17.9215,20.9725
17.9215,20.9725
17.9215,20.9725
17.9549,21.0184
18.0603,21.1636
18.1676,21.3740
18.2406,21.5986
18.2775,21.8319
21.7765,21.8319
21.8134,21.5986
21.8812,21.3902
21.8864,21.3740
21.8864,21.3740
21.8864,21.3740
21.9430,21.2630
21.9937,21.1636
22.1325,20.9725
22.2995,20.8055
22.4906,20.6667
22.7010,20.5594
22.9256,20.4864
23.1589,20.4495
23.1589,20.4495
23.3951,20.4495
23.3951,20.4495
23.6284,20.4864
23.8530,20.5594
24.0634,20.6667
24.1724,20.7459
24.2545,20.8055
24.2545,20.8055
24.2545,20.8055
24.4215,20.9725
24.4215,20.9725
24.4215,20.9725
24.4549,21.0184
24.5603,21.1636
24.6676,21.3740
24.7406,21.5986
24.7775,21.8319
30.4265,21.8319
30.4634,21.5986
30.5312,21.3902
30.5364,21.3740
30.5364,21.3740
30.5364,21.3740
30.5930,21.2630
30.6437,21.1636
30.7825,20.9725
30.9495,20.8055
31.1406,20.6667
31.3510,20.5594
31.5756,20.4864
31.8089,20.4495
31.8089,20.4495
32.0451,20.4495
32.0451,20.4495
32.2784,20.4864
32.5030,20.5594
32.7134,20.6667
32.8224,20.7459
32.9045,20.8055
32.9045,20.8055
32.9045,20.8055
33.0715,20.9725
33.0715,20.9725
33.0715,20.9725
33.1049,21.0184
33.2103,21.1636
33.3176,21.3740
33.3906,21.5986
33.4275,21.8319
36.9265,21.8319
36.9634,21.5986
37.0312,21.3902
37.0364,21.3740
37.0364,21.3740
37.0364,21.3740
37.0930,21.2630
37.1437,21.1636
37.2825,20.9725
37.4495,20.8055
37.6406,20.6667
37.8510,20.5594
38.0756,20.4864
38.3089,20.4495
38.3089,20.4495
38.5451,20.4495
38.5451,20.4495
38.7784,20.4864
39.0030,20.5594
39.2134,20.6667
39.3224,20.7459
39.4045,20.8055
39.4045,20.8055
39.4045,20.8055
39.5715,20.9725
39.5715,20.9725
39.5715,20.9725
39.6049,21.0184
39.7103,21.1636
39.8176,21.3740
39.8906,21.5986
39.9275,21.8319
69.5265,21.8319
69.5265,11.5425
69.5068,11.4754
69.4540,11.4297
69.3849,11.4197
69.3213,11.4487
69.3022,11.4696
69.2979,11.4754
69.2221,11.5798
69.0718,11.7301
68.8998,11.8550
68.8998,11.8550
68.8998,11.8551
68.7104,11.9516
68.5082,12.0172
68.2983,12.0505
68.2983,12.0505
68.0857,12.0505
68.0857,12.0505
67.8758,12.0172
67.6736,11.9516
67.4842,11.8551
67.4398,11.8228
67.3122,11.7301
67.3122,11.7301
67.3122,11.7301
67.1619,11.5798
67.1619,11.5798
67.1619,11.5798
67.0861,11.4754
67.0369,11.4078
67.0322,11.3985
66.9842,11.3477
66.9164,11.3309
66.8503,11.3534
66.8112,11.3985
66.8066,11.4076
66.6817,11.5795
66.6817,11.5795
66.5315,11.7297
66.5315,11.7297
66.3596,11.8546
66.1702,11.9511
65.9681,12.0168
65.9020,12.0272
65.9020,11.1330
65.8450,11.1659
65.7178,11.2000
65.5862,11.2000
65.4590,11.1659
65.4020,11.1330
65.4020,12.0272
65.3359,12.0168
65.3359,12.0168
65.1338,11.9511
64.9444,11.8546
64.7725,11.7297
64.7725,11.7297
64.6223,11.5795
64.6223,11.5795
64.4974,11.4076
64.4928,11.3985
64.4448,11.3477
64.3770,11.3309
64.3108,11.3534
64.2718,11.3985
64.2671,11.4078
64.1421,11.5798
63.9918,11.7301
63.8198,11.8550
63.8198,11.8550
63.8198,11.8551
63.6304,11.9516
63.4282,12.0172
63.2183,12.0505
63.2183,12.0505
63.0057,12.0505
63.0057,12.0505
62.7958,12.0172
62.5936,11.9516
62.4042,11.8551
62.3598,11.8228
62.2322,11.7301
62.2322,11.7301
62.2322,11.7301
62.0819,11.5798
62.0819,11.5798
62.0819,11.5798
61.9570,11.4078
61.9570,11.4078
61.9569,11.4078
61.9525,11.3991
61.9045,11.3483
61.8367,11.3315
61.7706,11.3540
61.7315,11.3991
61.7274,11.4071
61.7270,11.4078
61.6021,11.5798
61.4518,11.7301
61.2798,11.8550
61.2798,11.8550
61.2798,11.8551
61.0904,11.9516
60.8882,12.0172
60.6783,12.0505
60.6783,12.0505
60.4657,12.0505
60.4657,12.0505
60.2558,12.0172
60.0536,11.9516
59.8642,11.8551
59.8198,11.8228
59.6922,11.7301
59.6922,11.7301
59.6922,11.7301
59.5419,11.5798
59.5419,11.5798
59.5419,11.5798
59.4170,11.4078
59.4170,11.4078
59.4169,11.4078
59.4125,11.3991
59.3645,11.3483
59.2967,11.3315
59.2306,11.3540
59.1915,11.3991
59.1874,11.4071
59.1870,11.4078
59.0621,11.5798
58.9118,11.7301
58.7398,11.8550
58.7398,11.8550
58.7398,11.8551
58.5504,11.9516
58.3482,12.0172
58.1383,12.0505
58.1383,12.0505
57.9257,12.0505
57.9257,12.0505
57.7158,12.0172
57.5136,11.9516
57.3242,11.8551
57.2798,11.8228
57.1522,11.7301
57.1522,11.7301
57.1522,11.7301
57.0019,11.5798
57.0019,11.5798
57.0019,11.5798
56.8770,11.4078
56.8770,11.4078
56.8769,11.4078
56.8725,11.3991
56.8245,11.3483
56.7567,11.3315
56.6906,11.3540
56.6515,11.3991
56.6474,11.4071
56.6470,11.4078
56.5221,11.5798
56.3718,11.7301
56.1998,11.8550
56.1998,11.8550
56.1998,11.8551
56.0104,11.9516
55.8082,12.0172
55.5983,12.0505
55.5983,12.0505
55.3857,12.0505
55.3857,12.0505
55.1758,12.0172
54.9736,11.9516
54.7842,11.8551
54.7398,11.8228
54.6122,11.7301
54.6122,11.7301
54.6122,11.7301
54.4619,11.5798
54.4619,11.5798
54.4619,11.5798
54.3370,11.4078
54.3370,11.4078
54.3369,11.4078
54.3325,11.3991
54.2845,11.3483
54.2167,11.3315
54.1506,11.3540
54.1115,11.3991
54.1074,11.4071
54.1070,11.4078
53.9821,11.5798
53.8318,11.7301
53.6598,11.8550
53.6598,11.8550
53.6598,11.8551
53.4704,11.9516
53.2682,12.0172
53.0583,12.0505
53.0583,12.0505
52.8457,12.0505
52.8457,12.0505
52.7503,12.0354
52.6810,12.0443
52.6432,12.0702
49.1580,15.5554
49.1580,15.5554
49.0534,15.6599
49.0534,15.6600
48.9305,15.7421
48.9305,15.7421
48.7939,15.7987
48.7939,15.7987
48.7939,15.7987
48.7939,15.7987
48.6489,15.8275
48.6489,15.8275
36.0801,15.8275
35.9672,15.8050
35.9351,15.7987
35.7985,15.7421
35.7493,15.7092
35.6756,15.6600
33.2554,13.2398
23.7775,13.2398
23.7775,13.4602
23.7430,13.6780
23.6749,13.8876
23.6749,13.8876
23.5748,14.0840
23.4452,14.2624
23.4452,14.2624
23.2894,14.4182
23.2894,14.4182
23.1338,14.5313
23.1110,14.5478
22.9826,14.6132
22.9146,14.6479
22.9146,14.6479
22.8098,14.6820
22.7050,14.7160
22.4872,14.7505
22.4872,14.7505
22.2668,14.7505
22.2668,14.7505
22.0490,14.7160
21.8394,14.6479
21.6430,14.5478
21.4646,14.4182
21.3088,14.2624
21.2773,14.2191
21.2220,14.1764
21.1524,14.1704
21.0906,14.2031
21.0767,14.2191
21.0452,14.2624
20.8894,14.4182
20.8894,14.4182
20.7338,14.5313
20.7110,14.5478
20.5826,14.6132
20.5146,14.6479
20.5146,14.6479
20.4098,14.6820
20.3050,14.7160
20.0872,14.7505
20.0872,14.7505
19.8668,14.7505
19.8668,14.7505
19.6490,14.7160
19.4394,14.6479
19.2430,14.5478
19.0646,14.4182
18.9088,14.2624
18.8773,14.2191
18.8220,14.1764
18.7524,14.1704
18.6906,14.2031
18.6767,14.2191
18.6452,14.2624
18.4894,14.4182
18.4894,14.4182
18.3338,14.5313
18.3110,14.5478
18.1826,14.6132
18.1146,14.6479
18.1146,14.6479
18.0098,14.6820
17.9050,14.7160
17.6872,14.7505
17.6872,14.7505
17.4668,14.7505
17.4668,14.7505
17.2490,14.7160
17.0394,14.6479
16.8430,14.5478
16.6646,14.4182
16.5088,14.2624
16.3792,14.0840
16.2791,13.8876
16.2110,13.6780
16.1765,13.4602
16.1765,13.2398
16.2110,13.0220
16.2791,12.8124
16.2791,12.8124
16.3558,12.6618
16.3792,12.6160
16.4456,12.5245
16.5088,12.4376
16.5088,12.4376
16.6646,12.2818
16.6646,12.2818
16.8430,12.1522
16.8430,12.1522
16.8430,12.1522
16.9271,12.1093
16.9271,12.1093
17.0394,12.0521
17.0394,12.0521
17.1883,12.0037
5.3775,12.0037
5.3775,12.2163
5.3442,12.4262
5.2812,12.6203
5.2786,12.6284
5.1820,12.8178
5.0571,12.9898
4.9068,13.1401
4.7348,13.2650
4.7261,13.2695
4.6753,13.3175
4.6585,13.3853
4.6810,13.4514
4.7261,13.4905
4.7348,13.4949
4.9068,13.6199
5.0571,13.7702
5.1820,13.9422
5.2786,14.1316
5.3442,14.3338
5.3775,14.5437
5.3775,14.7563
5.3442,14.9662
5.2786,15.1684
5.1820,15.3578
5.0571,15.5298
4.9068,15.6801
4.7348,15.8050
4.7261,15.8095
4.6753,15.8575
4.6585,15.9253
4.6810,15.9914
4.7261,16.0305
4.7348,16.0349
4.9068,16.1599
5.0571,16.3102
5.1820,16.4822
5.2786,16.6716
5.3442,16.8738
5.3775,17.0837
5.3775,17.2963
5.3442,17.5062
5.2786,17.7084
5.1820,17.8978
5.0571,18.0698
4.9068,18.2201
4.7348,18.3451
4.7261,18.3495
4.6753,18.3975
4.6585,18.4653
4.6810,18.5314
4.7261,18.5705
4.7348,18.5749
4.9068,18.6999
5.0571,18.8502
5.1820,19.0222
5.2786,19.2116
5.3442,19.4138
5.3775,19.6237
5.3775,19.8363
5.3442,20.0462
5.2786,20.2484
5.1820,20.4378
5.0571,20.6098
4.9068,20.7601
4.7348,20.8850
4.7261,20.8895
4.6753,20.9375
4.6585,21.0053
4.6810,21.0714
4.7261,21.1105
4.7348,21.1149
4.9068,21.2399
5.0571,21.3902
5.1820,21.5622
5.2786,21.7516
5.3442,21.9538
5.3775,22.1637
5.3775,22.3763
5.3442,22.5862
5.2786,22.7884
5.1820,22.9778
5.0571,23.1498
4.9068,23.3001
4.7348,23.4250
4.7348,23.4250
4.7348,23.4251
4.7255,23.4298
4.6747,23.4778
4.6579,23.5456
4.6804,23.6117
4.7255,23.6508
4.7346,23.6554
4.7346,23.6554
4.7887,23.6947
4.7887,23.6947
4.1564,24.3270
4.2200,24.3441
4.3340,24.4099
4.4271,24.5030
4.4929,24.6170
4.5100,24.6806
5.1423,24.0483
5.1423,24.0483
5.1816,24.1024
5.2781,24.2918
5.3438,24.4939
5.3438,24.4939
5.3770,24.7038
5.3770,24.9162
5.3438,25.1261
5.3438,25.1261
5.2781,25.3282
5.1816,25.5175
5.1423,25.5717
4.5100,24.9394
4.4929,25.0030
4.4271,25.1170
4.3340,25.2101
4.2200,25.2759
4.1564,25.2930
4.8266,25.9632
4.8880,25.9967
4.9143,25.9995
4.9249,25.9995
4.9249,25.9995
4.9845,26.0059
5.1193,26.0562
5.1193,26.0562
5.2345,26.1425
5.2345,26.1425
5.3208,26.2577
5.3208,26.2577
5.3711,26.3925
5.3775,26.4521
5.3775,26.4521
5.3775,26.4521
5.3775,28.2479
5.3775,28.2479
5.3711,28.3075
5.3208,28.4423
5.3208,28.4423
5.2345,28.5575
5.2345,28.5575
5.1193,28.6438
5.1193,28.6438
4.9845,28.6941
4.9845,28.6941
4.9776,28.6948
4.9249,28.7005
3.1291,28.7005
3.0695,28.6941
2.9347,28.6438
2.8195,28.5575
2.7332,28.4423
2.6829,28.3075
2.6765,28.2479
2.6765,26.4521
2.6829,26.3925
2.7151,26.3063
2.7332,26.2577
2.7332,26.2577
2.8195,26.1425
2.8195,26.1425
2.9347,26.0562
2.9347,26.0562
3.0695,26.0059
3.0695,26.0059
3.1291,25.9995
3.1291,25.9995
3.1291,25.9995
3.1291,25.9995
3.1397,25.9995
3.2067,25.9798
3.2274,25.9632
3.8976,25.2930
3.8340,25.2759
3.7200,25.2101
3.6269,25.1170
3.5611,25.0030
3.5440,24.9394
2.9117,25.5717
2.9117,25.5717
2.8724,25.5176
2.7759,25.3282
2.7102,25.1261
2.7102,25.1261
2.6770,24.9162
2.6770,24.7038
2.7102,24.4939
2.7102,24.4939
2.7759,24.2918
2.8724,24.1024
2.9117,24.0483
2.9117,24.0483
3.5440,24.6806
3.5611,24.6170
3.6269,24.5030
3.7200,24.4099
3.8340,24.3441
3.8976,24.3270
3.2653,23.6947
3.3195,23.6554
3.3195,23.6554
3.3285,23.6508
3.3793,23.6028
3.3961,23.5350
3.3735,23.4688
3.3285,23.4298
3.3192,23.4251
3.2029,23.3406
3.1472,23.3001
3.1472,23.3001
3.1472,23.3001
2.9969,23.1498
2.9969,23.1498
2.9969,23.1498
2.8720,22.9778
2.8720,22.9778
2.8719,22.9778
2.7754,22.7884
2.7098,22.5862
2.6765,22.3763
2.6765,22.1637
2.7098,21.9538
2.7754,21.7516
2.8719,21.5622
2.8720,21.5622
2.8720,21.5622
2.9969,21.3902
3.1472,21.2399
3.3192,21.1150
3.3199,21.1146
3.3279,21.1105
3.3787,21.0625
3.3955,20.9947
3.3730,20.9286
3.3279,20.8895
3.3192,20.8851
3.2097,20.8055
3.1472,20.7601
3.1472,20.7601
3.1472,20.7601
2.9969,20.6098
2.9969,20.6098
2.9969,20.6098
2.8720,20.4378
2.8720,20.4378
2.8719,20.4378
2.7754,20.2484
2.7098,20.0462
2.6765,19.8363
2.6765,19.6237
2.7098,19.4138
2.7754,19.2116
2.8719,19.0222
2.8720,19.0222
2.8720,19.0222
2.9969,18.8502
3.1472,18.6999
3.3192,18.5750
3.3199,18.5746
3.3279,18.5705
3.3787,18.5225
3.3955,18.4547
3.3730,18.3886
3.3279,18.3495
3.3192,18.3451
3.2972,18.3291
3.1472,18.2201
3.1472,18.2201
3.1472,18.2201
2.9969,18.0698
2.9969,18.0698
2.9969,18.0698
2.8720,17.8978
2.8720,17.8978
2.8719,17.8978
2.7754,17.7084
2.7098,17.5062
2.6765,17.2963
2.6765,17.0837
2.7098,16.8738
2.7754,16.6716
2.8719,16.4822
2.8720,16.4822
2.8720,16.4822
2.9969,16.3102
3.1472,16.1599
3.3192,16.0350
3.3199,16.0346
3.3279,16.0305
3.3787,15.9825
3.3955,15.9147
3.3730,15.8486
3.3279,15.8095
3.3192,15.8051
3.2972,15.7891
3.1472,15.6801
3.1472,15.6801
3.1472,15.6801
2.9969,15.5298
2.9969,15.5298
2.9969,15.5298
2.8720,15.3578
2.8720,15.3578
2.8719,15.3578
2.7754,15.1684
2.7098,14.9662
2.6765,14.7563
2.6765,14.5437
2.7098,14.3338
2.7754,14.1316
2.8719,13.9422
2.8720,13.9422
2.8720,13.9422
2.9969,13.7702
3.1472,13.6199
3.3192,13.4950
3.3199,13.4946
3.3279,13.4905
3.3787,13.4425
3.3955,13.3747
3.3730,13.3086
3.3279,13.2695
3.3192,13.2651
3.2576,13.2203
3.1472,13.1401
3.1472,13.1401
3.1472,13.1401
2.9969,12.9898
2.9969,12.9898
2.9969,12.9898
2.8720,12.8178
2.8720,12.8178
2.8719,12.8178
2.7754,12.6284
2.7098,12.4262
2.6765,12.2163
2.6765,12.0037
2.7098,11.7938
2.7754,11.5916
2.8719,11.4022
2.8720,11.4022
2.8720,11.4022
2.9969,11.2302
3.1472,11.0799
3.3192,10.9549
3.3285,10.9502
3.3793,10.9022
3.3961,10.8344
3.3736,10.7683
3.3285,10.7292
3.3194,10.7246
3.2653,10.6853
3.2653,10.6853
3.8976,10.0530
3.8340,10.0359
3.7200,9.9701
3.6269,9.8770
3.5611,9.7630
3.5440,9.6994
2.9117,10.3317
2.9117,10.3317
2.8724,10.2776
2.7759,10.0882
2.7102,9.8861
2.7102,9.8861
2.6770,9.6762
2.6770,9.4638
2.7102,9.2539
2.7102,9.2539
2.7759,9.0518
2.8724,8.8624
2.9117,8.8083
2.9117,8.8083
3.5440,9.4406
3.5611,9.3770
3.6269,9.2630
3.7200,9.1699
3.8340,9.1041
3.8976,9.0870
3.2653,8.4547
3.3194,8.4154
3.5088,8.3189
3.7109,8.2532
3.9208,8.2200
4.1332,8.2200
4.3431,8.2532
4.3431,8.2532
4.5452,8.3189
4.7346,8.4154
4.7887,8.4547
4.7887,8.4547
4.1564,9.0870
4.2200,9.1041
4.3340,9.1699
4.4271,9.2630
4.4929,9.3770
4.5100,9.4406
5.1423,8.8083
5.1423,8.8083
5.1816,8.8624
5.2781,9.0518
5.3438,9.2539
5.3438,9.2539
5.3770,9.4638
5.3770,9.6762
5.3438,9.8861
5.3438,9.8861
5.2781,10.0882
5.1816,10.2775
5.1423,10.3317
4.5100,9.6994
4.4929,9.7630
4.4271,9.8770
4.3340,9.9701
4.2200,10.0359
4.1564,10.0530
4.7887,10.6853
4.7887,10.6853
4.7345,10.7246
4.7345,10.7246
4.7255,10.7292
4.6747,10.7772
4.6579,10.8450
4.6804,10.9112
4.7255,10.9502
4.7348,10.9549
4.9068,11.0799
5.0571,11.2302
5.1820,11.4022
5.2786,11.5916
5.3442,11.7938
5.3692,11.9511
5.3775,12.0037
17.1883,12.0037
17.2490,11.9840
17.3579,11.9667
17.4668,11.9495
17.6872,11.9495
17.7002,11.9516
17.9050,11.9840
18.1146,12.0521
18.1146,12.0521
18.3110,12.1522
18.4894,12.2818
18.4894,12.2818
18.6452,12.4376
18.6452,12.4376
18.6767,12.4809
18.7320,12.5236
18.8016,12.5296
18.8634,12.4969
18.8773,12.4809
18.9088,12.4376
18.9088,12.4376
19.0646,12.2818
19.0646,12.2818
19.2430,12.1522
19.2430,12.1522
19.2430,12.1522
19.3059,12.1201
19.4394,12.0521
19.4394,12.0521
19.6490,11.9840
19.7579,11.9667
19.8668,11.9495
20.0872,11.9495
20.1002,11.9516
20.3050,11.9840
20.5146,12.0521
20.5146,12.0521
20.7110,12.1522
20.8894,12.2818
20.8894,12.2818
21.0452,12.4376
21.0452,12.4376
21.0767,12.4809
21.1320,12.5236
21.2016,12.5296
21.2634,12.4969
21.2773,12.4809
21.3088,12.4376
21.3088,12.4376
21.4646,12.2818
21.4646,12.2818
21.6430,12.1522
21.6430,12.1522
21.6430,12.1522
21.7059,12.1201
21.8394,12.0521
21.8394,12.0521
22.0490,11.9840
22.1579,11.9667
22.2668,11.9495
22.4872,11.9495
22.5002,11.9516
22.7050,11.9840
22.9146,12.0521
22.9146,12.0521
23.1110,12.1522
23.2894,12.2818
23.2894,12.2818
23.4452,12.4376
23.4452,12.4376
23.5748,12.6160
23.6749,12.8124
23.6749,12.8124
23.7430,13.0220
23.7775,13.2398
33.2554,13.2398
32.6775,12.6618
32.6161,12.6283
32.5898,12.6255
32.0363,12.6255
32.0363,12.6255
31.9994,12.6226
31.9994,12.6226
31.9994,12.6226
31.9578,12.6105
31.8416,12.5767
31.7001,12.4931
31.5839,12.3769
31.5003,12.2354
31.4544,12.0776
31.4515,12.0407
31.4515,11.2093
31.4544,11.1724
31.4754,11.1001
31.5003,11.0146
31.5003,11.0146
31.5003,11.0146
31.5839,10.8731
31.5839,10.8731
31.5839,10.8731
31.7001,10.7569
31.7001,10.7569
31.7783,10.7107
31.8416,10.6733
31.8416,10.6733
31.8416,10.6733
31.8416,10.6733
31.9940,10.6290
31.9940,10.6290
31.9994,10.6274
31.9994,10.6274
31.9994,10.6274
32.0363,10.6245
32.0363,10.6245
33.3677,10.6245
33.3677,10.6245
33.4046,10.6274
33.4046,10.6274
33.5624,10.6733
33.5624,10.6733
33.7039,10.7569
33.7039,10.7569
33.8201,10.8731
33.8201,10.8731
33.8453,10.9157
33.8963,10.9634
33.9651,10.9759
34.0297,10.9493
34.0587,10.9157
34.0614,10.9112
34.0839,10.8731
34.0839,10.8731
34.0839,10.8731
34.2001,10.7569
34.2001,10.7569
34.2783,10.7107
34.3416,10.6733
34.3416,10.6733
34.3416,10.6733
34.3416,10.6733
34.4994,10.6274
34.4994,10.6274
34.5363,10.6245
34.5363,10.6245
35.8677,10.6245
35.8677,10.6245
35.9046,10.6274
35.9046,10.6274
36.0624,10.6733
36.0624,10.6733
36.2039,10.7569
36.2039,10.7569
36.3201,10.8731
36.3201,10.8731
36.3453,10.9157
36.3963,10.9634
36.4651,10.9759
36.5297,10.9493
36.5587,10.9157
36.5614,10.9112
36.5839,10.8731
36.5839,10.8731
36.5839,10.8731
36.7001,10.7569
36.7001,10.7569
36.7783,10.7107
36.8416,10.6733
36.8416,10.6733
36.8416,10.6733
36.8416,10.6733
36.9994,10.6274
36.9994,10.6274
37.0363,10.6245
37.0363,10.6245
38.3677,10.6245
38.3677,10.6245
38.4046,10.6274
38.4046,10.6274
38.5624,10.6733
38.5624,10.6733
38.7039,10.7569
38.7039,10.7569
38.8201,10.8731
38.8201,10.8731
38.9037,11.0146
38.9037,11.0146
38.9496,11.1724
38.9496,11.1724
38.9525,11.2093
38.9525,11.7628
38.9722,11.8298
38.9888,11.8505
39.6265,12.4882
39.6879,12.5217
39.7142,12.5245
44.9348,12.5245
45.0018,12.5048
45.0225,12.4882
46.5018,11.0088
46.5353,10.9475
46.5366,10.9017
46.5352,10.8930
46.5215,10.8063
46.5215,10.5937
46.5340,10.5148
45.1775,10.5148
45.1775,10.7352
45.1741,10.7569
45.1430,10.9530
45.0749,11.1626
45.0749,11.1626
45.0069,11.2961
44.9777,11.3534
44.9748,11.3590
44.8452,11.5374
44.8452,11.5374
44.6894,11.6932
44.6894,11.6932
44.5510,11.7938
44.5110,11.8228
44.3826,11.8882
44.3146,11.9229
44.3146,11.9229
44.2327,11.9495
44.1050,11.9910
43.8872,12.0255
43.8872,12.0255
43.6668,12.0255
43.6668,12.0255
43.4490,11.9910
43.2394,11.9229
43.0430,11.8228
42.8646,11.6932
42.7088,11.5374
42.5792,11.3590
42.4791,11.1626
42.4110,10.9530
42.3765,10.7352
42.3765,10.5148
28.2775,10.5148
28.2775,10.7352
28.2741,10.7569
28.2430,10.9530
28.1749,11.1626
28.1749,11.1626
28.1069,11.2961
28.0777,11.3534
28.0748,11.3590
27.9452,11.5374
27.9452,11.5374
27.7894,11.6932
27.7894,11.6932
27.6510,11.7938
27.6110,11.8228
27.4826,11.8882
27.4146,11.9229
27.4146,11.9229
27.3327,11.9495
27.2050,11.9910
26.9872,12.0255
26.9872,12.0255
26.7668,12.0255
26.7668,12.0255
26.5490,11.9910
26.3394,11.9229
26.1430,11.8228
25.9646,11.6932
25.8088,11.5374
25.6792,11.3590
25.5791,11.1626
25.5110,10.9530
25.4765,10.7352
25.4765,10.5148
25.5110,10.2970
25.5664,10.1266
25.5791,10.0874
25.5791,10.0874
25.6275,9.9924
25.6792,9.8910
25.7304,9.8205
25.8088,9.7126
25.8088,9.7126
25.9646,9.5568
25.9646,9.5568
26.1430,9.4272
26.1430,9.4272
26.1430,9.4272
26.2292,9.3832
26.3394,9.3271
26.3394,9.3271
26.5490,9.2590
26.6579,9.2417
26.7668,9.2245
26.9872,9.2245
27.0598,9.2360
27.2050,9.2590
27.4146,9.3271
27.4146,9.3271
27.6110,9.4272
27.7894,9.5568
27.7894,9.5568
27.9452,9.7126
27.9452,9.7126
28.0748,9.8910
28.1749,10.0874
28.1749,10.0874
28.2430,10.2970
28.2485,10.3317
28.2775,10.5148
42.3765,10.5148
42.4110,10.2970
42.4664,10.1266
42.4791,10.0874
42.4791,10.0874
42.5275,9.9924
42.5792,9.8910
42.6304,9.8205
42.6521,9.7906
39.7020,9.7906
39.6991,9.8275
39.6991,9.8275
39.6533,9.9852
39.6533,9.9852
39.5697,10.1266
39.5697,10.1266
39.4536,10.2427
39.4536,10.2427
39.3122,10.3263
39.3122,10.3263
39.1545,10.3721
39.1545,10.3721
39.1176,10.3750
39.1176,10.3750
35.4520,10.3750
34.9520,10.3750
31.2864,10.3750
31.2864,10.3750
31.2495,10.3721
31.2495,10.3721
31.0918,10.3263
31.0918,10.3263
30.9504,10.2427
30.9504,10.2427
30.8343,10.1266
30.8343,10.1266
30.7507,9.9852
30.7507,9.9852
30.7049,9.8275
30.7049,9.8275
30.7020,9.7906
30.7020,9.7906
30.7020,9.6250
34.9520,9.6250
34.9520,10.3750
35.4520,10.3750
35.4520,9.6250
39.7020,9.6250
39.7020,9.7906
42.6521,9.7906
42.7088,9.7126
42.7088,9.7126
42.8646,9.5568
42.8646,9.5568
43.0430,9.4272
43.0430,9.4272
43.0430,9.4272
43.1292,9.3832
43.2394,9.3271
43.2394,9.3271
43.4490,9.2590
43.5579,9.2417
43.6668,9.2245
43.8872,9.2245
43.9598,9.2360
44.1050,9.2590
44.3146,9.3271
44.3146,9.3271
44.5110,9.4272
44.6894,9.5568
44.6894,9.5568
44.8452,9.7126
44.8452,9.7126
44.9748,9.8910
45.0749,10.0874
45.0749,10.0874
45.1430,10.2970
45.1485,10.3317
45.1775,10.5148
46.5340,10.5148
46.5548,10.3838
46.6204,10.1816
46.7169,9.9922
46.7170,9.9922
46.7170,9.9922
46.8419,9.8202
46.9922,9.6699
47.1642,9.5450
47.3536,9.4484
47.3536,9.4484
47.3536,9.4484
47.5558,9.3828
47.5558,9.3828
47.5558,9.3828
47.7170,9.3572
47.7657,9.3495
47.9783,9.3495
48.0270,9.3572
48.1882,9.3828
48.3904,9.4484
48.5798,9.5450
48.7518,9.6699
48.9021,9.8202
49.0271,9.9922
49.0315,10.0009
49.0795,10.0517
49.1473,10.0685
49.2134,10.0460
49.2525,10.0009
49.2569,9.9922
49.3819,9.8202
49.5322,9.6699
49.7042,9.5450
49.8936,9.4484
49.8936,9.4484
49.8936,9.4484
50.0958,9.3828
50.0958,9.3828
50.0958,9.3828
50.2570,9.3572
50.3057,9.3495
50.5183,9.3495
50.5670,9.3572
50.7282,9.3828
50.9304,9.4484
51.1198,9.5450
51.2918,9.6699
51.4421,9.8202
51.5671,9.9922
51.5715,10.0009
51.6195,10.0517
51.6873,10.0685
51.7534,10.0460
51.7925,10.0009
51.7969,9.9922
51.9219,9.8202
52.0722,9.6699
52.2442,9.5450
52.4336,9.4484
52.4336,9.4484
52.4336,9.4484
52.6358,9.3828
52.6358,9.3828
52.6358,9.3828
52.7970,9.3572
52.8457,9.3495
53.0583,9.3495
53.1070,9.3572
53.2682,9.3828
53.4704,9.4484
53.6598,9.5450
53.8318,9.6699
53.9821,9.8202
54.1071,9.9922
54.1115,10.0009
54.1595,10.0517
54.2273,10.0685
54.2934,10.0460
54.3325,10.0009
54.3369,9.9922
54.4619,9.8202
54.6122,9.6699
54.7842,9.5450
54.9736,9.4484
54.9736,9.4484
54.9736,9.4484
55.1758,9.3828
55.1758,9.3828
55.1758,9.3828
55.3370,9.3572
55.3857,9.3495
55.5983,9.3495
55.6470,9.3572
55.8082,9.3828
56.0104,9.4484
56.1998,9.5450
56.3718,9.6699
56.5221,9.8202
56.6471,9.9922
56.6515,10.0009
56.6995,10.0517
56.7673,10.0685
56.8334,10.0460
56.8725,10.0009
56.8770,9.9922
57.0019,9.8202
57.1522,9.6699
57.3242,9.5450
57.5136,9.4484
57.5136,9.4484
57.5136,9.4484
57.7158,9.3828
57.7158,9.3828
57.7158,9.3828
57.8770,9.3572
57.9257,9.3495
58.1383,9.3495
58.1870,9.3572
58.3482,9.3828
58.5504,9.4484
58.7398,9.5450
58.9118,9.6699
59.0621,9.8202
59.1871,9.9922
59.1915,10.0009
59.2395,10.0517
59.3073,10.0685
59.3734,10.0460
59.4125,10.0009
59.4169,9.9922
59.5419,9.8202
59.6922,9.6699
59.8642,9.5450
60.0536,9.4484
60.0536,9.4484
60.0536,9.4484
60.2558,9.3828
60.2558,9.3828
60.2558,9.3828
60.4170,9.3572
60.4657,9.3495
60.6783,9.3495
60.7270,9.3572
60.8882,9.3828
61.0904,9.4484
61.2798,9.5450
61.4518,9.6699
61.6021,9.8202
61.7271,9.9922
61.7315,10.0009
61.7795,10.0517
61.8473,10.0685
61.9134,10.0460
61.9525,10.0009
61.9569,9.9922
62.0819,9.8202
62.2322,9.6699
62.4042,9.5450
62.5936,9.4484
62.5936,9.4484
62.5936,9.4484
62.7958,9.3828
62.7958,9.3828
62.7958,9.3828
62.9570,9.3572
63.0057,9.3495
63.2183,9.3495
63.2670,9.3572
63.4282,9.3828
63.6304,9.4484
63.8198,9.5450
63.9918,9.6699
64.1421,9.8202
64.2671,9.9922
64.2718,10.0015
64.3198,10.0523
64.3876,10.0691
64.4537,10.0465
64.4928,10.0015
64.4974,9.9924
64.6223,9.8205
64.6223,9.8205
64.7725,9.6703
64.7725,9.6703
64.9444,9.5454
65.1338,9.4489
65.3359,9.3832
65.4020,9.3728
65.4020,10.2670
65.4590,10.2341
65.5862,10.2000
65.7178,10.2000
65.8450,10.2341
65.9020,10.2670
65.9020,9.3728
65.9020,9.3728
65.9681,9.3832
66.1702,9.4489
66.3596,9.5454
66.5315,9.6703
66.5315,9.6703
66.6817,9.8205
66.6817,9.8205
66.8066,9.9924
66.8112,10.0015
66.8592,10.0523
66.9270,10.0691
66.9932,10.0465
67.0322,10.0015
67.0369,9.9922
67.0370,9.9922
67.0370,9.9922
67.1619,9.8202
67.3122,9.6699
67.4842,9.5450
67.6736,9.4484
67.6736,9.4484
67.6736,9.4484
67.8758,9.3828
67.8758,9.3828
67.8758,9.3828
68.0370,9.3572
68.0857,9.3495
68.2983,9.3495
68.3470,9.3572
68.5082,9.3828
68.7104,9.4484
68.8998,9.5450
69.0718,9.6699
69.2221,9.8202
69.2221,9.8202
69.3022,9.9304
69.3575,9.9731
69.4271,9.9791
69.4889,9.9465
69.5233,9.8856
69.5265,9.8575
69.5265,7.9985
68.3525,7.9985
68.3141,8.1918
68.3140,8.1918
68.2386,8.3739
68.2386,8.3739
68.1291,8.5378
68.1291,8.5378
67.9898,8.6771
67.9898,8.6771
67.8259,8.7866
67.8259,8.7866
67.6678,8.8521
67.6438,8.8621
67.6438,8.8621
67.6438,8.8621
67.4505,8.9005
67.4505,8.9005
67.2535,8.9005
67.1234,8.8746
67.0602,8.8621
66.8781,8.7866
66.7142,8.6771
66.5749,8.5378
66.4654,8.3739
66.3899,8.1918
66.3673,8.0778
66.3503,7.9926
66.3485,7.9929
66.3256,7.9361
66.3160,7.9254
65.8025,7.4118
65.7411,7.3783
65.7148,7.3755
60.9199,7.3755
60.8528,7.3952
60.8071,7.4480
60.7972,7.5171
60.8168,7.5684
60.8386,7.6011
60.8386,7.6011
60.9140,7.7832
60.9141,7.7832
60.9525,7.9765
60.9525,7.9765
60.9525,8.1735
60.9525,8.1735
60.9525,8.1735
60.9141,8.3668
60.9140,8.3668
60.8386,8.5489
60.8386,8.5489
60.7291,8.7128
60.7291,8.7128
60.5898,8.8521
60.5898,8.8521
60.4259,8.9616
60.4259,8.9616
60.2438,9.0370
60.2438,9.0371
60.2438,9.0371
60.2438,9.0371
60.0505,9.0755
60.0505,9.0755
59.8535,9.0755
59.7124,9.0474
59.6602,9.0371
59.4781,8.9616
59.4747,8.9593
39.7020,8.9593
39.7020,9.1250
35.4520,9.1250
34.9520,9.1250
30.7020,9.1250
30.7020,8.9594
30.7020,8.9593
30.7049,8.9225
30.7049,8.9225
30.7507,8.7648
30.7507,8.7648
30.8343,8.6234
30.8343,8.6234
30.9504,8.5073
30.9504,8.5073
31.0918,8.4237
31.0918,8.4237
31.2495,8.3779
31.2495,8.3779
31.2864,8.3750
34.9520,8.3750
34.9520,9.1250
35.4520,9.1250
35.4520,8.3750
39.1176,8.3750
39.1545,8.3779
39.1545,8.3779
39.3122,8.4237
39.3122,8.4237
39.4536,8.5073
39.4536,8.5073
39.5697,8.6234
39.5697,8.6234
39.6533,8.7648
39.6533,8.7648
39.6991,8.9225
39.6991,8.9225
39.7020,8.9593
59.4747,8.9593
59.3142,8.8521
59.2230,8.7609
59.2222,8.7602
59.1922,8.7445
59.1626,8.7283
59.1608,8.7281
59.1602,8.7279
59.1591,8.7280
59.1362,8.7255
51.8379,8.7255
51.7534,8.7087
51.7123,8.7005
51.5939,8.6515
51.5717,8.6366
51.4873,8.5803
50.9849,8.0778
50.5468,7.6398
23.7775,7.6398
23.7775,7.8602
23.7430,8.0780
23.6749,8.2876
23.6749,8.2876
23.6098,8.4154
23.5897,8.4547
23.5748,8.4840
23.4452,8.6624
23.4452,8.6624
23.2894,8.8182
23.2894,8.8182
23.2285,8.8624
23.1110,8.9478
22.9826,9.0132
22.9146,9.0479
22.9146,9.0479
22.8466,9.0700
22.7050,9.1160
22.4872,9.1505
22.4872,9.1505
22.2668,9.1505
22.2668,9.1505
22.0490,9.1160
21.8394,9.0479
21.6430,8.9478
21.4646,8.8182
21.3088,8.6624
21.2901,8.6366
21.2773,8.6191
21.2220,8.5764
21.1524,8.5704
21.0906,8.6031
21.0767,8.6191
21.0452,8.6624
20.8894,8.8182
20.8894,8.8182
20.8285,8.8624
20.7110,8.9478
20.5826,9.0132
20.5146,9.0479
20.5146,9.0479
20.4466,9.0700
20.3050,9.1160
20.0872,9.1505
20.0872,9.1505
19.8668,9.1505
19.8668,9.1505
19.6490,9.1160
19.4394,9.0479
19.2430,8.9478
19.0646,8.8182
18.9088,8.6624
18.8572,8.5915
18.8532,8.5869
18.8285,8.5715
18.8055,8.5538
18.7984,8.5527
18.7939,8.5499
18.7804,8.5501
18.7508,8.5457
18.7281,8.5475
18.0600,7.8794
18.0429,7.9430
17.9771,8.0570
17.8840,8.1501
17.7700,8.2159
17.7064,8.2330
18.3745,8.9011
18.3745,8.9011
18.3108,8.9474
18.1144,9.0474
17.9048,9.1155
17.6872,9.1500
17.4668,9.1500
17.2492,9.1155
17.0396,9.0474
16.8432,8.9474
16.7795,8.9011
16.7795,8.9011
17.4476,8.2330
17.3840,8.2159
17.2700,8.1501
17.1769,8.0570
17.1111,7.9430
17.0940,7.8794
16.4259,8.5475
16.4259,8.5475
16.3796,8.4838
16.3602,8.4457
16.2796,8.2874
16.2115,8.0778
16.1770,7.8602
16.1770,7.6398
16.2115,7.4222
16.2796,7.2126
16.3796,7.0162
16.4259,6.9525
16.4259,6.9525
17.0940,7.6206
17.1111,7.5570
17.1769,7.4430
17.2700,7.3499
17.3840,7.2841
17.4476,7.2670
16.7795,6.5989
16.8432,6.5526
17.0396,6.4526
17.2492,6.3845
17.4668,6.3500
17.6872,6.3500
17.9048,6.3845
18.1144,6.4526
18.3108,6.5526
18.3745,6.5989
18.3745,6.5989
17.7064,7.2670
17.7700,7.2841
17.8840,7.3499
17.9771,7.4430
18.0429,7.5570
18.0600,7.6206
18.7281,6.9525
18.7508,6.9543
18.7549,6.9534
18.7589,6.9546
18.7888,6.9463
18.8192,6.9399
18.8233,6.9367
18.8262,6.9359
18.8364,6.9264
18.8532,6.9131
18.8573,6.9085
18.9088,6.8376
19.0646,6.6818
19.0646,6.6818
19.0646,6.6818
19.2430,6.5522
19.2430,6.5522
19.2430,6.5522
19.3306,6.5075
19.4394,6.4521
19.4394,6.4521
19.6490,6.3840
19.7579,6.3667
19.8668,6.3495
20.0872,6.3495
20.1598,6.3610
20.3050,6.3840
20.5146,6.4521
20.5146,6.4521
20.7110,6.5522
20.8894,6.6818
20.8894,6.6818
21.0452,6.8376
21.0452,6.8376
21.0767,6.8809
21.1320,6.9236
21.2016,6.9296
21.2634,6.8969
21.2773,6.8809
21.3088,6.8376
21.3088,6.8376
21.4646,6.6818
21.4646,6.6818
21.6430,6.5522
21.6430,6.5522
21.6430,6.5522
21.7306,6.5075
21.8394,6.4521
21.8394,6.4521
22.0490,6.3840
22.1579,6.3667
22.2668,6.3495
22.4872,6.3495
22.5598,6.3610
22.7050,6.3840
22.9146,6.4521
22.9146,6.4521
23.1110,6.5522
23.2894,6.6818
23.2894,6.6818
23.4452,6.8376
23.4452,6.8376
23.5748,7.0160
23.6749,7.2124
23.6749,7.2124
23.7430,7.4220
23.7775,7.6398
50.5468,7.6398
50.4543,7.5472
48.8439,5.9368
48.7826,5.9033
48.7562,5.9005
48.1165,5.9005
48.0495,5.9202
48.0037,5.9730
47.9925,6.0245
47.9925,6.1979
47.9861,6.2575
47.9358,6.3923
47.9358,6.3923
47.8495,6.5075
47.8495,6.5075
47.7343,6.5938
47.7343,6.5938
47.5995,6.6441
47.5995,6.6441
47.5926,6.6448
47.5399,6.6505
45.7441,6.6505
45.6845,6.6441
45.5497,6.5938
45.4345,6.5075
45.3482,6.3923
45.2979,6.2575
45.2915,6.1979
45.2915,6.1740
45.2887,6.1610
45.2781,6.1415
45.2718,6.1203
45.2552,6.0996
45.2552,6.0996
45.2552,6.0996
45.2552,6.0996
44.5850,5.4294
44.5679,5.4930
44.5021,5.6070
44.4090,5.7001
44.2950,5.7659
44.2314,5.7830
44.8637,6.4153
44.8637,6.4153
44.8096,6.4546
44.6202,6.5511
44.4181,6.6168
44.2082,6.6500
43.9958,6.6500
43.7859,6.6168
43.7859,6.6168
43.5838,6.5511
43.3944,6.4546
43.3403,6.4153
43.3403,6.4153
43.9726,5.7830
43.9090,5.7659
43.7950,5.7001
43.7019,5.6070
43.6361,5.4930
43.6190,5.4294
42.9867,6.0617
42.9867,6.0617
42.9474,6.0076
42.8509,5.8182
42.7852,5.6161
42.7852,5.6161
42.7520,5.4062
42.7520,5.1938
42.7852,4.9839
42.7852,4.9839
42.8509,4.7818
42.9474,4.5924
42.9867,4.5383
42.9867,4.5383
43.6190,5.1706
43.6361,5.1070
43.7019,4.9930
43.7950,4.8999
43.9090,4.8341
43.9726,4.8170
43.3403,4.1847
43.3944,4.1454
43.5620,4.0600
43.6128,4.0120
43.6296,3.9442
43.6071,3.8781
43.5524,3.8346
43.5057,3.8255
33.8945,3.8255
33.8275,3.8452
33.7817,3.8980
33.7712,3.9369
33.7670,3.9778
33.7670,3.9778
33.7211,4.1163
33.7118,4.1443
33.6197,4.2937
33.4957,4.4177
33.3463,4.5098
33.1798,4.5650
33.0770,4.5755
31.7770,4.5755
31.6742,4.5650
31.5077,4.5098
31.3583,4.4177
31.2343,4.2937
31.1422,4.1443
31.1422,4.1443
31.1388,4.1389
31.0869,4.0922
31.0179,4.0809
30.9538,4.1088
30.9456,4.1163
30.8068,4.2551
30.6348,4.3800
30.6348,4.3800
30.6348,4.3801
30.4454,4.4766
30.2432,4.5422
30.0333,4.5755
30.0333,4.5755
29.8207,4.5755
29.8207,4.5755
29.6108,4.5422
29.4086,4.4766
29.2192,4.3801
29.1678,4.3427
29.0472,4.2551
29.0472,4.2551
29.0472,4.2551
28.8969,4.1048
28.8969,4.1048
28.8969,4.1048
28.8383,4.0242
28.7719,3.9328
28.7670,3.9231
28.7518,3.8932
28.7038,3.8424
28.6413,3.8255
26.7798,3.8255
26.7128,3.8452
26.7110,3.8464
26.5759,3.9366
26.5759,3.9366
26.4402,3.9928
26.3938,4.0121
26.3938,4.0121
26.3938,4.0121
26.2005,4.0505
26.2005,4.0505
26.0035,4.0505
25.8734,4.0246
25.8102,4.0121
25.6281,3.9366
25.4642,3.8271
25.3249,3.6878
25.2154,3.5239
25.1399,3.3418
25.1015,3.1485
25.1015,3.0353
5.7775,3.0353
5.7775,3.2647
5.7673,3.3418
5.7475,3.4922
5.7391,3.5239
5.6882,3.7139
5.6003,3.9259
5.6003,3.9259
5.5704,3.9778
5.4971,4.1048
5.4856,4.1246
5.3459,4.3067
5.3459,4.3067
5.1837,4.4689
5.1837,4.4689
5.1837,4.4689
5.1562,4.4900
5.0016,4.6086
5.0016,4.6086
5.0016,4.6086
4.8029,4.7233
4.8029,4.7233
4.8029,4.7233
4.7115,4.7612
4.5909,4.8112
4.3692,4.8705
4.1417,4.9005
4.1417,4.9005
3.9123,4.9005
3.9123,4.9005
3.6848,4.8705
3.4631,4.8112
3.2511,4.7233
3.0524,4.6086
2.8703,4.4689
2.8703,4.4689
2.8703,4.4689
2.7081,4.3067
2.7081,4.3067
2.7081,4.3067
2.5684,4.1246
2.4537,3.9259
2.3658,3.7139
2.3065,3.4922
2.2765,3.2647
2.2765,3.0353
2.3065,2.8078
2.3658,2.5861
2.4379,2.4122
2.4537,2.3741
2.4537,2.3741
2.4537,2.3741
2.5684,2.1754
2.5684,2.1754
2.5684,2.1754
2.6986,2.0057
2.7081,1.9933
2.7081,1.9933
2.7081,1.9933
2.8703,1.8311
2.8703,1.8311
3.0524,1.6914
3.0835,1.6734
3.1411,1.6402
3.2511,1.5767
3.2511,1.5766
3.4631,1.4888
3.6848,1.4295
3.7228,1.4244
3.9123,1.3995
3.9123,1.3995
4.1417,1.3995
4.1417,1.3995
4.3583,1.4280
4.3692,1.4295
4.4629,1.4546
4.5909,1.4888
4.8029,1.5766
4.8029,1.5767
5.0016,1.6914
5.1837,1.8311
5.3459,1.9933
5.4856,2.1754
5.6003,2.3741
5.6003,2.3741
5.6882,2.5861
5.7475,2.8078
5.7475,2.8078
5.7775,3.0353
25.1015,3.0353
25.1015,2.9515
25.1015,2.9515
25.1399,2.7582
25.1399,2.7582
25.1399,2.7582
25.1433,2.7500
25.2154,2.5761
25.2154,2.5761
25.3249,2.4122
25.3249,2.4122
25.4642,2.2729
25.4642,2.2729
25.6281,2.1634
25.6281,2.1634
25.8102,2.0879
25.8102,2.0879
26.0035,2.0495
26.0035,2.0495
26.2005,2.0495
26.2005,2.0495
26.3938,2.0879
26.3938,2.0879
26.5759,2.1634
26.5759,2.1634
26.7398,2.2729
26.7398,2.2729
26.7551,2.2882
26.8164,2.3217
26.8428,2.3245
28.6413,2.3245
28.7083,2.3048
28.7518,2.2568
28.7719,2.2172
28.7719,2.2172
28.8969,2.0452
29.0472,1.8949
29.2192,1.7700
29.4086,1.6734
29.4086,1.6734
29.4086,1.6734
29.6108,1.6078
29.6108,1.6078
29.6108,1.6078
29.7720,1.5822
29.8207,1.5745
30.0333,1.5745
30.0820,1.5822
30.2432,1.6078
30.4454,1.6734
30.6348,1.7700
30.8068,1.8949
30.9456,2.0337
31.0069,2.0672
31.0766,2.0622
31.1325,2.0203
31.1388,2.0111
31.2343,1.8563
31.3583,1.7323
31.3583,1.7323
31.5077,1.6402
31.6742,1.5850
31.6742,1.5850
31.7770,1.5745
33.0770,1.5745
33.0770,1.5745
33.1798,1.5850
33.1798,1.5850
33.3463,1.6402
33.3463,1.6402
33.4957,1.7323
33.6197,1.8563
33.7118,2.0057
33.7118,2.0057
33.7670,2.1722
33.7670,2.1722
33.7712,2.2131
33.7976,2.2778
33.8548,2.3179
33.8945,2.3245
48.8259,2.3245
48.9709,2.3533
48.9709,2.3533
49.1075,2.4099
49.1075,2.4099
49.2304,2.4920
49.2304,2.4921
52.5765,5.8382
52.6379,5.8717
52.6642,5.8745
65.8525,5.8745
65.9195,5.8548
65.9653,5.8020
65.9765,5.7505
65.9765,4.5803
65.9568,4.5133
65.9040,4.4675
65.8915,4.4626
65.8077,4.4348
65.6583,4.3427
65.5343,4.2187
65.4422,4.0693
65.4422,4.0693
65.4386,4.0634
65.3866,4.0167
65.3176,4.0055
65.2536,4.0333
65.2453,4.0409
65.1065,4.1797
65.1065,4.1797
64.9346,4.3046
64.7452,4.4011
64.5431,4.4668
64.4770,4.4772
64.4770,3.4330
64.4200,3.4659
64.2928,3.5000
64.1612,3.5000
64.0340,3.4659
63.9770,3.4330
63.9770,4.4772
63.9109,4.4668
63.9109,4.4668
63.7088,4.4011
63.5194,4.3046
63.3475,4.1797
63.3475,4.1797
63.1973,4.0295
63.1973,4.0295
63.0724,3.8576
62.9759,3.6682
62.9102,3.4661
62.9102,3.4661
62.8770,3.2562
62.8770,3.2500
63.7940,3.2500
63.7611,3.1930
63.7270,3.0658
63.7270,3.0353
55.7775,3.0353
55.7775,3.2647
55.7673,3.3418
55.7475,3.4922
55.7391,3.5239
55.6882,3.7139
55.6003,3.9259
55.6003,3.9259
55.5704,3.9778
55.4971,4.1048
55.4856,4.1246
55.3459,4.3067
55.3459,4.3067
55.1837,4.4689
55.1837,4.4689
55.1837,4.4689
55.1562,4.4900
55.0016,4.6086
55.0016,4.6086
55.0016,4.6086
54.8029,4.7233
54.8029,4.7233
54.8029,4.7233
54.7115,4.7612
54.5909,4.8112
54.3692,4.8705
54.1417,4.9005
54.1417,4.9005
53.9123,4.9005
53.9123,4.9005
53.6848,4.8705
53.4631,4.8112
53.2511,4.7233
53.0524,4.6086
52.8703,4.4689
52.8703,4.4689
52.8703,4.4689
52.7081,4.3067
52.7081,4.3067
52.7081,4.3067
52.5684,4.1246
52.4537,3.9259
52.3658,3.7139
52.3065,3.4922
52.2765,3.2647
52.2765,3.0353
52.3065,2.8078
52.3658,2.5861
52.4379,2.4122
52.4537,2.3741
52.4537,2.3741
52.4537,2.3741
52.5684,2.1754
52.5684,2.1754
52.5684,2.1754
52.6986,2.0057
52.7081,1.9933
52.7081,1.9933
52.7081,1.9933
52.8703,1.8311
52.8703,1.8311
53.0524,1.6914
53.0835,1.6734
53.1411,1.6402
53.2511,1.5767
53.2511,1.5766
53.4631,1.4888
53.6848,1.4295
53.7228,1.4244
53.9123,1.3995
53.9123,1.3995
54.1417,1.3995
54.1417,1.3995
54.3583,1.4280
54.3692,1.4295
54.4629,1.4546
54.5909,1.4888
54.8029,1.5766
54.8029,1.5767
55.0016,1.6914
55.1837,1.8311
55.3459,1.9933
55.4856,2.1754
55.6003,2.3741
55.6003,2.3741
55.6882,2.5861
55.7475,2.8078
55.7475,2.8078
55.7775,3.0353
63.7270,3.0353
63.7270,2.9342
63.7611,2.8070
63.7940,2.7500
62.8770,2.7500
62.8770,2.7438
62.9102,2.5339
62.9102,2.5339
62.9759,2.3318
63.0724,2.1424
63.1973,1.9705
63.1973,1.9705
63.3475,1.8203
63.3475,1.8203
63.5194,1.6954
63.7088,1.5989
63.9109,1.5332
63.9770,1.5228
63.9770,2.5670
64.0340,2.5341
64.1612,2.5000
64.2928,2.5000
64.4200,2.5341
64.4770,2.5670
64.4770,1.5228
64.4770,1.5228
64.5431,1.5332
64.7452,1.5989
64.9346,1.6954
65.1065,1.8203
65.2453,1.9591
65.3067,1.9926
65.3763,1.9876
65.4323,1.9458
65.4386,1.9366
65.5343,1.7813
65.6583,1.6573
65.6583,1.6573
65.7530,1.5989
65.8077,1.5652
65.8077,1.5652
65.8091,1.5647
65.9742,1.5100
65.9742,1.5100
66.0770,1.4995
67.3770,1.4995
67.3770,1.4995
67.4798,1.5100
67.4798,1.5100
67.6463,1.5652
67.6463,1.5652
67.7957,1.6573
67.9197,1.7813
68.0118,1.9307
68.0118,1.9307
68.0326,1.9933
68.0670,2.0972
68.0670,2.0972
68.0670,2.0972
68.0775,2.2000
68.0775,3.8000
68.0775,3.8000
68.0670,3.9028
68.0670,3.9028
68.0118,4.0693
68.0118,4.0693
67.9875,4.1088
67.9197,4.2187
67.7957,4.3427
67.6463,4.4348
67.5625,4.4626
67.5051,4.5024
67.4782,4.5669
67.4775,4.5803
67.4775,6.8031
67.4972,6.8701
67.5500,6.9159
67.5773,6.9247
67.6438,6.9379
67.6438,6.9379
67.8259,7.0134
67.8259,7.0134
67.9898,7.1229
67.9898,7.1229
68.1291,7.2622
68.1291,7.2622
68.2386,7.4261
68.2386,7.4261
68.3140,7.6082
68.3141,7.6082
68.3525,7.8015
68.3525,7.8015
68.3525,7.9985
68.3525,7.9985
68.3525,7.9985
69.5265,7.9985
69.5265,0.5745
69.5068,0.5075
69.4540,0.4617
69.4025,0.4505
0.6515,0.4505
Z" /> 
<path style="fill:none; 
stroke:#FFFFFF; stroke-width:0.0500; stroke-opacity:1; 
stroke-linecap:round; stroke-linejoin:round;fill:none"
d="M 70.0270,-0.0500
0.0270,-0.0500
0.0270,36.9500
70.0270,36.9500
Z" /> 
</g>
<g style="fill:#000000; fill-opacity:1.0000; stroke:none;">
<circle cx="60.5520" cy="28.8250" r="0.1750" /> 
</g>
<g style="fill:#000000; fill-opacity:1.0000; stroke:none;">
<circle cx="43.1770" cy="28.8500" r="0.1750" /> 
</g>
<g style="fill:#000000; fill-opacity:1.0000; stroke:none;">
<circle cx="63.0520" cy="28.9000" r="0.1750" /> 
</g>
<g style="fill:#000000; fill-opacity:1.0000; stroke:none;">
<circle cx="64.9520" cy="7.8500" r="0.1750" /> 
</g>
<g style="fill:#000000; fill-opacity:1.0000; stroke:none;">
<circle cx="67.3520" cy="7.9000" r="0.1750" /> 
</g>
<g style="fill:#000000; fill-opacity:1.0000; stroke:none;">
<circle cx="59.9520" cy="8.0750" r="0.1750" /> 
</g>
<g style="fill:#000000; fill-opacity:1.0000; stroke:none;">
<circle cx="26.1020" cy="3.0500" r="0.1750" /> 
</g>
<g style="fill:#000000; fill-opacity:1.0000; stroke:none;">
<circle cx="38.4270" cy="21.9500" r="0.1750" /> 
</g>
<g style="fill:#000000; fill-opacity:1.0000; stroke:none;">
<circle cx="31.9270" cy="21.9500" r="0.1750" /> 
</g>
<g style="fill:#000000; fill-opacity:1.0000; stroke:none;">
<circle cx="38.4270" cy="26.4500" r="0.1750" /> 
</g>
<g style="fill:#000000; fill-opacity:1.0000; stroke:none;">
<circle cx="31.9270" cy="26.4500" r="0.1750" /> 
</g>
<g style="fill:#000000; fill-opacity:1.0000; stroke:none;">
<circle cx="43.7770" cy="10.6250" r="0.1750" /> 
</g>
<g style="fill:#000000; fill-opacity:1.0000; stroke:none;">
<circle cx="23.2770" cy="21.9500" r="0.1750" /> 
</g>
<g style="fill:#000000; fill-opacity:1.0000; stroke:none;">
<circle cx="16.7770" cy="21.9500" r="0.1750" /> 
</g>
<g style="fill:#000000; fill-opacity:1.0000; stroke:none;">
<circle cx="23.2770" cy="26.4500" r="0.1750" /> 
</g>
<g style="fill:#000000; fill-opacity:1.0000; stroke:none;">
<circle cx="16.7770" cy="26.4500" r="0.1750" /> 
</g>
<g style="fill:#000000; fill-opacity:1.0000; stroke:none;">
<circle cx="4.0270" cy="33.1500" r="0.1750" /> 
</g>
<g style="fill:#000000; fill-opacity:1.0000; stroke:none;">
<circle cx="54.0270" cy="3.1500" r="0.1750" /> 
</g>
<g style="fill:#000000; fill-opacity:1.0000; stroke:none;">
<circle cx="46.6420" cy="5.3000" r="0.1750" /> 
</g>
<g style="fill:#000000; fill-opacity:1.0000; stroke:none;">
<circle cx="44.1020" cy="5.3000" r="0.1750" /> 
</g>
<g style="fill:#000000; fill-opacity:1.0000; stroke:none;">
<circle cx="4.0270" cy="3.1500" r="0.1750" /> 
</g>
<g style="fill:#000000; fill-opacity:1.0000; stroke:none;">
<circle cx="32.4270" cy="3.0750" r="0.1750" /> 
</g>
<g style="fill:#000000; fill-opacity:1.0000; stroke:none;">
<circle cx="29.9270" cy="3.0750" r="0.1750" /> 
</g>
<g style="fill:#000000; fill-opacity:1.0000; stroke:none;">
<circle cx="54.0270" cy="33.1500" r="0.1750" /> 
</g>
<g style="fill:#000000; fill-opacity:1.0000; stroke:none;">
<circle cx="4.0270" cy="27.3500" r="0.1750" /> 
</g>
<g style="fill:#000000; fill-opacity:1.0000; stroke:none;">
<circle cx="4.0270" cy="24.8100" r="0.1750" /> 
</g>
<g style="fill:#000000; fill-opacity:1.0000; stroke:none;">
<circle cx="4.0270" cy="22.2700" r="0.1750" /> 
</g>
<g style="fill:#000000; fill-opacity:1.0000; stroke:none;">
<circle cx="4.0270" cy="19.7300" r="0.1750" /> 
</g>
<g style="fill:#000000; fill-opacity:1.0000; stroke:none;">
<circle cx="4.0270" cy="17.1900" r="0.1750" /> 
</g>
<g style="fill:#000000; fill-opacity:1.0000; stroke:none;">
<circle cx="4.0270" cy="14.6500" r="0.1750" /> 
</g>
<g style="fill:#000000; fill-opacity:1.0000; stroke:none;">
<circle cx="4.0270" cy="12.1100" r="0.1750" /> 
</g>
<g style="fill:#000000; fill-opacity:1.0000; stroke:none;">
<circle cx="4.0270" cy="9.5700" r="0.1750" /> 
</g>
<g style="fill:#000000; fill-opacity:1.0000; stroke:none;">
<circle cx="22.3770" cy="13.3500" r="0.1750" /> 
</g>
<g style="fill:#000000; fill-opacity:1.0000; stroke:none;">
<circle cx="19.9770" cy="13.3500" r="0.1750" /> 
</g>
<g style="fill:#000000; fill-opacity:1.0000; stroke:none;">
<circle cx="17.5770" cy="13.3500" r="0.1750" /> 
</g>
<g style="fill:#000000; fill-opacity:1.0000; stroke:none;">
<circle cx="17.5770" cy="7.7500" r="0.1750" /> 
</g>
<g style="fill:#000000; fill-opacity:1.0000; stroke:none;">
<circle cx="19.9770" cy="7.7500" r="0.1750" /> 
</g>
<g style="fill:#000000; fill-opacity:1.0000; stroke:none;">
<circle cx="22.3770" cy="7.7500" r="0.1750" /> 
</g>
<g style="fill:#000000; fill-opacity:1.0000; stroke:none;">
<circle cx="66.8220" cy="33.1500" r="0.1750" /> 
</g>
<g style="fill:#000000; fill-opacity:1.0000; stroke:none;">
<circle cx="64.2820" cy="33.1500" r="0.1750" /> 
</g>
<g style="fill:#000000; fill-opacity:1.0000; stroke:none;">
<circle cx="61.7420" cy="33.1500" r="0.1750" /> 
</g>
<g style="fill:#000000; fill-opacity:1.0000; stroke:none;">
<circle cx="59.2020" cy="33.1500" r="0.1750" /> 
</g>
<g style="fill:#000000; fill-opacity:1.0000; stroke:none;">
<circle cx="63.1120" cy="26.2000" r="0.1750" /> 
</g>
<g style="fill:#000000; fill-opacity:1.0000; stroke:none;">
<circle cx="60.5720" cy="26.2000" r="0.1750" /> 
</g>
<g style="fill:#000000; fill-opacity:1.0000; stroke:none;">
<circle cx="58.0320" cy="26.2000" r="0.1750" /> 
</g>
<g style="fill:#000000; fill-opacity:1.0000; stroke:none;">
<circle cx="63.1120" cy="10.7000" r="0.1750" /> 
</g>
<g style="fill:#000000; fill-opacity:1.0000; stroke:none;">
<circle cx="55.4920" cy="26.2000" r="0.1750" /> 
</g>
<g style="fill:#000000; fill-opacity:1.0000; stroke:none;">
<circle cx="52.9520" cy="26.2000" r="0.1750" /> 
</g>
<g style="fill:#000000; fill-opacity:1.0000; stroke:none;">
<circle cx="68.1920" cy="10.7000" r="0.1750" /> 
</g>
<g style="fill:#000000; fill-opacity:1.0000; stroke:none;">
<circle cx="50.4120" cy="26.2000" r="0.1750" /> 
</g>
<g style="fill:#000000; fill-opacity:1.0000; stroke:none;">
<circle cx="47.8720" cy="26.2000" r="0.1750" /> 
</g>
<g style="fill:#000000; fill-opacity:1.0000; stroke:none;">
<circle cx="47.8720" cy="10.7000" r="0.1750" /> 
</g>
<g style="fill:#000000; fill-opacity:1.0000; stroke:none;">
<circle cx="50.4120" cy="10.7000" r="0.1750" /> 
</g>
<g style="fill:#000000; fill-opacity:1.0000; stroke:none;">
<circle cx="52.9520" cy="10.7000" r="0.1750" /> 
</g>
<g style="fill:#000000; fill-opacity:1.0000; stroke:none;">
<circle cx="55.4920" cy="10.7000" r="0.1750" /> 
</g>
<g style="fill:#000000; fill-opacity:1.0000; stroke:none;">
<circle cx="58.0320" cy="10.7000" r="0.1750" /> 
</g>
<g style="fill:#000000; fill-opacity:1.0000; stroke:none;">
<circle cx="60.5720" cy="10.7000" r="0.1750" /> 
</g>
<g style="fill:#000000; fill-opacity:1.0000; stroke:none;">
<circle cx="65.6520" cy="10.7000" r="0.1750" /> 
</g>
<g style="fill:#000000; fill-opacity:1.0000; stroke:none;">
<circle cx="65.6520" cy="26.2000" r="0.1750" /> 
</g>
<g style="fill:#000000; fill-opacity:1.0000; stroke:none;">
<circle cx="68.1920" cy="26.2000" r="0.1750" /> 
</g>
<g style="fill:#000000; fill-opacity:1.0000; stroke:none;">
<circle cx="66.7270" cy="3.0000" r="0.1750" /> 
</g>
<g style="fill:#000000; fill-opacity:1.0000; stroke:none;">
<circle cx="64.2270" cy="3.0000" r="0.1750" /> 
</g>
<g style="fill:#000000; fill-opacity:1.0000; stroke:none;">
<circle cx="26.8770" cy="10.6250" r="0.1750" /> 
</g> 
</svg>
