<?xml version="1.0" standalone="no"?>
 <!DOCTYPE svg PUBLIC "-//W3C//DTD SVG 1.1//EN" 
 "http://www.w3.org/Graphics/SVG/1.1/DTD/svg11.dtd"> 
<svg
  xmlns:svg="http://www.w3.org/2000/svg"
  xmlns="http://www.w3.org/2000/svg"
  xmlns:xlink="http://www.w3.org/1999/xlink"
  version="1.1"
  width="69.9770mm" height="36.8554mm" viewBox="0.0000 0.0000 69.9770 36.8554">
<title>SVG Image created as temp_b.svg date 2026/01/24 11:20:41 </title>
  <desc>Image generated by PCBNEW </desc>
<g style="fill:#000000; fill-opacity:1.0000;stroke:#000000; stroke-opacity:1.0000;
stroke-linecap:round; stroke-linejoin:round;"
 transform="translate(0 0) scale(1 1)">
</g>
<g style="fill:#000000; fill-opacity:1.0000; 
stroke:#000000; stroke-width:0.0212; stroke-opacity:1; 
stroke-linecap:round; stroke-linejoin:round;">
<rect x="-5.000000" y="-5.000000" width="80.000000" height="46.875000" rx="0.000000" />
</g>
<g style="fill:#FFFFFF; fill-opacity:1.0000; stroke:none;">
<circle cx="31.5500" cy="21.9500" r="1.0000" /> 
</g>
<g style="fill:#FFFFFF; fill-opacity:1.0000; stroke:none;">
<circle cx="38.0500" cy="21.9500" r="1.0000" /> 
</g>
<g style="fill:#FFFFFF; fill-opacity:1.0000; stroke:none;">
<circle cx="31.5500" cy="26.4500" r="1.0000" /> 
</g>
<g style="fill:#FFFFFF; fill-opacity:1.0000; stroke:none;">
<circle cx="38.0500" cy="26.4500" r="1.0000" /> 
</g>
<g style="fill:#FFFFFF; fill-opacity:1.0000; stroke:none;">
<circle cx="46.7000" cy="21.9500" r="1.0000" /> 
</g>
<g style="fill:#FFFFFF; fill-opacity:1.0000; stroke:none;">
<circle cx="53.2000" cy="21.9500" r="1.0000" /> 
</g>
<g style="fill:#FFFFFF; fill-opacity:1.0000; stroke:none;">
<circle cx="46.7000" cy="26.4500" r="1.0000" /> 
</g>
<g style="fill:#FFFFFF; fill-opacity:1.0000; stroke:none;">
<circle cx="53.2000" cy="26.4500" r="1.0000" /> 
<path style="fill:#FFFFFF; fill-opacity:1.0000; stroke:none;fill-rule:evenodd;"
d="M 24.1850,6.1500
22.4850,6.1500
22.4850,4.4500
24.1850,4.4500
Z" /> 
</g>
<g style="fill:#FFFFFF; fill-opacity:1.0000; stroke:none;">
<circle cx="25.8750" cy="5.3000" r="0.8500" /> 
<path style="fill:#FFFFFF; fill-opacity:1.0000; stroke:none;fill-rule:evenodd;"
d="M 36.7000,2.3250
36.7190,2.2293
36.7732,2.1482
36.8543,2.0940
36.9500,2.0750
38.1500,2.0750
38.2457,2.0940
38.3268,2.1482
38.3810,2.2293
38.4000,2.3250
38.4000,3.8250
38.3810,3.9207
38.3268,4.0018
38.2457,4.0560
38.1500,4.0750
36.9500,4.0750
36.8543,4.0560
36.7732,4.0018
36.7190,3.9207
36.7000,3.8250
Z" /> 
</g>
<g style="fill:none; 
stroke:#FFFFFF; stroke-width:1.7000; stroke-opacity:1; 
stroke-linecap:round; stroke-linejoin:round;">
<path d="M40.0500 2.9250
L40.0500 3.2250
" />
<path style="fill:#FFFFFF; fill-opacity:1.0000; stroke:none;fill-rule:evenodd;"
d="M 66.8000,26.5000
66.8000,28.2000
65.1000,28.2000
65.1000,26.5000
Z" /> 
</g>
<g style="fill:#FFFFFF; fill-opacity:1.0000; stroke:none;">
<circle cx="65.9500" cy="24.8100" r="0.8500" /> 
</g>
<g style="fill:#FFFFFF; fill-opacity:1.0000; stroke:none;">
<circle cx="65.9500" cy="22.2700" r="0.8500" /> 
</g>
<g style="fill:#FFFFFF; fill-opacity:1.0000; stroke:none;">
<circle cx="65.9500" cy="19.7300" r="0.8500" /> 
</g>
<g style="fill:#FFFFFF; fill-opacity:1.0000; stroke:none;">
<circle cx="65.9500" cy="17.1900" r="0.8500" /> 
</g>
<g style="fill:#FFFFFF; fill-opacity:1.0000; stroke:none;">
<circle cx="65.9500" cy="14.6500" r="0.8500" /> 
</g>
<g style="fill:#FFFFFF; fill-opacity:1.0000; stroke:none;">
<circle cx="65.9500" cy="12.1100" r="0.8500" /> 
</g>
<g style="fill:#FFFFFF; fill-opacity:1.0000; stroke:none;">
<circle cx="65.9500" cy="9.5700" r="0.8500" /> 
</g>
<g style="fill:#FFFFFF; fill-opacity:1.0000; stroke:none;">
<circle cx="47.6000" cy="13.3500" r="0.9000" /> 
</g>
<g style="fill:#FFFFFF; fill-opacity:1.0000; stroke:none;">
<circle cx="50.0000" cy="13.3500" r="0.9000" /> 
</g>
<g style="fill:#FFFFFF; fill-opacity:1.0000; stroke:none;">
<circle cx="52.4000" cy="13.3500" r="0.9000" /> 
</g>
<g style="fill:#FFFFFF; fill-opacity:1.0000; stroke:none;">
<circle cx="52.4000" cy="7.7500" r="0.9000" /> 
</g>
<g style="fill:#FFFFFF; fill-opacity:1.0000; stroke:none;">
<circle cx="50.0000" cy="7.7500" r="0.9000" /> 
</g>
<g style="fill:#FFFFFF; fill-opacity:1.0000; stroke:none;">
<circle cx="47.6000" cy="7.7500" r="0.9000" /> 
<path style="fill:#FFFFFF; fill-opacity:1.0000; stroke:none;fill-rule:evenodd;"
d="M 4.0050,34.0000
2.3050,34.0000
2.3050,32.3000
4.0050,32.3000
Z" /> 
</g>
<g style="fill:#FFFFFF; fill-opacity:1.0000; stroke:none;">
<circle cx="5.6950" cy="33.1500" r="0.8500" /> 
</g>
<g style="fill:#FFFFFF; fill-opacity:1.0000; stroke:none;">
<circle cx="8.2350" cy="33.1500" r="0.8500" /> 
</g>
<g style="fill:#FFFFFF; fill-opacity:1.0000; stroke:none;">
<circle cx="10.7750" cy="33.1500" r="0.8500" /> 
</g>
<g style="fill:#FFFFFF; fill-opacity:1.0000; stroke:none;">
<circle cx="6.8650" cy="26.2000" r="0.8500" /> 
</g>
<g style="fill:#FFFFFF; fill-opacity:1.0000; stroke:none;">
<circle cx="9.4050" cy="26.2000" r="0.8500" /> 
</g>
<g style="fill:#FFFFFF; fill-opacity:1.0000; stroke:none;">
<circle cx="11.9450" cy="26.2000" r="0.8500" /> 
</g>
<g style="fill:#FFFFFF; fill-opacity:1.0000; stroke:none;">
<circle cx="6.8650" cy="10.7000" r="0.8500" /> 
</g>
<g style="fill:#FFFFFF; fill-opacity:1.0000; stroke:none;">
<circle cx="14.4850" cy="26.2000" r="0.8500" /> 
</g>
<g style="fill:#FFFFFF; fill-opacity:1.0000; stroke:none;">
<circle cx="17.0250" cy="26.2000" r="0.8500" /> 
</g>
<g style="fill:#FFFFFF; fill-opacity:1.0000; stroke:none;">
<circle cx="1.7850" cy="10.7000" r="0.8500" /> 
</g>
<g style="fill:#FFFFFF; fill-opacity:1.0000; stroke:none;">
<circle cx="19.5650" cy="26.2000" r="0.8500" /> 
</g>
<g style="fill:#FFFFFF; fill-opacity:1.0000; stroke:none;">
<circle cx="22.1050" cy="26.2000" r="0.8500" /> 
</g>
<g style="fill:#FFFFFF; fill-opacity:1.0000; stroke:none;">
<circle cx="22.1050" cy="10.7000" r="0.8500" /> 
</g>
<g style="fill:#FFFFFF; fill-opacity:1.0000; stroke:none;">
<circle cx="19.5650" cy="10.7000" r="0.8500" /> 
</g>
<g style="fill:#FFFFFF; fill-opacity:1.0000; stroke:none;">
<circle cx="17.0250" cy="10.7000" r="0.8500" /> 
</g>
<g style="fill:#FFFFFF; fill-opacity:1.0000; stroke:none;">
<circle cx="14.4850" cy="10.7000" r="0.8500" /> 
</g>
<g style="fill:#FFFFFF; fill-opacity:1.0000; stroke:none;">
<circle cx="11.9450" cy="10.7000" r="0.8500" /> 
</g>
<g style="fill:#FFFFFF; fill-opacity:1.0000; stroke:none;">
<circle cx="9.4050" cy="10.7000" r="0.8500" /> 
</g>
<g style="fill:#FFFFFF; fill-opacity:1.0000; stroke:none;">
<circle cx="4.3250" cy="10.7000" r="0.8500" /> 
</g>
<g style="fill:#FFFFFF; fill-opacity:1.0000; stroke:none;">
<circle cx="4.3250" cy="26.2000" r="0.8500" /> 
</g>
<g style="fill:#FFFFFF; fill-opacity:1.0000; stroke:none;">
<circle cx="1.7850" cy="26.2000" r="0.8500" /> 
<path style="fill:#FFFFFF; fill-opacity:1.0000; stroke:none;fill-rule:evenodd;"
d="M 2.4000,2.2500
2.4190,2.1543
2.4732,2.0732
2.5543,2.0190
2.6500,2.0000
3.8500,2.0000
3.9457,2.0190
4.0268,2.0732
4.0810,2.1543
4.1000,2.2500
4.1000,3.7500
4.0810,3.8457
4.0268,3.9268
3.9457,3.9810
3.8500,4.0000
2.6500,4.0000
2.5543,3.9810
2.4732,3.9268
2.4190,3.8457
2.4000,3.7500
Z" /> 
</g>
<g style="fill:none; 
stroke:#FFFFFF; stroke-width:1.7000; stroke-opacity:1; 
stroke-linecap:round; stroke-linejoin:round;">
<path d="M5.7500 2.8500
L5.7500 3.1500
" />
</g>
<g style="fill:#FFFFFF; fill-opacity:1.0000; stroke:none;">
<circle cx="9.4250" cy="28.8250" r="0.5000" /> 
</g>
<g style="fill:#FFFFFF; fill-opacity:1.0000; stroke:none;">
<circle cx="26.8000" cy="28.8500" r="0.5000" /> 
</g>
<g style="fill:#FFFFFF; fill-opacity:1.0000; stroke:none;">
<circle cx="6.9250" cy="28.9000" r="0.5000" /> 
</g>
<g style="fill:#FFFFFF; fill-opacity:1.0000; stroke:none;">
<circle cx="5.0250" cy="7.8500" r="0.5000" /> 
</g>
<g style="fill:#FFFFFF; fill-opacity:1.0000; stroke:none;">
<circle cx="2.6250" cy="7.9000" r="0.5000" /> 
</g>
<g style="fill:#FFFFFF; fill-opacity:1.0000; stroke:none;">
<circle cx="10.0250" cy="8.0750" r="0.5000" /> 
</g>
<g style="fill:#FFFFFF; fill-opacity:1.0000; stroke:none;">
<circle cx="43.8750" cy="3.0500" r="0.5000" /> 
</g>
<g style="fill:none; 
stroke:#FFFFFF; stroke-width:0.3000; stroke-opacity:1; 
stroke-linecap:round; stroke-linejoin:round;">
<path d="M21.9789 30.3780
L26.4259 34.8250
" />
<path d="M19.2943 29.1270
L20.5453 30.3780
" />
<path d="M11.9450 26.2000
L14.8720 29.1270
" />
<path d="M46.2550 34.8500
L46.5500 34.8500
" />
<path d="M26.4259 34.8250
L46.5250 34.8250
" />
<path d="M20.5453 30.3780
L21.9789 30.3780
" />
<path d="M58.4500 34.8500
L65.9500 27.3500
" />
<path d="M14.8720 29.1270
L19.2943 29.1270
" />
<path d="M46.5250 34.8250
L46.5500 34.8500
" />
<path d="M46.5500 34.8500
L58.4500 34.8500
" />
<path d="M57.8943 33.4230
L62.5586 28.7586
" />
<path d="M22.5596 28.9760
L27.0066 33.4230
" />
<path d="M17.0250 26.2000
L18.5500 27.7250
" />
<path d="M18.5500 27.7250
L19.8750 27.7250
" />
<path d="M62.5586 28.7586
L62.5586 23.1214
" />
<path d="M21.1260 28.9760
L22.5596 28.9760
" />
<path d="M27.0066 33.4230
L57.8943 33.4230
" />
<path d="M19.8750 27.7250
L21.1260 28.9760
" />
<path d="M62.5586 23.1214
L65.9500 19.7300
" />
<path d="M9.4050 28.8050
L9.4250 28.8250
" />
<path d="M9.4050 26.2000
L9.4050 28.8050
" />
</g>
<g style="fill:none; 
stroke:#FFFFFF; stroke-width:0.5000; stroke-opacity:1; 
stroke-linecap:round; stroke-linejoin:round;">
<path d="M59.5750 28.3000
L56.6770 31.1980
" />
<path d="M13.4250 22.0250
L24.7250 22.0250
" />
<path d="M65.9500 12.1100
L59.5750 18.4850
" />
<path d="M6.8650 15.4650
L13.4250 22.0250
" />
<path d="M56.6770 31.1980
L29.1480 31.1980
" />
<path d="M29.1480 31.1980
L26.8000 28.8500
" />
<path d="M24.7250 22.0250
L26.8000 24.1000
" />
<path d="M59.5750 18.4850
L59.5750 28.3000
" />
<path d="M26.8000 24.1000
L26.8000 28.8500
" />
<path d="M6.8650 10.7000
L6.8650 15.4650
" />
</g>
<g style="fill:none; 
stroke:#FFFFFF; stroke-width:0.3000; stroke-opacity:1; 
stroke-linecap:round; stroke-linejoin:round;">
<path d="M19.5846 28.4260
L20.8356 29.6770
" />
<path d="M20.8356 29.6770
L22.2693 29.6770
" />
<path d="M26.7163 34.1240
L58.1846 34.1240
" />
<path d="M63.3918 28.9168
L63.3918 24.8282
" />
<path d="M63.3918 24.8282
L65.9500 22.2700
" />
<path d="M15.0437 26.2000
L17.2697 28.4260
" />
<path d="M14.4850 26.2000
L15.0437 26.2000
" />
<path d="M17.2697 28.4260
L19.5846 28.4260
" />
<path d="M22.2693 29.6770
L26.7163 34.1240
" />
<path d="M58.1846 34.1240
L63.3918 28.9168
" />
<path d="M22.1050 26.2000
L27.9040 31.9990
" />
<path d="M57.3355 31.9990
L60.7673 28.5673
" />
<path d="M27.9040 31.9990
L57.3355 31.9990
" />
<path d="M60.7673 19.8327
L65.9500 14.6500
" />
<path d="M60.7673 28.5673
L60.7673 19.8327
" />
<path d="M6.8650 28.8400
L6.9250 28.9000
" />
<path d="M6.8650 26.2000
L6.8650 28.8400
" />
<path d="M61.8576 21.2824
L65.9500 17.1900
" />
<path d="M27.2750 32.7000
L57.6259 32.7000
" />
<path d="M21.6400 28.2750
L22.8500 28.2750
" />
<path d="M22.8500 28.2750
L27.2750 32.7000
" />
<path d="M19.5650 26.2000
L21.6400 28.2750
" />
<path d="M61.8576 28.4683
L61.8576 21.2824
" />
<path d="M57.6259 32.7000
L61.8576 28.4683
" />
</g>
<g style="fill:none; 
stroke:#FFFFFF; stroke-width:0.5000; stroke-opacity:1; 
stroke-linecap:round; stroke-linejoin:round;">
<path d="M4.3250 8.5500
L5.0250 7.8500
" />
<path d="M4.3250 10.7000
L4.3250 8.5500
" />
</g>
<g style="fill:none; 
stroke:#FFFFFF; stroke-width:0.3000; stroke-opacity:1; 
stroke-linecap:round; stroke-linejoin:round;">
<path d="M11.9450 10.7000
L13.7700 12.5250
" />
<path d="M22.4510 20.2010
L29.8010 20.2010
" />
<path d="M14.7750 12.5250
L22.4510 20.2010
" />
<path d="M13.7700 12.5250
L14.7750 12.5250
" />
<path d="M31.5500 21.9500
L38.0500 21.9500
" />
<path d="M29.8010 20.2010
L31.5500 21.9500
" />
</g>
<g style="fill:none; 
stroke:#FFFFFF; stroke-width:0.5000; stroke-opacity:1; 
stroke-linecap:round; stroke-linejoin:round;">
<path d="M1.7850 10.7000
L1.7850 8.7400
" />
<path d="M1.7850 8.7400
L2.6250 7.9000
" />
</g>
<g style="fill:none; 
stroke:#FFFFFF; stroke-width:0.3000; stroke-opacity:1; 
stroke-linecap:round; stroke-linejoin:round;">
<path d="M9.4050 8.6950
L10.0250 8.0750
" />
<path d="M9.4050 10.7000
L9.4050 8.6950
" />
<path d="M14.4850 10.7000
L23.2850 19.5000
" />
<path d="M14.4850 10.7000
L14.4850 10.8337
" />
<path d="M44.2500 19.5000
L46.7000 21.9500
" />
<path d="M23.2850 19.5000
L44.2500 19.5000
" />
<path d="M46.7000 21.9500
L53.2000 21.9500
" />
</g>
<g style="fill:none; 
stroke:#FFFFFF; stroke-width:0.5000; stroke-opacity:1; 
stroke-linecap:round; stroke-linejoin:round;">
<path d="M45.3000 3.0500
L43.8750 3.0500
" />
<path d="M45.3000 3.0500
L50.0000 7.7500
" />
<path style="fill:#FFFFFF; fill-opacity:1.0000; stroke:none;fill-rule:evenodd;"
d="M 69.3925,0.4702
69.4383,0.5230
69.4495,0.5745
69.4495,36.3255
69.4298,36.3925
69.3770,36.4383
69.3255,36.4495
0.5745,36.4495
0.5075,36.4298
0.4617,36.3770
0.4505,36.3255
0.4505,32.2522
1.8050,32.2522
1.8050,32.9000
2.7220,32.9000
2.6891,32.9570
2.6550,33.0842
2.6550,33.2158
2.6891,33.3430
2.7220,33.4000
1.8050,33.4000
1.8050,34.0478
1.8114,34.1074
1.8114,34.1074
1.8616,34.2421
1.8616,34.2421
1.9478,34.3572
1.9478,34.3572
2.0629,34.4433
2.0629,34.4434
2.1976,34.4936
2.1976,34.4936
2.2572,34.5000
2.2572,34.5000
2.9050,34.5000
2.9050,33.5830
2.9620,33.6159
3.0892,33.6500
3.2208,33.6500
3.3480,33.6159
3.4050,33.5830
3.4050,34.5000
4.0528,34.5000
4.0528,34.5000
4.1124,34.4936
4.1124,34.4936
4.2471,34.4434
4.2471,34.4433
4.3622,34.3572
4.3622,34.3572
4.4483,34.2421
4.4484,34.2421
4.4974,34.1105
4.5393,34.0546
4.6048,34.0302
4.6730,34.0450
4.7013,34.0662
4.8152,34.1801
4.9872,34.3050
4.9872,34.3050
4.9872,34.3051
5.1766,34.4016
5.3788,34.4672
5.5887,34.5005
5.5887,34.5005
5.8013,34.5005
5.8013,34.5005
6.0112,34.4672
6.2134,34.4016
6.4028,34.3051
6.4895,34.2421
6.5748,34.1801
6.5748,34.1801
6.5748,34.1801
6.7251,34.0298
6.7251,34.0298
6.7251,34.0298
6.8500,33.8578
6.8500,33.8578
6.8501,33.8578
6.8545,33.8491
6.9025,33.7983
6.9703,33.7815
7.0364,33.8040
7.0755,33.8491
7.0800,33.8578
7.2049,34.0298
7.3552,34.1801
7.5272,34.3050
7.5272,34.3050
7.5272,34.3051
7.7166,34.4016
7.9188,34.4672
8.1287,34.5005
8.1287,34.5005
8.3413,34.5005
8.3413,34.5005
8.5512,34.4672
8.7534,34.4016
8.9428,34.3051
9.0295,34.2421
9.1148,34.1801
9.1148,34.1801
9.1148,34.1801
9.2651,34.0298
9.2651,34.0298
9.2651,34.0298
9.3900,33.8578
9.3900,33.8578
9.3901,33.8578
9.3945,33.8491
9.4425,33.7983
9.5103,33.7815
9.5764,33.8040
9.6155,33.8491
9.6200,33.8578
9.7449,34.0298
9.8952,34.1801
10.0672,34.3050
10.0672,34.3050
10.0672,34.3051
10.2566,34.4016
10.4588,34.4672
10.6687,34.5005
10.6687,34.5005
10.8813,34.5005
10.8813,34.5005
11.0912,34.4672
11.2934,34.4016
11.4828,34.3051
11.5695,34.2421
11.6548,34.1801
11.6548,34.1801
11.6548,34.1801
11.8051,34.0298
11.8051,34.0298
11.8051,34.0298
11.9300,33.8578
11.9300,33.8578
11.9301,33.8578
12.0266,33.6684
12.0922,33.4662
12.1255,33.2563
12.1255,33.0437
12.1242,33.0353
14.1995,33.0353
14.1995,33.2647
14.2098,33.3430
14.2295,33.4922
14.2717,33.6500
14.2888,33.7139
14.3766,33.9259
14.3767,33.9259
14.4914,34.1246
14.6311,34.3067
14.6311,34.3067
14.7933,34.4689
14.7933,34.4689
14.7933,34.4689
14.8255,34.4936
14.9754,34.6086
14.9754,34.6086
14.9754,34.6086
15.1741,34.7233
15.1741,34.7233
15.1741,34.7233
15.2655,34.7612
15.3861,34.8112
15.6078,34.8705
15.8353,34.9005
15.8353,34.9005
16.0647,34.9005
16.0647,34.9005
16.2922,34.8705
16.5139,34.8112
16.7259,34.7233
16.9246,34.6086
17.1067,34.4689
17.1067,34.4689
17.1067,34.4689
17.2689,34.3067
17.2689,34.3067
17.2689,34.3067
17.4086,34.1246
17.5233,33.9259
17.6112,33.7139
17.6705,33.4922
17.7005,33.2647
17.7005,33.0353
17.6705,32.8078
17.6112,32.5861
17.5552,32.4509
17.5233,32.3741
17.5233,32.3741
17.5233,32.3741
17.4086,32.1754
17.4086,32.1754
17.4086,32.1754
17.2689,31.9933
17.2689,31.9933
17.1067,31.8311
17.1067,31.8311
16.9246,31.6914
16.7259,31.5767
16.7259,31.5766
16.5139,31.4888
16.2922,31.4295
16.2542,31.4244
16.0647,31.3995
16.0647,31.3995
15.8353,31.3995
15.8353,31.3995
15.6187,31.4280
15.6078,31.4295
15.5141,31.4546
15.3861,31.4888
15.1741,31.5766
15.1741,31.5767
14.9754,31.6914
14.7933,31.8311
14.6311,31.9933
14.4914,32.1754
14.3767,32.3741
14.3766,32.3741
14.2888,32.5861
14.2295,32.8078
14.2295,32.8078
14.1995,33.0353
12.1242,33.0353
12.0922,32.8338
12.0266,32.6316
11.9301,32.4422
11.9300,32.4422
11.9300,32.4422
11.8051,32.2702
11.6548,32.1199
11.4828,31.9950
11.2934,31.8984
11.2934,31.8984
11.2934,31.8984
11.0912,31.8328
11.0912,31.8328
11.0912,31.8328
10.9300,31.8072
10.8813,31.7995
10.6687,31.7995
10.6200,31.8072
10.4588,31.8328
10.2566,31.8984
10.0672,31.9950
9.8952,32.1199
9.7449,32.2702
9.6199,32.4422
9.6155,32.4509
9.5675,32.5017
9.4997,32.5185
9.4336,32.4960
9.3945,32.4509
9.3901,32.4422
9.2651,32.2702
9.1148,32.1199
8.9428,31.9950
8.7534,31.8984
8.7534,31.8984
8.7534,31.8984
8.5512,31.8328
8.5512,31.8328
8.5512,31.8328
8.3900,31.8072
8.3413,31.7995
8.1287,31.7995
8.0800,31.8072
7.9188,31.8328
7.7166,31.8984
7.5272,31.9950
7.3552,32.1199
7.2049,32.2702
7.0799,32.4422
7.0755,32.4509
7.0275,32.5017
6.9597,32.5185
6.8936,32.4960
6.8545,32.4509
6.8500,32.4422
6.7251,32.2702
6.5748,32.1199
6.4028,31.9950
6.2134,31.8984
6.2134,31.8984
6.2134,31.8984
6.0112,31.8328
6.0112,31.8328
6.0112,31.8328
5.8500,31.8072
5.8013,31.7995
5.5887,31.7995
5.5400,31.8072
5.3788,31.8328
5.1766,31.8984
4.9872,31.9950
4.8152,32.1199
4.7013,32.2338
4.6400,32.2673
4.5703,32.2623
4.5143,32.2204
4.4974,32.1895
4.4484,32.0579
4.4483,32.0579
4.3622,31.9428
4.3622,31.9428
4.2471,31.8566
4.2471,31.8566
4.1124,31.8064
4.1124,31.8064
4.0528,31.8000
3.4050,31.8000
3.4050,32.7170
3.3480,32.6841
3.2208,32.6500
3.0892,32.6500
2.9620,32.6841
2.9050,32.7170
2.9050,31.8000
2.2572,31.8000
2.1976,31.8064
2.1976,31.8064
2.0629,31.8566
2.0629,31.8566
1.9478,31.9428
1.9478,31.9428
1.8616,32.0579
1.8616,32.0579
1.8114,32.1926
1.8114,32.1926
1.8050,32.2522
0.4505,32.2522
0.4505,27.0425
0.4702,26.9754
0.5230,26.9297
0.5921,26.9197
0.6557,26.9487
0.6748,26.9696
0.6791,26.9754
0.7549,27.0798
0.9052,27.2301
1.0772,27.3550
1.0772,27.3550
1.0772,27.3551
1.2666,27.4516
1.4688,27.5172
1.6787,27.5505
1.6787,27.5505
1.8913,27.5505
1.8913,27.5505
2.1012,27.5172
2.3034,27.4516
2.4928,27.3551
2.5423,27.3191
2.6648,27.2301
2.6648,27.2301
2.6648,27.2301
2.8151,27.0798
2.8151,27.0798
2.8151,27.0798
2.9400,26.9078
2.9400,26.9078
2.9401,26.9078
2.9445,26.8991
2.9925,26.8483
3.0603,26.8315
3.1264,26.8540
3.1655,26.8991
3.1700,26.9078
3.2949,27.0798
3.4452,27.2301
3.6172,27.3550
3.6172,27.3550
3.6172,27.3551
3.8066,27.4516
4.0088,27.5172
4.2187,27.5505
4.2187,27.5505
4.4313,27.5505
4.4313,27.5505
4.6412,27.5172
4.8434,27.4516
5.0328,27.3551
5.0823,27.3191
5.2048,27.2301
5.2048,27.2301
5.2048,27.2301
5.3551,27.0798
5.3551,27.0798
5.3551,27.0798
5.4800,26.9078
5.4800,26.9078
5.4801,26.9078
5.4845,26.8991
5.5325,26.8483
5.6003,26.8315
5.6664,26.8540
5.7055,26.8991
5.7100,26.9078
5.8349,27.0798
5.8349,27.0798
5.9852,27.2301
6.1572,27.3551
6.1572,27.3551
6.1611,27.3579
6.1601,27.3593
6.2022,27.4057
6.2145,27.4596
6.2145,28.1442
6.1948,28.2113
6.1782,28.2319
6.1479,28.2622
6.1479,28.2622
6.0384,28.4261
6.0384,28.4261
5.9629,28.6082
5.9629,28.6082
5.9245,28.8015
5.9245,28.8015
5.9245,28.9985
5.9245,28.9985
5.9245,28.9985
5.9629,29.1918
5.9629,29.1918
6.0384,29.3739
6.0384,29.3739
6.1479,29.5378
6.1479,29.5378
6.2872,29.6771
6.2872,29.6771
6.4511,29.7866
6.4511,29.7866
6.5449,29.8255
6.6332,29.8621
6.6332,29.8621
6.6332,29.8621
6.8265,29.9005
6.8265,29.9005
7.0235,29.9005
7.1536,29.8746
7.2168,29.8621
7.3979,29.7871
7.3989,29.7866
7.3989,29.7866
7.3989,29.7866
7.5628,29.6771
7.7021,29.5378
7.8116,29.3739
7.8871,29.1918
7.9255,28.9985
7.9255,28.8015
7.9255,28.8015
7.8871,28.6082
7.8871,28.6082
7.8871,28.6082
7.8663,28.5582
7.8116,28.4261
7.8116,28.4261
7.7021,28.2622
7.7021,28.2622
7.5628,28.1229
7.5608,28.1213
7.5601,28.1202
7.5585,28.1186
7.5588,28.1182
7.5215,28.0635
7.5155,28.0254
7.5155,27.4596
7.5352,27.3926
7.5696,27.3589
7.5689,27.3579
7.5728,27.3551
7.5728,27.3551
7.7448,27.2301
7.8951,27.0798
7.8951,27.0798
7.8951,27.0798
8.0200,26.9078
8.0200,26.9078
8.0201,26.9078
8.0245,26.8991
8.0725,26.8483
8.1403,26.8315
8.2064,26.8540
8.2455,26.8991
8.2500,26.9078
8.3749,27.0798
8.3749,27.0798
8.5252,27.2301
8.6972,27.3551
8.6972,27.3551
8.7011,27.3579
8.7001,27.3593
8.7422,27.4057
8.7545,27.4596
8.7545,28.0292
8.7348,28.0963
8.7182,28.1169
8.6479,28.1872
8.6479,28.1872
8.5384,28.3511
8.5384,28.3511
8.4629,28.5332
8.4629,28.5332
8.4245,28.7265
8.4245,28.7265
8.4245,28.9235
8.4245,28.9235
8.4245,28.9235
8.4629,29.1168
8.4629,29.1168
8.5384,29.2989
8.5384,29.2989
8.6479,29.4628
8.6479,29.4628
8.7872,29.6021
8.7872,29.6021
8.9511,29.7116
8.9511,29.7116
9.1321,29.7866
9.1332,29.7871
9.1332,29.7871
9.1332,29.7871
9.3265,29.8255
9.3265,29.8255
9.5235,29.8255
9.6536,29.7996
9.7168,29.7871
9.8989,29.7116
10.0628,29.6021
10.2021,29.4628
10.3116,29.2989
10.3871,29.1168
10.4106,28.9985
10.4255,28.9235
10.4255,28.7265
10.3871,28.5332
10.3871,28.5332
10.3871,28.5332
10.3533,28.4518
10.3116,28.3511
10.3116,28.3511
10.2021,28.1872
10.2021,28.1872
10.0918,28.0769
10.0583,28.0156
10.0555,27.9892
10.0555,27.4596
10.0752,27.3926
10.1096,27.3589
10.1089,27.3579
10.1128,27.3551
10.1128,27.3551
10.2848,27.2301
10.4351,27.0798
10.4351,27.0798
10.4351,27.0798
10.5600,26.9078
10.5600,26.9078
10.5601,26.9078
10.5645,26.8991
10.6125,26.8483
10.6803,26.8315
10.7464,26.8540
10.7855,26.8991
10.7900,26.9078
10.9149,27.0798
11.0652,27.2301
11.2372,27.3550
11.2372,27.3550
11.2372,27.3551
11.4266,27.4516
11.6288,27.5172
11.8387,27.5505
11.8387,27.5505
12.0513,27.5505
12.0513,27.5505
12.2091,27.5255
12.2661,27.5165
12.2663,27.5181
12.3289,27.5212
12.3757,27.5507
14.4573,29.6323
14.4573,29.6323
14.4573,29.6323
14.4573,29.6323
14.5639,29.7035
14.6823,29.7525
14.6823,29.7525
14.6823,29.7525
14.8079,29.7775
14.8079,29.7775
18.9735,29.7775
19.0405,29.7972
19.0611,29.8138
20.0400,30.7927
20.1306,30.8833
20.1306,30.8833
20.2371,30.9545
20.2371,30.9545
20.2371,30.9545
20.3555,31.0035
20.3555,31.0035
20.3555,31.0035
20.4812,31.0285
20.4812,31.0285
21.6581,31.0285
21.7251,31.0482
21.7458,31.0648
26.0112,35.3303
26.0112,35.3303
26.0112,35.3303
26.0112,35.3303
26.1178,35.4015
26.2362,35.4505
26.2362,35.4505
26.2362,35.4505
26.3618,35.4755
26.3618,35.4755
46.0530,35.4755
46.0772,35.4779
46.1909,35.5005
46.1909,35.5005
58.5141,35.5005
58.6278,35.4779
58.6397,35.4755
58.7581,35.4265
58.8647,35.3553
61.1847,33.0353
64.1995,33.0353
64.1995,33.2647
64.2098,33.3430
64.2295,33.4922
64.2717,33.6500
64.2888,33.7139
64.3766,33.9259
64.3767,33.9259
64.4914,34.1246
64.6311,34.3067
64.6311,34.3067
64.7933,34.4689
64.7933,34.4689
64.7933,34.4689
64.8255,34.4936
64.9754,34.6086
64.9754,34.6086
64.9754,34.6086
65.1741,34.7233
65.1741,34.7233
65.1741,34.7233
65.2655,34.7612
65.3861,34.8112
65.6078,34.8705
65.8353,34.9005
65.8353,34.9005
66.0647,34.9005
66.0647,34.9005
66.2922,34.8705
66.5139,34.8112
66.7259,34.7233
66.9246,34.6086
67.1067,34.4689
67.1067,34.4689
67.1067,34.4689
67.2689,34.3067
67.2689,34.3067
67.2689,34.3067
67.4086,34.1246
67.5233,33.9259
67.6112,33.7139
67.6705,33.4922
67.7005,33.2647
67.7005,33.0353
67.6705,32.8078
67.6112,32.5861
67.5552,32.4509
67.5233,32.3741
67.5233,32.3741
67.5233,32.3741
67.4086,32.1754
67.4086,32.1754
67.4086,32.1754
67.2689,31.9933
67.2689,31.9933
67.1067,31.8311
67.1067,31.8311
66.9246,31.6914
66.7259,31.5767
66.7259,31.5766
66.5139,31.4888
66.2922,31.4295
66.2542,31.4244
66.0647,31.3995
66.0647,31.3995
65.8353,31.3995
65.8353,31.3995
65.6187,31.4280
65.6078,31.4295
65.5141,31.4546
65.3861,31.4888
65.1741,31.5766
65.1741,31.5767
64.9754,31.6914
64.7933,31.8311
64.6311,31.9933
64.4914,32.1754
64.3767,32.3741
64.3766,32.3741
64.2888,32.5861
64.2295,32.8078
64.2295,32.8078
64.1995,33.0353
61.1847,33.0353
62.2250,31.9950
65.4831,28.7368
65.5444,28.7033
65.5708,28.7005
66.8479,28.7005
66.8479,28.7005
66.9075,28.6941
67.0423,28.6438
67.1575,28.5575
67.2438,28.4423
67.2941,28.3075
67.3005,28.2479
67.3005,26.4521
67.2941,26.3925
67.2619,26.3063
67.2438,26.2577
67.2438,26.2577
67.1575,26.1425
67.1575,26.1425
67.0423,26.0562
67.0423,26.0562
66.9075,26.0059
66.9075,26.0059
66.8479,25.9995
66.8479,25.9995
66.8479,25.9995
66.8479,25.9995
66.8373,25.9995
66.7703,25.9798
66.7496,25.9632
66.0794,25.2930
66.1430,25.2759
66.2570,25.2101
66.3501,25.1170
66.4159,25.0030
66.4330,24.9394
67.0653,25.5717
67.0653,25.5717
67.1046,25.5176
67.2011,25.3282
67.2668,25.1261
67.2668,25.1261
67.3000,24.9162
67.3000,24.7038
67.2668,24.4939
67.2668,24.4939
67.2011,24.2918
67.1046,24.1024
67.0653,24.0483
67.0653,24.0483
66.4330,24.6806
66.4159,24.6170
66.3501,24.5030
66.2570,24.4099
66.1430,24.3441
66.0794,24.3270
66.7117,23.6947
66.6575,23.6554
66.6575,23.6554
66.6485,23.6508
66.5977,23.6028
66.5809,23.5350
66.6035,23.4688
66.6485,23.4298
66.6578,23.4251
66.7741,23.3406
66.8298,23.3001
66.8298,23.3001
66.8298,23.3001
66.9801,23.1498
66.9801,23.1498
66.9801,23.1498
67.1050,22.9778
67.1050,22.9778
67.1051,22.9778
67.2016,22.7884
67.2672,22.5862
67.3005,22.3763
67.3005,22.1637
67.2672,21.9538
67.2016,21.7516
67.1051,21.5622
67.1050,21.5622
67.1050,21.5622
66.9801,21.3902
66.8298,21.2399
66.6578,21.1150
66.6571,21.1146
66.6491,21.1105
66.5983,21.0625
66.5815,20.9947
66.6040,20.9286
66.6491,20.8895
66.6578,20.8851
66.7040,20.8515
66.8298,20.7601
66.8298,20.7601
66.8836,20.7063
66.9801,20.6098
66.9801,20.6098
66.9801,20.6098
67.1050,20.4378
67.1050,20.4378
67.1051,20.4378
67.2016,20.2484
67.2672,20.0462
67.3005,19.8363
67.3005,19.6237
67.2672,19.4138
67.2016,19.2116
67.1051,19.0222
67.1050,19.0222
67.1050,19.0222
66.9801,18.8502
66.8298,18.6999
66.6578,18.5750
66.6571,18.5746
66.6491,18.5705
66.5983,18.5225
66.5815,18.4547
66.6040,18.3886
66.6491,18.3495
66.6578,18.3451
66.7665,18.2661
66.8298,18.2201
66.8298,18.2201
66.8298,18.2201
66.9801,18.0698
66.9801,18.0698
66.9801,18.0698
67.1050,17.8978
67.1050,17.8978
67.1051,17.8978
67.2016,17.7084
67.2672,17.5062
67.3005,17.2963
67.3005,17.0837
67.2672,16.8738
67.2016,16.6716
67.1051,16.4822
67.1050,16.4822
67.1050,16.4822
66.9801,16.3102
66.8298,16.1599
66.6578,16.0350
66.6571,16.0346
66.6491,16.0305
66.5983,15.9825
66.5815,15.9147
66.6040,15.8486
66.6491,15.8095
66.6578,15.8051
66.6798,15.7891
66.8298,15.6801
66.8298,15.6801
66.8298,15.6801
66.9801,15.5298
66.9801,15.5298
66.9801,15.5298
67.1050,15.3578
67.1050,15.3578
67.1051,15.3578
67.2016,15.1684
67.2672,14.9662
67.3005,14.7563
67.3005,14.5437
67.2672,14.3338
67.2016,14.1316
67.1051,13.9422
67.1050,13.9422
67.1050,13.9422
66.9801,13.7702
66.8298,13.6199
66.6578,13.4950
66.6571,13.4946
66.6491,13.4905
66.5983,13.4425
66.5815,13.3747
66.6040,13.3086
66.6491,13.2695
66.6578,13.2651
66.7540,13.1952
66.8298,13.1401
66.8298,13.1401
66.8298,13.1401
66.9801,12.9898
66.9801,12.9898
66.9801,12.9898
67.1050,12.8178
67.1050,12.8178
67.1051,12.8178
67.2016,12.6284
67.2672,12.4262
67.3005,12.2163
67.3005,12.0037
67.2672,11.7938
67.2016,11.5916
67.1051,11.4022
67.1050,11.4022
67.1050,11.4022
66.9801,11.2302
66.8298,11.0799
66.6578,10.9549
66.6485,10.9502
66.5977,10.9022
66.5809,10.8344
66.6034,10.7683
66.6485,10.7292
66.6576,10.7246
66.7117,10.6853
66.7117,10.6853
66.0794,10.0530
66.1430,10.0359
66.2570,9.9701
66.3501,9.8770
66.4159,9.7630
66.4330,9.6994
67.0653,10.3317
67.0653,10.3317
67.1046,10.2776
67.2011,10.0882
67.2668,9.8861
67.2668,9.8861
67.3000,9.6762
67.3000,9.4638
67.2668,9.2539
67.2668,9.2539
67.2011,9.0518
67.1046,8.8624
67.0653,8.8083
67.0653,8.8083
66.4330,9.4406
66.4159,9.3770
66.3501,9.2630
66.2570,9.1699
66.1430,9.1041
66.0794,9.0870
66.7117,8.4547
66.6576,8.4154
66.4682,8.3189
66.2661,8.2532
66.0562,8.2200
65.8438,8.2200
65.6339,8.2532
65.6339,8.2532
65.4318,8.3189
65.2424,8.4154
65.1883,8.4547
65.1883,8.4547
65.8206,9.0870
65.7570,9.1041
65.6430,9.1699
65.5499,9.2630
65.4841,9.3770
65.4670,9.4406
64.8347,8.8083
64.8347,8.8083
64.7954,8.8624
64.6989,9.0518
64.6332,9.2539
64.6332,9.2539
64.6000,9.4638
64.6000,9.6762
64.6332,9.8861
64.6332,9.8861
64.6989,10.0882
64.7954,10.2775
64.8347,10.3317
65.4670,9.6994
65.4841,9.7630
65.5499,9.8770
65.6430,9.9701
65.7570,10.0359
65.8206,10.0530
65.1883,10.6853
65.1883,10.6853
65.2425,10.7246
65.2425,10.7246
65.2515,10.7292
65.3023,10.7772
65.3191,10.8450
65.2965,10.9112
65.2515,10.9502
65.2422,10.9549
65.0702,11.0799
64.9199,11.2302
64.7950,11.4022
64.6984,11.5916
64.6328,11.7938
64.5995,12.0037
64.5995,12.2163
64.6146,12.3117
64.6057,12.3810
64.5798,12.4188
58.9920,18.0066
58.9920,18.0066
58.9428,18.0803
58.9428,18.0803
58.9099,18.1295
58.9099,18.1295
58.8533,18.2661
58.8533,18.2661
58.8245,18.4111
58.8245,27.9378
58.8048,28.0048
58.7882,28.0255
56.4025,30.4112
56.3411,30.4447
56.3148,30.4475
29.5102,30.4475
29.4432,30.4278
29.4225,30.4112
27.8360,28.8246
27.8025,28.7633
27.8012,28.7548
27.7621,28.5582
27.7621,28.5582
27.7621,28.5582
27.7141,28.4423
27.6866,28.3761
27.6866,28.3761
27.5738,28.2072
27.5753,28.2061
27.5513,28.1497
27.5505,28.1354
27.5505,26.3319
30.0500,26.3319
30.0500,26.5681
30.0869,26.8012
30.1599,27.0258
30.2671,27.2362
30.3273,27.3191
30.3273,27.3191
31.0262,26.6202
31.0375,26.6623
31.1099,26.7877
31.2123,26.8901
31.3377,26.9625
31.3798,26.9738
30.6809,27.6727
30.7638,27.7329
30.9742,27.8401
31.1988,27.9131
31.1988,27.9131
31.4319,27.9500
31.6681,27.9500
31.9012,27.9131
32.1258,27.8401
32.3362,27.7329
32.3362,27.7329
32.4191,27.6727
32.4191,27.6727
31.7202,26.9738
31.7623,26.9625
31.8877,26.8901
31.9901,26.7877
32.0625,26.6623
32.0738,26.6202
32.7727,27.3191
32.7727,27.3191
32.8329,27.2362
32.8329,27.2362
32.9401,27.0258
33.0131,26.8012
33.0500,26.5681
33.0500,26.3319
36.5500,26.3319
36.5500,26.5681
36.5869,26.8012
36.6599,27.0258
36.7671,27.2362
36.8273,27.3191
36.8273,27.3191
37.5262,26.6202
37.5375,26.6623
37.6099,26.7877
37.7123,26.8901
37.8377,26.9625
37.8798,26.9738
37.1809,27.6727
37.2638,27.7329
37.4742,27.8401
37.6988,27.9131
37.6988,27.9131
37.9319,27.9500
38.1681,27.9500
38.4012,27.9131
38.6258,27.8401
38.8362,27.7329
38.8362,27.7329
38.9191,27.6727
38.9191,27.6727
38.2202,26.9738
38.2623,26.9625
38.3877,26.8901
38.4901,26.7877
38.5625,26.6623
38.5738,26.6202
39.2727,27.3191
39.2727,27.3191
39.3329,27.2362
39.3329,27.2362
39.4401,27.0258
39.5131,26.8012
39.5500,26.5681
39.5500,26.3319
45.2000,26.3319
45.2000,26.5681
45.2369,26.8012
45.3099,27.0258
45.4171,27.2362
45.4773,27.3191
45.4773,27.3191
46.1762,26.6202
46.1875,26.6623
46.2599,26.7877
46.3623,26.8901
46.4877,26.9625
46.5298,26.9738
45.8309,27.6727
45.9138,27.7329
46.1242,27.8401
46.3488,27.9131
46.3488,27.9131
46.5819,27.9500
46.8181,27.9500
47.0512,27.9131
47.2758,27.8401
47.4862,27.7329
47.4862,27.7329
47.5691,27.6727
47.5691,27.6727
46.8702,26.9738
46.9123,26.9625
47.0377,26.8901
47.1401,26.7877
47.2125,26.6623
47.2238,26.6202
47.9227,27.3191
47.9227,27.3191
47.9829,27.2362
47.9829,27.2362
48.0901,27.0258
48.1631,26.8012
48.2000,26.5681
48.2000,26.3319
51.7000,26.3319
51.7000,26.5681
51.7369,26.8012
51.8099,27.0258
51.9171,27.2362
51.9773,27.3191
51.9773,27.3191
52.6762,26.6202
52.6875,26.6623
52.7599,26.7877
52.8623,26.8901
52.9877,26.9625
53.0298,26.9738
52.3309,27.6727
52.4138,27.7329
52.6242,27.8401
52.8488,27.9131
52.8488,27.9131
53.0819,27.9500
53.3181,27.9500
53.5512,27.9131
53.7758,27.8401
53.9862,27.7329
53.9862,27.7329
54.0691,27.6727
54.0691,27.6727
53.3702,26.9738
53.4123,26.9625
53.5377,26.8901
53.6401,26.7877
53.7125,26.6623
53.7238,26.6202
54.4227,27.3191
54.4227,27.3191
54.4829,27.2362
54.4829,27.2362
54.5901,27.0258
54.6631,26.8012
54.7000,26.5681
54.7000,26.3319
54.6631,26.0988
54.5901,25.8742
54.4829,25.6638
54.4227,25.5809
54.4227,25.5809
53.7238,26.2798
53.7125,26.2377
53.6401,26.1123
53.5377,26.0099
53.4123,25.9375
53.3702,25.9262
54.0691,25.2273
54.0691,25.2273
53.9862,25.1671
53.7758,25.0599
53.5512,24.9869
53.5512,24.9869
53.3181,24.9500
53.0819,24.9500
52.8488,24.9869
52.6242,25.0599
52.4138,25.1671
52.3309,25.2273
53.0298,25.9262
52.9877,25.9375
52.8623,26.0099
52.7599,26.1123
52.6875,26.2377
52.6762,26.2798
51.9773,25.5809
51.9171,25.6638
51.8099,25.8742
51.7369,26.0988
51.7000,26.3319
48.2000,26.3319
48.1631,26.0988
48.0901,25.8742
47.9829,25.6638
47.9227,25.5809
47.9227,25.5809
47.2238,26.2798
47.2125,26.2377
47.1401,26.1123
47.0377,26.0099
46.9123,25.9375
46.8702,25.9262
47.5691,25.2273
47.5691,25.2273
47.4862,25.1671
47.2758,25.0599
47.0512,24.9869
47.0512,24.9869
46.8181,24.9500
46.5819,24.9500
46.3488,24.9869
46.1242,25.0599
45.9138,25.1671
45.8309,25.2273
46.5298,25.9262
46.4877,25.9375
46.3623,26.0099
46.2599,26.1123
46.1875,26.2377
46.1762,26.2798
45.4773,25.5809
45.4171,25.6638
45.3099,25.8742
45.2369,26.0988
45.2000,26.3319
39.5500,26.3319
39.5131,26.0988
39.4401,25.8742
39.3329,25.6638
39.2727,25.5809
39.2727,25.5809
38.5738,26.2798
38.5625,26.2377
38.4901,26.1123
38.3877,26.0099
38.2623,25.9375
38.2202,25.9262
38.9191,25.2273
38.9191,25.2273
38.8362,25.1671
38.6258,25.0599
38.4012,24.9869
38.4012,24.9869
38.1681,24.9500
37.9319,24.9500
37.6988,24.9869
37.4742,25.0599
37.2638,25.1671
37.1809,25.2273
37.8798,25.9262
37.8377,25.9375
37.7123,26.0099
37.6099,26.1123
37.5375,26.2377
37.5262,26.2798
36.8273,25.5809
36.7671,25.6638
36.6599,25.8742
36.5869,26.0988
36.5500,26.3319
33.0500,26.3319
33.0131,26.0988
32.9401,25.8742
32.8329,25.6638
32.7727,25.5809
32.7727,25.5809
32.0738,26.2798
32.0625,26.2377
31.9901,26.1123
31.8877,26.0099
31.7623,25.9375
31.7202,25.9262
32.4191,25.2273
32.4191,25.2273
32.3362,25.1671
32.1258,25.0599
31.9012,24.9869
31.9012,24.9869
31.6681,24.9500
31.4319,24.9500
31.1988,24.9869
30.9742,25.0599
30.7638,25.1671
30.6809,25.2273
31.3798,25.9262
31.3377,25.9375
31.2123,26.0099
31.1099,26.1123
31.0375,26.2377
31.0262,26.2798
30.3273,25.5809
30.2671,25.6638
30.1599,25.8742
30.0869,26.0988
30.0500,26.3319
27.5505,26.3319
27.5505,24.0261
27.5217,23.8811
27.5217,23.8811
27.5217,23.8811
27.4846,23.7916
27.4651,23.7445
27.4651,23.7445
27.3830,23.6216
27.3486,23.5872
27.2784,23.5170
26.8559,23.0945
25.2034,21.4421
25.2034,21.4421
25.1402,21.3998
25.1009,21.3735
25.1009,21.3735
25.0805,21.3599
25.0805,21.3599
24.9439,21.3033
24.9439,21.3033
24.7989,21.2745
24.7989,21.2745
13.7872,21.2745
13.7202,21.2548
13.6995,21.2382
7.6518,15.1905
7.6183,15.1291
7.6155,15.1028
7.6155,11.8872
7.6352,11.8202
7.6666,11.7869
7.7448,11.7301
7.8951,11.5798
7.8951,11.5798
7.8951,11.5798
8.0200,11.4078
8.0200,11.4078
8.0201,11.4078
8.0245,11.3991
8.0725,11.3483
8.1403,11.3315
8.2064,11.3540
8.2455,11.3991
8.2496,11.4071
8.2500,11.4078
8.3749,11.5798
8.5252,11.7301
8.6972,11.8550
8.6972,11.8550
8.6972,11.8551
8.8866,11.9516
9.0888,12.0172
9.2987,12.0505
9.2987,12.0505
9.5113,12.0505
9.5113,12.0505
9.7212,12.0172
9.9234,11.9516
10.1128,11.8551
10.1572,11.8228
10.2848,11.7301
10.2848,11.7301
10.2848,11.7301
10.4351,11.5798
10.4351,11.5798
10.4351,11.5798
10.5600,11.4078
10.5600,11.4078
10.5601,11.4078
10.5645,11.3991
10.6125,11.3483
10.6803,11.3315
10.7464,11.3540
10.7855,11.3991
10.7896,11.4071
10.7900,11.4078
10.9149,11.5798
11.0652,11.7301
11.2372,11.8550
11.2372,11.8550
11.2372,11.8551
11.4266,11.9516
11.6288,12.0172
11.8387,12.0505
11.8387,12.0505
12.0513,12.0505
12.0513,12.0505
12.2091,12.0255
12.2661,12.0165
12.2663,12.0181
12.3289,12.0213
12.3757,12.0507
13.3553,13.0303
13.3553,13.0303
13.3553,13.0303
13.3553,13.0303
13.4619,13.1015
13.5803,13.1505
13.5803,13.1505
13.5803,13.1505
13.7059,13.1755
13.7059,13.1755
14.4542,13.1755
14.5212,13.1952
14.5419,13.2118
22.0363,20.7063
22.0363,20.7063
22.0363,20.7063
22.1169,20.7601
22.1169,20.7601
22.1169,20.7601
22.1429,20.7775
22.1429,20.7775
22.1429,20.7775
22.2613,20.8265
22.2613,20.8265
22.2613,20.8265
22.3869,20.8515
22.3869,20.8515
29.4802,20.8515
29.5472,20.8712
29.5679,20.8878
30.0799,21.3998
30.1133,21.4611
30.1101,21.5258
30.0864,21.5986
30.0495,21.8319
30.0495,22.0681
30.0864,22.3014
30.1594,22.5260
30.2430,22.6901
30.2667,22.7364
30.4055,22.9275
30.5725,23.0945
30.7636,23.2333
30.8630,23.2840
30.9740,23.3406
30.9740,23.3406
30.9740,23.3406
31.0804,23.3751
31.1986,23.4136
31.4319,23.4505
31.4319,23.4505
31.6681,23.4505
31.9014,23.4136
32.1260,23.3406
32.3364,23.2333
32.5275,23.0945
32.6945,22.9275
32.8333,22.7364
32.8681,22.6682
32.9161,22.6174
32.9786,22.6005
36.6214,22.6005
36.6884,22.6202
36.7319,22.6682
36.7430,22.6901
36.7667,22.7364
36.9055,22.9275
37.0725,23.0945
37.2636,23.2333
37.3630,23.2840
37.4740,23.3406
37.4740,23.3406
37.4740,23.3406
37.5804,23.3751
37.6986,23.4136
37.9319,23.4505
37.9319,23.4505
38.1681,23.4505
38.4014,23.4136
38.6260,23.3406
38.8364,23.2333
39.0275,23.0945
39.1945,22.9275
39.3333,22.7364
39.4406,22.5260
39.5136,22.3014
39.5268,22.2174
39.5505,22.0681
39.5505,21.8319
39.5136,21.5986
39.4689,21.4611
39.4406,21.3740
39.4406,21.3740
39.4406,21.3740
39.3798,21.2548
39.3333,21.1636
39.1945,20.9725
39.0275,20.8055
38.8364,20.6667
38.6260,20.5594
38.4014,20.4864
38.1681,20.4495
38.1681,20.4495
37.9319,20.4495
37.9319,20.4495
37.6986,20.4864
37.4740,20.5594
37.2636,20.6667
37.2090,20.7063
37.0725,20.8055
37.0725,20.8055
37.0725,20.8055
36.9055,20.9725
36.9055,20.9725
36.9055,20.9725
36.8855,21.0000
36.7667,21.1636
36.7319,21.2318
36.6839,21.2826
36.6214,21.2995
32.9786,21.2995
32.9116,21.2798
32.8681,21.2318
32.8333,21.1636
32.7980,21.1150
32.6945,20.9725
32.5275,20.8055
32.3364,20.6667
32.1260,20.5594
31.9014,20.4864
31.6681,20.4495
31.6681,20.4495
31.4319,20.4495
31.4319,20.4495
31.1986,20.4864
31.1258,20.5101
31.0560,20.5121
30.9998,20.4799
30.8821,20.3622
30.8486,20.3009
30.8536,20.2312
30.8955,20.1752
30.9610,20.1508
30.9698,20.1505
43.9292,20.1505
43.9962,20.1702
44.0169,20.1868
45.2299,21.3998
45.2633,21.4611
45.2601,21.5258
45.2364,21.5986
45.1995,21.8319
45.1995,22.0681
45.2364,22.3014
45.3094,22.5260
45.3930,22.6901
45.4167,22.7364
45.5555,22.9275
45.7225,23.0945
45.9136,23.2333
46.0130,23.2840
46.1240,23.3406
46.1240,23.3406
46.1240,23.3406
46.2304,23.3751
46.3486,23.4136
46.5819,23.4505
46.5819,23.4505
46.8181,23.4505
47.0514,23.4136
47.2760,23.3406
47.4864,23.2333
47.6775,23.0945
47.8445,22.9275
47.9833,22.7364
48.0181,22.6682
48.0661,22.6174
48.1286,22.6005
51.7714,22.6005
51.8384,22.6202
51.8819,22.6682
51.8930,22.6901
51.9167,22.7364
52.0555,22.9275
52.2225,23.0945
52.4136,23.2333
52.5130,23.2840
52.6240,23.3406
52.6240,23.3406
52.6240,23.3406
52.7304,23.3751
52.8486,23.4136
53.0819,23.4505
53.0819,23.4505
53.3181,23.4505
53.5514,23.4136
53.7760,23.3406
53.9864,23.2333
54.1775,23.0945
54.3445,22.9275
54.4833,22.7364
54.5906,22.5260
54.6636,22.3014
54.6768,22.2174
54.7005,22.0681
54.7005,21.8319
54.6636,21.5986
54.6189,21.4611
54.5906,21.3740
54.5906,21.3740
54.5906,21.3740
54.5298,21.2548
54.4833,21.1636
54.3445,20.9725
54.1775,20.8055
53.9864,20.6667
53.7760,20.5594
53.5514,20.4864
53.3181,20.4495
53.3181,20.4495
53.0819,20.4495
53.0819,20.4495
52.8486,20.4864
52.6240,20.5594
52.4136,20.6667
52.3590,20.7063
52.2225,20.8055
52.2225,20.8055
52.2225,20.8055
52.0555,20.9725
52.0555,20.9725
52.0555,20.9725
52.0355,21.0000
51.9167,21.1636
51.8819,21.2318
51.8339,21.2826
51.7714,21.2995
48.1286,21.2995
48.0616,21.2798
48.0181,21.2318
47.9833,21.1636
47.9480,21.1150
47.8445,20.9725
47.6775,20.8055
47.4864,20.6667
47.2760,20.5594
47.0514,20.4864
46.8181,20.4495
46.8181,20.4495
46.5819,20.4495
46.5819,20.4495
46.3486,20.4864
46.2758,20.5101
46.2060,20.5121
46.1498,20.4799
44.6647,18.9947
44.6647,18.9947
44.6647,18.9947
44.5581,18.9235
44.4397,18.8745
44.4397,18.8745
44.3141,18.8495
44.3141,18.8495
23.6058,18.8495
23.5388,18.8298
23.5181,18.8132
17.9447,13.2398
46.1995,13.2398
46.1995,13.4602
46.2340,13.6780
46.3021,13.8876
46.3021,13.8876
46.4022,14.0840
46.5318,14.2624
46.5318,14.2624
46.6876,14.4182
46.6876,14.4182
46.8246,14.5178
46.8660,14.5478
46.9944,14.6132
47.0624,14.6479
47.0624,14.6479
47.1672,14.6820
47.2720,14.7160
47.4898,14.7505
47.4898,14.7505
47.7102,14.7505
47.7102,14.7505
47.9280,14.7160
48.1376,14.6479
48.3340,14.5478
48.5124,14.4182
48.6682,14.2624
48.6997,14.2191
48.7550,14.1764
48.8246,14.1704
48.8864,14.2031
48.9003,14.2191
48.9318,14.2624
49.0876,14.4182
49.0876,14.4182
49.2246,14.5178
49.2660,14.5478
49.3944,14.6132
49.4624,14.6479
49.4624,14.6479
49.5672,14.6820
49.6720,14.7160
49.8898,14.7505
49.8898,14.7505
50.1102,14.7505
50.1102,14.7505
50.3280,14.7160
50.5376,14.6479
50.7340,14.5478
50.9124,14.4182
51.0682,14.2624
51.0997,14.2191
51.1550,14.1764
51.2246,14.1704
51.2864,14.2031
51.3003,14.2191
51.3318,14.2624
51.4876,14.4182
51.4876,14.4182
51.6246,14.5178
51.6660,14.5478
51.7944,14.6132
51.8624,14.6479
51.8624,14.6479
51.9672,14.6820
52.0720,14.7160
52.2898,14.7505
52.2898,14.7505
52.5102,14.7505
52.5102,14.7505
52.7280,14.7160
52.9376,14.6479
53.1340,14.5478
53.3124,14.4182
53.4682,14.2624
53.5978,14.0840
53.6979,13.8876
53.7660,13.6780
53.8005,13.4602
53.8005,13.2398
53.7660,13.0220
53.6979,12.8124
53.6979,12.8124
53.6632,12.7444
53.5978,12.6160
53.5350,12.5296
53.4682,12.4376
53.4682,12.4376
53.3124,12.2818
53.3124,12.2818
53.1340,12.1522
53.1340,12.1522
53.1340,12.1522
53.0711,12.1201
52.9376,12.0521
52.9376,12.0521
52.7280,11.9840
52.6191,11.9667
52.5102,11.9495
52.2898,11.9495
52.2768,11.9516
52.0720,11.9840
51.8624,12.0521
51.8624,12.0521
51.6660,12.1522
51.4876,12.2818
51.4876,12.2818
51.3318,12.4376
51.3318,12.4376
51.3003,12.4809
51.2450,12.5236
51.1754,12.5296
51.1136,12.4969
51.0997,12.4809
51.0682,12.4376
51.0682,12.4376
50.9124,12.2818
50.9124,12.2818
50.7340,12.1522
50.7340,12.1522
50.7340,12.1522
50.6711,12.1201
50.5376,12.0521
50.5376,12.0521
50.3280,11.9840
50.2191,11.9667
50.1102,11.9495
49.8898,11.9495
49.8768,11.9516
49.6720,11.9840
49.4624,12.0521
49.4624,12.0521
49.2660,12.1522
49.0876,12.2818
49.0876,12.2818
48.9318,12.4376
48.9318,12.4376
48.9003,12.4809
48.8450,12.5236
48.7754,12.5296
48.7136,12.4969
48.6997,12.4809
48.6682,12.4376
48.6682,12.4376
48.5124,12.2818
48.5124,12.2818
48.3340,12.1522
48.3340,12.1522
48.3340,12.1522
48.2711,12.1201
48.1376,12.0521
48.1376,12.0521
47.9280,11.9840
47.8191,11.9667
47.7102,11.9495
47.4898,11.9495
47.4768,11.9516
47.2720,11.9840
47.0624,12.0521
47.0624,12.0521
46.8660,12.1522
46.6876,12.2818
46.6876,12.2818
46.5318,12.4376
46.5318,12.4376
46.4022,12.6160
46.3021,12.8124
46.3021,12.8124
46.2340,13.0220
46.1995,13.2398
17.9447,13.2398
16.9671,12.2622
16.9336,12.2009
16.9386,12.1312
16.9805,12.0752
17.0460,12.0508
17.0548,12.0505
17.1313,12.0505
17.1313,12.0505
17.3412,12.0172
17.5434,11.9516
17.7328,11.8551
17.7772,11.8228
17.9048,11.7301
17.9048,11.7301
17.9048,11.7301
18.0551,11.5798
18.0551,11.5798
18.0551,11.5798
18.1800,11.4078
18.1800,11.4078
18.1801,11.4078
18.1845,11.3991
18.2325,11.3483
18.3003,11.3315
18.3664,11.3540
18.4055,11.3991
18.4096,11.4071
18.4100,11.4078
18.5349,11.5798
18.6852,11.7301
18.8572,11.8550
18.8572,11.8550
18.8572,11.8551
19.0466,11.9516
19.2488,12.0172
19.4587,12.0505
19.4587,12.0505
19.6713,12.0505
19.6713,12.0505
19.8812,12.0172
20.0834,11.9516
20.2728,11.8551
20.3172,11.8228
20.4448,11.7301
20.4448,11.7301
20.4448,11.7301
20.5951,11.5798
20.5951,11.5798
20.5951,11.5798
20.7200,11.4078
20.7200,11.4078
20.7201,11.4078
20.7245,11.3991
20.7725,11.3483
20.8403,11.3315
20.9064,11.3540
20.9455,11.3991
20.9496,11.4071
20.9500,11.4078
21.0749,11.5798
21.2252,11.7301
21.3972,11.8550
21.3972,11.8550
21.3972,11.8551
21.5866,11.9516
21.7888,12.0172
21.9987,12.0505
21.9987,12.0505
22.2113,12.0505
22.2113,12.0505
22.4212,12.0172
22.6234,11.9516
22.8128,11.8551
22.8572,11.8228
22.9848,11.7301
22.9848,11.7301
22.9848,11.7301
23.1351,11.5798
23.1351,11.5798
23.1351,11.5798
23.2600,11.4078
23.2600,11.4078
23.2601,11.4078
23.3566,11.2184
23.4222,11.0162
23.4555,10.8063
23.4555,10.5937
23.4430,10.5148
24.7995,10.5148
24.7995,10.7352
24.8108,10.8063
24.8340,10.9530
24.9021,11.1626
24.9021,11.1626
24.9701,11.2961
24.9993,11.3534
25.0022,11.3590
25.1318,11.5374
25.1318,11.5374
25.2876,11.6932
25.2876,11.6932
25.3384,11.7301
25.4660,11.8228
25.5924,11.8872
25.6624,11.9229
25.6624,11.9229
25.7443,11.9495
25.8720,11.9910
26.0898,12.0255
26.0898,12.0255
26.3102,12.0255
26.3102,12.0255
26.5280,11.9910
26.7376,11.9229
26.9340,11.8228
27.1124,11.6932
27.2682,11.5374
27.3978,11.3590
27.4979,11.1626
27.5660,10.9530
27.6005,10.7352
27.6005,10.5148
41.6995,10.5148
41.6995,10.7352
41.7108,10.8063
41.7340,10.9530
41.8021,11.1626
41.8021,11.1626
41.8701,11.2961
41.8993,11.3534
41.9022,11.3590
42.0318,11.5374
42.0318,11.5374
42.1876,11.6932
42.1876,11.6932
42.2384,11.7301
42.3660,11.8228
42.4924,11.8872
42.5624,11.9229
42.5624,11.9229
42.6443,11.9495
42.7720,11.9910
42.9898,12.0255
42.9898,12.0255
43.2102,12.0255
43.2102,12.0255
43.4280,11.9910
43.6376,11.9229
43.8340,11.8228
44.0124,11.6932
44.1682,11.5374
44.2978,11.3590
44.3979,11.1626
44.4660,10.9530
44.5005,10.7352
44.5005,10.5148
44.4660,10.2970
44.4285,10.1816
44.3979,10.0874
44.3979,10.0874
44.3495,9.9924
44.2978,9.8910
44.2466,9.8205
44.1682,9.7126
44.1682,9.7126
44.0124,9.5568
44.0124,9.5568
43.8340,9.4272
43.8340,9.4272
43.8340,9.4272
43.7478,9.3832
43.6376,9.3271
43.6376,9.3271
43.4280,9.2590
43.3191,9.2417
43.2102,9.2245
42.9898,9.2245
42.9172,9.2360
42.7720,9.2590
42.5624,9.3271
42.5624,9.3271
42.3660,9.4272
42.1876,9.5568
42.1876,9.5568
42.0318,9.7126
42.0318,9.7126
41.9022,9.8910
41.8021,10.0874
41.8021,10.0874
41.7340,10.2970
41.7340,10.2970
41.6995,10.5148
27.6005,10.5148
27.5660,10.2970
27.5285,10.1816
27.4979,10.0874
27.4979,10.0874
27.4495,9.9924
27.3978,9.8910
27.3466,9.8205
27.2682,9.7126
27.2682,9.7126
27.1124,9.5568
27.1124,9.5568
26.9340,9.4272
26.9340,9.4272
26.9340,9.4272
26.8478,9.3832
26.7376,9.3271
26.7376,9.3271
26.5280,9.2590
26.4191,9.2417
26.3102,9.2245
26.0898,9.2245
26.0172,9.2360
25.8720,9.2590
25.6624,9.3271
25.6624,9.3271
25.4660,9.4272
25.2876,9.5568
25.2876,9.5568
25.1318,9.7126
25.1318,9.7126
25.0022,9.8910
24.9021,10.0874
24.9021,10.0874
24.8340,10.2970
24.8340,10.2970
24.7995,10.5148
23.4430,10.5148
23.4222,10.3838
23.3566,10.1816
23.2601,9.9922
23.2600,9.9922
23.2600,9.9922
23.1351,9.8202
22.9848,9.6699
22.8128,9.5450
22.6234,9.4484
22.6234,9.4484
22.6234,9.4484
22.4212,9.3828
22.4212,9.3828
22.4212,9.3828
22.2600,9.3572
22.2113,9.3495
21.9987,9.3495
21.9500,9.3572
21.7888,9.3828
21.5866,9.4484
21.3972,9.5450
21.2252,9.6699
21.0749,9.8202
20.9499,9.9922
20.9455,10.0009
20.8975,10.0517
20.8297,10.0685
20.7636,10.0460
20.7245,10.0009
20.7201,9.9922
20.5951,9.8202
20.4448,9.6699
20.2728,9.5450
20.0834,9.4484
20.0834,9.4484
20.0834,9.4484
19.8812,9.3828
19.8812,9.3828
19.8812,9.3828
19.7200,9.3572
19.6713,9.3495
19.4587,9.3495
19.4100,9.3572
19.2488,9.3828
19.0466,9.4484
18.8572,9.5450
18.6852,9.6699
18.5349,9.8202
18.4099,9.9922
18.4055,10.0009
18.3575,10.0517
18.2897,10.0685
18.2236,10.0460
18.1845,10.0009
18.1800,9.9922
18.0551,9.8202
17.9048,9.6699
17.7328,9.5450
17.5434,9.4484
17.5434,9.4484
17.5434,9.4484
17.3412,9.3828
17.3412,9.3828
17.3412,9.3828
17.1800,9.3572
17.1313,9.3495
16.9187,9.3495
16.8700,9.3572
16.7088,9.3828
16.5066,9.4484
16.3172,9.5450
16.1452,9.6699
15.9949,9.8202
15.8699,9.9922
15.8655,10.0009
15.8175,10.0517
15.7497,10.0685
15.6836,10.0460
15.6445,10.0009
15.6400,9.9922
15.5151,9.8202
15.3648,9.6699
15.1928,9.5450
15.0034,9.4484
15.0034,9.4484
15.0034,9.4484
14.8012,9.3828
14.8012,9.3828
14.8012,9.3828
14.6400,9.3572
14.5913,9.3495
14.3787,9.3495
14.3300,9.3572
14.1688,9.3828
13.9666,9.4484
13.7772,9.5450
13.6052,9.6699
13.4549,9.8202
13.3299,9.9922
13.3255,10.0009
13.2775,10.0517
13.2097,10.0685
13.1436,10.0460
13.1045,10.0009
13.1000,9.9922
12.9751,9.8202
12.8248,9.6699
12.6528,9.5450
12.4634,9.4484
12.4634,9.4484
12.4634,9.4484
12.2612,9.3828
12.2612,9.3828
12.2612,9.3828
12.1000,9.3572
12.0513,9.3495
11.8387,9.3495
11.7900,9.3572
11.6288,9.3828
11.4266,9.4484
11.2372,9.5450
11.0652,9.6699
10.9149,9.8202
10.7899,9.9922
10.7855,10.0009
10.7375,10.0517
10.6697,10.0685
10.6036,10.0460
10.5645,10.0009
10.5601,9.9922
10.4351,9.8202
10.2848,9.6699
10.1089,9.5421
10.1099,9.5407
10.1077,9.5384
10.0983,9.5341
10.0847,9.5129
10.0678,9.4943
10.0651,9.4825
10.0605,9.4753
10.0555,9.4404
10.0555,9.1908
10.0752,9.1238
10.1280,9.0780
10.1553,9.0692
10.1824,9.0638
10.3168,9.0371
10.4989,8.9616
10.6628,8.8521
10.8021,8.7128
10.9116,8.5489
10.9871,8.3668
11.0219,8.1919
11.0255,8.1735
11.0255,7.9765
10.9871,7.7832
10.9871,7.7832
10.9871,7.7832
10.9460,7.6842
10.9116,7.6011
10.9116,7.6011
10.8021,7.4372
10.8021,7.4372
10.6628,7.2979
10.6628,7.2979
10.4989,7.1884
10.4989,7.1884
10.3168,7.1129
10.3168,7.1129
10.1235,7.0745
10.1235,7.0745
9.9265,7.0745
9.9265,7.0745
9.7332,7.1129
9.7332,7.1129
9.5511,7.1884
9.5511,7.1884
9.3872,7.2979
9.3872,7.2979
9.2479,7.4372
9.2479,7.4372
9.1384,7.6011
9.1384,7.6011
9.0629,7.7832
9.0629,7.7832
9.0245,7.9765
9.0245,8.1042
9.0048,8.1712
8.9882,8.1919
8.8997,8.2803
8.8997,8.2803
8.8997,8.2803
8.8646,8.3330
8.8419,8.3668
8.8419,8.3668
8.8285,8.3869
8.8285,8.3869
8.7795,8.5053
8.7795,8.5053
8.7545,8.6309
8.7545,9.4404
8.7348,9.5074
8.7004,9.5411
8.7011,9.5421
8.5252,9.6699
8.3749,9.8202
8.2499,9.9922
8.2455,10.0009
8.1975,10.0517
8.1297,10.0685
8.0636,10.0460
8.0245,10.0009
8.0200,9.9922
7.8951,9.8202
7.7448,9.6699
7.5728,9.5450
7.3834,9.4484
7.3834,9.4484
7.3834,9.4484
7.1812,9.3828
7.1812,9.3828
7.1812,9.3828
7.0200,9.3572
6.9713,9.3495
6.7587,9.3495
6.7100,9.3572
6.5488,9.3828
6.3466,9.4484
6.1572,9.5450
5.9852,9.6699
5.8349,9.8202
5.7099,9.9922
5.7052,10.0015
5.6572,10.0523
5.5894,10.0691
5.5233,10.0465
5.4842,10.0015
5.4796,9.9924
5.3547,9.8205
5.3547,9.8205
5.2045,9.6703
5.2045,9.6703
5.0326,9.5454
4.8432,9.4489
4.6411,9.3832
4.5750,9.3728
4.5750,10.2670
4.5180,10.2341
4.3908,10.2000
4.2592,10.2000
4.1320,10.2341
4.0750,10.2670
4.0750,9.3728
4.0750,9.3728
4.0089,9.3832
3.8068,9.4489
3.6174,9.5454
3.4455,9.6703
3.4455,9.6703
3.2953,9.8205
3.2953,9.8205
3.1704,9.9924
3.1658,10.0015
3.1178,10.0523
3.0500,10.0691
2.9838,10.0465
2.9448,10.0015
2.9401,9.9922
2.9400,9.9922
2.9400,9.9922
2.8151,9.8202
2.6648,9.6699
2.6648,9.6699
2.5866,9.6131
2.5439,9.5578
2.5355,9.5128
2.5355,9.1022
2.5441,9.0728
2.5507,9.0428
2.5544,9.0378
2.5552,9.0352
2.5718,9.0145
2.6504,8.9360
2.7117,8.9025
2.7202,8.9012
2.8298,8.8794
2.9168,8.8621
3.0989,8.7866
3.2628,8.6771
3.4021,8.5378
3.5116,8.3739
3.5871,8.1918
3.6255,7.9985
3.6255,7.8015
3.6255,7.8015
3.5871,7.6082
3.5871,7.6082
3.5871,7.6082
3.5659,7.5570
3.5116,7.4261
3.5116,7.4261
3.4021,7.2622
3.4021,7.2622
3.2628,7.1229
3.2628,7.1229
3.0989,7.0134
3.0989,7.0134
2.9168,6.9379
2.9168,6.9379
2.7235,6.8995
2.7235,6.8995
2.5265,6.8995
2.5265,6.8995
2.3332,6.9379
2.3332,6.9379
2.1511,7.0134
2.1511,7.0134
1.9872,7.1229
1.9872,7.1229
1.8479,7.2622
1.8479,7.2622
1.7384,7.4261
1.7384,7.4261
1.6629,7.6082
1.6629,7.6082
1.6233,7.8074
1.6215,7.8071
1.5986,7.8639
1.5890,7.8746
1.2020,8.2616
1.1895,8.2803
1.1544,8.3330
1.1199,8.3845
1.1199,8.3845
1.0633,8.5211
1.0633,8.5211
1.0345,8.6661
1.0345,9.5128
1.0148,9.5798
0.9834,9.6131
0.9052,9.6699
0.9052,9.6699
0.7549,9.8202
0.7549,9.8202
0.6748,9.9304
0.6195,9.9731
0.5499,9.9791
0.4881,9.9465
0.4537,9.8856
0.4505,9.8575
0.4505,2.2000
1.8995,2.2000
1.8995,3.8000
1.8995,3.8000
1.9100,3.9028
1.9100,3.9028
1.9652,4.0693
1.9652,4.0693
1.9895,4.1088
2.0573,4.2187
2.1813,4.3427
2.3307,4.4348
2.4972,4.4900
2.6000,4.5005
3.9000,4.5005
4.0028,4.4900
4.1693,4.4348
4.3187,4.3427
4.4427,4.2187
4.5348,4.0693
4.5348,4.0693
4.5384,4.0634
4.5904,4.0167
4.6594,4.0055
4.7234,4.0333
4.7317,4.0409
4.8705,4.1797
4.8705,4.1797
5.0424,4.3046
5.2318,4.4011
5.4339,4.4668
5.5000,4.4772
5.5000,3.4330
5.5570,3.4659
5.6842,3.5000
5.8158,3.5000
5.9430,3.4659
6.0000,3.4330
6.0000,4.4772
6.0661,4.4668
6.0661,4.4668
6.2682,4.4011
6.4576,4.3046
6.6295,4.1797
6.6295,4.1797
6.7797,4.0295
6.7797,4.0295
6.9046,3.8576
7.0011,3.6682
7.0668,3.4661
7.0668,3.4661
7.1000,3.2562
7.1000,3.2500
6.1830,3.2500
6.2159,3.1930
6.2500,3.0658
6.2500,3.0353
14.1995,3.0353
14.1995,3.2647
14.2097,3.3418
14.2295,3.4922
14.2379,3.5239
14.2888,3.7139
14.3766,3.9259
14.3767,3.9259
14.4066,3.9778
14.4799,4.1048
14.4914,4.1246
14.6311,4.3067
14.6311,4.3067
14.7933,4.4689
14.7933,4.4689
14.7933,4.4689
14.8208,4.4900
14.9754,4.6086
14.9754,4.6086
14.9754,4.6086
15.1741,4.7233
15.1741,4.7233
15.1741,4.7233
15.2655,4.7612
15.3861,4.8112
15.6078,4.8705
15.8353,4.9005
15.8353,4.9005
16.0647,4.9005
16.0647,4.9005
16.2922,4.8705
16.5139,4.8112
16.7259,4.7233
16.9246,4.6086
17.1067,4.4689
17.1067,4.4689
17.1067,4.4689
17.1734,4.4021
21.9845,4.4021
21.9845,6.1979
21.9845,6.1979
21.9909,6.2575
22.0412,6.3923
22.0412,6.3923
22.1275,6.5075
22.1275,6.5075
22.2427,6.5938
22.2427,6.5938
22.3775,6.6441
22.3775,6.6441
22.3844,6.6448
22.4371,6.6505
24.2329,6.6505
24.2925,6.6441
24.4273,6.5938
24.5425,6.5075
24.6288,6.3923
24.6791,6.2575
24.6855,6.1979
24.6855,6.1740
24.6883,6.1610
24.6989,6.1415
24.7052,6.1203
24.7218,6.0996
24.7218,6.0996
24.7218,6.0996
24.7218,6.0996
25.3920,5.4294
25.4091,5.4930
25.4749,5.6070
25.5680,5.7001
25.6820,5.7659
25.7456,5.7830
25.1133,6.4153
25.1133,6.4153
25.1674,6.4546
25.3568,6.5511
25.5589,6.6168
25.7688,6.6500
25.9812,6.6500
26.1911,6.6168
26.1911,6.6168
26.3932,6.5511
26.5826,6.4546
26.6367,6.4153
26.6367,6.4153
26.0044,5.7830
26.0680,5.7659
26.1820,5.7001
26.2751,5.6070
26.3409,5.4930
26.3580,5.4294
26.9903,6.0617
26.9903,6.0617
27.0296,6.0076
27.1261,5.8182
27.1918,5.6161
27.1918,5.6161
27.2250,5.4062
27.2250,5.1938
27.1918,4.9839
27.1918,4.9839
27.1261,4.7818
27.0296,4.5924
26.9903,4.5383
26.9903,4.5383
26.3580,5.1706
26.3409,5.1070
26.2751,4.9930
26.1820,4.8999
26.0680,4.8341
26.0044,4.8170
26.6367,4.1847
26.5825,4.1454
26.3932,4.0489
26.1911,3.9832
25.9812,3.9500
25.7688,3.9500
25.5589,3.9832
25.5589,3.9832
25.3568,4.0489
25.1674,4.1454
25.1133,4.1847
25.1133,4.1847
25.7456,4.8170
25.6820,4.8341
25.5680,4.8999
25.4749,4.9930
25.4091,5.1070
25.3920,5.1706
24.7218,4.5004
24.6883,4.4390
24.6883,4.4390
24.6855,4.4260
24.6855,4.4021
24.6791,4.3425
24.6465,4.2551
24.6288,4.2077
24.6288,4.2077
24.5425,4.0925
24.5425,4.0925
24.4273,4.0062
24.4273,4.0062
24.2925,3.9559
24.2925,3.9559
24.2329,3.9495
24.2329,3.9495
24.2329,3.9495
24.2329,3.9495
22.4371,3.9495
22.4371,3.9495
22.3775,3.9559
22.2427,4.0062
22.2427,4.0062
22.1275,4.0925
22.1275,4.0925
22.0412,4.2077
22.0412,4.2077
21.9909,4.3425
21.9845,4.4021
21.9845,4.4021
17.1734,4.4021
17.2689,4.3067
17.2689,4.3067
17.2689,4.3067
17.4086,4.1246
17.5233,3.9259
17.6112,3.7139
17.6705,3.4922
17.7005,3.2647
17.7005,3.0353
17.6705,2.8078
17.6112,2.5861
17.5391,2.4122
17.5233,2.3741
17.5233,2.3741
17.5233,2.3741
17.4661,2.2750
36.1995,2.2750
36.1995,3.8750
36.1995,3.8750
36.2100,3.9778
36.2100,3.9778
36.2559,4.1163
36.2652,4.1443
36.3573,4.2937
36.4813,4.4177
36.6307,4.5098
36.7972,4.5650
36.9000,4.5755
38.2000,4.5755
38.3028,4.5650
38.4693,4.5098
38.6187,4.4177
38.7427,4.2937
38.8348,4.1443
38.8348,4.1443
38.8382,4.1389
38.8901,4.0922
38.9591,4.0809
39.0232,4.1088
39.0314,4.1163
39.1702,4.2551
39.3422,4.3800
39.3422,4.3800
39.3422,4.3801
39.5316,4.4766
39.7338,4.5422
39.9437,4.5755
39.9437,4.5755
40.1563,4.5755
40.1563,4.5755
40.3662,4.5422
40.5684,4.4766
40.7578,4.3801
40.8092,4.3427
40.9298,4.2551
40.9298,4.2551
40.9298,4.2551
41.0801,4.1048
41.0801,4.1048
41.0801,4.1048
41.2023,3.9366
41.2051,3.9328
41.3016,3.7434
41.3672,3.5412
41.4005,3.3313
41.4005,3.1485
42.8745,3.1485
42.9129,3.3418
42.9129,3.3418
42.9884,3.5239
42.9884,3.5239
43.0979,3.6878
43.0979,3.6878
43.2372,3.8271
43.2372,3.8271
43.4011,3.9366
43.4011,3.9366
43.5136,3.9832
43.5832,4.0121
43.5832,4.0121
43.5832,4.0121
43.7765,4.0505
43.7765,4.0505
43.9735,4.0505
44.1036,4.0246
44.1668,4.0121
44.3489,3.9366
44.4411,3.8750
44.5178,3.8238
44.5189,3.8253
44.5753,3.8013
44.5896,3.8005
44.9378,3.8005
45.0048,3.8202
45.0255,3.8368
47.3594,6.1708
47.3929,6.2321
47.3879,6.3018
47.3461,6.3578
47.2912,6.3810
47.2784,6.3830
47.2720,6.3840
47.2720,6.3840
47.2720,6.3840
47.0624,6.4521
47.0624,6.4521
46.8660,6.5522
46.6876,6.6818
46.6876,6.6818
46.5318,6.8376
46.5318,6.8376
46.4022,7.0160
46.3021,7.2124
46.3021,7.2124
46.2340,7.4220
46.1995,7.6398
46.1995,7.8602
46.2340,8.0780
46.3021,8.2876
46.3021,8.2876
46.3672,8.4154
46.3873,8.4547
46.4022,8.4840
46.5318,8.6624
46.5318,8.6624
46.6876,8.8182
46.6876,8.8182
46.8036,8.9025
46.8660,8.9478
46.9944,9.0132
47.0624,9.0479
47.0624,9.0479
47.1304,9.0700
47.2720,9.1160
47.4898,9.1505
47.4898,9.1505
47.7102,9.1505
47.7102,9.1505
47.9280,9.1160
48.1376,9.0479
48.3340,8.9478
48.5124,8.8182
48.6682,8.6624
48.6997,8.6191
48.7550,8.5764
48.8246,8.5704
48.8864,8.6031
48.9003,8.6191
48.9318,8.6624
49.0876,8.8182
49.0876,8.8182
49.2036,8.9025
49.2660,8.9478
49.3944,9.0132
49.4624,9.0479
49.4624,9.0479
49.5304,9.0700
49.6720,9.1160
49.8898,9.1505
49.8898,9.1505
50.1102,9.1505
50.1102,9.1505
50.3280,9.1160
50.5376,9.0479
50.7340,8.9478
50.9124,8.8182
51.0682,8.6624
51.1198,8.5915
51.1238,8.5869
51.1485,8.5715
51.1715,8.5538
51.1786,8.5527
51.1831,8.5499
51.1966,8.5501
51.2262,8.5457
51.2489,8.5475
51.9170,7.8794
51.9341,7.9430
51.9999,8.0570
52.0930,8.1501
52.2070,8.2159
52.2706,8.2330
51.6025,8.9011
51.6025,8.9011
51.6662,8.9474
51.8626,9.0474
52.0722,9.1155
52.2898,9.1500
52.5102,9.1500
52.7278,9.1155
52.9374,9.0474
53.1338,8.9474
53.1975,8.9011
53.1975,8.9011
52.5294,8.2330
52.5930,8.2159
52.7070,8.1501
52.8001,8.0570
52.8659,7.9430
52.8830,7.8794
53.5511,8.5475
53.5511,8.5475
53.5974,8.4838
53.6168,8.4457
53.6974,8.2874
53.7655,8.0778
53.8000,7.8602
53.8000,7.6398
53.7655,7.4222
53.6974,7.2126
53.5974,7.0162
53.5511,6.9525
53.5511,6.9525
52.8830,7.6206
52.8659,7.5570
52.8001,7.4430
52.7070,7.3499
52.5930,7.2841
52.5294,7.2670
53.1975,6.5989
53.1338,6.5526
52.9374,6.4526
52.7278,6.3845
52.5102,6.3500
52.2898,6.3500
52.0722,6.3845
51.8626,6.4526
51.6662,6.5526
51.6025,6.5989
51.6025,6.5989
52.2706,7.2670
52.2070,7.2841
52.0930,7.3499
51.9999,7.4430
51.9341,7.5570
51.9170,7.6206
51.2489,6.9525
51.2262,6.9543
51.2221,6.9534
51.2181,6.9546
51.1882,6.9463
51.1578,6.9399
51.1537,6.9367
51.1508,6.9359
51.1406,6.9264
51.1238,6.9131
51.1197,6.9085
51.0682,6.8376
50.9124,6.6818
50.9124,6.6818
50.9124,6.6818
50.7340,6.5522
50.7340,6.5522
50.7340,6.5522
50.6464,6.5075
50.5376,6.4521
50.5376,6.4521
50.3280,6.3840
50.2191,6.3667
50.1102,6.3495
49.8898,6.3495
49.8898,6.3495
49.7546,6.3709
49.6853,6.3620
49.6475,6.3361
46.3466,3.0353
64.1995,3.0353
64.1995,3.2647
64.2097,3.3418
64.2295,3.4922
64.2379,3.5239
64.2888,3.7139
64.3766,3.9259
64.3767,3.9259
64.4066,3.9778
64.4799,4.1048
64.4914,4.1246
64.6311,4.3067
64.6311,4.3067
64.7933,4.4689
64.7933,4.4689
64.7933,4.4689
64.8208,4.4900
64.9754,4.6086
64.9754,4.6086
64.9754,4.6086
65.1741,4.7233
65.1741,4.7233
65.1741,4.7233
65.2655,4.7612
65.3861,4.8112
65.6078,4.8705
65.8353,4.9005
65.8353,4.9005
66.0647,4.9005
66.0647,4.9005
66.2922,4.8705
66.5139,4.8112
66.7259,4.7233
66.9246,4.6086
67.1067,4.4689
67.1067,4.4689
67.1067,4.4689
67.2689,4.3067
67.2689,4.3067
67.2689,4.3067
67.4086,4.1246
67.5233,3.9259
67.6112,3.7139
67.6705,3.4922
67.7005,3.2647
67.7005,3.0353
67.6705,2.8078
67.6112,2.5861
67.5391,2.4122
67.5233,2.3741
67.5233,2.3741
67.5233,2.3741
67.4086,2.1754
67.4086,2.1754
67.4086,2.1754
67.2784,2.0057
67.2689,1.9933
67.2689,1.9933
67.2689,1.9933
67.1067,1.8311
67.1067,1.8311
66.9246,1.6914
66.8935,1.6734
66.8359,1.6402
66.7259,1.5767
66.7259,1.5766
66.5139,1.4888
66.2922,1.4295
66.2542,1.4244
66.0647,1.3995
66.0647,1.3995
65.8353,1.3995
65.8353,1.3995
65.6187,1.4280
65.6078,1.4295
65.5141,1.4546
65.3861,1.4888
65.1741,1.5766
65.1741,1.5767
64.9754,1.6914
64.7933,1.8311
64.6311,1.9933
64.4914,2.1754
64.3767,2.3741
64.3766,2.3741
64.2888,2.5861
64.2295,2.8078
64.2295,2.8078
64.1995,3.0353
46.3466,3.0353
45.7784,2.4670
45.7292,2.4341
45.6964,2.4122
45.6555,2.3849
45.6555,2.3849
45.6555,2.3849
45.6555,2.3849
45.5189,2.3283
45.5189,2.3283
45.3739,2.2995
45.3739,2.2995
44.5896,2.2995
44.5226,2.2798
44.5156,2.2748
44.3489,2.1634
44.3489,2.1634
44.1668,2.0879
44.1668,2.0879
43.9735,2.0495
43.9735,2.0495
43.7765,2.0495
43.7765,2.0495
43.5832,2.0879
43.5832,2.0879
43.4011,2.1634
43.4011,2.1634
43.2372,2.2729
43.2372,2.2729
43.0979,2.4122
43.0979,2.4122
42.9884,2.5761
42.9884,2.5761
42.9129,2.7582
42.9129,2.7582
42.8745,2.9515
42.8745,2.9515
42.8745,3.1485
42.8745,3.1485
42.8745,3.1485
41.4005,3.1485
41.4005,2.8187
41.3672,2.6088
41.3016,2.4066
41.2051,2.2172
41.2050,2.2172
41.2050,2.2172
41.0801,2.0452
40.9298,1.8949
40.7578,1.7700
40.5684,1.6734
40.5684,1.6734
40.5684,1.6734
40.3662,1.6078
40.3662,1.6078
40.3662,1.6078
40.2050,1.5822
40.1563,1.5745
39.9437,1.5745
39.8950,1.5822
39.7338,1.6078
39.5316,1.6734
39.3422,1.7700
39.1702,1.8949
39.0314,2.0337
38.9701,2.0672
38.9004,2.0622
38.8444,2.0203
38.8382,2.0111
38.7427,1.8563
38.6187,1.7323
38.6187,1.7323
38.4693,1.6402
38.3028,1.5850
38.3028,1.5850
38.2000,1.5745
36.9000,1.5745
36.9000,1.5745
36.7972,1.5850
36.7972,1.5850
36.6307,1.6402
36.6307,1.6402
36.4813,1.7323
36.3573,1.8563
36.2652,2.0057
36.2652,2.0057
36.2603,2.0203
36.2100,2.1722
36.2100,2.1722
36.2100,2.1722
36.1995,2.2750
17.4661,2.2750
17.4086,2.1754
17.4086,2.1754
17.4086,2.1754
17.2784,2.0057
17.2689,1.9933
17.2689,1.9933
17.2689,1.9933
17.1067,1.8311
17.1067,1.8311
16.9246,1.6914
16.8935,1.6734
16.8359,1.6402
16.7259,1.5767
16.7259,1.5766
16.5139,1.4888
16.2922,1.4295
16.2542,1.4244
16.0647,1.3995
16.0647,1.3995
15.8353,1.3995
15.8353,1.3995
15.6187,1.4280
15.6078,1.4295
15.5141,1.4546
15.3861,1.4888
15.1741,1.5766
15.1741,1.5767
14.9754,1.6914
14.7933,1.8311
14.6311,1.9933
14.4914,2.1754
14.3767,2.3741
14.3766,2.3741
14.2888,2.5861
14.2295,2.8078
14.2295,2.8078
14.1995,3.0353
6.2500,3.0353
6.2500,2.9342
6.2159,2.8070
6.1830,2.7500
7.1000,2.7500
7.1000,2.7438
7.0668,2.5339
7.0668,2.5339
7.0011,2.3318
6.9046,2.1424
6.7797,1.9705
6.7797,1.9705
6.6295,1.8203
6.6295,1.8203
6.4576,1.6954
6.2682,1.5989
6.0661,1.5332
6.0000,1.5228
6.0000,2.5670
5.9430,2.5341
5.8158,2.5000
5.6842,2.5000
5.5570,2.5341
5.5000,2.5670
5.5000,1.5228
5.5000,1.5228
5.4339,1.5332
5.2318,1.5989
5.0424,1.6954
4.8705,1.8203
4.7317,1.9591
4.6703,1.9926
4.6007,1.9876
4.5447,1.9458
4.5384,1.9366
4.4427,1.7813
4.3187,1.6573
4.3187,1.6573
4.2240,1.5989
4.1693,1.5652
4.1693,1.5652
4.1679,1.5647
4.0028,1.5100
4.0028,1.5100
3.9000,1.4995
2.6000,1.4995
2.6000,1.4995
2.4972,1.5100
2.4972,1.5100
2.3307,1.5652
2.3307,1.5652
2.1813,1.6573
2.0573,1.7813
1.9652,1.9307
1.9652,1.9307
1.9444,1.9933
1.9100,2.0972
1.9100,2.0972
1.9100,2.0972
1.8995,2.2000
0.4505,2.2000
0.4505,0.5745
0.4702,0.5075
0.5230,0.4617
0.5745,0.4505
69.3255,0.4505
Z" /> 
<path style="fill:#FFFFFF; fill-opacity:1.0000; stroke:none;fill-rule:evenodd;"
d="M 4.5750,12.0272
4.6411,12.0168
4.6411,12.0168
4.8432,11.9511
5.0326,11.8546
5.2045,11.7297
5.2045,11.7297
5.3547,11.5795
5.3547,11.5795
5.4796,11.4076
5.4842,11.3985
5.5322,11.3477
5.6000,11.3309
5.6662,11.3534
5.7052,11.3985
5.7099,11.4078
5.8349,11.5798
5.8349,11.5798
5.9852,11.7301
6.0634,11.7869
6.1061,11.8422
6.1145,11.8872
6.1145,15.5389
6.1145,15.5389
6.1145,15.5389
6.1433,15.6839
6.1433,15.6839
6.1999,15.8205
6.1999,15.8205
6.1999,15.8205
6.2126,15.8394
6.2126,15.8395
6.2126,15.8395
6.2820,15.9434
6.2821,15.9434
12.9466,22.6080
12.9466,22.6080
12.9761,22.6276
13.0203,22.6572
13.0695,22.6901
13.0695,22.6901
13.0695,22.6901
13.0695,22.6901
13.2061,22.7467
13.2061,22.7467
13.2061,22.7467
13.2061,22.7467
13.3511,22.7755
13.3511,22.7755
13.3511,22.7755
13.4989,22.7755
24.3628,22.7755
24.4298,22.7952
24.4505,22.8118
26.0132,24.3745
26.0467,24.4359
26.0495,24.4622
26.0495,28.1354
26.0298,28.2024
26.0248,28.2094
25.9134,28.3761
25.9134,28.3761
25.8379,28.5582
25.8379,28.5582
25.8077,28.7100
25.7754,28.7719
25.7146,28.8065
25.6449,28.8028
25.5984,28.7735
23.4557,26.6307
23.4222,26.5694
23.4227,26.5212
23.4215,26.5211
23.4555,26.3063
23.4555,26.0937
23.4496,26.0562
23.4222,25.8838
23.3566,25.6816
23.2601,25.4922
23.2600,25.4922
23.2600,25.4922
23.1351,25.3202
22.9848,25.1699
22.8128,25.0450
22.6234,24.9484
22.6234,24.9484
22.6234,24.9484
22.4212,24.8828
22.4212,24.8828
22.4212,24.8828
22.2600,24.8572
22.2113,24.8495
21.9987,24.8495
21.9500,24.8572
21.7888,24.8828
21.5866,24.9484
21.3972,25.0450
21.2252,25.1699
21.0749,25.3202
20.9499,25.4922
20.9455,25.5009
20.8975,25.5517
20.8297,25.5685
20.7636,25.5460
20.7245,25.5009
20.7201,25.4922
20.5951,25.3202
20.4448,25.1699
20.2728,25.0450
20.0834,24.9484
20.0834,24.9484
20.0834,24.9484
19.8812,24.8828
19.8812,24.8828
19.8812,24.8828
19.7200,24.8572
19.6713,24.8495
19.4587,24.8495
19.4100,24.8572
19.2488,24.8828
19.0466,24.9484
18.8572,25.0450
18.6852,25.1699
18.5349,25.3202
18.4099,25.4922
18.4055,25.5009
18.3575,25.5517
18.2897,25.5685
18.2236,25.5460
18.1845,25.5009
18.1800,25.4922
18.0551,25.3202
17.9048,25.1699
17.7328,25.0450
17.5434,24.9484
17.5434,24.9484
17.5434,24.9484
17.3412,24.8828
17.3412,24.8828
17.3412,24.8828
17.1800,24.8572
17.1313,24.8495
16.9187,24.8495
16.8700,24.8572
16.7088,24.8828
16.5066,24.9484
16.3172,25.0450
16.1452,25.1699
15.9949,25.3202
15.8699,25.4922
15.8655,25.5009
15.8175,25.5517
15.7497,25.5685
15.6836,25.5460
15.6445,25.5009
15.6400,25.4922
15.5151,25.3202
15.3648,25.1699
15.1928,25.0450
15.0034,24.9484
15.0034,24.9484
15.0034,24.9484
14.8012,24.8828
14.8012,24.8828
14.8012,24.8828
14.6400,24.8572
14.5913,24.8495
14.3787,24.8495
14.3300,24.8572
14.1688,24.8828
13.9666,24.9484
13.7772,25.0450
13.6052,25.1699
13.4549,25.3202
13.3299,25.4922
13.3255,25.5009
13.2775,25.5517
13.2097,25.5685
13.1436,25.5460
13.1045,25.5009
13.1000,25.4922
12.9751,25.3202
12.8248,25.1699
12.6528,25.0450
12.4634,24.9484
12.4634,24.9484
12.4634,24.9484
12.2612,24.8828
12.2612,24.8828
12.2612,24.8828
12.1000,24.8572
12.0513,24.8495
11.8387,24.8495
11.7900,24.8572
11.6288,24.8828
11.4266,24.9484
11.2372,25.0450
11.0652,25.1699
10.9149,25.3202
10.7899,25.4922
10.7855,25.5009
10.7375,25.5517
10.6697,25.5685
10.6036,25.5460
10.5645,25.5009
10.5601,25.4922
10.4351,25.3202
10.2848,25.1699
10.1128,25.0450
9.9234,24.9484
9.9234,24.9484
9.9234,24.9484
9.7212,24.8828
9.7212,24.8828
9.7212,24.8828
9.5600,24.8572
9.5113,24.8495
9.2987,24.8495
9.2500,24.8572
9.0888,24.8828
8.8866,24.9484
8.6972,25.0450
8.5252,25.1699
8.3749,25.3202
8.2499,25.4922
8.2455,25.5009
8.1975,25.5517
8.1297,25.5685
8.0636,25.5460
8.0245,25.5009
8.0200,25.4922
7.8951,25.3202
7.7448,25.1699
7.5728,25.0450
7.3834,24.9484
7.3834,24.9484
7.3834,24.9484
7.1812,24.8828
7.1812,24.8828
7.1812,24.8828
7.0200,24.8572
6.9713,24.8495
6.7587,24.8495
6.7100,24.8572
6.5488,24.8828
6.3466,24.9484
6.1572,25.0450
5.9852,25.1699
5.8349,25.3202
5.7099,25.4922
5.7055,25.5009
5.6575,25.5517
5.5897,25.5685
5.5236,25.5460
5.4845,25.5009
5.4800,25.4922
5.3551,25.3202
5.2048,25.1699
5.0328,25.0450
4.8434,24.9484
4.8434,24.9484
4.8434,24.9484
4.6412,24.8828
4.6412,24.8828
4.6412,24.8828
4.4800,24.8572
4.4313,24.8495
4.2187,24.8495
4.1700,24.8572
4.0088,24.8828
3.8066,24.9484
3.6172,25.0450
3.4452,25.1699
3.2949,25.3202
3.1699,25.4922
3.1655,25.5009
3.1175,25.5517
3.0497,25.5685
2.9836,25.5460
2.9445,25.5009
2.9400,25.4922
2.8151,25.3202
2.6648,25.1699
2.4928,25.0450
2.3034,24.9484
2.3034,24.9484
2.3034,24.9484
2.1012,24.8828
2.1012,24.8828
2.1012,24.8828
1.9400,24.8572
1.8913,24.8495
1.6787,24.8495
1.6300,24.8572
1.4688,24.8828
1.2666,24.9484
1.0772,25.0450
0.9052,25.1699
0.7549,25.3202
0.7549,25.3202
0.6748,25.4304
0.6195,25.4731
0.5499,25.4791
0.4881,25.4465
0.4537,25.3856
0.4505,25.3575
0.4505,11.5425
0.4702,11.4754
0.5230,11.4297
0.5921,11.4197
0.6557,11.4487
0.6748,11.4696
0.6791,11.4754
0.7549,11.5798
0.9052,11.7301
1.0772,11.8550
1.0772,11.8550
1.0772,11.8551
1.2666,11.9516
1.4688,12.0172
1.6787,12.0505
1.6787,12.0505
1.8913,12.0505
1.8913,12.0505
2.1012,12.0172
2.3034,11.9516
2.4928,11.8551
2.5372,11.8228
2.6648,11.7301
2.6648,11.7301
2.6648,11.7301
2.8151,11.5798
2.8151,11.5798
2.8151,11.5798
2.8909,11.4754
2.9401,11.4078
2.9448,11.3985
2.9928,11.3477
3.0606,11.3309
3.1267,11.3534
3.1658,11.3985
3.1704,11.4076
3.2953,11.5795
3.2953,11.5795
3.4455,11.7297
3.4455,11.7297
3.6174,11.8546
3.8068,11.9511
4.0089,12.0168
4.0750,12.0272
4.0750,11.1330
4.1320,11.1659
4.2592,11.2000
4.3908,11.2000
4.5180,11.1659
4.5750,11.1330
Z" /> 
<path style="fill:#FFFFFF; fill-opacity:1.0000; stroke:none;fill-rule:evenodd;"
d="M 64.5193,24.7231
64.5753,24.7650
64.5997,24.8305
64.6000,24.8393
64.6000,24.9162
64.6332,25.1261
64.6332,25.1261
64.6989,25.3282
64.7954,25.5175
64.8347,25.5717
65.4670,24.9394
65.4841,25.0030
65.5499,25.1170
65.6430,25.2101
65.7570,25.2759
65.8206,25.2930
65.1504,25.9632
65.0890,25.9967
65.0627,25.9995
65.0521,25.9995
65.0521,25.9995
64.9925,26.0059
64.8577,26.0562
64.8577,26.0562
64.7425,26.1425
64.7425,26.1425
64.6562,26.2577
64.6562,26.2577
64.6059,26.3925
64.5995,26.4521
64.5995,26.4521
64.5995,26.4521
64.5995,27.7292
64.5798,27.7962
64.5632,27.8169
64.2540,28.1261
64.1927,28.1595
64.1230,28.1546
64.0671,28.1127
64.0426,28.0472
64.0423,28.0384
64.0423,25.1490
64.0620,25.0819
64.0786,25.0613
64.3883,24.7516
64.4496,24.7181
Z" /> 
<path style="fill:none; 
stroke:#FFFFFF; stroke-width:0.0500; stroke-opacity:1; 
stroke-linecap:round; stroke-linejoin:round;fill:none"
d="M -0.0500,-0.0500
69.9500,-0.0500
69.9500,36.9500
-0.0500,36.9500
Z" /> 
</g>
<g style="fill:#000000; fill-opacity:1.0000; stroke:none;">
<circle cx="9.4250" cy="28.8250" r="0.1750" /> 
</g>
<g style="fill:#000000; fill-opacity:1.0000; stroke:none;">
<circle cx="26.8000" cy="28.8500" r="0.1750" /> 
</g>
<g style="fill:#000000; fill-opacity:1.0000; stroke:none;">
<circle cx="6.9250" cy="28.9000" r="0.1750" /> 
</g>
<g style="fill:#000000; fill-opacity:1.0000; stroke:none;">
<circle cx="5.0250" cy="7.8500" r="0.1750" /> 
</g>
<g style="fill:#000000; fill-opacity:1.0000; stroke:none;">
<circle cx="2.6250" cy="7.9000" r="0.1750" /> 
</g>
<g style="fill:#000000; fill-opacity:1.0000; stroke:none;">
<circle cx="10.0250" cy="8.0750" r="0.1750" /> 
</g>
<g style="fill:#000000; fill-opacity:1.0000; stroke:none;">
<circle cx="43.8750" cy="3.0500" r="0.1750" /> 
</g>
<g style="fill:#000000; fill-opacity:1.0000; stroke:none;">
<circle cx="31.5500" cy="21.9500" r="0.1750" /> 
</g>
<g style="fill:#000000; fill-opacity:1.0000; stroke:none;">
<circle cx="38.0500" cy="21.9500" r="0.1750" /> 
</g>
<g style="fill:#000000; fill-opacity:1.0000; stroke:none;">
<circle cx="31.5500" cy="26.4500" r="0.1750" /> 
</g>
<g style="fill:#000000; fill-opacity:1.0000; stroke:none;">
<circle cx="38.0500" cy="26.4500" r="0.1750" /> 
</g>
<g style="fill:#000000; fill-opacity:1.0000; stroke:none;">
<circle cx="26.2000" cy="10.6250" r="0.1750" /> 
</g>
<g style="fill:#000000; fill-opacity:1.0000; stroke:none;">
<circle cx="46.7000" cy="21.9500" r="0.1750" /> 
</g>
<g style="fill:#000000; fill-opacity:1.0000; stroke:none;">
<circle cx="53.2000" cy="21.9500" r="0.1750" /> 
</g>
<g style="fill:#000000; fill-opacity:1.0000; stroke:none;">
<circle cx="46.7000" cy="26.4500" r="0.1750" /> 
</g>
<g style="fill:#000000; fill-opacity:1.0000; stroke:none;">
<circle cx="53.2000" cy="26.4500" r="0.1750" /> 
</g>
<g style="fill:#000000; fill-opacity:1.0000; stroke:none;">
<circle cx="65.9500" cy="33.1500" r="0.1750" /> 
</g>
<g style="fill:#000000; fill-opacity:1.0000; stroke:none;">
<circle cx="15.9500" cy="3.1500" r="0.1750" /> 
</g>
<g style="fill:#000000; fill-opacity:1.0000; stroke:none;">
<circle cx="23.3350" cy="5.3000" r="0.1750" /> 
</g>
<g style="fill:#000000; fill-opacity:1.0000; stroke:none;">
<circle cx="25.8750" cy="5.3000" r="0.1750" /> 
</g>
<g style="fill:#000000; fill-opacity:1.0000; stroke:none;">
<circle cx="65.9500" cy="3.1500" r="0.1750" /> 
</g>
<g style="fill:#000000; fill-opacity:1.0000; stroke:none;">
<circle cx="37.5500" cy="3.0750" r="0.1750" /> 
</g>
<g style="fill:#000000; fill-opacity:1.0000; stroke:none;">
<circle cx="40.0500" cy="3.0750" r="0.1750" /> 
</g>
<g style="fill:#000000; fill-opacity:1.0000; stroke:none;">
<circle cx="15.9500" cy="33.1500" r="0.1750" /> 
</g>
<g style="fill:#000000; fill-opacity:1.0000; stroke:none;">
<circle cx="65.9500" cy="27.3500" r="0.1750" /> 
</g>
<g style="fill:#000000; fill-opacity:1.0000; stroke:none;">
<circle cx="65.9500" cy="24.8100" r="0.1750" /> 
</g>
<g style="fill:#000000; fill-opacity:1.0000; stroke:none;">
<circle cx="65.9500" cy="22.2700" r="0.1750" /> 
</g>
<g style="fill:#000000; fill-opacity:1.0000; stroke:none;">
<circle cx="65.9500" cy="19.7300" r="0.1750" /> 
</g>
<g style="fill:#000000; fill-opacity:1.0000; stroke:none;">
<circle cx="65.9500" cy="17.1900" r="0.1750" /> 
</g>
<g style="fill:#000000; fill-opacity:1.0000; stroke:none;">
<circle cx="65.9500" cy="14.6500" r="0.1750" /> 
</g>
<g style="fill:#000000; fill-opacity:1.0000; stroke:none;">
<circle cx="65.9500" cy="12.1100" r="0.1750" /> 
</g>
<g style="fill:#000000; fill-opacity:1.0000; stroke:none;">
<circle cx="65.9500" cy="9.5700" r="0.1750" /> 
</g>
<g style="fill:#000000; fill-opacity:1.0000; stroke:none;">
<circle cx="47.6000" cy="13.3500" r="0.1750" /> 
</g>
<g style="fill:#000000; fill-opacity:1.0000; stroke:none;">
<circle cx="50.0000" cy="13.3500" r="0.1750" /> 
</g>
<g style="fill:#000000; fill-opacity:1.0000; stroke:none;">
<circle cx="52.4000" cy="13.3500" r="0.1750" /> 
</g>
<g style="fill:#000000; fill-opacity:1.0000; stroke:none;">
<circle cx="52.4000" cy="7.7500" r="0.1750" /> 
</g>
<g style="fill:#000000; fill-opacity:1.0000; stroke:none;">
<circle cx="50.0000" cy="7.7500" r="0.1750" /> 
</g>
<g style="fill:#000000; fill-opacity:1.0000; stroke:none;">
<circle cx="47.6000" cy="7.7500" r="0.1750" /> 
</g>
<g style="fill:#000000; fill-opacity:1.0000; stroke:none;">
<circle cx="3.1550" cy="33.1500" r="0.1750" /> 
</g>
<g style="fill:#000000; fill-opacity:1.0000; stroke:none;">
<circle cx="5.6950" cy="33.1500" r="0.1750" /> 
</g>
<g style="fill:#000000; fill-opacity:1.0000; stroke:none;">
<circle cx="8.2350" cy="33.1500" r="0.1750" /> 
</g>
<g style="fill:#000000; fill-opacity:1.0000; stroke:none;">
<circle cx="10.7750" cy="33.1500" r="0.1750" /> 
</g>
<g style="fill:#000000; fill-opacity:1.0000; stroke:none;">
<circle cx="6.8650" cy="26.2000" r="0.1750" /> 
</g>
<g style="fill:#000000; fill-opacity:1.0000; stroke:none;">
<circle cx="9.4050" cy="26.2000" r="0.1750" /> 
</g>
<g style="fill:#000000; fill-opacity:1.0000; stroke:none;">
<circle cx="11.9450" cy="26.2000" r="0.1750" /> 
</g>
<g style="fill:#000000; fill-opacity:1.0000; stroke:none;">
<circle cx="6.8650" cy="10.7000" r="0.1750" /> 
</g>
<g style="fill:#000000; fill-opacity:1.0000; stroke:none;">
<circle cx="14.4850" cy="26.2000" r="0.1750" /> 
</g>
<g style="fill:#000000; fill-opacity:1.0000; stroke:none;">
<circle cx="17.0250" cy="26.2000" r="0.1750" /> 
</g>
<g style="fill:#000000; fill-opacity:1.0000; stroke:none;">
<circle cx="1.7850" cy="10.7000" r="0.1750" /> 
</g>
<g style="fill:#000000; fill-opacity:1.0000; stroke:none;">
<circle cx="19.5650" cy="26.2000" r="0.1750" /> 
</g>
<g style="fill:#000000; fill-opacity:1.0000; stroke:none;">
<circle cx="22.1050" cy="26.2000" r="0.1750" /> 
</g>
<g style="fill:#000000; fill-opacity:1.0000; stroke:none;">
<circle cx="22.1050" cy="10.7000" r="0.1750" /> 
</g>
<g style="fill:#000000; fill-opacity:1.0000; stroke:none;">
<circle cx="19.5650" cy="10.7000" r="0.1750" /> 
</g>
<g style="fill:#000000; fill-opacity:1.0000; stroke:none;">
<circle cx="17.0250" cy="10.7000" r="0.1750" /> 
</g>
<g style="fill:#000000; fill-opacity:1.0000; stroke:none;">
<circle cx="14.4850" cy="10.7000" r="0.1750" /> 
</g>
<g style="fill:#000000; fill-opacity:1.0000; stroke:none;">
<circle cx="11.9450" cy="10.7000" r="0.1750" /> 
</g>
<g style="fill:#000000; fill-opacity:1.0000; stroke:none;">
<circle cx="9.4050" cy="10.7000" r="0.1750" /> 
</g>
<g style="fill:#000000; fill-opacity:1.0000; stroke:none;">
<circle cx="4.3250" cy="10.7000" r="0.1750" /> 
</g>
<g style="fill:#000000; fill-opacity:1.0000; stroke:none;">
<circle cx="4.3250" cy="26.2000" r="0.1750" /> 
</g>
<g style="fill:#000000; fill-opacity:1.0000; stroke:none;">
<circle cx="1.7850" cy="26.2000" r="0.1750" /> 
</g>
<g style="fill:#000000; fill-opacity:1.0000; stroke:none;">
<circle cx="3.2500" cy="3.0000" r="0.1750" /> 
</g>
<g style="fill:#000000; fill-opacity:1.0000; stroke:none;">
<circle cx="5.7500" cy="3.0000" r="0.1750" /> 
</g>
<g style="fill:#000000; fill-opacity:1.0000; stroke:none;">
<circle cx="43.1000" cy="10.6250" r="0.1750" /> 
</g> 
</svg>
