%TF.GenerationSoftware,KiCad,Pcbnew,9.0.6*%
%TF.CreationDate,2026-01-23T02:05:32+03:00*%
%TF.ProjectId,control_panel,636f6e74-726f-46c5-9f70-616e656c2e6b,rev?*%
%TF.SameCoordinates,Original*%
%TF.FileFunction,Soldermask,Bot*%
%TF.FilePolarity,Negative*%
%FSLAX46Y46*%
G04 Gerber Fmt 4.6, Leading zero omitted, Abs format (unit mm)*
G04 Created by KiCad (PCBNEW 9.0.6) date 2026-01-23 02:05:32*
%MOMM*%
%LPD*%
G01*
G04 APERTURE LIST*
G04 Aperture macros list*
%AMRoundRect*
0 Rectangle with rounded corners*
0 $1 Rounding radius*
0 $2 $3 $4 $5 $6 $7 $8 $9 X,Y pos of 4 corners*
0 Add a 4 corners polygon primitive as box body*
4,1,4,$2,$3,$4,$5,$6,$7,$8,$9,$2,$3,0*
0 Add four circle primitives for the rounded corners*
1,1,$1+$1,$2,$3*
1,1,$1+$1,$4,$5*
1,1,$1+$1,$6,$7*
1,1,$1+$1,$8,$9*
0 Add four rect primitives between the rounded corners*
20,1,$1+$1,$2,$3,$4,$5,0*
20,1,$1+$1,$4,$5,$6,$7,0*
20,1,$1+$1,$6,$7,$8,$9,0*
20,1,$1+$1,$8,$9,$2,$3,0*%
G04 Aperture macros list end*
%ADD10C,1.700000*%
%ADD11O,1.700000X2.000000*%
%ADD12RoundRect,0.250000X-0.600000X-0.750000X0.600000X-0.750000X0.600000X0.750000X-0.600000X0.750000X0*%
%ADD13C,2.700000*%
%ADD14C,2.000000*%
%ADD15C,1.800000*%
%ADD16R,1.700000X1.700000*%
G04 APERTURE END LIST*
D10*
%TO.C,ESPMC1*%
X51835000Y-76250000D03*
X54375000Y-76250000D03*
X54375000Y-60750000D03*
X59455000Y-60750000D03*
X61995000Y-60750000D03*
X64535000Y-60750000D03*
X67075000Y-60750000D03*
X69615000Y-60750000D03*
X72155000Y-60750000D03*
X72155000Y-76250000D03*
X69615000Y-76250000D03*
X51835000Y-60750000D03*
X67075000Y-76250000D03*
X64535000Y-76250000D03*
X56915000Y-60750000D03*
X61995000Y-76250000D03*
X59455000Y-76250000D03*
X56915000Y-76250000D03*
%TD*%
D11*
%TO.C,Inspection_Light1*%
X90100000Y-53125000D03*
D12*
X87600000Y-53125000D03*
%TD*%
D13*
%TO.C,REF\u002A\u002A*%
X66000000Y-83200000D03*
%TD*%
D14*
%TO.C,SW_RESERVED1*%
X103250000Y-76500000D03*
X96750000Y-76500000D03*
X103250000Y-72000000D03*
X96750000Y-72000000D03*
%TD*%
D15*
%TO.C,SW_Inspection_Light1*%
X97650000Y-63400000D03*
X100050000Y-63400000D03*
X102450000Y-63400000D03*
X102450000Y-57800000D03*
X100050000Y-57800000D03*
X97650000Y-57800000D03*
%TD*%
D13*
%TO.C,REF\u002A\u002A*%
X66000000Y-53200000D03*
%TD*%
%TO.C,REF\u002A\u002A*%
X116000000Y-83200000D03*
%TD*%
%TO.C,REF\u002A\u002A*%
X116000000Y-53200000D03*
%TD*%
D16*
%TO.C,Relay_2CH1*%
X53205000Y-83200000D03*
D10*
X55745000Y-83200000D03*
X58285000Y-83200000D03*
X60825000Y-83200000D03*
%TD*%
D14*
%TO.C,SW_Cancel_Reset1*%
X80600000Y-72000000D03*
X87100000Y-72000000D03*
X80600000Y-76500000D03*
X87100000Y-76500000D03*
%TD*%
D12*
%TO.C,5VGND1*%
X53300000Y-53050000D03*
D11*
X55800000Y-53050000D03*
%TD*%
D16*
%TO.C,ST7789_Socket1*%
X116000000Y-77400000D03*
D10*
X116000000Y-74860000D03*
X116000000Y-72320000D03*
X116000000Y-69780000D03*
X116000000Y-67240000D03*
X116000000Y-64700000D03*
X116000000Y-62160000D03*
X116000000Y-59620000D03*
%TD*%
D16*
%TO.C,Buzzer_Conn_01x02_1*%
X73385000Y-55350000D03*
D10*
X75925000Y-55350000D03*
%TD*%
M02*
