%TF.GenerationSoftware,KiCad,Pcbnew,9.0.6*%
%TF.CreationDate,2026-01-23T02:05:32+03:00*%
%TF.ProjectId,control_panel,636f6e74-726f-46c5-9f70-616e656c2e6b,rev?*%
%TF.SameCoordinates,Original*%
%TF.FileFunction,Legend,Top*%
%TF.FilePolarity,Positive*%
%FSLAX46Y46*%
G04 Gerber Fmt 4.6, Leading zero omitted, Abs format (unit mm)*
G04 Created by KiCad (PCBNEW 9.0.6) date 2026-01-23 02:05:32*
%MOMM*%
%LPD*%
G01*
G04 APERTURE LIST*
%ADD10C,0.100000*%
%ADD11C,0.150000*%
%ADD12C,0.120000*%
G04 APERTURE END LIST*
D10*
X63968609Y-71238094D02*
X63968609Y-70904761D01*
X64492419Y-70761904D02*
X64492419Y-71238094D01*
X64492419Y-71238094D02*
X63492419Y-71238094D01*
X63492419Y-71238094D02*
X63492419Y-70761904D01*
X64444800Y-70380951D02*
X64492419Y-70238094D01*
X64492419Y-70238094D02*
X64492419Y-69999999D01*
X64492419Y-69999999D02*
X64444800Y-69904761D01*
X64444800Y-69904761D02*
X64397180Y-69857142D01*
X64397180Y-69857142D02*
X64301942Y-69809523D01*
X64301942Y-69809523D02*
X64206704Y-69809523D01*
X64206704Y-69809523D02*
X64111466Y-69857142D01*
X64111466Y-69857142D02*
X64063847Y-69904761D01*
X64063847Y-69904761D02*
X64016228Y-69999999D01*
X64016228Y-69999999D02*
X63968609Y-70190475D01*
X63968609Y-70190475D02*
X63920990Y-70285713D01*
X63920990Y-70285713D02*
X63873371Y-70333332D01*
X63873371Y-70333332D02*
X63778133Y-70380951D01*
X63778133Y-70380951D02*
X63682895Y-70380951D01*
X63682895Y-70380951D02*
X63587657Y-70333332D01*
X63587657Y-70333332D02*
X63540038Y-70285713D01*
X63540038Y-70285713D02*
X63492419Y-70190475D01*
X63492419Y-70190475D02*
X63492419Y-69952380D01*
X63492419Y-69952380D02*
X63540038Y-69809523D01*
X64492419Y-69380951D02*
X63492419Y-69380951D01*
X63492419Y-69380951D02*
X63492419Y-68999999D01*
X63492419Y-68999999D02*
X63540038Y-68904761D01*
X63540038Y-68904761D02*
X63587657Y-68857142D01*
X63587657Y-68857142D02*
X63682895Y-68809523D01*
X63682895Y-68809523D02*
X63825752Y-68809523D01*
X63825752Y-68809523D02*
X63920990Y-68857142D01*
X63920990Y-68857142D02*
X63968609Y-68904761D01*
X63968609Y-68904761D02*
X64016228Y-68999999D01*
X64016228Y-68999999D02*
X64016228Y-69380951D01*
X64492419Y-68380951D02*
X63492419Y-68380951D01*
X63492419Y-68380951D02*
X64206704Y-68047618D01*
X64206704Y-68047618D02*
X63492419Y-67714285D01*
X63492419Y-67714285D02*
X64492419Y-67714285D01*
X64397180Y-66666666D02*
X64444800Y-66714285D01*
X64444800Y-66714285D02*
X64492419Y-66857142D01*
X64492419Y-66857142D02*
X64492419Y-66952380D01*
X64492419Y-66952380D02*
X64444800Y-67095237D01*
X64444800Y-67095237D02*
X64349561Y-67190475D01*
X64349561Y-67190475D02*
X64254323Y-67238094D01*
X64254323Y-67238094D02*
X64063847Y-67285713D01*
X64063847Y-67285713D02*
X63920990Y-67285713D01*
X63920990Y-67285713D02*
X63730514Y-67238094D01*
X63730514Y-67238094D02*
X63635276Y-67190475D01*
X63635276Y-67190475D02*
X63540038Y-67095237D01*
X63540038Y-67095237D02*
X63492419Y-66952380D01*
X63492419Y-66952380D02*
X63492419Y-66857142D01*
X63492419Y-66857142D02*
X63540038Y-66714285D01*
X63540038Y-66714285D02*
X63587657Y-66666666D01*
X64492419Y-65714285D02*
X64492419Y-66285713D01*
X64492419Y-65999999D02*
X63492419Y-65999999D01*
X63492419Y-65999999D02*
X63635276Y-66095237D01*
X63635276Y-66095237D02*
X63730514Y-66190475D01*
X63730514Y-66190475D02*
X63778133Y-66285713D01*
D11*
X82564285Y-50029819D02*
X82564285Y-49029819D01*
X83040475Y-49363152D02*
X83040475Y-50029819D01*
X83040475Y-49458390D02*
X83088094Y-49410771D01*
X83088094Y-49410771D02*
X83183332Y-49363152D01*
X83183332Y-49363152D02*
X83326189Y-49363152D01*
X83326189Y-49363152D02*
X83421427Y-49410771D01*
X83421427Y-49410771D02*
X83469046Y-49506009D01*
X83469046Y-49506009D02*
X83469046Y-50029819D01*
X83897618Y-49982200D02*
X83992856Y-50029819D01*
X83992856Y-50029819D02*
X84183332Y-50029819D01*
X84183332Y-50029819D02*
X84278570Y-49982200D01*
X84278570Y-49982200D02*
X84326189Y-49886961D01*
X84326189Y-49886961D02*
X84326189Y-49839342D01*
X84326189Y-49839342D02*
X84278570Y-49744104D01*
X84278570Y-49744104D02*
X84183332Y-49696485D01*
X84183332Y-49696485D02*
X84040475Y-49696485D01*
X84040475Y-49696485D02*
X83945237Y-49648866D01*
X83945237Y-49648866D02*
X83897618Y-49553628D01*
X83897618Y-49553628D02*
X83897618Y-49506009D01*
X83897618Y-49506009D02*
X83945237Y-49410771D01*
X83945237Y-49410771D02*
X84040475Y-49363152D01*
X84040475Y-49363152D02*
X84183332Y-49363152D01*
X84183332Y-49363152D02*
X84278570Y-49410771D01*
X84754761Y-49363152D02*
X84754761Y-50363152D01*
X84754761Y-49410771D02*
X84849999Y-49363152D01*
X84849999Y-49363152D02*
X85040475Y-49363152D01*
X85040475Y-49363152D02*
X85135713Y-49410771D01*
X85135713Y-49410771D02*
X85183332Y-49458390D01*
X85183332Y-49458390D02*
X85230951Y-49553628D01*
X85230951Y-49553628D02*
X85230951Y-49839342D01*
X85230951Y-49839342D02*
X85183332Y-49934580D01*
X85183332Y-49934580D02*
X85135713Y-49982200D01*
X85135713Y-49982200D02*
X85040475Y-50029819D01*
X85040475Y-50029819D02*
X84849999Y-50029819D01*
X84849999Y-50029819D02*
X84754761Y-49982200D01*
X86040475Y-49982200D02*
X85945237Y-50029819D01*
X85945237Y-50029819D02*
X85754761Y-50029819D01*
X85754761Y-50029819D02*
X85659523Y-49982200D01*
X85659523Y-49982200D02*
X85611904Y-49886961D01*
X85611904Y-49886961D02*
X85611904Y-49506009D01*
X85611904Y-49506009D02*
X85659523Y-49410771D01*
X85659523Y-49410771D02*
X85754761Y-49363152D01*
X85754761Y-49363152D02*
X85945237Y-49363152D01*
X85945237Y-49363152D02*
X86040475Y-49410771D01*
X86040475Y-49410771D02*
X86088094Y-49506009D01*
X86088094Y-49506009D02*
X86088094Y-49601247D01*
X86088094Y-49601247D02*
X85611904Y-49696485D01*
X86945237Y-49982200D02*
X86849999Y-50029819D01*
X86849999Y-50029819D02*
X86659523Y-50029819D01*
X86659523Y-50029819D02*
X86564285Y-49982200D01*
X86564285Y-49982200D02*
X86516666Y-49934580D01*
X86516666Y-49934580D02*
X86469047Y-49839342D01*
X86469047Y-49839342D02*
X86469047Y-49553628D01*
X86469047Y-49553628D02*
X86516666Y-49458390D01*
X86516666Y-49458390D02*
X86564285Y-49410771D01*
X86564285Y-49410771D02*
X86659523Y-49363152D01*
X86659523Y-49363152D02*
X86849999Y-49363152D01*
X86849999Y-49363152D02*
X86945237Y-49410771D01*
X87230952Y-49363152D02*
X87611904Y-49363152D01*
X87373809Y-49029819D02*
X87373809Y-49886961D01*
X87373809Y-49886961D02*
X87421428Y-49982200D01*
X87421428Y-49982200D02*
X87516666Y-50029819D01*
X87516666Y-50029819D02*
X87611904Y-50029819D01*
X87945238Y-50029819D02*
X87945238Y-49363152D01*
X87945238Y-49029819D02*
X87897619Y-49077438D01*
X87897619Y-49077438D02*
X87945238Y-49125057D01*
X87945238Y-49125057D02*
X87992857Y-49077438D01*
X87992857Y-49077438D02*
X87945238Y-49029819D01*
X87945238Y-49029819D02*
X87945238Y-49125057D01*
X88564285Y-50029819D02*
X88469047Y-49982200D01*
X88469047Y-49982200D02*
X88421428Y-49934580D01*
X88421428Y-49934580D02*
X88373809Y-49839342D01*
X88373809Y-49839342D02*
X88373809Y-49553628D01*
X88373809Y-49553628D02*
X88421428Y-49458390D01*
X88421428Y-49458390D02*
X88469047Y-49410771D01*
X88469047Y-49410771D02*
X88564285Y-49363152D01*
X88564285Y-49363152D02*
X88707142Y-49363152D01*
X88707142Y-49363152D02*
X88802380Y-49410771D01*
X88802380Y-49410771D02*
X88849999Y-49458390D01*
X88849999Y-49458390D02*
X88897618Y-49553628D01*
X88897618Y-49553628D02*
X88897618Y-49839342D01*
X88897618Y-49839342D02*
X88849999Y-49934580D01*
X88849999Y-49934580D02*
X88802380Y-49982200D01*
X88802380Y-49982200D02*
X88707142Y-50029819D01*
X88707142Y-50029819D02*
X88564285Y-50029819D01*
X89326190Y-49363152D02*
X89326190Y-50029819D01*
X89326190Y-49458390D02*
X89373809Y-49410771D01*
X89373809Y-49410771D02*
X89469047Y-49363152D01*
X89469047Y-49363152D02*
X89611904Y-49363152D01*
X89611904Y-49363152D02*
X89707142Y-49410771D01*
X89707142Y-49410771D02*
X89754761Y-49506009D01*
X89754761Y-49506009D02*
X89754761Y-50029819D01*
X89992857Y-50125057D02*
X90754761Y-50125057D01*
X91469047Y-50029819D02*
X90992857Y-50029819D01*
X90992857Y-50029819D02*
X90992857Y-49029819D01*
X91802381Y-50029819D02*
X91802381Y-49363152D01*
X91802381Y-49029819D02*
X91754762Y-49077438D01*
X91754762Y-49077438D02*
X91802381Y-49125057D01*
X91802381Y-49125057D02*
X91850000Y-49077438D01*
X91850000Y-49077438D02*
X91802381Y-49029819D01*
X91802381Y-49029819D02*
X91802381Y-49125057D01*
X92707142Y-49363152D02*
X92707142Y-50172676D01*
X92707142Y-50172676D02*
X92659523Y-50267914D01*
X92659523Y-50267914D02*
X92611904Y-50315533D01*
X92611904Y-50315533D02*
X92516666Y-50363152D01*
X92516666Y-50363152D02*
X92373809Y-50363152D01*
X92373809Y-50363152D02*
X92278571Y-50315533D01*
X92707142Y-49982200D02*
X92611904Y-50029819D01*
X92611904Y-50029819D02*
X92421428Y-50029819D01*
X92421428Y-50029819D02*
X92326190Y-49982200D01*
X92326190Y-49982200D02*
X92278571Y-49934580D01*
X92278571Y-49934580D02*
X92230952Y-49839342D01*
X92230952Y-49839342D02*
X92230952Y-49553628D01*
X92230952Y-49553628D02*
X92278571Y-49458390D01*
X92278571Y-49458390D02*
X92326190Y-49410771D01*
X92326190Y-49410771D02*
X92421428Y-49363152D01*
X92421428Y-49363152D02*
X92611904Y-49363152D01*
X92611904Y-49363152D02*
X92707142Y-49410771D01*
X93183333Y-50029819D02*
X93183333Y-49029819D01*
X93611904Y-50029819D02*
X93611904Y-49506009D01*
X93611904Y-49506009D02*
X93564285Y-49410771D01*
X93564285Y-49410771D02*
X93469047Y-49363152D01*
X93469047Y-49363152D02*
X93326190Y-49363152D01*
X93326190Y-49363152D02*
X93230952Y-49410771D01*
X93230952Y-49410771D02*
X93183333Y-49458390D01*
X93945238Y-49363152D02*
X94326190Y-49363152D01*
X94088095Y-49029819D02*
X94088095Y-49886961D01*
X94088095Y-49886961D02*
X94135714Y-49982200D01*
X94135714Y-49982200D02*
X94230952Y-50029819D01*
X94230952Y-50029819D02*
X94326190Y-50029819D01*
X95183333Y-50029819D02*
X94611905Y-50029819D01*
X94897619Y-50029819D02*
X94897619Y-49029819D01*
X94897619Y-49029819D02*
X94802381Y-49172676D01*
X94802381Y-49172676D02*
X94707143Y-49267914D01*
X94707143Y-49267914D02*
X94611905Y-49315533D01*
D10*
X73399998Y-64109800D02*
X73542855Y-64157419D01*
X73542855Y-64157419D02*
X73780950Y-64157419D01*
X73780950Y-64157419D02*
X73876188Y-64109800D01*
X73876188Y-64109800D02*
X73923807Y-64062180D01*
X73923807Y-64062180D02*
X73971426Y-63966942D01*
X73971426Y-63966942D02*
X73971426Y-63871704D01*
X73971426Y-63871704D02*
X73923807Y-63776466D01*
X73923807Y-63776466D02*
X73876188Y-63728847D01*
X73876188Y-63728847D02*
X73780950Y-63681228D01*
X73780950Y-63681228D02*
X73590474Y-63633609D01*
X73590474Y-63633609D02*
X73495236Y-63585990D01*
X73495236Y-63585990D02*
X73447617Y-63538371D01*
X73447617Y-63538371D02*
X73399998Y-63443133D01*
X73399998Y-63443133D02*
X73399998Y-63347895D01*
X73399998Y-63347895D02*
X73447617Y-63252657D01*
X73447617Y-63252657D02*
X73495236Y-63205038D01*
X73495236Y-63205038D02*
X73590474Y-63157419D01*
X73590474Y-63157419D02*
X73828569Y-63157419D01*
X73828569Y-63157419D02*
X73971426Y-63205038D01*
X74304760Y-63157419D02*
X74542855Y-64157419D01*
X74542855Y-64157419D02*
X74733331Y-63443133D01*
X74733331Y-63443133D02*
X74923807Y-64157419D01*
X74923807Y-64157419D02*
X75161903Y-63157419D01*
X75304760Y-64252657D02*
X76066664Y-64252657D01*
X76161903Y-63157419D02*
X76733331Y-63157419D01*
X76447617Y-64157419D02*
X76447617Y-63157419D01*
X76971427Y-63157419D02*
X77209522Y-64157419D01*
X77209522Y-64157419D02*
X77399998Y-63443133D01*
X77399998Y-63443133D02*
X77590474Y-64157419D01*
X77590474Y-64157419D02*
X77828570Y-63157419D01*
X78066665Y-63157419D02*
X78638093Y-63157419D01*
X78352379Y-64157419D02*
X78352379Y-63157419D01*
X78733332Y-64252657D02*
X79495236Y-64252657D01*
X79685713Y-64109800D02*
X79828570Y-64157419D01*
X79828570Y-64157419D02*
X80066665Y-64157419D01*
X80066665Y-64157419D02*
X80161903Y-64109800D01*
X80161903Y-64109800D02*
X80209522Y-64062180D01*
X80209522Y-64062180D02*
X80257141Y-63966942D01*
X80257141Y-63966942D02*
X80257141Y-63871704D01*
X80257141Y-63871704D02*
X80209522Y-63776466D01*
X80209522Y-63776466D02*
X80161903Y-63728847D01*
X80161903Y-63728847D02*
X80066665Y-63681228D01*
X80066665Y-63681228D02*
X79876189Y-63633609D01*
X79876189Y-63633609D02*
X79780951Y-63585990D01*
X79780951Y-63585990D02*
X79733332Y-63538371D01*
X79733332Y-63538371D02*
X79685713Y-63443133D01*
X79685713Y-63443133D02*
X79685713Y-63347895D01*
X79685713Y-63347895D02*
X79733332Y-63252657D01*
X79733332Y-63252657D02*
X79780951Y-63205038D01*
X79780951Y-63205038D02*
X79876189Y-63157419D01*
X79876189Y-63157419D02*
X80114284Y-63157419D01*
X80114284Y-63157419D02*
X80257141Y-63205038D01*
X80542856Y-63490752D02*
X80923808Y-63490752D01*
X80685713Y-63157419D02*
X80685713Y-64014561D01*
X80685713Y-64014561D02*
X80733332Y-64109800D01*
X80733332Y-64109800D02*
X80828570Y-64157419D01*
X80828570Y-64157419D02*
X80923808Y-64157419D01*
X81685713Y-64157419D02*
X81685713Y-63633609D01*
X81685713Y-63633609D02*
X81638094Y-63538371D01*
X81638094Y-63538371D02*
X81542856Y-63490752D01*
X81542856Y-63490752D02*
X81352380Y-63490752D01*
X81352380Y-63490752D02*
X81257142Y-63538371D01*
X81685713Y-64109800D02*
X81590475Y-64157419D01*
X81590475Y-64157419D02*
X81352380Y-64157419D01*
X81352380Y-64157419D02*
X81257142Y-64109800D01*
X81257142Y-64109800D02*
X81209523Y-64014561D01*
X81209523Y-64014561D02*
X81209523Y-63919323D01*
X81209523Y-63919323D02*
X81257142Y-63824085D01*
X81257142Y-63824085D02*
X81352380Y-63776466D01*
X81352380Y-63776466D02*
X81590475Y-63776466D01*
X81590475Y-63776466D02*
X81685713Y-63728847D01*
X82161904Y-64157419D02*
X82161904Y-63490752D01*
X82161904Y-63681228D02*
X82209523Y-63585990D01*
X82209523Y-63585990D02*
X82257142Y-63538371D01*
X82257142Y-63538371D02*
X82352380Y-63490752D01*
X82352380Y-63490752D02*
X82447618Y-63490752D01*
X82638095Y-63490752D02*
X83019047Y-63490752D01*
X82780952Y-63157419D02*
X82780952Y-64014561D01*
X82780952Y-64014561D02*
X82828571Y-64109800D01*
X82828571Y-64109800D02*
X82923809Y-64157419D01*
X82923809Y-64157419D02*
X83019047Y-64157419D01*
X83114286Y-64252657D02*
X83876190Y-64252657D01*
X84114286Y-64157419D02*
X84114286Y-63157419D01*
X84114286Y-63157419D02*
X84495238Y-63157419D01*
X84495238Y-63157419D02*
X84590476Y-63205038D01*
X84590476Y-63205038D02*
X84638095Y-63252657D01*
X84638095Y-63252657D02*
X84685714Y-63347895D01*
X84685714Y-63347895D02*
X84685714Y-63490752D01*
X84685714Y-63490752D02*
X84638095Y-63585990D01*
X84638095Y-63585990D02*
X84590476Y-63633609D01*
X84590476Y-63633609D02*
X84495238Y-63681228D01*
X84495238Y-63681228D02*
X84114286Y-63681228D01*
X85542857Y-64157419D02*
X85542857Y-63633609D01*
X85542857Y-63633609D02*
X85495238Y-63538371D01*
X85495238Y-63538371D02*
X85400000Y-63490752D01*
X85400000Y-63490752D02*
X85209524Y-63490752D01*
X85209524Y-63490752D02*
X85114286Y-63538371D01*
X85542857Y-64109800D02*
X85447619Y-64157419D01*
X85447619Y-64157419D02*
X85209524Y-64157419D01*
X85209524Y-64157419D02*
X85114286Y-64109800D01*
X85114286Y-64109800D02*
X85066667Y-64014561D01*
X85066667Y-64014561D02*
X85066667Y-63919323D01*
X85066667Y-63919323D02*
X85114286Y-63824085D01*
X85114286Y-63824085D02*
X85209524Y-63776466D01*
X85209524Y-63776466D02*
X85447619Y-63776466D01*
X85447619Y-63776466D02*
X85542857Y-63728847D01*
X86447619Y-63490752D02*
X86447619Y-64157419D01*
X86019048Y-63490752D02*
X86019048Y-64014561D01*
X86019048Y-64014561D02*
X86066667Y-64109800D01*
X86066667Y-64109800D02*
X86161905Y-64157419D01*
X86161905Y-64157419D02*
X86304762Y-64157419D01*
X86304762Y-64157419D02*
X86400000Y-64109800D01*
X86400000Y-64109800D02*
X86447619Y-64062180D01*
X86876191Y-64109800D02*
X86971429Y-64157419D01*
X86971429Y-64157419D02*
X87161905Y-64157419D01*
X87161905Y-64157419D02*
X87257143Y-64109800D01*
X87257143Y-64109800D02*
X87304762Y-64014561D01*
X87304762Y-64014561D02*
X87304762Y-63966942D01*
X87304762Y-63966942D02*
X87257143Y-63871704D01*
X87257143Y-63871704D02*
X87161905Y-63824085D01*
X87161905Y-63824085D02*
X87019048Y-63824085D01*
X87019048Y-63824085D02*
X86923810Y-63776466D01*
X86923810Y-63776466D02*
X86876191Y-63681228D01*
X86876191Y-63681228D02*
X86876191Y-63633609D01*
X86876191Y-63633609D02*
X86923810Y-63538371D01*
X86923810Y-63538371D02*
X87019048Y-63490752D01*
X87019048Y-63490752D02*
X87161905Y-63490752D01*
X87161905Y-63490752D02*
X87257143Y-63538371D01*
X88114286Y-64109800D02*
X88019048Y-64157419D01*
X88019048Y-64157419D02*
X87828572Y-64157419D01*
X87828572Y-64157419D02*
X87733334Y-64109800D01*
X87733334Y-64109800D02*
X87685715Y-64014561D01*
X87685715Y-64014561D02*
X87685715Y-63633609D01*
X87685715Y-63633609D02*
X87733334Y-63538371D01*
X87733334Y-63538371D02*
X87828572Y-63490752D01*
X87828572Y-63490752D02*
X88019048Y-63490752D01*
X88019048Y-63490752D02*
X88114286Y-63538371D01*
X88114286Y-63538371D02*
X88161905Y-63633609D01*
X88161905Y-63633609D02*
X88161905Y-63728847D01*
X88161905Y-63728847D02*
X87685715Y-63824085D01*
X88352382Y-64252657D02*
X89114286Y-64252657D01*
X89304763Y-63871704D02*
X89780953Y-63871704D01*
X89209525Y-64157419D02*
X89542858Y-63157419D01*
X89542858Y-63157419D02*
X89876191Y-64157419D01*
X90638096Y-64157419D02*
X90638096Y-63157419D01*
X90638096Y-64109800D02*
X90542858Y-64157419D01*
X90542858Y-64157419D02*
X90352382Y-64157419D01*
X90352382Y-64157419D02*
X90257144Y-64109800D01*
X90257144Y-64109800D02*
X90209525Y-64062180D01*
X90209525Y-64062180D02*
X90161906Y-63966942D01*
X90161906Y-63966942D02*
X90161906Y-63681228D01*
X90161906Y-63681228D02*
X90209525Y-63585990D01*
X90209525Y-63585990D02*
X90257144Y-63538371D01*
X90257144Y-63538371D02*
X90352382Y-63490752D01*
X90352382Y-63490752D02*
X90542858Y-63490752D01*
X90542858Y-63490752D02*
X90638096Y-63538371D01*
X91114287Y-63490752D02*
X91114287Y-64347895D01*
X91114287Y-64347895D02*
X91066668Y-64443133D01*
X91066668Y-64443133D02*
X90971430Y-64490752D01*
X90971430Y-64490752D02*
X90923811Y-64490752D01*
X91114287Y-63157419D02*
X91066668Y-63205038D01*
X91066668Y-63205038D02*
X91114287Y-63252657D01*
X91114287Y-63252657D02*
X91161906Y-63205038D01*
X91161906Y-63205038D02*
X91114287Y-63157419D01*
X91114287Y-63157419D02*
X91114287Y-63252657D01*
X92019048Y-63490752D02*
X92019048Y-64157419D01*
X91590477Y-63490752D02*
X91590477Y-64014561D01*
X91590477Y-64014561D02*
X91638096Y-64109800D01*
X91638096Y-64109800D02*
X91733334Y-64157419D01*
X91733334Y-64157419D02*
X91876191Y-64157419D01*
X91876191Y-64157419D02*
X91971429Y-64109800D01*
X91971429Y-64109800D02*
X92019048Y-64062180D01*
X92447620Y-64109800D02*
X92542858Y-64157419D01*
X92542858Y-64157419D02*
X92733334Y-64157419D01*
X92733334Y-64157419D02*
X92828572Y-64109800D01*
X92828572Y-64109800D02*
X92876191Y-64014561D01*
X92876191Y-64014561D02*
X92876191Y-63966942D01*
X92876191Y-63966942D02*
X92828572Y-63871704D01*
X92828572Y-63871704D02*
X92733334Y-63824085D01*
X92733334Y-63824085D02*
X92590477Y-63824085D01*
X92590477Y-63824085D02*
X92495239Y-63776466D01*
X92495239Y-63776466D02*
X92447620Y-63681228D01*
X92447620Y-63681228D02*
X92447620Y-63633609D01*
X92447620Y-63633609D02*
X92495239Y-63538371D01*
X92495239Y-63538371D02*
X92590477Y-63490752D01*
X92590477Y-63490752D02*
X92733334Y-63490752D01*
X92733334Y-63490752D02*
X92828572Y-63538371D01*
X93161906Y-63490752D02*
X93542858Y-63490752D01*
X93304763Y-63157419D02*
X93304763Y-64014561D01*
X93304763Y-64014561D02*
X93352382Y-64109800D01*
X93352382Y-64109800D02*
X93447620Y-64157419D01*
X93447620Y-64157419D02*
X93542858Y-64157419D01*
X94400001Y-64157419D02*
X93828573Y-64157419D01*
X94114287Y-64157419D02*
X94114287Y-63157419D01*
X94114287Y-63157419D02*
X94019049Y-63300276D01*
X94019049Y-63300276D02*
X93923811Y-63395514D01*
X93923811Y-63395514D02*
X93828573Y-63443133D01*
D11*
X64666666Y-80354819D02*
X64333333Y-79878628D01*
X64095238Y-80354819D02*
X64095238Y-79354819D01*
X64095238Y-79354819D02*
X64476190Y-79354819D01*
X64476190Y-79354819D02*
X64571428Y-79402438D01*
X64571428Y-79402438D02*
X64619047Y-79450057D01*
X64619047Y-79450057D02*
X64666666Y-79545295D01*
X64666666Y-79545295D02*
X64666666Y-79688152D01*
X64666666Y-79688152D02*
X64619047Y-79783390D01*
X64619047Y-79783390D02*
X64571428Y-79831009D01*
X64571428Y-79831009D02*
X64476190Y-79878628D01*
X64476190Y-79878628D02*
X64095238Y-79878628D01*
X65095238Y-79831009D02*
X65428571Y-79831009D01*
X65571428Y-80354819D02*
X65095238Y-80354819D01*
X65095238Y-80354819D02*
X65095238Y-79354819D01*
X65095238Y-79354819D02*
X65571428Y-79354819D01*
X66333333Y-79831009D02*
X66000000Y-79831009D01*
X66000000Y-80354819D02*
X66000000Y-79354819D01*
X66000000Y-79354819D02*
X66476190Y-79354819D01*
X67000000Y-79354819D02*
X67000000Y-79592914D01*
X66761905Y-79497676D02*
X67000000Y-79592914D01*
X67000000Y-79592914D02*
X67238095Y-79497676D01*
X66857143Y-79783390D02*
X67000000Y-79592914D01*
X67000000Y-79592914D02*
X67142857Y-79783390D01*
X67761905Y-79354819D02*
X67761905Y-79592914D01*
X67523810Y-79497676D02*
X67761905Y-79592914D01*
X67761905Y-79592914D02*
X68000000Y-79497676D01*
X67619048Y-79783390D02*
X67761905Y-79592914D01*
X67761905Y-79592914D02*
X67904762Y-79783390D01*
X94523809Y-70407200D02*
X94666666Y-70454819D01*
X94666666Y-70454819D02*
X94904761Y-70454819D01*
X94904761Y-70454819D02*
X94999999Y-70407200D01*
X94999999Y-70407200D02*
X95047618Y-70359580D01*
X95047618Y-70359580D02*
X95095237Y-70264342D01*
X95095237Y-70264342D02*
X95095237Y-70169104D01*
X95095237Y-70169104D02*
X95047618Y-70073866D01*
X95047618Y-70073866D02*
X94999999Y-70026247D01*
X94999999Y-70026247D02*
X94904761Y-69978628D01*
X94904761Y-69978628D02*
X94714285Y-69931009D01*
X94714285Y-69931009D02*
X94619047Y-69883390D01*
X94619047Y-69883390D02*
X94571428Y-69835771D01*
X94571428Y-69835771D02*
X94523809Y-69740533D01*
X94523809Y-69740533D02*
X94523809Y-69645295D01*
X94523809Y-69645295D02*
X94571428Y-69550057D01*
X94571428Y-69550057D02*
X94619047Y-69502438D01*
X94619047Y-69502438D02*
X94714285Y-69454819D01*
X94714285Y-69454819D02*
X94952380Y-69454819D01*
X94952380Y-69454819D02*
X95095237Y-69502438D01*
X95428571Y-69454819D02*
X95666666Y-70454819D01*
X95666666Y-70454819D02*
X95857142Y-69740533D01*
X95857142Y-69740533D02*
X96047618Y-70454819D01*
X96047618Y-70454819D02*
X96285714Y-69454819D01*
X96428571Y-70550057D02*
X97190475Y-70550057D01*
X97999999Y-70454819D02*
X97666666Y-69978628D01*
X97428571Y-70454819D02*
X97428571Y-69454819D01*
X97428571Y-69454819D02*
X97809523Y-69454819D01*
X97809523Y-69454819D02*
X97904761Y-69502438D01*
X97904761Y-69502438D02*
X97952380Y-69550057D01*
X97952380Y-69550057D02*
X97999999Y-69645295D01*
X97999999Y-69645295D02*
X97999999Y-69788152D01*
X97999999Y-69788152D02*
X97952380Y-69883390D01*
X97952380Y-69883390D02*
X97904761Y-69931009D01*
X97904761Y-69931009D02*
X97809523Y-69978628D01*
X97809523Y-69978628D02*
X97428571Y-69978628D01*
X98428571Y-69931009D02*
X98761904Y-69931009D01*
X98904761Y-70454819D02*
X98428571Y-70454819D01*
X98428571Y-70454819D02*
X98428571Y-69454819D01*
X98428571Y-69454819D02*
X98904761Y-69454819D01*
X99285714Y-70407200D02*
X99428571Y-70454819D01*
X99428571Y-70454819D02*
X99666666Y-70454819D01*
X99666666Y-70454819D02*
X99761904Y-70407200D01*
X99761904Y-70407200D02*
X99809523Y-70359580D01*
X99809523Y-70359580D02*
X99857142Y-70264342D01*
X99857142Y-70264342D02*
X99857142Y-70169104D01*
X99857142Y-70169104D02*
X99809523Y-70073866D01*
X99809523Y-70073866D02*
X99761904Y-70026247D01*
X99761904Y-70026247D02*
X99666666Y-69978628D01*
X99666666Y-69978628D02*
X99476190Y-69931009D01*
X99476190Y-69931009D02*
X99380952Y-69883390D01*
X99380952Y-69883390D02*
X99333333Y-69835771D01*
X99333333Y-69835771D02*
X99285714Y-69740533D01*
X99285714Y-69740533D02*
X99285714Y-69645295D01*
X99285714Y-69645295D02*
X99333333Y-69550057D01*
X99333333Y-69550057D02*
X99380952Y-69502438D01*
X99380952Y-69502438D02*
X99476190Y-69454819D01*
X99476190Y-69454819D02*
X99714285Y-69454819D01*
X99714285Y-69454819D02*
X99857142Y-69502438D01*
X100285714Y-69931009D02*
X100619047Y-69931009D01*
X100761904Y-70454819D02*
X100285714Y-70454819D01*
X100285714Y-70454819D02*
X100285714Y-69454819D01*
X100285714Y-69454819D02*
X100761904Y-69454819D01*
X101761904Y-70454819D02*
X101428571Y-69978628D01*
X101190476Y-70454819D02*
X101190476Y-69454819D01*
X101190476Y-69454819D02*
X101571428Y-69454819D01*
X101571428Y-69454819D02*
X101666666Y-69502438D01*
X101666666Y-69502438D02*
X101714285Y-69550057D01*
X101714285Y-69550057D02*
X101761904Y-69645295D01*
X101761904Y-69645295D02*
X101761904Y-69788152D01*
X101761904Y-69788152D02*
X101714285Y-69883390D01*
X101714285Y-69883390D02*
X101666666Y-69931009D01*
X101666666Y-69931009D02*
X101571428Y-69978628D01*
X101571428Y-69978628D02*
X101190476Y-69978628D01*
X102047619Y-69454819D02*
X102380952Y-70454819D01*
X102380952Y-70454819D02*
X102714285Y-69454819D01*
X103047619Y-69931009D02*
X103380952Y-69931009D01*
X103523809Y-70454819D02*
X103047619Y-70454819D01*
X103047619Y-70454819D02*
X103047619Y-69454819D01*
X103047619Y-69454819D02*
X103523809Y-69454819D01*
X103952381Y-70454819D02*
X103952381Y-69454819D01*
X103952381Y-69454819D02*
X104190476Y-69454819D01*
X104190476Y-69454819D02*
X104333333Y-69502438D01*
X104333333Y-69502438D02*
X104428571Y-69597676D01*
X104428571Y-69597676D02*
X104476190Y-69692914D01*
X104476190Y-69692914D02*
X104523809Y-69883390D01*
X104523809Y-69883390D02*
X104523809Y-70026247D01*
X104523809Y-70026247D02*
X104476190Y-70216723D01*
X104476190Y-70216723D02*
X104428571Y-70311961D01*
X104428571Y-70311961D02*
X104333333Y-70407200D01*
X104333333Y-70407200D02*
X104190476Y-70454819D01*
X104190476Y-70454819D02*
X103952381Y-70454819D01*
X105476190Y-70454819D02*
X104904762Y-70454819D01*
X105190476Y-70454819D02*
X105190476Y-69454819D01*
X105190476Y-69454819D02*
X105095238Y-69597676D01*
X105095238Y-69597676D02*
X105000000Y-69692914D01*
X105000000Y-69692914D02*
X104904762Y-69740533D01*
X92763095Y-55857200D02*
X92905952Y-55904819D01*
X92905952Y-55904819D02*
X93144047Y-55904819D01*
X93144047Y-55904819D02*
X93239285Y-55857200D01*
X93239285Y-55857200D02*
X93286904Y-55809580D01*
X93286904Y-55809580D02*
X93334523Y-55714342D01*
X93334523Y-55714342D02*
X93334523Y-55619104D01*
X93334523Y-55619104D02*
X93286904Y-55523866D01*
X93286904Y-55523866D02*
X93239285Y-55476247D01*
X93239285Y-55476247D02*
X93144047Y-55428628D01*
X93144047Y-55428628D02*
X92953571Y-55381009D01*
X92953571Y-55381009D02*
X92858333Y-55333390D01*
X92858333Y-55333390D02*
X92810714Y-55285771D01*
X92810714Y-55285771D02*
X92763095Y-55190533D01*
X92763095Y-55190533D02*
X92763095Y-55095295D01*
X92763095Y-55095295D02*
X92810714Y-55000057D01*
X92810714Y-55000057D02*
X92858333Y-54952438D01*
X92858333Y-54952438D02*
X92953571Y-54904819D01*
X92953571Y-54904819D02*
X93191666Y-54904819D01*
X93191666Y-54904819D02*
X93334523Y-54952438D01*
X93667857Y-54904819D02*
X93905952Y-55904819D01*
X93905952Y-55904819D02*
X94096428Y-55190533D01*
X94096428Y-55190533D02*
X94286904Y-55904819D01*
X94286904Y-55904819D02*
X94525000Y-54904819D01*
X94667857Y-56000057D02*
X95429761Y-56000057D01*
X95667857Y-55904819D02*
X95667857Y-54904819D01*
X96144047Y-55238152D02*
X96144047Y-55904819D01*
X96144047Y-55333390D02*
X96191666Y-55285771D01*
X96191666Y-55285771D02*
X96286904Y-55238152D01*
X96286904Y-55238152D02*
X96429761Y-55238152D01*
X96429761Y-55238152D02*
X96524999Y-55285771D01*
X96524999Y-55285771D02*
X96572618Y-55381009D01*
X96572618Y-55381009D02*
X96572618Y-55904819D01*
X97001190Y-55857200D02*
X97096428Y-55904819D01*
X97096428Y-55904819D02*
X97286904Y-55904819D01*
X97286904Y-55904819D02*
X97382142Y-55857200D01*
X97382142Y-55857200D02*
X97429761Y-55761961D01*
X97429761Y-55761961D02*
X97429761Y-55714342D01*
X97429761Y-55714342D02*
X97382142Y-55619104D01*
X97382142Y-55619104D02*
X97286904Y-55571485D01*
X97286904Y-55571485D02*
X97144047Y-55571485D01*
X97144047Y-55571485D02*
X97048809Y-55523866D01*
X97048809Y-55523866D02*
X97001190Y-55428628D01*
X97001190Y-55428628D02*
X97001190Y-55381009D01*
X97001190Y-55381009D02*
X97048809Y-55285771D01*
X97048809Y-55285771D02*
X97144047Y-55238152D01*
X97144047Y-55238152D02*
X97286904Y-55238152D01*
X97286904Y-55238152D02*
X97382142Y-55285771D01*
X97858333Y-55238152D02*
X97858333Y-56238152D01*
X97858333Y-55285771D02*
X97953571Y-55238152D01*
X97953571Y-55238152D02*
X98144047Y-55238152D01*
X98144047Y-55238152D02*
X98239285Y-55285771D01*
X98239285Y-55285771D02*
X98286904Y-55333390D01*
X98286904Y-55333390D02*
X98334523Y-55428628D01*
X98334523Y-55428628D02*
X98334523Y-55714342D01*
X98334523Y-55714342D02*
X98286904Y-55809580D01*
X98286904Y-55809580D02*
X98239285Y-55857200D01*
X98239285Y-55857200D02*
X98144047Y-55904819D01*
X98144047Y-55904819D02*
X97953571Y-55904819D01*
X97953571Y-55904819D02*
X97858333Y-55857200D01*
X99144047Y-55857200D02*
X99048809Y-55904819D01*
X99048809Y-55904819D02*
X98858333Y-55904819D01*
X98858333Y-55904819D02*
X98763095Y-55857200D01*
X98763095Y-55857200D02*
X98715476Y-55761961D01*
X98715476Y-55761961D02*
X98715476Y-55381009D01*
X98715476Y-55381009D02*
X98763095Y-55285771D01*
X98763095Y-55285771D02*
X98858333Y-55238152D01*
X98858333Y-55238152D02*
X99048809Y-55238152D01*
X99048809Y-55238152D02*
X99144047Y-55285771D01*
X99144047Y-55285771D02*
X99191666Y-55381009D01*
X99191666Y-55381009D02*
X99191666Y-55476247D01*
X99191666Y-55476247D02*
X98715476Y-55571485D01*
X100048809Y-55857200D02*
X99953571Y-55904819D01*
X99953571Y-55904819D02*
X99763095Y-55904819D01*
X99763095Y-55904819D02*
X99667857Y-55857200D01*
X99667857Y-55857200D02*
X99620238Y-55809580D01*
X99620238Y-55809580D02*
X99572619Y-55714342D01*
X99572619Y-55714342D02*
X99572619Y-55428628D01*
X99572619Y-55428628D02*
X99620238Y-55333390D01*
X99620238Y-55333390D02*
X99667857Y-55285771D01*
X99667857Y-55285771D02*
X99763095Y-55238152D01*
X99763095Y-55238152D02*
X99953571Y-55238152D01*
X99953571Y-55238152D02*
X100048809Y-55285771D01*
X100334524Y-55238152D02*
X100715476Y-55238152D01*
X100477381Y-54904819D02*
X100477381Y-55761961D01*
X100477381Y-55761961D02*
X100525000Y-55857200D01*
X100525000Y-55857200D02*
X100620238Y-55904819D01*
X100620238Y-55904819D02*
X100715476Y-55904819D01*
X101048810Y-55904819D02*
X101048810Y-55238152D01*
X101048810Y-54904819D02*
X101001191Y-54952438D01*
X101001191Y-54952438D02*
X101048810Y-55000057D01*
X101048810Y-55000057D02*
X101096429Y-54952438D01*
X101096429Y-54952438D02*
X101048810Y-54904819D01*
X101048810Y-54904819D02*
X101048810Y-55000057D01*
X101667857Y-55904819D02*
X101572619Y-55857200D01*
X101572619Y-55857200D02*
X101525000Y-55809580D01*
X101525000Y-55809580D02*
X101477381Y-55714342D01*
X101477381Y-55714342D02*
X101477381Y-55428628D01*
X101477381Y-55428628D02*
X101525000Y-55333390D01*
X101525000Y-55333390D02*
X101572619Y-55285771D01*
X101572619Y-55285771D02*
X101667857Y-55238152D01*
X101667857Y-55238152D02*
X101810714Y-55238152D01*
X101810714Y-55238152D02*
X101905952Y-55285771D01*
X101905952Y-55285771D02*
X101953571Y-55333390D01*
X101953571Y-55333390D02*
X102001190Y-55428628D01*
X102001190Y-55428628D02*
X102001190Y-55714342D01*
X102001190Y-55714342D02*
X101953571Y-55809580D01*
X101953571Y-55809580D02*
X101905952Y-55857200D01*
X101905952Y-55857200D02*
X101810714Y-55904819D01*
X101810714Y-55904819D02*
X101667857Y-55904819D01*
X102429762Y-55238152D02*
X102429762Y-55904819D01*
X102429762Y-55333390D02*
X102477381Y-55285771D01*
X102477381Y-55285771D02*
X102572619Y-55238152D01*
X102572619Y-55238152D02*
X102715476Y-55238152D01*
X102715476Y-55238152D02*
X102810714Y-55285771D01*
X102810714Y-55285771D02*
X102858333Y-55381009D01*
X102858333Y-55381009D02*
X102858333Y-55904819D01*
X103096429Y-56000057D02*
X103858333Y-56000057D01*
X104572619Y-55904819D02*
X104096429Y-55904819D01*
X104096429Y-55904819D02*
X104096429Y-54904819D01*
X104905953Y-55904819D02*
X104905953Y-55238152D01*
X104905953Y-54904819D02*
X104858334Y-54952438D01*
X104858334Y-54952438D02*
X104905953Y-55000057D01*
X104905953Y-55000057D02*
X104953572Y-54952438D01*
X104953572Y-54952438D02*
X104905953Y-54904819D01*
X104905953Y-54904819D02*
X104905953Y-55000057D01*
X105810714Y-55238152D02*
X105810714Y-56047676D01*
X105810714Y-56047676D02*
X105763095Y-56142914D01*
X105763095Y-56142914D02*
X105715476Y-56190533D01*
X105715476Y-56190533D02*
X105620238Y-56238152D01*
X105620238Y-56238152D02*
X105477381Y-56238152D01*
X105477381Y-56238152D02*
X105382143Y-56190533D01*
X105810714Y-55857200D02*
X105715476Y-55904819D01*
X105715476Y-55904819D02*
X105525000Y-55904819D01*
X105525000Y-55904819D02*
X105429762Y-55857200D01*
X105429762Y-55857200D02*
X105382143Y-55809580D01*
X105382143Y-55809580D02*
X105334524Y-55714342D01*
X105334524Y-55714342D02*
X105334524Y-55428628D01*
X105334524Y-55428628D02*
X105382143Y-55333390D01*
X105382143Y-55333390D02*
X105429762Y-55285771D01*
X105429762Y-55285771D02*
X105525000Y-55238152D01*
X105525000Y-55238152D02*
X105715476Y-55238152D01*
X105715476Y-55238152D02*
X105810714Y-55285771D01*
X106286905Y-55904819D02*
X106286905Y-54904819D01*
X106715476Y-55904819D02*
X106715476Y-55381009D01*
X106715476Y-55381009D02*
X106667857Y-55285771D01*
X106667857Y-55285771D02*
X106572619Y-55238152D01*
X106572619Y-55238152D02*
X106429762Y-55238152D01*
X106429762Y-55238152D02*
X106334524Y-55285771D01*
X106334524Y-55285771D02*
X106286905Y-55333390D01*
X107048810Y-55238152D02*
X107429762Y-55238152D01*
X107191667Y-54904819D02*
X107191667Y-55761961D01*
X107191667Y-55761961D02*
X107239286Y-55857200D01*
X107239286Y-55857200D02*
X107334524Y-55904819D01*
X107334524Y-55904819D02*
X107429762Y-55904819D01*
X108286905Y-55904819D02*
X107715477Y-55904819D01*
X108001191Y-55904819D02*
X108001191Y-54904819D01*
X108001191Y-54904819D02*
X107905953Y-55047676D01*
X107905953Y-55047676D02*
X107810715Y-55142914D01*
X107810715Y-55142914D02*
X107715477Y-55190533D01*
X64666666Y-50354819D02*
X64333333Y-49878628D01*
X64095238Y-50354819D02*
X64095238Y-49354819D01*
X64095238Y-49354819D02*
X64476190Y-49354819D01*
X64476190Y-49354819D02*
X64571428Y-49402438D01*
X64571428Y-49402438D02*
X64619047Y-49450057D01*
X64619047Y-49450057D02*
X64666666Y-49545295D01*
X64666666Y-49545295D02*
X64666666Y-49688152D01*
X64666666Y-49688152D02*
X64619047Y-49783390D01*
X64619047Y-49783390D02*
X64571428Y-49831009D01*
X64571428Y-49831009D02*
X64476190Y-49878628D01*
X64476190Y-49878628D02*
X64095238Y-49878628D01*
X65095238Y-49831009D02*
X65428571Y-49831009D01*
X65571428Y-50354819D02*
X65095238Y-50354819D01*
X65095238Y-50354819D02*
X65095238Y-49354819D01*
X65095238Y-49354819D02*
X65571428Y-49354819D01*
X66333333Y-49831009D02*
X66000000Y-49831009D01*
X66000000Y-50354819D02*
X66000000Y-49354819D01*
X66000000Y-49354819D02*
X66476190Y-49354819D01*
X67000000Y-49354819D02*
X67000000Y-49592914D01*
X66761905Y-49497676D02*
X67000000Y-49592914D01*
X67000000Y-49592914D02*
X67238095Y-49497676D01*
X66857143Y-49783390D02*
X67000000Y-49592914D01*
X67000000Y-49592914D02*
X67142857Y-49783390D01*
X67761905Y-49354819D02*
X67761905Y-49592914D01*
X67523810Y-49497676D02*
X67761905Y-49592914D01*
X67761905Y-49592914D02*
X68000000Y-49497676D01*
X67619048Y-49783390D02*
X67761905Y-49592914D01*
X67761905Y-49592914D02*
X67904762Y-49783390D01*
X114666666Y-80354819D02*
X114333333Y-79878628D01*
X114095238Y-80354819D02*
X114095238Y-79354819D01*
X114095238Y-79354819D02*
X114476190Y-79354819D01*
X114476190Y-79354819D02*
X114571428Y-79402438D01*
X114571428Y-79402438D02*
X114619047Y-79450057D01*
X114619047Y-79450057D02*
X114666666Y-79545295D01*
X114666666Y-79545295D02*
X114666666Y-79688152D01*
X114666666Y-79688152D02*
X114619047Y-79783390D01*
X114619047Y-79783390D02*
X114571428Y-79831009D01*
X114571428Y-79831009D02*
X114476190Y-79878628D01*
X114476190Y-79878628D02*
X114095238Y-79878628D01*
X115095238Y-79831009D02*
X115428571Y-79831009D01*
X115571428Y-80354819D02*
X115095238Y-80354819D01*
X115095238Y-80354819D02*
X115095238Y-79354819D01*
X115095238Y-79354819D02*
X115571428Y-79354819D01*
X116333333Y-79831009D02*
X116000000Y-79831009D01*
X116000000Y-80354819D02*
X116000000Y-79354819D01*
X116000000Y-79354819D02*
X116476190Y-79354819D01*
X117000000Y-79354819D02*
X117000000Y-79592914D01*
X116761905Y-79497676D02*
X117000000Y-79592914D01*
X117000000Y-79592914D02*
X117238095Y-79497676D01*
X116857143Y-79783390D02*
X117000000Y-79592914D01*
X117000000Y-79592914D02*
X117142857Y-79783390D01*
X117761905Y-79354819D02*
X117761905Y-79592914D01*
X117523810Y-79497676D02*
X117761905Y-79592914D01*
X117761905Y-79592914D02*
X118000000Y-79497676D01*
X117619048Y-79783390D02*
X117761905Y-79592914D01*
X117761905Y-79592914D02*
X117904762Y-79783390D01*
X114666666Y-50354819D02*
X114333333Y-49878628D01*
X114095238Y-50354819D02*
X114095238Y-49354819D01*
X114095238Y-49354819D02*
X114476190Y-49354819D01*
X114476190Y-49354819D02*
X114571428Y-49402438D01*
X114571428Y-49402438D02*
X114619047Y-49450057D01*
X114619047Y-49450057D02*
X114666666Y-49545295D01*
X114666666Y-49545295D02*
X114666666Y-49688152D01*
X114666666Y-49688152D02*
X114619047Y-49783390D01*
X114619047Y-49783390D02*
X114571428Y-49831009D01*
X114571428Y-49831009D02*
X114476190Y-49878628D01*
X114476190Y-49878628D02*
X114095238Y-49878628D01*
X115095238Y-49831009D02*
X115428571Y-49831009D01*
X115571428Y-50354819D02*
X115095238Y-50354819D01*
X115095238Y-50354819D02*
X115095238Y-49354819D01*
X115095238Y-49354819D02*
X115571428Y-49354819D01*
X116333333Y-49831009D02*
X116000000Y-49831009D01*
X116000000Y-50354819D02*
X116000000Y-49354819D01*
X116000000Y-49354819D02*
X116476190Y-49354819D01*
X117000000Y-49354819D02*
X117000000Y-49592914D01*
X116761905Y-49497676D02*
X117000000Y-49592914D01*
X117000000Y-49592914D02*
X117238095Y-49497676D01*
X116857143Y-49783390D02*
X117000000Y-49592914D01*
X117000000Y-49592914D02*
X117142857Y-49783390D01*
X117761905Y-49354819D02*
X117761905Y-49592914D01*
X117523810Y-49497676D02*
X117761905Y-49592914D01*
X117761905Y-49592914D02*
X118000000Y-49497676D01*
X117619048Y-49783390D02*
X117761905Y-49592914D01*
X117761905Y-49592914D02*
X117904762Y-49783390D01*
X51279819Y-86771429D02*
X50803628Y-87104762D01*
X51279819Y-87342857D02*
X50279819Y-87342857D01*
X50279819Y-87342857D02*
X50279819Y-86961905D01*
X50279819Y-86961905D02*
X50327438Y-86866667D01*
X50327438Y-86866667D02*
X50375057Y-86819048D01*
X50375057Y-86819048D02*
X50470295Y-86771429D01*
X50470295Y-86771429D02*
X50613152Y-86771429D01*
X50613152Y-86771429D02*
X50708390Y-86819048D01*
X50708390Y-86819048D02*
X50756009Y-86866667D01*
X50756009Y-86866667D02*
X50803628Y-86961905D01*
X50803628Y-86961905D02*
X50803628Y-87342857D01*
X51232200Y-85961905D02*
X51279819Y-86057143D01*
X51279819Y-86057143D02*
X51279819Y-86247619D01*
X51279819Y-86247619D02*
X51232200Y-86342857D01*
X51232200Y-86342857D02*
X51136961Y-86390476D01*
X51136961Y-86390476D02*
X50756009Y-86390476D01*
X50756009Y-86390476D02*
X50660771Y-86342857D01*
X50660771Y-86342857D02*
X50613152Y-86247619D01*
X50613152Y-86247619D02*
X50613152Y-86057143D01*
X50613152Y-86057143D02*
X50660771Y-85961905D01*
X50660771Y-85961905D02*
X50756009Y-85914286D01*
X50756009Y-85914286D02*
X50851247Y-85914286D01*
X50851247Y-85914286D02*
X50946485Y-86390476D01*
X51279819Y-85342857D02*
X51232200Y-85438095D01*
X51232200Y-85438095D02*
X51136961Y-85485714D01*
X51136961Y-85485714D02*
X50279819Y-85485714D01*
X51279819Y-84533333D02*
X50756009Y-84533333D01*
X50756009Y-84533333D02*
X50660771Y-84580952D01*
X50660771Y-84580952D02*
X50613152Y-84676190D01*
X50613152Y-84676190D02*
X50613152Y-84866666D01*
X50613152Y-84866666D02*
X50660771Y-84961904D01*
X51232200Y-84533333D02*
X51279819Y-84628571D01*
X51279819Y-84628571D02*
X51279819Y-84866666D01*
X51279819Y-84866666D02*
X51232200Y-84961904D01*
X51232200Y-84961904D02*
X51136961Y-85009523D01*
X51136961Y-85009523D02*
X51041723Y-85009523D01*
X51041723Y-85009523D02*
X50946485Y-84961904D01*
X50946485Y-84961904D02*
X50898866Y-84866666D01*
X50898866Y-84866666D02*
X50898866Y-84628571D01*
X50898866Y-84628571D02*
X50851247Y-84533333D01*
X50613152Y-84152380D02*
X51279819Y-83914285D01*
X50613152Y-83676190D02*
X51279819Y-83914285D01*
X51279819Y-83914285D02*
X51517914Y-84009523D01*
X51517914Y-84009523D02*
X51565533Y-84057142D01*
X51565533Y-84057142D02*
X51613152Y-84152380D01*
X51375057Y-83533333D02*
X51375057Y-82771428D01*
X50375057Y-82580951D02*
X50327438Y-82533332D01*
X50327438Y-82533332D02*
X50279819Y-82438094D01*
X50279819Y-82438094D02*
X50279819Y-82199999D01*
X50279819Y-82199999D02*
X50327438Y-82104761D01*
X50327438Y-82104761D02*
X50375057Y-82057142D01*
X50375057Y-82057142D02*
X50470295Y-82009523D01*
X50470295Y-82009523D02*
X50565533Y-82009523D01*
X50565533Y-82009523D02*
X50708390Y-82057142D01*
X50708390Y-82057142D02*
X51279819Y-82628570D01*
X51279819Y-82628570D02*
X51279819Y-82009523D01*
X51184580Y-81009523D02*
X51232200Y-81057142D01*
X51232200Y-81057142D02*
X51279819Y-81199999D01*
X51279819Y-81199999D02*
X51279819Y-81295237D01*
X51279819Y-81295237D02*
X51232200Y-81438094D01*
X51232200Y-81438094D02*
X51136961Y-81533332D01*
X51136961Y-81533332D02*
X51041723Y-81580951D01*
X51041723Y-81580951D02*
X50851247Y-81628570D01*
X50851247Y-81628570D02*
X50708390Y-81628570D01*
X50708390Y-81628570D02*
X50517914Y-81580951D01*
X50517914Y-81580951D02*
X50422676Y-81533332D01*
X50422676Y-81533332D02*
X50327438Y-81438094D01*
X50327438Y-81438094D02*
X50279819Y-81295237D01*
X50279819Y-81295237D02*
X50279819Y-81199999D01*
X50279819Y-81199999D02*
X50327438Y-81057142D01*
X50327438Y-81057142D02*
X50375057Y-81009523D01*
X51279819Y-80580951D02*
X50279819Y-80580951D01*
X50756009Y-80580951D02*
X50756009Y-80009523D01*
X51279819Y-80009523D02*
X50279819Y-80009523D01*
X51279819Y-79009523D02*
X51279819Y-79580951D01*
X51279819Y-79295237D02*
X50279819Y-79295237D01*
X50279819Y-79295237D02*
X50422676Y-79390475D01*
X50422676Y-79390475D02*
X50517914Y-79485713D01*
X50517914Y-79485713D02*
X50565533Y-79580951D01*
X77183332Y-70407200D02*
X77326189Y-70454819D01*
X77326189Y-70454819D02*
X77564284Y-70454819D01*
X77564284Y-70454819D02*
X77659522Y-70407200D01*
X77659522Y-70407200D02*
X77707141Y-70359580D01*
X77707141Y-70359580D02*
X77754760Y-70264342D01*
X77754760Y-70264342D02*
X77754760Y-70169104D01*
X77754760Y-70169104D02*
X77707141Y-70073866D01*
X77707141Y-70073866D02*
X77659522Y-70026247D01*
X77659522Y-70026247D02*
X77564284Y-69978628D01*
X77564284Y-69978628D02*
X77373808Y-69931009D01*
X77373808Y-69931009D02*
X77278570Y-69883390D01*
X77278570Y-69883390D02*
X77230951Y-69835771D01*
X77230951Y-69835771D02*
X77183332Y-69740533D01*
X77183332Y-69740533D02*
X77183332Y-69645295D01*
X77183332Y-69645295D02*
X77230951Y-69550057D01*
X77230951Y-69550057D02*
X77278570Y-69502438D01*
X77278570Y-69502438D02*
X77373808Y-69454819D01*
X77373808Y-69454819D02*
X77611903Y-69454819D01*
X77611903Y-69454819D02*
X77754760Y-69502438D01*
X78088094Y-69454819D02*
X78326189Y-70454819D01*
X78326189Y-70454819D02*
X78516665Y-69740533D01*
X78516665Y-69740533D02*
X78707141Y-70454819D01*
X78707141Y-70454819D02*
X78945237Y-69454819D01*
X79088094Y-70550057D02*
X79849998Y-70550057D01*
X80659522Y-70359580D02*
X80611903Y-70407200D01*
X80611903Y-70407200D02*
X80469046Y-70454819D01*
X80469046Y-70454819D02*
X80373808Y-70454819D01*
X80373808Y-70454819D02*
X80230951Y-70407200D01*
X80230951Y-70407200D02*
X80135713Y-70311961D01*
X80135713Y-70311961D02*
X80088094Y-70216723D01*
X80088094Y-70216723D02*
X80040475Y-70026247D01*
X80040475Y-70026247D02*
X80040475Y-69883390D01*
X80040475Y-69883390D02*
X80088094Y-69692914D01*
X80088094Y-69692914D02*
X80135713Y-69597676D01*
X80135713Y-69597676D02*
X80230951Y-69502438D01*
X80230951Y-69502438D02*
X80373808Y-69454819D01*
X80373808Y-69454819D02*
X80469046Y-69454819D01*
X80469046Y-69454819D02*
X80611903Y-69502438D01*
X80611903Y-69502438D02*
X80659522Y-69550057D01*
X81516665Y-70454819D02*
X81516665Y-69931009D01*
X81516665Y-69931009D02*
X81469046Y-69835771D01*
X81469046Y-69835771D02*
X81373808Y-69788152D01*
X81373808Y-69788152D02*
X81183332Y-69788152D01*
X81183332Y-69788152D02*
X81088094Y-69835771D01*
X81516665Y-70407200D02*
X81421427Y-70454819D01*
X81421427Y-70454819D02*
X81183332Y-70454819D01*
X81183332Y-70454819D02*
X81088094Y-70407200D01*
X81088094Y-70407200D02*
X81040475Y-70311961D01*
X81040475Y-70311961D02*
X81040475Y-70216723D01*
X81040475Y-70216723D02*
X81088094Y-70121485D01*
X81088094Y-70121485D02*
X81183332Y-70073866D01*
X81183332Y-70073866D02*
X81421427Y-70073866D01*
X81421427Y-70073866D02*
X81516665Y-70026247D01*
X81992856Y-69788152D02*
X81992856Y-70454819D01*
X81992856Y-69883390D02*
X82040475Y-69835771D01*
X82040475Y-69835771D02*
X82135713Y-69788152D01*
X82135713Y-69788152D02*
X82278570Y-69788152D01*
X82278570Y-69788152D02*
X82373808Y-69835771D01*
X82373808Y-69835771D02*
X82421427Y-69931009D01*
X82421427Y-69931009D02*
X82421427Y-70454819D01*
X83326189Y-70407200D02*
X83230951Y-70454819D01*
X83230951Y-70454819D02*
X83040475Y-70454819D01*
X83040475Y-70454819D02*
X82945237Y-70407200D01*
X82945237Y-70407200D02*
X82897618Y-70359580D01*
X82897618Y-70359580D02*
X82849999Y-70264342D01*
X82849999Y-70264342D02*
X82849999Y-69978628D01*
X82849999Y-69978628D02*
X82897618Y-69883390D01*
X82897618Y-69883390D02*
X82945237Y-69835771D01*
X82945237Y-69835771D02*
X83040475Y-69788152D01*
X83040475Y-69788152D02*
X83230951Y-69788152D01*
X83230951Y-69788152D02*
X83326189Y-69835771D01*
X84135713Y-70407200D02*
X84040475Y-70454819D01*
X84040475Y-70454819D02*
X83849999Y-70454819D01*
X83849999Y-70454819D02*
X83754761Y-70407200D01*
X83754761Y-70407200D02*
X83707142Y-70311961D01*
X83707142Y-70311961D02*
X83707142Y-69931009D01*
X83707142Y-69931009D02*
X83754761Y-69835771D01*
X83754761Y-69835771D02*
X83849999Y-69788152D01*
X83849999Y-69788152D02*
X84040475Y-69788152D01*
X84040475Y-69788152D02*
X84135713Y-69835771D01*
X84135713Y-69835771D02*
X84183332Y-69931009D01*
X84183332Y-69931009D02*
X84183332Y-70026247D01*
X84183332Y-70026247D02*
X83707142Y-70121485D01*
X84754761Y-70454819D02*
X84659523Y-70407200D01*
X84659523Y-70407200D02*
X84611904Y-70311961D01*
X84611904Y-70311961D02*
X84611904Y-69454819D01*
X84897619Y-70550057D02*
X85659523Y-70550057D01*
X86469047Y-70454819D02*
X86135714Y-69978628D01*
X85897619Y-70454819D02*
X85897619Y-69454819D01*
X85897619Y-69454819D02*
X86278571Y-69454819D01*
X86278571Y-69454819D02*
X86373809Y-69502438D01*
X86373809Y-69502438D02*
X86421428Y-69550057D01*
X86421428Y-69550057D02*
X86469047Y-69645295D01*
X86469047Y-69645295D02*
X86469047Y-69788152D01*
X86469047Y-69788152D02*
X86421428Y-69883390D01*
X86421428Y-69883390D02*
X86373809Y-69931009D01*
X86373809Y-69931009D02*
X86278571Y-69978628D01*
X86278571Y-69978628D02*
X85897619Y-69978628D01*
X87278571Y-70407200D02*
X87183333Y-70454819D01*
X87183333Y-70454819D02*
X86992857Y-70454819D01*
X86992857Y-70454819D02*
X86897619Y-70407200D01*
X86897619Y-70407200D02*
X86850000Y-70311961D01*
X86850000Y-70311961D02*
X86850000Y-69931009D01*
X86850000Y-69931009D02*
X86897619Y-69835771D01*
X86897619Y-69835771D02*
X86992857Y-69788152D01*
X86992857Y-69788152D02*
X87183333Y-69788152D01*
X87183333Y-69788152D02*
X87278571Y-69835771D01*
X87278571Y-69835771D02*
X87326190Y-69931009D01*
X87326190Y-69931009D02*
X87326190Y-70026247D01*
X87326190Y-70026247D02*
X86850000Y-70121485D01*
X87707143Y-70407200D02*
X87802381Y-70454819D01*
X87802381Y-70454819D02*
X87992857Y-70454819D01*
X87992857Y-70454819D02*
X88088095Y-70407200D01*
X88088095Y-70407200D02*
X88135714Y-70311961D01*
X88135714Y-70311961D02*
X88135714Y-70264342D01*
X88135714Y-70264342D02*
X88088095Y-70169104D01*
X88088095Y-70169104D02*
X87992857Y-70121485D01*
X87992857Y-70121485D02*
X87850000Y-70121485D01*
X87850000Y-70121485D02*
X87754762Y-70073866D01*
X87754762Y-70073866D02*
X87707143Y-69978628D01*
X87707143Y-69978628D02*
X87707143Y-69931009D01*
X87707143Y-69931009D02*
X87754762Y-69835771D01*
X87754762Y-69835771D02*
X87850000Y-69788152D01*
X87850000Y-69788152D02*
X87992857Y-69788152D01*
X87992857Y-69788152D02*
X88088095Y-69835771D01*
X88945238Y-70407200D02*
X88850000Y-70454819D01*
X88850000Y-70454819D02*
X88659524Y-70454819D01*
X88659524Y-70454819D02*
X88564286Y-70407200D01*
X88564286Y-70407200D02*
X88516667Y-70311961D01*
X88516667Y-70311961D02*
X88516667Y-69931009D01*
X88516667Y-69931009D02*
X88564286Y-69835771D01*
X88564286Y-69835771D02*
X88659524Y-69788152D01*
X88659524Y-69788152D02*
X88850000Y-69788152D01*
X88850000Y-69788152D02*
X88945238Y-69835771D01*
X88945238Y-69835771D02*
X88992857Y-69931009D01*
X88992857Y-69931009D02*
X88992857Y-70026247D01*
X88992857Y-70026247D02*
X88516667Y-70121485D01*
X89278572Y-69788152D02*
X89659524Y-69788152D01*
X89421429Y-69454819D02*
X89421429Y-70311961D01*
X89421429Y-70311961D02*
X89469048Y-70407200D01*
X89469048Y-70407200D02*
X89564286Y-70454819D01*
X89564286Y-70454819D02*
X89659524Y-70454819D01*
X90516667Y-70454819D02*
X89945239Y-70454819D01*
X90230953Y-70454819D02*
X90230953Y-69454819D01*
X90230953Y-69454819D02*
X90135715Y-69597676D01*
X90135715Y-69597676D02*
X90040477Y-69692914D01*
X90040477Y-69692914D02*
X89945239Y-69740533D01*
X52359523Y-48954819D02*
X51883333Y-48954819D01*
X51883333Y-48954819D02*
X51835714Y-49431009D01*
X51835714Y-49431009D02*
X51883333Y-49383390D01*
X51883333Y-49383390D02*
X51978571Y-49335771D01*
X51978571Y-49335771D02*
X52216666Y-49335771D01*
X52216666Y-49335771D02*
X52311904Y-49383390D01*
X52311904Y-49383390D02*
X52359523Y-49431009D01*
X52359523Y-49431009D02*
X52407142Y-49526247D01*
X52407142Y-49526247D02*
X52407142Y-49764342D01*
X52407142Y-49764342D02*
X52359523Y-49859580D01*
X52359523Y-49859580D02*
X52311904Y-49907200D01*
X52311904Y-49907200D02*
X52216666Y-49954819D01*
X52216666Y-49954819D02*
X51978571Y-49954819D01*
X51978571Y-49954819D02*
X51883333Y-49907200D01*
X51883333Y-49907200D02*
X51835714Y-49859580D01*
X52692857Y-48954819D02*
X53026190Y-49954819D01*
X53026190Y-49954819D02*
X53359523Y-48954819D01*
X54216666Y-49002438D02*
X54121428Y-48954819D01*
X54121428Y-48954819D02*
X53978571Y-48954819D01*
X53978571Y-48954819D02*
X53835714Y-49002438D01*
X53835714Y-49002438D02*
X53740476Y-49097676D01*
X53740476Y-49097676D02*
X53692857Y-49192914D01*
X53692857Y-49192914D02*
X53645238Y-49383390D01*
X53645238Y-49383390D02*
X53645238Y-49526247D01*
X53645238Y-49526247D02*
X53692857Y-49716723D01*
X53692857Y-49716723D02*
X53740476Y-49811961D01*
X53740476Y-49811961D02*
X53835714Y-49907200D01*
X53835714Y-49907200D02*
X53978571Y-49954819D01*
X53978571Y-49954819D02*
X54073809Y-49954819D01*
X54073809Y-49954819D02*
X54216666Y-49907200D01*
X54216666Y-49907200D02*
X54264285Y-49859580D01*
X54264285Y-49859580D02*
X54264285Y-49526247D01*
X54264285Y-49526247D02*
X54073809Y-49526247D01*
X54692857Y-49954819D02*
X54692857Y-48954819D01*
X54692857Y-48954819D02*
X55264285Y-49954819D01*
X55264285Y-49954819D02*
X55264285Y-48954819D01*
X55740476Y-49954819D02*
X55740476Y-48954819D01*
X55740476Y-48954819D02*
X55978571Y-48954819D01*
X55978571Y-48954819D02*
X56121428Y-49002438D01*
X56121428Y-49002438D02*
X56216666Y-49097676D01*
X56216666Y-49097676D02*
X56264285Y-49192914D01*
X56264285Y-49192914D02*
X56311904Y-49383390D01*
X56311904Y-49383390D02*
X56311904Y-49526247D01*
X56311904Y-49526247D02*
X56264285Y-49716723D01*
X56264285Y-49716723D02*
X56216666Y-49811961D01*
X56216666Y-49811961D02*
X56121428Y-49907200D01*
X56121428Y-49907200D02*
X55978571Y-49954819D01*
X55978571Y-49954819D02*
X55740476Y-49954819D01*
X57264285Y-49954819D02*
X56692857Y-49954819D01*
X56978571Y-49954819D02*
X56978571Y-48954819D01*
X56978571Y-48954819D02*
X56883333Y-49097676D01*
X56883333Y-49097676D02*
X56788095Y-49192914D01*
X56788095Y-49192914D02*
X56692857Y-49240533D01*
X114475237Y-80577200D02*
X114618094Y-80624819D01*
X114618094Y-80624819D02*
X114856189Y-80624819D01*
X114856189Y-80624819D02*
X114951427Y-80577200D01*
X114951427Y-80577200D02*
X114999046Y-80529580D01*
X114999046Y-80529580D02*
X115046665Y-80434342D01*
X115046665Y-80434342D02*
X115046665Y-80339104D01*
X115046665Y-80339104D02*
X114999046Y-80243866D01*
X114999046Y-80243866D02*
X114951427Y-80196247D01*
X114951427Y-80196247D02*
X114856189Y-80148628D01*
X114856189Y-80148628D02*
X114665713Y-80101009D01*
X114665713Y-80101009D02*
X114570475Y-80053390D01*
X114570475Y-80053390D02*
X114522856Y-80005771D01*
X114522856Y-80005771D02*
X114475237Y-79910533D01*
X114475237Y-79910533D02*
X114475237Y-79815295D01*
X114475237Y-79815295D02*
X114522856Y-79720057D01*
X114522856Y-79720057D02*
X114570475Y-79672438D01*
X114570475Y-79672438D02*
X114665713Y-79624819D01*
X114665713Y-79624819D02*
X114903808Y-79624819D01*
X114903808Y-79624819D02*
X115046665Y-79672438D01*
X115332380Y-79624819D02*
X115903808Y-79624819D01*
X115618094Y-80624819D02*
X115618094Y-79624819D01*
X116141904Y-79624819D02*
X116808570Y-79624819D01*
X116808570Y-79624819D02*
X116379999Y-80624819D01*
X117094285Y-79624819D02*
X117760951Y-79624819D01*
X117760951Y-79624819D02*
X117332380Y-80624819D01*
X118284761Y-80053390D02*
X118189523Y-80005771D01*
X118189523Y-80005771D02*
X118141904Y-79958152D01*
X118141904Y-79958152D02*
X118094285Y-79862914D01*
X118094285Y-79862914D02*
X118094285Y-79815295D01*
X118094285Y-79815295D02*
X118141904Y-79720057D01*
X118141904Y-79720057D02*
X118189523Y-79672438D01*
X118189523Y-79672438D02*
X118284761Y-79624819D01*
X118284761Y-79624819D02*
X118475237Y-79624819D01*
X118475237Y-79624819D02*
X118570475Y-79672438D01*
X118570475Y-79672438D02*
X118618094Y-79720057D01*
X118618094Y-79720057D02*
X118665713Y-79815295D01*
X118665713Y-79815295D02*
X118665713Y-79862914D01*
X118665713Y-79862914D02*
X118618094Y-79958152D01*
X118618094Y-79958152D02*
X118570475Y-80005771D01*
X118570475Y-80005771D02*
X118475237Y-80053390D01*
X118475237Y-80053390D02*
X118284761Y-80053390D01*
X118284761Y-80053390D02*
X118189523Y-80101009D01*
X118189523Y-80101009D02*
X118141904Y-80148628D01*
X118141904Y-80148628D02*
X118094285Y-80243866D01*
X118094285Y-80243866D02*
X118094285Y-80434342D01*
X118094285Y-80434342D02*
X118141904Y-80529580D01*
X118141904Y-80529580D02*
X118189523Y-80577200D01*
X118189523Y-80577200D02*
X118284761Y-80624819D01*
X118284761Y-80624819D02*
X118475237Y-80624819D01*
X118475237Y-80624819D02*
X118570475Y-80577200D01*
X118570475Y-80577200D02*
X118618094Y-80529580D01*
X118618094Y-80529580D02*
X118665713Y-80434342D01*
X118665713Y-80434342D02*
X118665713Y-80243866D01*
X118665713Y-80243866D02*
X118618094Y-80148628D01*
X118618094Y-80148628D02*
X118570475Y-80101009D01*
X118570475Y-80101009D02*
X118475237Y-80053390D01*
X119141904Y-80624819D02*
X119332380Y-80624819D01*
X119332380Y-80624819D02*
X119427618Y-80577200D01*
X119427618Y-80577200D02*
X119475237Y-80529580D01*
X119475237Y-80529580D02*
X119570475Y-80386723D01*
X119570475Y-80386723D02*
X119618094Y-80196247D01*
X119618094Y-80196247D02*
X119618094Y-79815295D01*
X119618094Y-79815295D02*
X119570475Y-79720057D01*
X119570475Y-79720057D02*
X119522856Y-79672438D01*
X119522856Y-79672438D02*
X119427618Y-79624819D01*
X119427618Y-79624819D02*
X119237142Y-79624819D01*
X119237142Y-79624819D02*
X119141904Y-79672438D01*
X119141904Y-79672438D02*
X119094285Y-79720057D01*
X119094285Y-79720057D02*
X119046666Y-79815295D01*
X119046666Y-79815295D02*
X119046666Y-80053390D01*
X119046666Y-80053390D02*
X119094285Y-80148628D01*
X119094285Y-80148628D02*
X119141904Y-80196247D01*
X119141904Y-80196247D02*
X119237142Y-80243866D01*
X119237142Y-80243866D02*
X119427618Y-80243866D01*
X119427618Y-80243866D02*
X119522856Y-80196247D01*
X119522856Y-80196247D02*
X119570475Y-80148628D01*
X119570475Y-80148628D02*
X119618094Y-80053390D01*
X119808571Y-80720057D02*
X120570475Y-80720057D01*
X120760952Y-80577200D02*
X120903809Y-80624819D01*
X120903809Y-80624819D02*
X121141904Y-80624819D01*
X121141904Y-80624819D02*
X121237142Y-80577200D01*
X121237142Y-80577200D02*
X121284761Y-80529580D01*
X121284761Y-80529580D02*
X121332380Y-80434342D01*
X121332380Y-80434342D02*
X121332380Y-80339104D01*
X121332380Y-80339104D02*
X121284761Y-80243866D01*
X121284761Y-80243866D02*
X121237142Y-80196247D01*
X121237142Y-80196247D02*
X121141904Y-80148628D01*
X121141904Y-80148628D02*
X120951428Y-80101009D01*
X120951428Y-80101009D02*
X120856190Y-80053390D01*
X120856190Y-80053390D02*
X120808571Y-80005771D01*
X120808571Y-80005771D02*
X120760952Y-79910533D01*
X120760952Y-79910533D02*
X120760952Y-79815295D01*
X120760952Y-79815295D02*
X120808571Y-79720057D01*
X120808571Y-79720057D02*
X120856190Y-79672438D01*
X120856190Y-79672438D02*
X120951428Y-79624819D01*
X120951428Y-79624819D02*
X121189523Y-79624819D01*
X121189523Y-79624819D02*
X121332380Y-79672438D01*
X121903809Y-80624819D02*
X121808571Y-80577200D01*
X121808571Y-80577200D02*
X121760952Y-80529580D01*
X121760952Y-80529580D02*
X121713333Y-80434342D01*
X121713333Y-80434342D02*
X121713333Y-80148628D01*
X121713333Y-80148628D02*
X121760952Y-80053390D01*
X121760952Y-80053390D02*
X121808571Y-80005771D01*
X121808571Y-80005771D02*
X121903809Y-79958152D01*
X121903809Y-79958152D02*
X122046666Y-79958152D01*
X122046666Y-79958152D02*
X122141904Y-80005771D01*
X122141904Y-80005771D02*
X122189523Y-80053390D01*
X122189523Y-80053390D02*
X122237142Y-80148628D01*
X122237142Y-80148628D02*
X122237142Y-80434342D01*
X122237142Y-80434342D02*
X122189523Y-80529580D01*
X122189523Y-80529580D02*
X122141904Y-80577200D01*
X122141904Y-80577200D02*
X122046666Y-80624819D01*
X122046666Y-80624819D02*
X121903809Y-80624819D01*
X123094285Y-80577200D02*
X122999047Y-80624819D01*
X122999047Y-80624819D02*
X122808571Y-80624819D01*
X122808571Y-80624819D02*
X122713333Y-80577200D01*
X122713333Y-80577200D02*
X122665714Y-80529580D01*
X122665714Y-80529580D02*
X122618095Y-80434342D01*
X122618095Y-80434342D02*
X122618095Y-80148628D01*
X122618095Y-80148628D02*
X122665714Y-80053390D01*
X122665714Y-80053390D02*
X122713333Y-80005771D01*
X122713333Y-80005771D02*
X122808571Y-79958152D01*
X122808571Y-79958152D02*
X122999047Y-79958152D01*
X122999047Y-79958152D02*
X123094285Y-80005771D01*
X123522857Y-80624819D02*
X123522857Y-79624819D01*
X123618095Y-80243866D02*
X123903809Y-80624819D01*
X123903809Y-79958152D02*
X123522857Y-80339104D01*
X124713333Y-80577200D02*
X124618095Y-80624819D01*
X124618095Y-80624819D02*
X124427619Y-80624819D01*
X124427619Y-80624819D02*
X124332381Y-80577200D01*
X124332381Y-80577200D02*
X124284762Y-80481961D01*
X124284762Y-80481961D02*
X124284762Y-80101009D01*
X124284762Y-80101009D02*
X124332381Y-80005771D01*
X124332381Y-80005771D02*
X124427619Y-79958152D01*
X124427619Y-79958152D02*
X124618095Y-79958152D01*
X124618095Y-79958152D02*
X124713333Y-80005771D01*
X124713333Y-80005771D02*
X124760952Y-80101009D01*
X124760952Y-80101009D02*
X124760952Y-80196247D01*
X124760952Y-80196247D02*
X124284762Y-80291485D01*
X125046667Y-79958152D02*
X125427619Y-79958152D01*
X125189524Y-79624819D02*
X125189524Y-80481961D01*
X125189524Y-80481961D02*
X125237143Y-80577200D01*
X125237143Y-80577200D02*
X125332381Y-80624819D01*
X125332381Y-80624819D02*
X125427619Y-80624819D01*
X126284762Y-80624819D02*
X125713334Y-80624819D01*
X125999048Y-80624819D02*
X125999048Y-79624819D01*
X125999048Y-79624819D02*
X125903810Y-79767676D01*
X125903810Y-79767676D02*
X125808572Y-79862914D01*
X125808572Y-79862914D02*
X125713334Y-79910533D01*
X67220713Y-52256009D02*
X67363570Y-52303628D01*
X67363570Y-52303628D02*
X67411189Y-52351247D01*
X67411189Y-52351247D02*
X67458808Y-52446485D01*
X67458808Y-52446485D02*
X67458808Y-52589342D01*
X67458808Y-52589342D02*
X67411189Y-52684580D01*
X67411189Y-52684580D02*
X67363570Y-52732200D01*
X67363570Y-52732200D02*
X67268332Y-52779819D01*
X67268332Y-52779819D02*
X66887380Y-52779819D01*
X66887380Y-52779819D02*
X66887380Y-51779819D01*
X66887380Y-51779819D02*
X67220713Y-51779819D01*
X67220713Y-51779819D02*
X67315951Y-51827438D01*
X67315951Y-51827438D02*
X67363570Y-51875057D01*
X67363570Y-51875057D02*
X67411189Y-51970295D01*
X67411189Y-51970295D02*
X67411189Y-52065533D01*
X67411189Y-52065533D02*
X67363570Y-52160771D01*
X67363570Y-52160771D02*
X67315951Y-52208390D01*
X67315951Y-52208390D02*
X67220713Y-52256009D01*
X67220713Y-52256009D02*
X66887380Y-52256009D01*
X68315951Y-52113152D02*
X68315951Y-52779819D01*
X67887380Y-52113152D02*
X67887380Y-52636961D01*
X67887380Y-52636961D02*
X67934999Y-52732200D01*
X67934999Y-52732200D02*
X68030237Y-52779819D01*
X68030237Y-52779819D02*
X68173094Y-52779819D01*
X68173094Y-52779819D02*
X68268332Y-52732200D01*
X68268332Y-52732200D02*
X68315951Y-52684580D01*
X68696904Y-52113152D02*
X69220713Y-52113152D01*
X69220713Y-52113152D02*
X68696904Y-52779819D01*
X68696904Y-52779819D02*
X69220713Y-52779819D01*
X69506428Y-52113152D02*
X70030237Y-52113152D01*
X70030237Y-52113152D02*
X69506428Y-52779819D01*
X69506428Y-52779819D02*
X70030237Y-52779819D01*
X70792142Y-52732200D02*
X70696904Y-52779819D01*
X70696904Y-52779819D02*
X70506428Y-52779819D01*
X70506428Y-52779819D02*
X70411190Y-52732200D01*
X70411190Y-52732200D02*
X70363571Y-52636961D01*
X70363571Y-52636961D02*
X70363571Y-52256009D01*
X70363571Y-52256009D02*
X70411190Y-52160771D01*
X70411190Y-52160771D02*
X70506428Y-52113152D01*
X70506428Y-52113152D02*
X70696904Y-52113152D01*
X70696904Y-52113152D02*
X70792142Y-52160771D01*
X70792142Y-52160771D02*
X70839761Y-52256009D01*
X70839761Y-52256009D02*
X70839761Y-52351247D01*
X70839761Y-52351247D02*
X70363571Y-52446485D01*
X71268333Y-52779819D02*
X71268333Y-52113152D01*
X71268333Y-52303628D02*
X71315952Y-52208390D01*
X71315952Y-52208390D02*
X71363571Y-52160771D01*
X71363571Y-52160771D02*
X71458809Y-52113152D01*
X71458809Y-52113152D02*
X71554047Y-52113152D01*
X71649286Y-52875057D02*
X72411190Y-52875057D01*
X73220714Y-52684580D02*
X73173095Y-52732200D01*
X73173095Y-52732200D02*
X73030238Y-52779819D01*
X73030238Y-52779819D02*
X72935000Y-52779819D01*
X72935000Y-52779819D02*
X72792143Y-52732200D01*
X72792143Y-52732200D02*
X72696905Y-52636961D01*
X72696905Y-52636961D02*
X72649286Y-52541723D01*
X72649286Y-52541723D02*
X72601667Y-52351247D01*
X72601667Y-52351247D02*
X72601667Y-52208390D01*
X72601667Y-52208390D02*
X72649286Y-52017914D01*
X72649286Y-52017914D02*
X72696905Y-51922676D01*
X72696905Y-51922676D02*
X72792143Y-51827438D01*
X72792143Y-51827438D02*
X72935000Y-51779819D01*
X72935000Y-51779819D02*
X73030238Y-51779819D01*
X73030238Y-51779819D02*
X73173095Y-51827438D01*
X73173095Y-51827438D02*
X73220714Y-51875057D01*
X73792143Y-52779819D02*
X73696905Y-52732200D01*
X73696905Y-52732200D02*
X73649286Y-52684580D01*
X73649286Y-52684580D02*
X73601667Y-52589342D01*
X73601667Y-52589342D02*
X73601667Y-52303628D01*
X73601667Y-52303628D02*
X73649286Y-52208390D01*
X73649286Y-52208390D02*
X73696905Y-52160771D01*
X73696905Y-52160771D02*
X73792143Y-52113152D01*
X73792143Y-52113152D02*
X73935000Y-52113152D01*
X73935000Y-52113152D02*
X74030238Y-52160771D01*
X74030238Y-52160771D02*
X74077857Y-52208390D01*
X74077857Y-52208390D02*
X74125476Y-52303628D01*
X74125476Y-52303628D02*
X74125476Y-52589342D01*
X74125476Y-52589342D02*
X74077857Y-52684580D01*
X74077857Y-52684580D02*
X74030238Y-52732200D01*
X74030238Y-52732200D02*
X73935000Y-52779819D01*
X73935000Y-52779819D02*
X73792143Y-52779819D01*
X74554048Y-52113152D02*
X74554048Y-52779819D01*
X74554048Y-52208390D02*
X74601667Y-52160771D01*
X74601667Y-52160771D02*
X74696905Y-52113152D01*
X74696905Y-52113152D02*
X74839762Y-52113152D01*
X74839762Y-52113152D02*
X74935000Y-52160771D01*
X74935000Y-52160771D02*
X74982619Y-52256009D01*
X74982619Y-52256009D02*
X74982619Y-52779819D01*
X75458810Y-52113152D02*
X75458810Y-52779819D01*
X75458810Y-52208390D02*
X75506429Y-52160771D01*
X75506429Y-52160771D02*
X75601667Y-52113152D01*
X75601667Y-52113152D02*
X75744524Y-52113152D01*
X75744524Y-52113152D02*
X75839762Y-52160771D01*
X75839762Y-52160771D02*
X75887381Y-52256009D01*
X75887381Y-52256009D02*
X75887381Y-52779819D01*
X76125477Y-52875057D02*
X76887381Y-52875057D01*
X77315953Y-51779819D02*
X77411191Y-51779819D01*
X77411191Y-51779819D02*
X77506429Y-51827438D01*
X77506429Y-51827438D02*
X77554048Y-51875057D01*
X77554048Y-51875057D02*
X77601667Y-51970295D01*
X77601667Y-51970295D02*
X77649286Y-52160771D01*
X77649286Y-52160771D02*
X77649286Y-52398866D01*
X77649286Y-52398866D02*
X77601667Y-52589342D01*
X77601667Y-52589342D02*
X77554048Y-52684580D01*
X77554048Y-52684580D02*
X77506429Y-52732200D01*
X77506429Y-52732200D02*
X77411191Y-52779819D01*
X77411191Y-52779819D02*
X77315953Y-52779819D01*
X77315953Y-52779819D02*
X77220715Y-52732200D01*
X77220715Y-52732200D02*
X77173096Y-52684580D01*
X77173096Y-52684580D02*
X77125477Y-52589342D01*
X77125477Y-52589342D02*
X77077858Y-52398866D01*
X77077858Y-52398866D02*
X77077858Y-52160771D01*
X77077858Y-52160771D02*
X77125477Y-51970295D01*
X77125477Y-51970295D02*
X77173096Y-51875057D01*
X77173096Y-51875057D02*
X77220715Y-51827438D01*
X77220715Y-51827438D02*
X77315953Y-51779819D01*
X78601667Y-52779819D02*
X78030239Y-52779819D01*
X78315953Y-52779819D02*
X78315953Y-51779819D01*
X78315953Y-51779819D02*
X78220715Y-51922676D01*
X78220715Y-51922676D02*
X78125477Y-52017914D01*
X78125477Y-52017914D02*
X78030239Y-52065533D01*
X78935001Y-52779819D02*
X79458810Y-52113152D01*
X78935001Y-52113152D02*
X79458810Y-52779819D01*
X80030239Y-51779819D02*
X80125477Y-51779819D01*
X80125477Y-51779819D02*
X80220715Y-51827438D01*
X80220715Y-51827438D02*
X80268334Y-51875057D01*
X80268334Y-51875057D02*
X80315953Y-51970295D01*
X80315953Y-51970295D02*
X80363572Y-52160771D01*
X80363572Y-52160771D02*
X80363572Y-52398866D01*
X80363572Y-52398866D02*
X80315953Y-52589342D01*
X80315953Y-52589342D02*
X80268334Y-52684580D01*
X80268334Y-52684580D02*
X80220715Y-52732200D01*
X80220715Y-52732200D02*
X80125477Y-52779819D01*
X80125477Y-52779819D02*
X80030239Y-52779819D01*
X80030239Y-52779819D02*
X79935001Y-52732200D01*
X79935001Y-52732200D02*
X79887382Y-52684580D01*
X79887382Y-52684580D02*
X79839763Y-52589342D01*
X79839763Y-52589342D02*
X79792144Y-52398866D01*
X79792144Y-52398866D02*
X79792144Y-52160771D01*
X79792144Y-52160771D02*
X79839763Y-51970295D01*
X79839763Y-51970295D02*
X79887382Y-51875057D01*
X79887382Y-51875057D02*
X79935001Y-51827438D01*
X79935001Y-51827438D02*
X80030239Y-51779819D01*
X80744525Y-51875057D02*
X80792144Y-51827438D01*
X80792144Y-51827438D02*
X80887382Y-51779819D01*
X80887382Y-51779819D02*
X81125477Y-51779819D01*
X81125477Y-51779819D02*
X81220715Y-51827438D01*
X81220715Y-51827438D02*
X81268334Y-51875057D01*
X81268334Y-51875057D02*
X81315953Y-51970295D01*
X81315953Y-51970295D02*
X81315953Y-52065533D01*
X81315953Y-52065533D02*
X81268334Y-52208390D01*
X81268334Y-52208390D02*
X80696906Y-52779819D01*
X80696906Y-52779819D02*
X81315953Y-52779819D01*
X81506430Y-52875057D02*
X82268334Y-52875057D01*
X83030239Y-52779819D02*
X82458811Y-52779819D01*
X82744525Y-52779819D02*
X82744525Y-51779819D01*
X82744525Y-51779819D02*
X82649287Y-51922676D01*
X82649287Y-51922676D02*
X82554049Y-52017914D01*
X82554049Y-52017914D02*
X82458811Y-52065533D01*
%TO.C,ESPMC1*%
D10*
X50285000Y-77750000D02*
X73285000Y-77750000D01*
X73285000Y-59250000D01*
X50285000Y-59250000D01*
X50285000Y-77750000D01*
D12*
%TO.C,Inspection_Light1*%
X92660000Y-56635000D02*
X92660000Y-50665000D01*
X92660000Y-50665000D02*
X85040000Y-50665000D01*
X92650000Y-52925000D02*
X91900000Y-52925000D01*
X92650000Y-51425000D02*
X92650000Y-50675000D01*
X92650000Y-50675000D02*
X90850000Y-50675000D01*
X91900000Y-55875000D02*
X88850000Y-55875000D01*
X91900000Y-52925000D02*
X91900000Y-55875000D01*
X90850000Y-51425000D02*
X92650000Y-51425000D01*
X90850000Y-50675000D02*
X90850000Y-51425000D01*
X89350000Y-51425000D02*
X89350000Y-50675000D01*
X89350000Y-50675000D02*
X88350000Y-50675000D01*
X88350000Y-51425000D02*
X89350000Y-51425000D01*
X88350000Y-50675000D02*
X88350000Y-51425000D01*
X86850000Y-51425000D02*
X86850000Y-50675000D01*
X86850000Y-50675000D02*
X85050000Y-50675000D01*
X86000000Y-50375000D02*
X84750000Y-50375000D01*
X85800000Y-55875000D02*
X88850000Y-55875000D01*
X85800000Y-52925000D02*
X85800000Y-55875000D01*
X85050000Y-52925000D02*
X85800000Y-52925000D01*
X85050000Y-51425000D02*
X86850000Y-51425000D01*
X85050000Y-50675000D02*
X85050000Y-51425000D01*
X85040000Y-56635000D02*
X92660000Y-56635000D01*
X85040000Y-50665000D02*
X85040000Y-56635000D01*
X84750000Y-50375000D02*
X84750000Y-51625000D01*
%TO.C,SW_TWT_Start_Pause_Adjust1*%
D10*
X89650000Y-59775000D02*
X77900000Y-59775000D01*
X77900000Y-61525000D01*
X89650000Y-61525000D01*
X89650000Y-59775000D01*
D12*
%TO.C,SW_RESERVED1*%
X103500000Y-75000000D02*
X103500000Y-73500000D01*
X102250000Y-71000000D02*
X97750000Y-71000000D01*
X97750000Y-77500000D02*
X102250000Y-77500000D01*
X96500000Y-73500000D02*
X96500000Y-75000000D01*
%TO.C,SW_Inspection_Light1*%
X96050000Y-56600000D02*
X96050000Y-64600000D01*
X96050000Y-64600000D02*
X104050000Y-64600000D01*
X104050000Y-56600000D02*
X96050000Y-56600000D01*
X104050000Y-64600000D02*
X104050000Y-56600000D01*
%TO.C,Relay_2CH1*%
X51825000Y-84580000D02*
X51825000Y-83200000D01*
X53205000Y-84580000D02*
X51825000Y-84580000D01*
X54475000Y-84580000D02*
X62205000Y-84580000D01*
X54475000Y-84580000D02*
X54475000Y-81820000D01*
X62205000Y-84580000D02*
X62205000Y-81820000D01*
X54475000Y-81820000D02*
X62205000Y-81820000D01*
%TO.C,SW_Cancel_Reset1*%
X80350000Y-73500000D02*
X80350000Y-75000000D01*
X81600000Y-77500000D02*
X86100000Y-77500000D01*
X86100000Y-71000000D02*
X81600000Y-71000000D01*
X87350000Y-75000000D02*
X87350000Y-73500000D01*
%TO.C,5VGND1*%
X50450000Y-50300000D02*
X50450000Y-51550000D01*
X50740000Y-50590000D02*
X50740000Y-56560000D01*
X50740000Y-56560000D02*
X58360000Y-56560000D01*
X50750000Y-50600000D02*
X50750000Y-51350000D01*
X50750000Y-51350000D02*
X52550000Y-51350000D01*
X50750000Y-52850000D02*
X51500000Y-52850000D01*
X51500000Y-52850000D02*
X51500000Y-55800000D01*
X51500000Y-55800000D02*
X54550000Y-55800000D01*
X51700000Y-50300000D02*
X50450000Y-50300000D01*
X52550000Y-50600000D02*
X50750000Y-50600000D01*
X52550000Y-51350000D02*
X52550000Y-50600000D01*
X54050000Y-50600000D02*
X54050000Y-51350000D01*
X54050000Y-51350000D02*
X55050000Y-51350000D01*
X55050000Y-50600000D02*
X54050000Y-50600000D01*
X55050000Y-51350000D02*
X55050000Y-50600000D01*
X56550000Y-50600000D02*
X56550000Y-51350000D01*
X56550000Y-51350000D02*
X58350000Y-51350000D01*
X57600000Y-52850000D02*
X57600000Y-55800000D01*
X57600000Y-55800000D02*
X54550000Y-55800000D01*
X58350000Y-50600000D02*
X56550000Y-50600000D01*
X58350000Y-51350000D02*
X58350000Y-50600000D01*
X58350000Y-52850000D02*
X57600000Y-52850000D01*
X58360000Y-50590000D02*
X50740000Y-50590000D01*
X58360000Y-56560000D02*
X58360000Y-50590000D01*
%TO.C,ST7789_Socket1*%
X114890000Y-78730000D02*
X114890000Y-77400000D01*
X116000000Y-78730000D02*
X114890000Y-78730000D01*
X117460000Y-59260000D02*
X117050000Y-59260000D01*
X117460000Y-59980000D02*
X117050000Y-59980000D01*
X117460000Y-61800000D02*
X117050000Y-61800000D01*
X117460000Y-62520000D02*
X117050000Y-62520000D01*
X117460000Y-64340000D02*
X117050000Y-64340000D01*
X117460000Y-65060000D02*
X117050000Y-65060000D01*
X117460000Y-66880000D02*
X117050000Y-66880000D01*
X117460000Y-67600000D02*
X117050000Y-67600000D01*
X117460000Y-69420000D02*
X117050000Y-69420000D01*
X117460000Y-70140000D02*
X117050000Y-70140000D01*
X117460000Y-71960000D02*
X117050000Y-71960000D01*
X117460000Y-72680000D02*
X117050000Y-72680000D01*
X117460000Y-74500000D02*
X117050000Y-74500000D01*
X117460000Y-75220000D02*
X117050000Y-75220000D01*
X117460000Y-77040000D02*
X117110000Y-77040000D01*
X117460000Y-77760000D02*
X117110000Y-77760000D01*
X117460000Y-78730000D02*
X117460000Y-58290000D01*
X126090000Y-58290000D02*
X117460000Y-58290000D01*
X126090000Y-60890000D02*
X117460000Y-60890000D01*
X126090000Y-63430000D02*
X117460000Y-63430000D01*
X126090000Y-65970000D02*
X117460000Y-65970000D01*
X126090000Y-68510000D02*
X117460000Y-68510000D01*
X126090000Y-71050000D02*
X117460000Y-71050000D01*
X126090000Y-73590000D02*
X117460000Y-73590000D01*
X126090000Y-76130000D02*
X117460000Y-76130000D01*
X126090000Y-76248100D02*
X117460000Y-76248100D01*
X126090000Y-76366195D02*
X117460000Y-76366195D01*
X126090000Y-76484290D02*
X117460000Y-76484290D01*
X126090000Y-76602385D02*
X117460000Y-76602385D01*
X126090000Y-76720480D02*
X117460000Y-76720480D01*
X126090000Y-76838575D02*
X117460000Y-76838575D01*
X126090000Y-76956670D02*
X117460000Y-76956670D01*
X126090000Y-77074765D02*
X117460000Y-77074765D01*
X126090000Y-77192860D02*
X117460000Y-77192860D01*
X126090000Y-77310955D02*
X117460000Y-77310955D01*
X126090000Y-77429050D02*
X117460000Y-77429050D01*
X126090000Y-77547145D02*
X117460000Y-77547145D01*
X126090000Y-77665240D02*
X117460000Y-77665240D01*
X126090000Y-77783335D02*
X117460000Y-77783335D01*
X126090000Y-77901430D02*
X117460000Y-77901430D01*
X126090000Y-78019525D02*
X117460000Y-78019525D01*
X126090000Y-78137620D02*
X117460000Y-78137620D01*
X126090000Y-78255715D02*
X117460000Y-78255715D01*
X126090000Y-78373810D02*
X117460000Y-78373810D01*
X126090000Y-78491905D02*
X117460000Y-78491905D01*
X126090000Y-78610000D02*
X117460000Y-78610000D01*
X126090000Y-78730000D02*
X117460000Y-78730000D01*
X126090000Y-78730000D02*
X126090000Y-58290000D01*
%TO.C,Buzzer_Conn_01x02_1*%
X72005000Y-56730000D02*
X72005000Y-55350000D01*
X73385000Y-56730000D02*
X72005000Y-56730000D01*
X74655000Y-56730000D02*
X77305000Y-56730000D01*
X74655000Y-56730000D02*
X74655000Y-53970000D01*
X77305000Y-56730000D02*
X77305000Y-53970000D01*
X74655000Y-53970000D02*
X77305000Y-53970000D01*
%TD*%
M02*
