<?xml version="1.0" standalone="no"?>
 <!DOCTYPE svg PUBLIC "-//W3C//DTD SVG 1.1//EN" 
 "http://www.w3.org/Graphics/SVG/1.1/DTD/svg11.dtd"> 
<svg
  xmlns:svg="http://www.w3.org/2000/svg"
  xmlns="http://www.w3.org/2000/svg"
  xmlns:xlink="http://www.w3.org/1999/xlink"
  version="1.1"
  width="297.0022mm" height="210.0072mm" viewBox="0.0000 0.0000 297.0022 210.0072">
<title>SVG Image created as control_panel-B_Cu.svg date 2026/01/23 21:13:06 </title>
  <desc>Image generated by PCBNEW </desc>
<g style="fill:#000000; fill-opacity:1.0000;stroke:#000000; stroke-opacity:1.0000;
stroke-linecap:round; stroke-linejoin:round;"
 transform="translate(0 0) scale(1 1)">
</g>
<g style="fill:#000000; fill-opacity:1.0000; stroke:none;">
<circle cx="81.6000" cy="72.0000" r="1.0000" /> 
</g>
<g style="fill:#000000; fill-opacity:1.0000; stroke:none;">
<circle cx="88.1000" cy="72.0000" r="1.0000" /> 
</g>
<g style="fill:#000000; fill-opacity:1.0000; stroke:none;">
<circle cx="81.6000" cy="76.5000" r="1.0000" /> 
</g>
<g style="fill:#000000; fill-opacity:1.0000; stroke:none;">
<circle cx="88.1000" cy="76.5000" r="1.0000" /> 
</g>
<g style="fill:#000000; fill-opacity:1.0000; stroke:none;">
<circle cx="96.7500" cy="72.0000" r="1.0000" /> 
</g>
<g style="fill:#000000; fill-opacity:1.0000; stroke:none;">
<circle cx="103.2500" cy="72.0000" r="1.0000" /> 
</g>
<g style="fill:#000000; fill-opacity:1.0000; stroke:none;">
<circle cx="96.7500" cy="76.5000" r="1.0000" /> 
</g>
<g style="fill:#000000; fill-opacity:1.0000; stroke:none;">
<circle cx="103.2500" cy="76.5000" r="1.0000" /> 
<path style="fill:#000000; fill-opacity:1.0000; stroke:none;fill-rule:evenodd;"
d="M 74.2350,56.2000
72.5350,56.2000
72.5350,54.5000
74.2350,54.5000
Z" /> 
</g>
<g style="fill:#000000; fill-opacity:1.0000; stroke:none;">
<circle cx="75.9250" cy="55.3500" r="0.8500" /> 
<path style="fill:#000000; fill-opacity:1.0000; stroke:none;fill-rule:evenodd;"
d="M 86.7500,52.3750
86.7690,52.2793
86.8232,52.1982
86.9043,52.1440
87.0000,52.1250
88.2000,52.1250
88.2957,52.1440
88.3768,52.1982
88.4310,52.2793
88.4500,52.3750
88.4500,53.8750
88.4310,53.9707
88.3768,54.0518
88.2957,54.1060
88.2000,54.1250
87.0000,54.1250
86.9043,54.1060
86.8232,54.0518
86.7690,53.9707
86.7500,53.8750
Z" /> 
</g>
<g style="fill:none; 
stroke:#000000; stroke-width:1.7000; stroke-opacity:1; 
stroke-linecap:round; stroke-linejoin:round;">
<path d="M90.1000 52.9750
L90.1000 53.2750
" />
<path style="fill:#000000; fill-opacity:1.0000; stroke:none;fill-rule:evenodd;"
d="M 116.8500,76.5500
116.8500,78.2500
115.1500,78.2500
115.1500,76.5500
Z" /> 
</g>
<g style="fill:#000000; fill-opacity:1.0000; stroke:none;">
<circle cx="116.0000" cy="74.8600" r="0.8500" /> 
</g>
<g style="fill:#000000; fill-opacity:1.0000; stroke:none;">
<circle cx="116.0000" cy="72.3200" r="0.8500" /> 
</g>
<g style="fill:#000000; fill-opacity:1.0000; stroke:none;">
<circle cx="116.0000" cy="69.7800" r="0.8500" /> 
</g>
<g style="fill:#000000; fill-opacity:1.0000; stroke:none;">
<circle cx="116.0000" cy="67.2400" r="0.8500" /> 
</g>
<g style="fill:#000000; fill-opacity:1.0000; stroke:none;">
<circle cx="116.0000" cy="64.7000" r="0.8500" /> 
</g>
<g style="fill:#000000; fill-opacity:1.0000; stroke:none;">
<circle cx="116.0000" cy="62.1600" r="0.8500" /> 
</g>
<g style="fill:#000000; fill-opacity:1.0000; stroke:none;">
<circle cx="116.0000" cy="59.6200" r="0.8500" /> 
</g>
<g style="fill:#000000; fill-opacity:1.0000; stroke:none;">
<circle cx="97.6500" cy="63.4000" r="0.9000" /> 
</g>
<g style="fill:#000000; fill-opacity:1.0000; stroke:none;">
<circle cx="100.0500" cy="63.4000" r="0.9000" /> 
</g>
<g style="fill:#000000; fill-opacity:1.0000; stroke:none;">
<circle cx="102.4500" cy="63.4000" r="0.9000" /> 
</g>
<g style="fill:#000000; fill-opacity:1.0000; stroke:none;">
<circle cx="102.4500" cy="57.8000" r="0.9000" /> 
</g>
<g style="fill:#000000; fill-opacity:1.0000; stroke:none;">
<circle cx="100.0500" cy="57.8000" r="0.9000" /> 
</g>
<g style="fill:#000000; fill-opacity:1.0000; stroke:none;">
<circle cx="97.6500" cy="57.8000" r="0.9000" /> 
<path style="fill:#000000; fill-opacity:1.0000; stroke:none;fill-rule:evenodd;"
d="M 54.0550,84.0500
52.3550,84.0500
52.3550,82.3500
54.0550,82.3500
Z" /> 
</g>
<g style="fill:#000000; fill-opacity:1.0000; stroke:none;">
<circle cx="55.7450" cy="83.2000" r="0.8500" /> 
</g>
<g style="fill:#000000; fill-opacity:1.0000; stroke:none;">
<circle cx="58.2850" cy="83.2000" r="0.8500" /> 
</g>
<g style="fill:#000000; fill-opacity:1.0000; stroke:none;">
<circle cx="60.8250" cy="83.2000" r="0.8500" /> 
</g>
<g style="fill:#000000; fill-opacity:1.0000; stroke:none;">
<circle cx="56.9150" cy="76.2500" r="0.8500" /> 
</g>
<g style="fill:#000000; fill-opacity:1.0000; stroke:none;">
<circle cx="59.4550" cy="76.2500" r="0.8500" /> 
</g>
<g style="fill:#000000; fill-opacity:1.0000; stroke:none;">
<circle cx="61.9950" cy="76.2500" r="0.8500" /> 
</g>
<g style="fill:#000000; fill-opacity:1.0000; stroke:none;">
<circle cx="56.9150" cy="60.7500" r="0.8500" /> 
</g>
<g style="fill:#000000; fill-opacity:1.0000; stroke:none;">
<circle cx="64.5350" cy="76.2500" r="0.8500" /> 
</g>
<g style="fill:#000000; fill-opacity:1.0000; stroke:none;">
<circle cx="67.0750" cy="76.2500" r="0.8500" /> 
</g>
<g style="fill:#000000; fill-opacity:1.0000; stroke:none;">
<circle cx="51.8350" cy="60.7500" r="0.8500" /> 
</g>
<g style="fill:#000000; fill-opacity:1.0000; stroke:none;">
<circle cx="69.6150" cy="76.2500" r="0.8500" /> 
</g>
<g style="fill:#000000; fill-opacity:1.0000; stroke:none;">
<circle cx="72.1550" cy="76.2500" r="0.8500" /> 
</g>
<g style="fill:#000000; fill-opacity:1.0000; stroke:none;">
<circle cx="72.1550" cy="60.7500" r="0.8500" /> 
</g>
<g style="fill:#000000; fill-opacity:1.0000; stroke:none;">
<circle cx="69.6150" cy="60.7500" r="0.8500" /> 
</g>
<g style="fill:#000000; fill-opacity:1.0000; stroke:none;">
<circle cx="67.0750" cy="60.7500" r="0.8500" /> 
</g>
<g style="fill:#000000; fill-opacity:1.0000; stroke:none;">
<circle cx="64.5350" cy="60.7500" r="0.8500" /> 
</g>
<g style="fill:#000000; fill-opacity:1.0000; stroke:none;">
<circle cx="61.9950" cy="60.7500" r="0.8500" /> 
</g>
<g style="fill:#000000; fill-opacity:1.0000; stroke:none;">
<circle cx="59.4550" cy="60.7500" r="0.8500" /> 
</g>
<g style="fill:#000000; fill-opacity:1.0000; stroke:none;">
<circle cx="54.3750" cy="60.7500" r="0.8500" /> 
</g>
<g style="fill:#000000; fill-opacity:1.0000; stroke:none;">
<circle cx="54.3750" cy="76.2500" r="0.8500" /> 
</g>
<g style="fill:#000000; fill-opacity:1.0000; stroke:none;">
<circle cx="51.8350" cy="76.2500" r="0.8500" /> 
<path style="fill:#000000; fill-opacity:1.0000; stroke:none;fill-rule:evenodd;"
d="M 52.4500,52.3000
52.4690,52.2043
52.5232,52.1232
52.6043,52.0690
52.7000,52.0500
53.9000,52.0500
53.9957,52.0690
54.0768,52.1232
54.1310,52.2043
54.1500,52.3000
54.1500,53.8000
54.1310,53.8957
54.0768,53.9768
53.9957,54.0310
53.9000,54.0500
52.7000,54.0500
52.6043,54.0310
52.5232,53.9768
52.4690,53.8957
52.4500,53.8000
Z" /> 
</g>
<g style="fill:none; 
stroke:#000000; stroke-width:1.7000; stroke-opacity:1; 
stroke-linecap:round; stroke-linejoin:round;">
<path d="M55.8000 52.9000
L55.8000 53.2000
" />
</g>
<g style="fill:#000000; fill-opacity:1.0000; stroke:none;">
<circle cx="59.4750" cy="78.8750" r="0.5000" /> 
</g>
<g style="fill:#000000; fill-opacity:1.0000; stroke:none;">
<circle cx="76.8500" cy="78.9000" r="0.5000" /> 
</g>
<g style="fill:#000000; fill-opacity:1.0000; stroke:none;">
<circle cx="56.9750" cy="78.9500" r="0.5000" /> 
</g>
<g style="fill:#000000; fill-opacity:1.0000; stroke:none;">
<circle cx="55.0750" cy="57.9000" r="0.5000" /> 
</g>
<g style="fill:#000000; fill-opacity:1.0000; stroke:none;">
<circle cx="52.6750" cy="57.9500" r="0.5000" /> 
</g>
<g style="fill:#000000; fill-opacity:1.0000; stroke:none;">
<circle cx="60.0750" cy="58.1250" r="0.5000" /> 
</g>
<g style="fill:#000000; fill-opacity:1.0000; stroke:none;">
<circle cx="93.9250" cy="53.1000" r="0.5000" /> 
</g>
<g style="fill:none; 
stroke:#000000; stroke-width:0.3000; stroke-opacity:1; 
stroke-linecap:round; stroke-linejoin:round;">
<path d="M81.6000 72.0000
L88.1000 72.0000
" />
<path d="M61.9950 60.7500
L63.8200 62.5750
" />
<path d="M63.8200 62.5750
L64.8250 62.5750
" />
<path d="M79.8510 70.2510
L81.6000 72.0000
" />
<path d="M64.8250 62.5750
L72.5010 70.2510
" />
<path d="M72.5010 70.2510
L79.8510 70.2510
" />
<path d="M72.0289 80.4280
L76.4759 84.8750
" />
<path d="M69.3443 79.1770
L70.5953 80.4280
" />
<path d="M61.9950 76.2500
L64.9220 79.1770
" />
<path d="M96.3050 84.9000
L96.6000 84.9000
" />
<path d="M76.4759 84.8750
L96.5750 84.8750
" />
<path d="M70.5953 80.4280
L72.0289 80.4280
" />
<path d="M108.5000 84.9000
L116.0000 77.4000
" />
<path d="M64.9220 79.1770
L69.3443 79.1770
" />
<path d="M96.5750 84.8750
L96.6000 84.9000
" />
<path d="M96.6000 84.9000
L108.5000 84.9000
" />
<path d="M107.9443 83.4730
L112.6086 78.8086
" />
<path d="M72.6096 79.0260
L77.0566 83.4730
" />
<path d="M67.0750 76.2500
L68.6000 77.7750
" />
<path d="M68.6000 77.7750
L69.9250 77.7750
" />
<path d="M112.6086 78.8086
L112.6086 73.1714
" />
<path d="M71.1760 79.0260
L72.6096 79.0260
" />
<path d="M77.0566 83.4730
L107.9443 83.4730
" />
<path d="M69.9250 77.7750
L71.1760 79.0260
" />
<path d="M112.6086 73.1714
L116.0000 69.7800
" />
<path d="M59.4550 78.8550
L59.4750 78.8750
" />
<path d="M59.4550 76.2500
L59.4550 78.8550
" />
</g>
<g style="fill:none; 
stroke:#000000; stroke-width:0.5000; stroke-opacity:1; 
stroke-linecap:round; stroke-linejoin:round;">
<path d="M109.6250 78.3500
L106.7270 81.2480
" />
<path d="M63.4750 72.0750
L74.7750 72.0750
" />
<path d="M116.0000 62.1600
L109.6250 68.5350
" />
<path d="M56.9150 65.5150
L63.4750 72.0750
" />
<path d="M106.7270 81.2480
L79.1980 81.2480
" />
<path d="M79.1980 81.2480
L76.8500 78.9000
" />
<path d="M74.7750 72.0750
L76.8500 74.1500
" />
<path d="M109.6250 68.5350
L109.6250 78.3500
" />
<path d="M76.8500 74.1500
L76.8500 78.9000
" />
<path d="M56.9150 60.7500
L56.9150 65.5150
" />
</g>
<g style="fill:none; 
stroke:#000000; stroke-width:0.3000; stroke-opacity:1; 
stroke-linecap:round; stroke-linejoin:round;">
<path d="M69.6346 78.4760
L70.8856 79.7270
" />
<path d="M70.8856 79.7270
L72.3193 79.7270
" />
<path d="M76.7663 84.1740
L108.2346 84.1740
" />
<path d="M113.4418 78.9668
L113.4418 74.8782
" />
<path d="M113.4418 74.8782
L116.0000 72.3200
" />
<path d="M65.0937 76.2500
L67.3197 78.4760
" />
<path d="M64.5350 76.2500
L65.0937 76.2500
" />
<path d="M67.3197 78.4760
L69.6346 78.4760
" />
<path d="M72.3193 79.7270
L76.7663 84.1740
" />
<path d="M108.2346 84.1740
L113.4418 78.9668
" />
<path d="M72.1550 76.2500
L77.9540 82.0490
" />
<path d="M107.3855 82.0490
L110.8173 78.6173
" />
<path d="M77.9540 82.0490
L107.3855 82.0490
" />
<path d="M110.8173 69.8827
L116.0000 64.7000
" />
<path d="M110.8173 78.6173
L110.8173 69.8827
" />
<path d="M56.9150 78.8900
L56.9750 78.9500
" />
<path d="M56.9150 76.2500
L56.9150 78.8900
" />
<path d="M111.9076 71.3324
L116.0000 67.2400
" />
<path d="M77.3250 82.7500
L107.6759 82.7500
" />
<path d="M71.6900 78.3250
L72.9000 78.3250
" />
<path d="M72.9000 78.3250
L77.3250 82.7500
" />
<path d="M69.6150 76.2500
L71.6900 78.3250
" />
<path d="M111.9076 78.5183
L111.9076 71.3324
" />
<path d="M107.6759 82.7500
L111.9076 78.5183
" />
</g>
<g style="fill:none; 
stroke:#000000; stroke-width:0.5000; stroke-opacity:1; 
stroke-linecap:round; stroke-linejoin:round;">
<path d="M54.3750 58.6000
L55.0750 57.9000
" />
<path d="M54.3750 60.7500
L54.3750 58.6000
" />
<path d="M51.8350 60.7500
L51.8350 58.7900
" />
<path d="M51.8350 58.7900
L52.6750 57.9500
" />
</g>
<g style="fill:none; 
stroke:#000000; stroke-width:0.3000; stroke-opacity:1; 
stroke-linecap:round; stroke-linejoin:round;">
<path d="M59.4550 58.7450
L60.0750 58.1250
" />
<path d="M59.4550 60.7500
L59.4550 58.7450
" />
<path d="M64.5350 60.7500
L73.3350 69.5500
" />
<path d="M64.5350 60.7500
L64.5350 60.8837
" />
<path d="M94.3000 69.5500
L96.7500 72.0000
" />
<path d="M73.3350 69.5500
L94.3000 69.5500
" />
<path d="M96.7500 72.0000
L103.2500 72.0000
" />
</g>
<g style="fill:none; 
stroke:#000000; stroke-width:0.5000; stroke-opacity:1; 
stroke-linecap:round; stroke-linejoin:round;">
<path d="M95.3500 53.1000
L93.9250 53.1000
" />
<path d="M95.3500 53.1000
L100.0500 57.8000
" />
<path style="fill:#000000; fill-opacity:1.0000; stroke:none;fill-rule:evenodd;"
d="M 119.4425,50.5202
119.4883,50.5730
119.4995,50.6245
119.4995,86.3755
119.4798,86.4425
119.4270,86.4883
119.3755,86.4995
50.6245,86.4995
50.5575,86.4798
50.5117,86.4270
50.5005,86.3755
50.5005,82.3022
51.8550,82.3022
51.8550,82.9500
52.7720,82.9500
52.7391,83.0070
52.7050,83.1342
52.7050,83.2658
52.7391,83.3930
52.7720,83.4500
51.8550,83.4500
51.8550,84.0978
51.8614,84.1574
51.8614,84.1574
51.9116,84.2921
51.9116,84.2921
51.9978,84.4072
51.9978,84.4072
52.1129,84.4933
52.1129,84.4934
52.2476,84.5436
52.2476,84.5436
52.3072,84.5500
52.3072,84.5500
52.9550,84.5500
52.9550,83.6330
53.0120,83.6659
53.1392,83.7000
53.2708,83.7000
53.3980,83.6659
53.4550,83.6330
53.4550,84.5500
54.1028,84.5500
54.1028,84.5500
54.1624,84.5436
54.1624,84.5436
54.2971,84.4934
54.2971,84.4933
54.4122,84.4072
54.4122,84.4072
54.4983,84.2921
54.4984,84.2921
54.5474,84.1605
54.5893,84.1046
54.6548,84.0802
54.7230,84.0950
54.7513,84.1162
54.8652,84.2301
55.0372,84.3550
55.0372,84.3550
55.0372,84.3551
55.2266,84.4516
55.4288,84.5172
55.6387,84.5505
55.6387,84.5505
55.8513,84.5505
55.8513,84.5505
56.0612,84.5172
56.2634,84.4516
56.4528,84.3551
56.5395,84.2921
56.6248,84.2301
56.6248,84.2301
56.6248,84.2301
56.7751,84.0798
56.7751,84.0798
56.7751,84.0798
56.9000,83.9078
56.9000,83.9078
56.9001,83.9078
56.9045,83.8991
56.9525,83.8483
57.0203,83.8315
57.0864,83.8540
57.1255,83.8991
57.1300,83.9078
57.2549,84.0798
57.4052,84.2301
57.5772,84.3550
57.5772,84.3550
57.5772,84.3551
57.7666,84.4516
57.9688,84.5172
58.1787,84.5505
58.1787,84.5505
58.3913,84.5505
58.3913,84.5505
58.6012,84.5172
58.8034,84.4516
58.9928,84.3551
59.0795,84.2921
59.1648,84.2301
59.1648,84.2301
59.1648,84.2301
59.3151,84.0798
59.3151,84.0798
59.3151,84.0798
59.4400,83.9078
59.4400,83.9078
59.4401,83.9078
59.4445,83.8991
59.4925,83.8483
59.5603,83.8315
59.6264,83.8540
59.6655,83.8991
59.6700,83.9078
59.7949,84.0798
59.9452,84.2301
60.1172,84.3550
60.1172,84.3550
60.1172,84.3551
60.3066,84.4516
60.5088,84.5172
60.7187,84.5505
60.7187,84.5505
60.9313,84.5505
60.9313,84.5505
61.1412,84.5172
61.3434,84.4516
61.5328,84.3551
61.6195,84.2921
61.7048,84.2301
61.7048,84.2301
61.7048,84.2301
61.8551,84.0798
61.8551,84.0798
61.8551,84.0798
61.9800,83.9078
61.9800,83.9078
61.9801,83.9078
62.0766,83.7184
62.1422,83.5162
62.1755,83.3063
62.1755,83.0937
62.1742,83.0853
64.2495,83.0853
64.2495,83.3147
64.2598,83.3930
64.2795,83.5422
64.3217,83.7000
64.3388,83.7639
64.4266,83.9759
64.4267,83.9759
64.5414,84.1746
64.6811,84.3567
64.6811,84.3567
64.8433,84.5189
64.8433,84.5189
64.8433,84.5189
64.8755,84.5436
65.0254,84.6586
65.0254,84.6586
65.0254,84.6586
65.2241,84.7733
65.2241,84.7733
65.2241,84.7733
65.3155,84.8112
65.4361,84.8612
65.6578,84.9205
65.8853,84.9505
65.8853,84.9505
66.1147,84.9505
66.1147,84.9505
66.3422,84.9205
66.5639,84.8612
66.7759,84.7733
66.9746,84.6586
67.1567,84.5189
67.1567,84.5189
67.1567,84.5189
67.3189,84.3567
67.3189,84.3567
67.3189,84.3567
67.4586,84.1746
67.5733,83.9759
67.6612,83.7639
67.7205,83.5422
67.7505,83.3147
67.7505,83.0853
67.7205,82.8578
67.6612,82.6361
67.6052,82.5009
67.5733,82.4241
67.5733,82.4241
67.5733,82.4241
67.4586,82.2254
67.4586,82.2254
67.4586,82.2254
67.3189,82.0433
67.3189,82.0433
67.1567,81.8811
67.1567,81.8811
66.9746,81.7414
66.7759,81.6267
66.7759,81.6266
66.5639,81.5388
66.3422,81.4795
66.3042,81.4744
66.1147,81.4495
66.1147,81.4495
65.8853,81.4495
65.8853,81.4495
65.6687,81.4780
65.6578,81.4795
65.5641,81.5046
65.4361,81.5388
65.2241,81.6266
65.2241,81.6267
65.0254,81.7414
64.8433,81.8811
64.6811,82.0433
64.5414,82.2254
64.4267,82.4241
64.4266,82.4241
64.3388,82.6361
64.2795,82.8578
64.2795,82.8578
64.2495,83.0853
62.1742,83.0853
62.1422,82.8838
62.0766,82.6816
61.9801,82.4922
61.9800,82.4922
61.9800,82.4922
61.8551,82.3202
61.7048,82.1699
61.5328,82.0450
61.3434,81.9484
61.3434,81.9484
61.3434,81.9484
61.1412,81.8828
61.1412,81.8828
61.1412,81.8828
60.9800,81.8572
60.9313,81.8495
60.7187,81.8495
60.6700,81.8572
60.5088,81.8828
60.3066,81.9484
60.1172,82.0450
59.9452,82.1699
59.7949,82.3202
59.6699,82.4922
59.6655,82.5009
59.6175,82.5517
59.5497,82.5685
59.4836,82.5460
59.4445,82.5009
59.4400,82.4922
59.3151,82.3202
59.1648,82.1699
58.9928,82.0450
58.8034,81.9484
58.8034,81.9484
58.8034,81.9484
58.6012,81.8828
58.6012,81.8828
58.6012,81.8828
58.4400,81.8572
58.3913,81.8495
58.1787,81.8495
58.1300,81.8572
57.9688,81.8828
57.7666,81.9484
57.5772,82.0450
57.4052,82.1699
57.2549,82.3202
57.1299,82.4922
57.1255,82.5009
57.0775,82.5517
57.0097,82.5685
56.9436,82.5460
56.9045,82.5009
56.9001,82.4922
56.7751,82.3202
56.6248,82.1699
56.4528,82.0450
56.2634,81.9484
56.2634,81.9484
56.2634,81.9484
56.0612,81.8828
56.0612,81.8828
56.0612,81.8828
55.9000,81.8572
55.8513,81.8495
55.6387,81.8495
55.5900,81.8572
55.4288,81.8828
55.2266,81.9484
55.0372,82.0450
54.8652,82.1699
54.7513,82.2838
54.6900,82.3173
54.6203,82.3123
54.5643,82.2704
54.5474,82.2395
54.4984,82.1079
54.4983,82.1079
54.4122,81.9928
54.4122,81.9928
54.2971,81.9066
54.2971,81.9066
54.1624,81.8564
54.1624,81.8564
54.1028,81.8500
53.4550,81.8500
53.4550,82.7670
53.3980,82.7341
53.2708,82.7000
53.1392,82.7000
53.0120,82.7341
52.9550,82.7670
52.9550,81.8500
52.3072,81.8500
52.2476,81.8564
52.2476,81.8564
52.1129,81.9066
52.1129,81.9066
51.9978,81.9928
51.9978,81.9928
51.9116,82.1079
51.9116,82.1079
51.8614,82.2426
51.8614,82.2426
51.8550,82.3022
50.5005,82.3022
50.5005,77.0925
50.5202,77.0254
50.5730,76.9797
50.6421,76.9697
50.7057,76.9987
50.7248,77.0196
50.7291,77.0254
50.8049,77.1298
50.9552,77.2801
51.1272,77.4050
51.1272,77.4050
51.1272,77.4051
51.3166,77.5016
51.5188,77.5672
51.7287,77.6005
51.7287,77.6005
51.9413,77.6005
51.9413,77.6005
52.1512,77.5672
52.3534,77.5016
52.5428,77.4051
52.5923,77.3691
52.7148,77.2801
52.7148,77.2801
52.7148,77.2801
52.8651,77.1298
52.8651,77.1298
52.8651,77.1298
52.9900,76.9578
52.9900,76.9578
52.9901,76.9578
52.9945,76.9491
53.0425,76.8983
53.1103,76.8815
53.1764,76.9040
53.2155,76.9491
53.2200,76.9578
53.3449,77.1298
53.4952,77.2801
53.6672,77.4050
53.6672,77.4050
53.6672,77.4051
53.8566,77.5016
54.0588,77.5672
54.2687,77.6005
54.2687,77.6005
54.4813,77.6005
54.4813,77.6005
54.6912,77.5672
54.8934,77.5016
55.0828,77.4051
55.1323,77.3691
55.2548,77.2801
55.2548,77.2801
55.2548,77.2801
55.4051,77.1298
55.4051,77.1298
55.4051,77.1298
55.5300,76.9578
55.5300,76.9578
55.5301,76.9578
55.5345,76.9491
55.5825,76.8983
55.6503,76.8815
55.7164,76.9040
55.7555,76.9491
55.7600,76.9578
55.8849,77.1298
55.8849,77.1298
56.0352,77.2801
56.2072,77.4051
56.2072,77.4051
56.2111,77.4079
56.2101,77.4093
56.2522,77.4557
56.2645,77.5096
56.2645,78.1942
56.2448,78.2613
56.2282,78.2819
56.1979,78.3122
56.1979,78.3122
56.0884,78.4761
56.0884,78.4761
56.0129,78.6582
56.0129,78.6582
55.9745,78.8515
55.9745,78.8515
55.9745,79.0485
55.9745,79.0485
55.9745,79.0485
56.0129,79.2418
56.0129,79.2418
56.0884,79.4239
56.0884,79.4239
56.1979,79.5878
56.1979,79.5878
56.3372,79.7271
56.3372,79.7271
56.5011,79.8366
56.5011,79.8366
56.5949,79.8755
56.6832,79.9121
56.6832,79.9121
56.6832,79.9121
56.8765,79.9505
56.8765,79.9505
57.0735,79.9505
57.2036,79.9246
57.2668,79.9121
57.4479,79.8371
57.4489,79.8366
57.4489,79.8366
57.4489,79.8366
57.6128,79.7271
57.7521,79.5878
57.8616,79.4239
57.9371,79.2418
57.9755,79.0485
57.9755,78.8515
57.9755,78.8515
57.9371,78.6582
57.9371,78.6582
57.9371,78.6582
57.9163,78.6082
57.8616,78.4761
57.8616,78.4761
57.7521,78.3122
57.7521,78.3122
57.6128,78.1729
57.6108,78.1713
57.6101,78.1702
57.6085,78.1686
57.6088,78.1682
57.5715,78.1135
57.5655,78.0754
57.5655,77.5096
57.5852,77.4426
57.6196,77.4089
57.6189,77.4079
57.6228,77.4051
57.6228,77.4051
57.7948,77.2801
57.9451,77.1298
57.9451,77.1298
57.9451,77.1298
58.0700,76.9578
58.0700,76.9578
58.0701,76.9578
58.0745,76.9491
58.1225,76.8983
58.1903,76.8815
58.2564,76.9040
58.2955,76.9491
58.3000,76.9578
58.4249,77.1298
58.4249,77.1298
58.5752,77.2801
58.7472,77.4051
58.7472,77.4051
58.7511,77.4079
58.7501,77.4093
58.7922,77.4557
58.8045,77.5096
58.8045,78.0792
58.7848,78.1463
58.7682,78.1669
58.6979,78.2372
58.6979,78.2372
58.5884,78.4011
58.5884,78.4011
58.5129,78.5832
58.5129,78.5832
58.4745,78.7765
58.4745,78.7765
58.4745,78.9735
58.4745,78.9735
58.4745,78.9735
58.5129,79.1668
58.5129,79.1668
58.5884,79.3489
58.5884,79.3489
58.6979,79.5128
58.6979,79.5128
58.8372,79.6521
58.8372,79.6521
59.0011,79.7616
59.0011,79.7616
59.1821,79.8366
59.1832,79.8371
59.1832,79.8371
59.1832,79.8371
59.3765,79.8755
59.3765,79.8755
59.5735,79.8755
59.7036,79.8496
59.7668,79.8371
59.9489,79.7616
60.1128,79.6521
60.2521,79.5128
60.3616,79.3489
60.4371,79.1668
60.4606,79.0485
60.4755,78.9735
60.4755,78.7765
60.4371,78.5832
60.4371,78.5832
60.4371,78.5832
60.4033,78.5018
60.3616,78.4011
60.3616,78.4011
60.2521,78.2372
60.2521,78.2372
60.1418,78.1269
60.1083,78.0656
60.1055,78.0392
60.1055,77.5096
60.1252,77.4426
60.1596,77.4089
60.1589,77.4079
60.1628,77.4051
60.1628,77.4051
60.3348,77.2801
60.4851,77.1298
60.4851,77.1298
60.4851,77.1298
60.6100,76.9578
60.6100,76.9578
60.6101,76.9578
60.6145,76.9491
60.6625,76.8983
60.7303,76.8815
60.7964,76.9040
60.8355,76.9491
60.8400,76.9578
60.9649,77.1298
61.1152,77.2801
61.2872,77.4050
61.2872,77.4050
61.2872,77.4051
61.4766,77.5016
61.6788,77.5672
61.8887,77.6005
61.8887,77.6005
62.1013,77.6005
62.1013,77.6005
62.2591,77.5755
62.3161,77.5665
62.3163,77.5681
62.3789,77.5712
62.4257,77.6007
64.5073,79.6823
64.5073,79.6823
64.5073,79.6823
64.5073,79.6823
64.6139,79.7535
64.7323,79.8025
64.7323,79.8025
64.7323,79.8025
64.8579,79.8275
64.8579,79.8275
69.0235,79.8275
69.0905,79.8472
69.1111,79.8638
70.0900,80.8427
70.1806,80.9333
70.1806,80.9333
70.2871,81.0045
70.2871,81.0045
70.2871,81.0045
70.4055,81.0535
70.4055,81.0535
70.4055,81.0535
70.5312,81.0785
70.5312,81.0785
71.7081,81.0785
71.7751,81.0982
71.7958,81.1148
76.0612,85.3803
76.0612,85.3803
76.0612,85.3803
76.0612,85.3803
76.1678,85.4515
76.2862,85.5005
76.2862,85.5005
76.2862,85.5005
76.4118,85.5255
76.4118,85.5255
96.1030,85.5255
96.1272,85.5279
96.2409,85.5505
96.2409,85.5505
108.5641,85.5505
108.6778,85.5279
108.6897,85.5255
108.8081,85.4765
108.9147,85.4053
111.2347,83.0853
114.2495,83.0853
114.2495,83.3147
114.2598,83.3930
114.2795,83.5422
114.3217,83.7000
114.3388,83.7639
114.4266,83.9759
114.4267,83.9759
114.5414,84.1746
114.6811,84.3567
114.6811,84.3567
114.8433,84.5189
114.8433,84.5189
114.8433,84.5189
114.8755,84.5436
115.0254,84.6586
115.0254,84.6586
115.0254,84.6586
115.2241,84.7733
115.2241,84.7733
115.2241,84.7733
115.3155,84.8112
115.4361,84.8612
115.6578,84.9205
115.8853,84.9505
115.8853,84.9505
116.1147,84.9505
116.1147,84.9505
116.3422,84.9205
116.5639,84.8612
116.7759,84.7733
116.9746,84.6586
117.1567,84.5189
117.1567,84.5189
117.1567,84.5189
117.3189,84.3567
117.3189,84.3567
117.3189,84.3567
117.4586,84.1746
117.5733,83.9759
117.6612,83.7639
117.7205,83.5422
117.7505,83.3147
117.7505,83.0853
117.7205,82.8578
117.6612,82.6361
117.6052,82.5009
117.5733,82.4241
117.5733,82.4241
117.5733,82.4241
117.4586,82.2254
117.4586,82.2254
117.4586,82.2254
117.3189,82.0433
117.3189,82.0433
117.1567,81.8811
117.1567,81.8811
116.9746,81.7414
116.7759,81.6267
116.7759,81.6266
116.5639,81.5388
116.3422,81.4795
116.3042,81.4744
116.1147,81.4495
116.1147,81.4495
115.8853,81.4495
115.8853,81.4495
115.6687,81.4780
115.6578,81.4795
115.5641,81.5046
115.4361,81.5388
115.2241,81.6266
115.2241,81.6267
115.0254,81.7414
114.8433,81.8811
114.6811,82.0433
114.5414,82.2254
114.4267,82.4241
114.4266,82.4241
114.3388,82.6361
114.2795,82.8578
114.2795,82.8578
114.2495,83.0853
111.2347,83.0853
112.2750,82.0450
115.5331,78.7868
115.5944,78.7533
115.6208,78.7505
116.8979,78.7505
116.8979,78.7505
116.9575,78.7441
117.0923,78.6938
117.2075,78.6075
117.2938,78.4923
117.3441,78.3575
117.3505,78.2979
117.3505,76.5021
117.3441,76.4425
117.3119,76.3563
117.2938,76.3077
117.2938,76.3077
117.2075,76.1925
117.2075,76.1925
117.0923,76.1062
117.0923,76.1062
116.9575,76.0559
116.9575,76.0559
116.8979,76.0495
116.8979,76.0495
116.8979,76.0495
116.8979,76.0495
116.8873,76.0495
116.8203,76.0298
116.7996,76.0132
116.1294,75.3430
116.1930,75.3259
116.3070,75.2601
116.4001,75.1670
116.4659,75.0530
116.4830,74.9894
117.1153,75.6217
117.1153,75.6217
117.1546,75.5676
117.2511,75.3782
117.3168,75.1761
117.3168,75.1761
117.3500,74.9662
117.3500,74.7538
117.3168,74.5439
117.3168,74.5439
117.2511,74.3418
117.1546,74.1524
117.1153,74.0983
117.1153,74.0983
116.4830,74.7306
116.4659,74.6670
116.4001,74.5530
116.3070,74.4599
116.1930,74.3941
116.1294,74.3770
116.7617,73.7447
116.7075,73.7054
116.7075,73.7054
116.6985,73.7008
116.6477,73.6528
116.6309,73.5850
116.6535,73.5188
116.6985,73.4798
116.7078,73.4751
116.8241,73.3906
116.8798,73.3501
116.8798,73.3501
116.8798,73.3501
117.0301,73.1998
117.0301,73.1998
117.0301,73.1998
117.1550,73.0278
117.1550,73.0278
117.1551,73.0278
117.2516,72.8384
117.3172,72.6362
117.3505,72.4263
117.3505,72.2137
117.3172,72.0038
117.2516,71.8016
117.1551,71.6122
117.1550,71.6122
117.1550,71.6122
117.0301,71.4402
116.8798,71.2899
116.7078,71.1650
116.7071,71.1646
116.6991,71.1605
116.6483,71.1125
116.6315,71.0447
116.6540,70.9786
116.6991,70.9395
116.7078,70.9351
116.7540,70.9015
116.8798,70.8101
116.8798,70.8101
116.9336,70.7563
117.0301,70.6598
117.0301,70.6598
117.0301,70.6598
117.1550,70.4878
117.1550,70.4878
117.1551,70.4878
117.2516,70.2984
117.3172,70.0962
117.3505,69.8863
117.3505,69.6737
117.3172,69.4638
117.2516,69.2616
117.1551,69.0722
117.1550,69.0722
117.1550,69.0722
117.0301,68.9002
116.8798,68.7499
116.7078,68.6250
116.7071,68.6246
116.6991,68.6205
116.6483,68.5725
116.6315,68.5047
116.6540,68.4386
116.6991,68.3995
116.7078,68.3951
116.8165,68.3161
116.8798,68.2701
116.8798,68.2701
116.8798,68.2701
117.0301,68.1198
117.0301,68.1198
117.0301,68.1198
117.1550,67.9478
117.1550,67.9478
117.1551,67.9478
117.2516,67.7584
117.3172,67.5562
117.3505,67.3463
117.3505,67.1337
117.3172,66.9238
117.2516,66.7216
117.1551,66.5322
117.1550,66.5322
117.1550,66.5322
117.0301,66.3602
116.8798,66.2099
116.7078,66.0850
116.7071,66.0846
116.6991,66.0805
116.6483,66.0325
116.6315,65.9647
116.6540,65.8986
116.6991,65.8595
116.7078,65.8551
116.7298,65.8391
116.8798,65.7301
116.8798,65.7301
116.8798,65.7301
117.0301,65.5798
117.0301,65.5798
117.0301,65.5798
117.1550,65.4078
117.1550,65.4078
117.1551,65.4078
117.2516,65.2184
117.3172,65.0162
117.3505,64.8063
117.3505,64.5937
117.3172,64.3838
117.2516,64.1816
117.1551,63.9922
117.1550,63.9922
117.1550,63.9922
117.0301,63.8202
116.8798,63.6699
116.7078,63.5450
116.7071,63.5446
116.6991,63.5405
116.6483,63.4925
116.6315,63.4247
116.6540,63.3586
116.6991,63.3195
116.7078,63.3151
116.8040,63.2452
116.8798,63.1901
116.8798,63.1901
116.8798,63.1901
117.0301,63.0398
117.0301,63.0398
117.0301,63.0398
117.1550,62.8678
117.1550,62.8678
117.1551,62.8678
117.2516,62.6784
117.3172,62.4762
117.3505,62.2663
117.3505,62.0537
117.3172,61.8438
117.2516,61.6416
117.1551,61.4522
117.1550,61.4522
117.1550,61.4522
117.0301,61.2802
116.8798,61.1299
116.7078,61.0049
116.6985,61.0002
116.6477,60.9522
116.6309,60.8844
116.6534,60.8183
116.6985,60.7792
116.7076,60.7746
116.7617,60.7353
116.7617,60.7353
116.1294,60.1030
116.1930,60.0859
116.3070,60.0201
116.4001,59.9270
116.4659,59.8130
116.4830,59.7494
117.1153,60.3817
117.1153,60.3817
117.1546,60.3276
117.2511,60.1382
117.3168,59.9361
117.3168,59.9361
117.3500,59.7262
117.3500,59.5138
117.3168,59.3039
117.3168,59.3039
117.2511,59.1018
117.1546,58.9124
117.1153,58.8583
117.1153,58.8583
116.4830,59.4906
116.4659,59.4270
116.4001,59.3130
116.3070,59.2199
116.1930,59.1541
116.1294,59.1370
116.7617,58.5047
116.7075,58.4654
116.5182,58.3689
116.3161,58.3032
116.1062,58.2700
115.8938,58.2700
115.6839,58.3032
115.6839,58.3032
115.4818,58.3689
115.2924,58.4654
115.2383,58.5047
115.2383,58.5047
115.8706,59.1370
115.8070,59.1541
115.6930,59.2199
115.5999,59.3130
115.5341,59.4270
115.5170,59.4906
114.8847,58.8583
114.8847,58.8583
114.8454,58.9124
114.7489,59.1018
114.6832,59.3039
114.6832,59.3039
114.6500,59.5138
114.6500,59.7262
114.6832,59.9361
114.6832,59.9361
114.7489,60.1382
114.8454,60.3275
114.8847,60.3817
115.5170,59.7494
115.5341,59.8130
115.5999,59.9270
115.6930,60.0201
115.8070,60.0859
115.8706,60.1030
115.2383,60.7353
115.2383,60.7353
115.2925,60.7746
115.2925,60.7746
115.3015,60.7792
115.3523,60.8272
115.3691,60.8950
115.3465,60.9612
115.3015,61.0002
115.2922,61.0049
115.1202,61.1299
114.9699,61.2802
114.8450,61.4522
114.7484,61.6416
114.6828,61.8438
114.6495,62.0537
114.6495,62.2663
114.6646,62.3617
114.6557,62.4310
114.6298,62.4688
109.0420,68.0566
109.0420,68.0566
108.9928,68.1303
108.9928,68.1303
108.9599,68.1795
108.9599,68.1795
108.9033,68.3161
108.9033,68.3161
108.8745,68.4611
108.8745,77.9878
108.8548,78.0548
108.8382,78.0755
106.4525,80.4612
106.3911,80.4947
106.3648,80.4975
79.5602,80.4975
79.4932,80.4778
79.4725,80.4612
77.8860,78.8746
77.8525,78.8133
77.8512,78.8048
77.8121,78.6082
77.8121,78.6082
77.8121,78.6082
77.7641,78.4923
77.7366,78.4261
77.7366,78.4261
77.6238,78.2572
77.6253,78.2561
77.6013,78.1997
77.6005,78.1854
77.6005,76.3819
80.1000,76.3819
80.1000,76.6181
80.1369,76.8512
80.2099,77.0758
80.3171,77.2862
80.3773,77.3691
80.3773,77.3691
81.0762,76.6702
81.0875,76.7123
81.1599,76.8377
81.2623,76.9401
81.3877,77.0125
81.4298,77.0238
80.7309,77.7227
80.8138,77.7829
81.0242,77.8901
81.2488,77.9631
81.2488,77.9631
81.4819,78.0000
81.7181,78.0000
81.9512,77.9631
82.1758,77.8901
82.3862,77.7829
82.3862,77.7829
82.4691,77.7227
82.4691,77.7227
81.7702,77.0238
81.8123,77.0125
81.9377,76.9401
82.0401,76.8377
82.1125,76.7123
82.1238,76.6702
82.8227,77.3691
82.8227,77.3691
82.8829,77.2862
82.8829,77.2862
82.9901,77.0758
83.0631,76.8512
83.1000,76.6181
83.1000,76.3819
86.6000,76.3819
86.6000,76.6181
86.6369,76.8512
86.7099,77.0758
86.8171,77.2862
86.8773,77.3691
86.8773,77.3691
87.5762,76.6702
87.5875,76.7123
87.6599,76.8377
87.7623,76.9401
87.8877,77.0125
87.9298,77.0238
87.2309,77.7227
87.3138,77.7829
87.5242,77.8901
87.7488,77.9631
87.7488,77.9631
87.9819,78.0000
88.2181,78.0000
88.4512,77.9631
88.6758,77.8901
88.8862,77.7829
88.8862,77.7829
88.9691,77.7227
88.9691,77.7227
88.2702,77.0238
88.3123,77.0125
88.4377,76.9401
88.5401,76.8377
88.6125,76.7123
88.6238,76.6702
89.3227,77.3691
89.3227,77.3691
89.3829,77.2862
89.3829,77.2862
89.4901,77.0758
89.5631,76.8512
89.6000,76.6181
89.6000,76.3819
95.2500,76.3819
95.2500,76.6181
95.2869,76.8512
95.3599,77.0758
95.4671,77.2862
95.5273,77.3691
95.5273,77.3691
96.2262,76.6702
96.2375,76.7123
96.3099,76.8377
96.4123,76.9401
96.5377,77.0125
96.5798,77.0238
95.8809,77.7227
95.9638,77.7829
96.1742,77.8901
96.3988,77.9631
96.3988,77.9631
96.6319,78.0000
96.8681,78.0000
97.1012,77.9631
97.3258,77.8901
97.5362,77.7829
97.5362,77.7829
97.6191,77.7227
97.6191,77.7227
96.9202,77.0238
96.9623,77.0125
97.0877,76.9401
97.1901,76.8377
97.2625,76.7123
97.2738,76.6702
97.9727,77.3691
97.9727,77.3691
98.0329,77.2862
98.0329,77.2862
98.1401,77.0758
98.2131,76.8512
98.2500,76.6181
98.2500,76.3819
101.7500,76.3819
101.7500,76.6181
101.7869,76.8512
101.8599,77.0758
101.9671,77.2862
102.0273,77.3691
102.0273,77.3691
102.7262,76.6702
102.7375,76.7123
102.8099,76.8377
102.9123,76.9401
103.0377,77.0125
103.0798,77.0238
102.3809,77.7227
102.4638,77.7829
102.6742,77.8901
102.8988,77.9631
102.8988,77.9631
103.1319,78.0000
103.3681,78.0000
103.6012,77.9631
103.8258,77.8901
104.0362,77.7829
104.0362,77.7829
104.1191,77.7227
104.1191,77.7227
103.4202,77.0238
103.4623,77.0125
103.5877,76.9401
103.6901,76.8377
103.7625,76.7123
103.7738,76.6702
104.4727,77.3691
104.4727,77.3691
104.5329,77.2862
104.5329,77.2862
104.6401,77.0758
104.7131,76.8512
104.7500,76.6181
104.7500,76.3819
104.7131,76.1488
104.6401,75.9242
104.5329,75.7138
104.4727,75.6309
104.4727,75.6309
103.7738,76.3298
103.7625,76.2877
103.6901,76.1623
103.5877,76.0599
103.4623,75.9875
103.4202,75.9762
104.1191,75.2773
104.1191,75.2773
104.0362,75.2171
103.8258,75.1099
103.6012,75.0369
103.6012,75.0369
103.3681,75.0000
103.1319,75.0000
102.8988,75.0369
102.6742,75.1099
102.4638,75.2171
102.3809,75.2773
103.0798,75.9762
103.0377,75.9875
102.9123,76.0599
102.8099,76.1623
102.7375,76.2877
102.7262,76.3298
102.0273,75.6309
101.9671,75.7138
101.8599,75.9242
101.7869,76.1488
101.7500,76.3819
98.2500,76.3819
98.2131,76.1488
98.1401,75.9242
98.0329,75.7138
97.9727,75.6309
97.9727,75.6309
97.2738,76.3298
97.2625,76.2877
97.1901,76.1623
97.0877,76.0599
96.9623,75.9875
96.9202,75.9762
97.6191,75.2773
97.6191,75.2773
97.5362,75.2171
97.3258,75.1099
97.1012,75.0369
97.1012,75.0369
96.8681,75.0000
96.6319,75.0000
96.3988,75.0369
96.1742,75.1099
95.9638,75.2171
95.8809,75.2773
96.5798,75.9762
96.5377,75.9875
96.4123,76.0599
96.3099,76.1623
96.2375,76.2877
96.2262,76.3298
95.5273,75.6309
95.4671,75.7138
95.3599,75.9242
95.2869,76.1488
95.2500,76.3819
89.6000,76.3819
89.5631,76.1488
89.4901,75.9242
89.3829,75.7138
89.3227,75.6309
89.3227,75.6309
88.6238,76.3298
88.6125,76.2877
88.5401,76.1623
88.4377,76.0599
88.3123,75.9875
88.2702,75.9762
88.9691,75.2773
88.9691,75.2773
88.8862,75.2171
88.6758,75.1099
88.4512,75.0369
88.4512,75.0369
88.2181,75.0000
87.9819,75.0000
87.7488,75.0369
87.5242,75.1099
87.3138,75.2171
87.2309,75.2773
87.9298,75.9762
87.8877,75.9875
87.7623,76.0599
87.6599,76.1623
87.5875,76.2877
87.5762,76.3298
86.8773,75.6309
86.8171,75.7138
86.7099,75.9242
86.6369,76.1488
86.6000,76.3819
83.1000,76.3819
83.0631,76.1488
82.9901,75.9242
82.8829,75.7138
82.8227,75.6309
82.8227,75.6309
82.1238,76.3298
82.1125,76.2877
82.0401,76.1623
81.9377,76.0599
81.8123,75.9875
81.7702,75.9762
82.4691,75.2773
82.4691,75.2773
82.3862,75.2171
82.1758,75.1099
81.9512,75.0369
81.9512,75.0369
81.7181,75.0000
81.4819,75.0000
81.2488,75.0369
81.0242,75.1099
80.8138,75.2171
80.7309,75.2773
81.4298,75.9762
81.3877,75.9875
81.2623,76.0599
81.1599,76.1623
81.0875,76.2877
81.0762,76.3298
80.3773,75.6309
80.3171,75.7138
80.2099,75.9242
80.1369,76.1488
80.1000,76.3819
77.6005,76.3819
77.6005,74.0761
77.5717,73.9311
77.5717,73.9311
77.5717,73.9311
77.5346,73.8416
77.5151,73.7945
77.5151,73.7945
77.4330,73.6716
77.3986,73.6372
77.3284,73.5670
76.9059,73.1445
75.2534,71.4921
75.2534,71.4921
75.1902,71.4498
75.1509,71.4235
75.1509,71.4235
75.1305,71.4099
75.1305,71.4099
74.9939,71.3533
74.9939,71.3533
74.8489,71.3245
74.8489,71.3245
63.8372,71.3245
63.7702,71.3048
63.7495,71.2882
57.7018,65.2405
57.6683,65.1791
57.6655,65.1528
57.6655,61.9372
57.6852,61.8702
57.7166,61.8369
57.7948,61.7801
57.9451,61.6298
57.9451,61.6298
57.9451,61.6298
58.0700,61.4578
58.0700,61.4578
58.0701,61.4578
58.0745,61.4491
58.1225,61.3983
58.1903,61.3815
58.2564,61.4040
58.2955,61.4491
58.2996,61.4571
58.3000,61.4578
58.4249,61.6298
58.5752,61.7801
58.7472,61.9050
58.7472,61.9050
58.7472,61.9051
58.9366,62.0016
59.1388,62.0672
59.3487,62.1005
59.3487,62.1005
59.5613,62.1005
59.5613,62.1005
59.7712,62.0672
59.9734,62.0016
60.1628,61.9051
60.2072,61.8728
60.3348,61.7801
60.3348,61.7801
60.3348,61.7801
60.4851,61.6298
60.4851,61.6298
60.4851,61.6298
60.6100,61.4578
60.6100,61.4578
60.6101,61.4578
60.6145,61.4491
60.6625,61.3983
60.7303,61.3815
60.7964,61.4040
60.8355,61.4491
60.8396,61.4571
60.8400,61.4578
60.9649,61.6298
61.1152,61.7801
61.2872,61.9050
61.2872,61.9050
61.2872,61.9051
61.4766,62.0016
61.6788,62.0672
61.8887,62.1005
61.8887,62.1005
62.1013,62.1005
62.1013,62.1005
62.2591,62.0755
62.3161,62.0665
62.3163,62.0681
62.3789,62.0712
62.4257,62.1007
63.4053,63.0803
63.4053,63.0803
63.4053,63.0803
63.4053,63.0803
63.5119,63.1515
63.6303,63.2005
63.6303,63.2005
63.6303,63.2005
63.7559,63.2255
63.7559,63.2255
64.5042,63.2255
64.5712,63.2452
64.5919,63.2618
72.0863,70.7563
72.0863,70.7563
72.0863,70.7563
72.1669,70.8101
72.1669,70.8101
72.1669,70.8101
72.1929,70.8275
72.1929,70.8275
72.1929,70.8275
72.3113,70.8765
72.3113,70.8765
72.3113,70.8765
72.4369,70.9015
72.4369,70.9015
79.5302,70.9015
79.5972,70.9212
79.6179,70.9378
80.1299,71.4498
80.1633,71.5111
80.1601,71.5758
80.1364,71.6486
80.0995,71.8819
80.0995,72.1181
80.1364,72.3514
80.2094,72.5760
80.2930,72.7401
80.3167,72.7864
80.4555,72.9775
80.6225,73.1445
80.8136,73.2833
80.9130,73.3340
81.0240,73.3906
81.0240,73.3906
81.0240,73.3906
81.1304,73.4251
81.2486,73.4636
81.4819,73.5005
81.4819,73.5005
81.7181,73.5005
81.9514,73.4636
82.1760,73.3906
82.3864,73.2833
82.5775,73.1445
82.7445,72.9775
82.8833,72.7864
82.9181,72.7182
82.9661,72.6674
83.0286,72.6505
86.6714,72.6505
86.7384,72.6702
86.7819,72.7182
86.7930,72.7401
86.8167,72.7864
86.9555,72.9775
87.1225,73.1445
87.3136,73.2833
87.4130,73.3340
87.5240,73.3906
87.5240,73.3906
87.5240,73.3906
87.6304,73.4251
87.7486,73.4636
87.9819,73.5005
87.9819,73.5005
88.2181,73.5005
88.4514,73.4636
88.6760,73.3906
88.8864,73.2833
89.0775,73.1445
89.2445,72.9775
89.3833,72.7864
89.4906,72.5760
89.5636,72.3514
89.5768,72.2674
89.6005,72.1181
89.6005,71.8819
89.5636,71.6486
89.5189,71.5111
89.4906,71.4240
89.4906,71.4240
89.4906,71.4240
89.4298,71.3048
89.3833,71.2136
89.2445,71.0225
89.0775,70.8555
88.8864,70.7167
88.6760,70.6094
88.4514,70.5364
88.2181,70.4995
88.2181,70.4995
87.9819,70.4995
87.9819,70.4995
87.7486,70.5364
87.5240,70.6094
87.3136,70.7167
87.2590,70.7563
87.1225,70.8555
87.1225,70.8555
87.1225,70.8555
86.9555,71.0225
86.9555,71.0225
86.9555,71.0225
86.9355,71.0500
86.8167,71.2136
86.7819,71.2818
86.7339,71.3326
86.6714,71.3495
83.0286,71.3495
82.9616,71.3298
82.9181,71.2818
82.8833,71.2136
82.8480,71.1650
82.7445,71.0225
82.5775,70.8555
82.3864,70.7167
82.1760,70.6094
81.9514,70.5364
81.7181,70.4995
81.7181,70.4995
81.4819,70.4995
81.4819,70.4995
81.2486,70.5364
81.1758,70.5601
81.1060,70.5621
81.0498,70.5299
80.9321,70.4122
80.8986,70.3509
80.9036,70.2812
80.9455,70.2252
81.0110,70.2008
81.0198,70.2005
93.9792,70.2005
94.0462,70.2202
94.0669,70.2368
95.2799,71.4498
95.3133,71.5111
95.3101,71.5758
95.2864,71.6486
95.2495,71.8819
95.2495,72.1181
95.2864,72.3514
95.3594,72.5760
95.4430,72.7401
95.4667,72.7864
95.6055,72.9775
95.7725,73.1445
95.9636,73.2833
96.0630,73.3340
96.1740,73.3906
96.1740,73.3906
96.1740,73.3906
96.2804,73.4251
96.3986,73.4636
96.6319,73.5005
96.6319,73.5005
96.8681,73.5005
97.1014,73.4636
97.3260,73.3906
97.5364,73.2833
97.7275,73.1445
97.8945,72.9775
98.0333,72.7864
98.0681,72.7182
98.1161,72.6674
98.1786,72.6505
101.8214,72.6505
101.8884,72.6702
101.9319,72.7182
101.9430,72.7401
101.9667,72.7864
102.1055,72.9775
102.2725,73.1445
102.4636,73.2833
102.5630,73.3340
102.6740,73.3906
102.6740,73.3906
102.6740,73.3906
102.7804,73.4251
102.8986,73.4636
103.1319,73.5005
103.1319,73.5005
103.3681,73.5005
103.6014,73.4636
103.8260,73.3906
104.0364,73.2833
104.2275,73.1445
104.3945,72.9775
104.5333,72.7864
104.6406,72.5760
104.7136,72.3514
104.7268,72.2674
104.7505,72.1181
104.7505,71.8819
104.7136,71.6486
104.6689,71.5111
104.6406,71.4240
104.6406,71.4240
104.6406,71.4240
104.5798,71.3048
104.5333,71.2136
104.3945,71.0225
104.2275,70.8555
104.0364,70.7167
103.8260,70.6094
103.6014,70.5364
103.3681,70.4995
103.3681,70.4995
103.1319,70.4995
103.1319,70.4995
102.8986,70.5364
102.6740,70.6094
102.4636,70.7167
102.4090,70.7563
102.2725,70.8555
102.2725,70.8555
102.2725,70.8555
102.1055,71.0225
102.1055,71.0225
102.1055,71.0225
102.0855,71.0500
101.9667,71.2136
101.9319,71.2818
101.8839,71.3326
101.8214,71.3495
98.1786,71.3495
98.1116,71.3298
98.0681,71.2818
98.0333,71.2136
97.9980,71.1650
97.8945,71.0225
97.7275,70.8555
97.5364,70.7167
97.3260,70.6094
97.1014,70.5364
96.8681,70.4995
96.8681,70.4995
96.6319,70.4995
96.6319,70.4995
96.3986,70.5364
96.3258,70.5601
96.2560,70.5621
96.1998,70.5299
94.7147,69.0447
94.7147,69.0447
94.7147,69.0447
94.6081,68.9735
94.4897,68.9245
94.4897,68.9245
94.3641,68.8995
94.3641,68.8995
73.6558,68.8995
73.5888,68.8798
73.5681,68.8632
67.9947,63.2898
96.2495,63.2898
96.2495,63.5102
96.2840,63.7280
96.3521,63.9376
96.3521,63.9376
96.4522,64.1340
96.5818,64.3124
96.5818,64.3124
96.7376,64.4682
96.7376,64.4682
96.8746,64.5678
96.9160,64.5978
97.0444,64.6632
97.1124,64.6979
97.1124,64.6979
97.2172,64.7320
97.3220,64.7660
97.5398,64.8005
97.5398,64.8005
97.7602,64.8005
97.7602,64.8005
97.9780,64.7660
98.1876,64.6979
98.3840,64.5978
98.5624,64.4682
98.7182,64.3124
98.7497,64.2691
98.8050,64.2264
98.8746,64.2204
98.9364,64.2531
98.9503,64.2691
98.9818,64.3124
99.1376,64.4682
99.1376,64.4682
99.2746,64.5678
99.3160,64.5978
99.4444,64.6632
99.5124,64.6979
99.5124,64.6979
99.6172,64.7320
99.7220,64.7660
99.9398,64.8005
99.9398,64.8005
100.1602,64.8005
100.1602,64.8005
100.3780,64.7660
100.5876,64.6979
100.7840,64.5978
100.9624,64.4682
101.1182,64.3124
101.1497,64.2691
101.2050,64.2264
101.2746,64.2204
101.3364,64.2531
101.3503,64.2691
101.3818,64.3124
101.5376,64.4682
101.5376,64.4682
101.6746,64.5678
101.7160,64.5978
101.8444,64.6632
101.9124,64.6979
101.9124,64.6979
102.0172,64.7320
102.1220,64.7660
102.3398,64.8005
102.3398,64.8005
102.5602,64.8005
102.5602,64.8005
102.7780,64.7660
102.9876,64.6979
103.1840,64.5978
103.3624,64.4682
103.5182,64.3124
103.6478,64.1340
103.7479,63.9376
103.8160,63.7280
103.8505,63.5102
103.8505,63.2898
103.8160,63.0720
103.7479,62.8624
103.7479,62.8624
103.7132,62.7944
103.6478,62.6660
103.5850,62.5796
103.5182,62.4876
103.5182,62.4876
103.3624,62.3318
103.3624,62.3318
103.1840,62.2022
103.1840,62.2022
103.1840,62.2022
103.1211,62.1701
102.9876,62.1021
102.9876,62.1021
102.7780,62.0340
102.6691,62.0167
102.5602,61.9995
102.3398,61.9995
102.3268,62.0016
102.1220,62.0340
101.9124,62.1021
101.9124,62.1021
101.7160,62.2022
101.5376,62.3318
101.5376,62.3318
101.3818,62.4876
101.3818,62.4876
101.3503,62.5309
101.2950,62.5736
101.2254,62.5796
101.1636,62.5469
101.1497,62.5309
101.1182,62.4876
101.1182,62.4876
100.9624,62.3318
100.9624,62.3318
100.7840,62.2022
100.7840,62.2022
100.7840,62.2022
100.7211,62.1701
100.5876,62.1021
100.5876,62.1021
100.3780,62.0340
100.2691,62.0167
100.1602,61.9995
99.9398,61.9995
99.9268,62.0016
99.7220,62.0340
99.5124,62.1021
99.5124,62.1021
99.3160,62.2022
99.1376,62.3318
99.1376,62.3318
98.9818,62.4876
98.9818,62.4876
98.9503,62.5309
98.8950,62.5736
98.8254,62.5796
98.7636,62.5469
98.7497,62.5309
98.7182,62.4876
98.7182,62.4876
98.5624,62.3318
98.5624,62.3318
98.3840,62.2022
98.3840,62.2022
98.3840,62.2022
98.3211,62.1701
98.1876,62.1021
98.1876,62.1021
97.9780,62.0340
97.8691,62.0167
97.7602,61.9995
97.5398,61.9995
97.5268,62.0016
97.3220,62.0340
97.1124,62.1021
97.1124,62.1021
96.9160,62.2022
96.7376,62.3318
96.7376,62.3318
96.5818,62.4876
96.5818,62.4876
96.4522,62.6660
96.3521,62.8624
96.3521,62.8624
96.2840,63.0720
96.2495,63.2898
67.9947,63.2898
67.0171,62.3122
66.9836,62.2509
66.9886,62.1812
67.0305,62.1252
67.0960,62.1008
67.1048,62.1005
67.1813,62.1005
67.1813,62.1005
67.3912,62.0672
67.5934,62.0016
67.7828,61.9051
67.8272,61.8728
67.9548,61.7801
67.9548,61.7801
67.9548,61.7801
68.1051,61.6298
68.1051,61.6298
68.1051,61.6298
68.2300,61.4578
68.2300,61.4578
68.2301,61.4578
68.2345,61.4491
68.2825,61.3983
68.3503,61.3815
68.4164,61.4040
68.4555,61.4491
68.4596,61.4571
68.4600,61.4578
68.5849,61.6298
68.7352,61.7801
68.9072,61.9050
68.9072,61.9050
68.9072,61.9051
69.0966,62.0016
69.2988,62.0672
69.5087,62.1005
69.5087,62.1005
69.7213,62.1005
69.7213,62.1005
69.9312,62.0672
70.1334,62.0016
70.3228,61.9051
70.3672,61.8728
70.4948,61.7801
70.4948,61.7801
70.4948,61.7801
70.6451,61.6298
70.6451,61.6298
70.6451,61.6298
70.7700,61.4578
70.7700,61.4578
70.7701,61.4578
70.7745,61.4491
70.8225,61.3983
70.8903,61.3815
70.9564,61.4040
70.9955,61.4491
70.9996,61.4571
71.0000,61.4578
71.1249,61.6298
71.2752,61.7801
71.4472,61.9050
71.4472,61.9050
71.4472,61.9051
71.6366,62.0016
71.8388,62.0672
72.0487,62.1005
72.0487,62.1005
72.2613,62.1005
72.2613,62.1005
72.4712,62.0672
72.6734,62.0016
72.8628,61.9051
72.9072,61.8728
73.0348,61.7801
73.0348,61.7801
73.0348,61.7801
73.1851,61.6298
73.1851,61.6298
73.1851,61.6298
73.3100,61.4578
73.3100,61.4578
73.3101,61.4578
73.4066,61.2684
73.4722,61.0662
73.5055,60.8563
73.5055,60.6437
73.4930,60.5648
74.8495,60.5648
74.8495,60.7852
74.8608,60.8563
74.8840,61.0030
74.9521,61.2126
74.9521,61.2126
75.0201,61.3461
75.0493,61.4034
75.0522,61.4090
75.1818,61.5874
75.1818,61.5874
75.3376,61.7432
75.3376,61.7432
75.3884,61.7801
75.5160,61.8728
75.6424,61.9372
75.7124,61.9729
75.7124,61.9729
75.7943,61.9995
75.9220,62.0410
76.1398,62.0755
76.1398,62.0755
76.3602,62.0755
76.3602,62.0755
76.5780,62.0410
76.7876,61.9729
76.9840,61.8728
77.1624,61.7432
77.3182,61.5874
77.4478,61.4090
77.5479,61.2126
77.6160,61.0030
77.6505,60.7852
77.6505,60.5648
91.7495,60.5648
91.7495,60.7852
91.7608,60.8563
91.7840,61.0030
91.8521,61.2126
91.8521,61.2126
91.9201,61.3461
91.9493,61.4034
91.9522,61.4090
92.0818,61.5874
92.0818,61.5874
92.2376,61.7432
92.2376,61.7432
92.2884,61.7801
92.4160,61.8728
92.5424,61.9372
92.6124,61.9729
92.6124,61.9729
92.6943,61.9995
92.8220,62.0410
93.0398,62.0755
93.0398,62.0755
93.2602,62.0755
93.2602,62.0755
93.4780,62.0410
93.6876,61.9729
93.8840,61.8728
94.0624,61.7432
94.2182,61.5874
94.3478,61.4090
94.4479,61.2126
94.5160,61.0030
94.5505,60.7852
94.5505,60.5648
94.5160,60.3470
94.4785,60.2316
94.4479,60.1374
94.4479,60.1374
94.3995,60.0424
94.3478,59.9410
94.2966,59.8705
94.2182,59.7626
94.2182,59.7626
94.0624,59.6068
94.0624,59.6068
93.8840,59.4772
93.8840,59.4772
93.8840,59.4772
93.7978,59.4332
93.6876,59.3771
93.6876,59.3771
93.4780,59.3090
93.3691,59.2917
93.2602,59.2745
93.0398,59.2745
92.9672,59.2860
92.8220,59.3090
92.6124,59.3771
92.6124,59.3771
92.4160,59.4772
92.2376,59.6068
92.2376,59.6068
92.0818,59.7626
92.0818,59.7626
91.9522,59.9410
91.8521,60.1374
91.8521,60.1374
91.7840,60.3470
91.7840,60.3470
91.7495,60.5648
77.6505,60.5648
77.6160,60.3470
77.5785,60.2316
77.5479,60.1374
77.5479,60.1374
77.4995,60.0424
77.4478,59.9410
77.3966,59.8705
77.3182,59.7626
77.3182,59.7626
77.1624,59.6068
77.1624,59.6068
76.9840,59.4772
76.9840,59.4772
76.9840,59.4772
76.8978,59.4332
76.7876,59.3771
76.7876,59.3771
76.5780,59.3090
76.4691,59.2917
76.3602,59.2745
76.1398,59.2745
76.0672,59.2860
75.9220,59.3090
75.7124,59.3771
75.7124,59.3771
75.5160,59.4772
75.3376,59.6068
75.3376,59.6068
75.1818,59.7626
75.1818,59.7626
75.0522,59.9410
74.9521,60.1374
74.9521,60.1374
74.8840,60.3470
74.8840,60.3470
74.8495,60.5648
73.4930,60.5648
73.4722,60.4338
73.4066,60.2316
73.3101,60.0422
73.3100,60.0422
73.3100,60.0422
73.1851,59.8702
73.0348,59.7199
72.8628,59.5950
72.6734,59.4984
72.6734,59.4984
72.6734,59.4984
72.4712,59.4328
72.4712,59.4328
72.4712,59.4328
72.3100,59.4072
72.2613,59.3995
72.0487,59.3995
72.0000,59.4072
71.8388,59.4328
71.6366,59.4984
71.4472,59.5950
71.2752,59.7199
71.1249,59.8702
70.9999,60.0422
70.9955,60.0509
70.9475,60.1017
70.8797,60.1185
70.8136,60.0960
70.7745,60.0509
70.7700,60.0422
70.6451,59.8702
70.4948,59.7199
70.3228,59.5950
70.1334,59.4984
70.1334,59.4984
70.1334,59.4984
69.9312,59.4328
69.9312,59.4328
69.9312,59.4328
69.7700,59.4072
69.7213,59.3995
69.5087,59.3995
69.4600,59.4072
69.2988,59.4328
69.0966,59.4984
68.9072,59.5950
68.7352,59.7199
68.5849,59.8702
68.4599,60.0422
68.4555,60.0509
68.4075,60.1017
68.3397,60.1185
68.2736,60.0960
68.2345,60.0509
68.2300,60.0422
68.1051,59.8702
67.9548,59.7199
67.7828,59.5950
67.5934,59.4984
67.5934,59.4984
67.5934,59.4984
67.3912,59.4328
67.3912,59.4328
67.3912,59.4328
67.2300,59.4072
67.1813,59.3995
66.9687,59.3995
66.9200,59.4072
66.7588,59.4328
66.5566,59.4984
66.3672,59.5950
66.1952,59.7199
66.0449,59.8702
65.9199,60.0422
65.9155,60.0509
65.8675,60.1017
65.7997,60.1185
65.7336,60.0960
65.6945,60.0509
65.6900,60.0422
65.5651,59.8702
65.4148,59.7199
65.2428,59.5950
65.0534,59.4984
65.0534,59.4984
65.0534,59.4984
64.8512,59.4328
64.8512,59.4328
64.8512,59.4328
64.6900,59.4072
64.6413,59.3995
64.4287,59.3995
64.3800,59.4072
64.2188,59.4328
64.0166,59.4984
63.8272,59.5950
63.6552,59.7199
63.5049,59.8702
63.3799,60.0422
63.3755,60.0509
63.3275,60.1017
63.2597,60.1185
63.1936,60.0960
63.1545,60.0509
63.1501,60.0422
63.0251,59.8702
62.8748,59.7199
62.7028,59.5950
62.5134,59.4984
62.5134,59.4984
62.5134,59.4984
62.3112,59.4328
62.3112,59.4328
62.3112,59.4328
62.1500,59.4072
62.1013,59.3995
61.8887,59.3995
61.8400,59.4072
61.6788,59.4328
61.4766,59.4984
61.2872,59.5950
61.1152,59.7199
60.9649,59.8702
60.8399,60.0422
60.8355,60.0509
60.7875,60.1017
60.7197,60.1185
60.6536,60.0960
60.6145,60.0509
60.6100,60.0422
60.4851,59.8702
60.3348,59.7199
60.1589,59.5921
60.1599,59.5907
60.1577,59.5884
60.1483,59.5841
60.1347,59.5629
60.1178,59.5443
60.1151,59.5325
60.1105,59.5253
60.1055,59.4904
60.1055,59.2408
60.1252,59.1738
60.1780,59.1280
60.2053,59.1192
60.2324,59.1138
60.3668,59.0871
60.5489,59.0116
60.7128,58.9021
60.8521,58.7628
60.9616,58.5989
61.0371,58.4168
61.0719,58.2419
61.0755,58.2235
61.0755,58.0265
61.0371,57.8332
61.0371,57.8332
61.0371,57.8332
60.9960,57.7342
60.9616,57.6511
60.9616,57.6511
60.8521,57.4872
60.8521,57.4872
60.7128,57.3479
60.7128,57.3479
60.5489,57.2384
60.5489,57.2384
60.3668,57.1629
60.3668,57.1629
60.1735,57.1245
60.1735,57.1245
59.9765,57.1245
59.9765,57.1245
59.7832,57.1629
59.7832,57.1629
59.6011,57.2384
59.6011,57.2384
59.4372,57.3479
59.4372,57.3479
59.2979,57.4872
59.2979,57.4872
59.1884,57.6511
59.1884,57.6511
59.1129,57.8332
59.1129,57.8332
59.0745,58.0265
59.0745,58.1542
59.0548,58.2212
59.0382,58.2419
58.9497,58.3303
58.9497,58.3303
58.9497,58.3303
58.9146,58.3830
58.8919,58.4168
58.8919,58.4168
58.8785,58.4369
58.8785,58.4369
58.8295,58.5553
58.8295,58.5553
58.8045,58.6809
58.8045,59.4904
58.7848,59.5574
58.7504,59.5911
58.7511,59.5921
58.5752,59.7199
58.4249,59.8702
58.2999,60.0422
58.2955,60.0509
58.2475,60.1017
58.1797,60.1185
58.1136,60.0960
58.0745,60.0509
58.0700,60.0422
57.9451,59.8702
57.7948,59.7199
57.6228,59.5950
57.4334,59.4984
57.4334,59.4984
57.4334,59.4984
57.2312,59.4328
57.2312,59.4328
57.2312,59.4328
57.0700,59.4072
57.0213,59.3995
56.8087,59.3995
56.7600,59.4072
56.5988,59.4328
56.3966,59.4984
56.2072,59.5950
56.0352,59.7199
55.8849,59.8702
55.7599,60.0422
55.7552,60.0515
55.7072,60.1023
55.6394,60.1191
55.5733,60.0965
55.5342,60.0515
55.5296,60.0424
55.4047,59.8705
55.4047,59.8705
55.2545,59.7203
55.2545,59.7203
55.0826,59.5954
54.8932,59.4989
54.6911,59.4332
54.6250,59.4228
54.6250,60.3170
54.5680,60.2841
54.4408,60.2500
54.3092,60.2500
54.1820,60.2841
54.1250,60.3170
54.1250,59.4228
54.1250,59.4228
54.0589,59.4332
53.8568,59.4989
53.6674,59.5954
53.4955,59.7203
53.4955,59.7203
53.3453,59.8705
53.3453,59.8705
53.2204,60.0424
53.2158,60.0515
53.1678,60.1023
53.1000,60.1191
53.0338,60.0965
52.9948,60.0515
52.9901,60.0422
52.9900,60.0422
52.9900,60.0422
52.8651,59.8702
52.7148,59.7199
52.7148,59.7199
52.6366,59.6631
52.5939,59.6078
52.5855,59.5628
52.5855,59.1522
52.5941,59.1228
52.6007,59.0928
52.6044,59.0878
52.6052,59.0852
52.6218,59.0645
52.7004,58.9860
52.7617,58.9525
52.7702,58.9512
52.8798,58.9294
52.9668,58.9121
53.1489,58.8366
53.3128,58.7271
53.4521,58.5878
53.5616,58.4239
53.6371,58.2418
53.6755,58.0485
53.6755,57.8515
53.6755,57.8515
53.6371,57.6582
53.6371,57.6582
53.6371,57.6582
53.6159,57.6070
53.5616,57.4761
53.5616,57.4761
53.4521,57.3122
53.4521,57.3122
53.3128,57.1729
53.3128,57.1729
53.1489,57.0634
53.1489,57.0634
52.9668,56.9879
52.9668,56.9879
52.7735,56.9495
52.7735,56.9495
52.5765,56.9495
52.5765,56.9495
52.3832,56.9879
52.3832,56.9879
52.2011,57.0634
52.2011,57.0634
52.0372,57.1729
52.0372,57.1729
51.8979,57.3122
51.8979,57.3122
51.7884,57.4761
51.7884,57.4761
51.7129,57.6582
51.7129,57.6582
51.6733,57.8574
51.6715,57.8571
51.6486,57.9139
51.6390,57.9246
51.2520,58.3116
51.2395,58.3303
51.2044,58.3830
51.1699,58.4345
51.1699,58.4345
51.1133,58.5711
51.1133,58.5711
51.0845,58.7161
51.0845,59.5628
51.0648,59.6298
51.0334,59.6631
50.9552,59.7199
50.9552,59.7199
50.8049,59.8702
50.8049,59.8702
50.7248,59.9804
50.6695,60.0231
50.5999,60.0291
50.5381,59.9965
50.5037,59.9356
50.5005,59.9075
50.5005,52.2500
51.9495,52.2500
51.9495,53.8500
51.9495,53.8500
51.9600,53.9528
51.9600,53.9528
52.0152,54.1193
52.0152,54.1193
52.0395,54.1588
52.1073,54.2687
52.2313,54.3927
52.3807,54.4848
52.5472,54.5400
52.6500,54.5505
53.9500,54.5505
54.0528,54.5400
54.2193,54.4848
54.3687,54.3927
54.4927,54.2687
54.5848,54.1193
54.5848,54.1193
54.5884,54.1134
54.6404,54.0667
54.7094,54.0555
54.7734,54.0833
54.7817,54.0909
54.9205,54.2297
54.9205,54.2297
55.0924,54.3546
55.2818,54.4511
55.4839,54.5168
55.5500,54.5272
55.5500,53.4830
55.6070,53.5159
55.7342,53.5500
55.8658,53.5500
55.9930,53.5159
56.0500,53.4830
56.0500,54.5272
56.1161,54.5168
56.1161,54.5168
56.3182,54.4511
56.5076,54.3546
56.6795,54.2297
56.6795,54.2297
56.8297,54.0795
56.8297,54.0795
56.9546,53.9076
57.0511,53.7182
57.1168,53.5161
57.1168,53.5161
57.1500,53.3062
57.1500,53.3000
56.2330,53.3000
56.2659,53.2430
56.3000,53.1158
56.3000,53.0853
64.2495,53.0853
64.2495,53.3147
64.2597,53.3918
64.2795,53.5422
64.2879,53.5739
64.3388,53.7639
64.4266,53.9759
64.4267,53.9759
64.4566,54.0278
64.5299,54.1548
64.5414,54.1746
64.6811,54.3567
64.6811,54.3567
64.8433,54.5189
64.8433,54.5189
64.8433,54.5189
64.8708,54.5400
65.0254,54.6586
65.0254,54.6586
65.0254,54.6586
65.2241,54.7733
65.2241,54.7733
65.2241,54.7733
65.3155,54.8112
65.4361,54.8612
65.6578,54.9205
65.8853,54.9505
65.8853,54.9505
66.1147,54.9505
66.1147,54.9505
66.3422,54.9205
66.5639,54.8612
66.7759,54.7733
66.9746,54.6586
67.1567,54.5189
67.1567,54.5189
67.1567,54.5189
67.2234,54.4521
72.0345,54.4521
72.0345,56.2479
72.0345,56.2479
72.0409,56.3075
72.0912,56.4423
72.0912,56.4423
72.1775,56.5575
72.1775,56.5575
72.2927,56.6438
72.2927,56.6438
72.4275,56.6941
72.4275,56.6941
72.4344,56.6948
72.4871,56.7005
74.2829,56.7005
74.3425,56.6941
74.4773,56.6438
74.5925,56.5575
74.6788,56.4423
74.7291,56.3075
74.7355,56.2479
74.7355,56.2240
74.7383,56.2110
74.7489,56.1915
74.7552,56.1703
74.7718,56.1496
74.7718,56.1496
74.7718,56.1496
74.7718,56.1496
75.4420,55.4794
75.4591,55.5430
75.5249,55.6570
75.6180,55.7501
75.7320,55.8159
75.7956,55.8330
75.1633,56.4653
75.1633,56.4653
75.2174,56.5046
75.4068,56.6011
75.6089,56.6668
75.8188,56.7000
76.0312,56.7000
76.2411,56.6668
76.2411,56.6668
76.4432,56.6011
76.6326,56.5046
76.6867,56.4653
76.6867,56.4653
76.0544,55.8330
76.1180,55.8159
76.2320,55.7501
76.3251,55.6570
76.3909,55.5430
76.4080,55.4794
77.0403,56.1117
77.0403,56.1117
77.0796,56.0576
77.1761,55.8682
77.2418,55.6661
77.2418,55.6661
77.2750,55.4562
77.2750,55.2438
77.2418,55.0339
77.2418,55.0339
77.1761,54.8318
77.0796,54.6424
77.0403,54.5883
77.0403,54.5883
76.4080,55.2206
76.3909,55.1570
76.3251,55.0430
76.2320,54.9499
76.1180,54.8841
76.0544,54.8670
76.6867,54.2347
76.6325,54.1954
76.4432,54.0989
76.2411,54.0332
76.0312,54.0000
75.8188,54.0000
75.6089,54.0332
75.6089,54.0332
75.4068,54.0989
75.2174,54.1954
75.1633,54.2347
75.1633,54.2347
75.7956,54.8670
75.7320,54.8841
75.6180,54.9499
75.5249,55.0430
75.4591,55.1570
75.4420,55.2206
74.7718,54.5504
74.7383,54.4890
74.7383,54.4890
74.7355,54.4760
74.7355,54.4521
74.7291,54.3925
74.6965,54.3051
74.6788,54.2577
74.6788,54.2577
74.5925,54.1425
74.5925,54.1425
74.4773,54.0562
74.4773,54.0562
74.3425,54.0059
74.3425,54.0059
74.2829,53.9995
74.2829,53.9995
74.2829,53.9995
74.2829,53.9995
72.4871,53.9995
72.4871,53.9995
72.4275,54.0059
72.2927,54.0562
72.2927,54.0562
72.1775,54.1425
72.1775,54.1425
72.0912,54.2577
72.0912,54.2577
72.0409,54.3925
72.0345,54.4521
72.0345,54.4521
67.2234,54.4521
67.3189,54.3567
67.3189,54.3567
67.3189,54.3567
67.4586,54.1746
67.5733,53.9759
67.6612,53.7639
67.7205,53.5422
67.7505,53.3147
67.7505,53.0853
67.7205,52.8578
67.6612,52.6361
67.5891,52.4622
67.5733,52.4241
67.5733,52.4241
67.5733,52.4241
67.5161,52.3250
86.2495,52.3250
86.2495,53.9250
86.2495,53.9250
86.2600,54.0278
86.2600,54.0278
86.3059,54.1663
86.3152,54.1943
86.4073,54.3437
86.5313,54.4677
86.6807,54.5598
86.8472,54.6150
86.9500,54.6255
88.2500,54.6255
88.3528,54.6150
88.5193,54.5598
88.6687,54.4677
88.7927,54.3437
88.8848,54.1943
88.8848,54.1943
88.8882,54.1889
88.9401,54.1422
89.0091,54.1309
89.0732,54.1588
89.0814,54.1663
89.2202,54.3051
89.3922,54.4300
89.3922,54.4300
89.3922,54.4301
89.5816,54.5266
89.7838,54.5922
89.9937,54.6255
89.9937,54.6255
90.2063,54.6255
90.2063,54.6255
90.4162,54.5922
90.6184,54.5266
90.8078,54.4301
90.8592,54.3927
90.9798,54.3051
90.9798,54.3051
90.9798,54.3051
91.1301,54.1548
91.1301,54.1548
91.1301,54.1548
91.2523,53.9866
91.2551,53.9828
91.3516,53.7934
91.4172,53.5912
91.4505,53.3813
91.4505,53.1985
92.9245,53.1985
92.9629,53.3918
92.9629,53.3918
93.0384,53.5739
93.0384,53.5739
93.1479,53.7378
93.1479,53.7378
93.2872,53.8771
93.2872,53.8771
93.4511,53.9866
93.4511,53.9866
93.5636,54.0332
93.6332,54.0621
93.6332,54.0621
93.6332,54.0621
93.8265,54.1005
93.8265,54.1005
94.0235,54.1005
94.1536,54.0746
94.2168,54.0621
94.3989,53.9866
94.4911,53.9250
94.5678,53.8738
94.5689,53.8753
94.6253,53.8513
94.6396,53.8505
94.9878,53.8505
95.0548,53.8702
95.0755,53.8868
97.4094,56.2208
97.4429,56.2821
97.4379,56.3518
97.3961,56.4078
97.3412,56.4310
97.3284,56.4330
97.3220,56.4340
97.3220,56.4340
97.3220,56.4340
97.1124,56.5021
97.1124,56.5021
96.9160,56.6022
96.7376,56.7318
96.7376,56.7318
96.5818,56.8876
96.5818,56.8876
96.4522,57.0660
96.3521,57.2624
96.3521,57.2624
96.2840,57.4720
96.2495,57.6898
96.2495,57.9102
96.2840,58.1280
96.3521,58.3376
96.3521,58.3376
96.4172,58.4654
96.4373,58.5047
96.4522,58.5340
96.5818,58.7124
96.5818,58.7124
96.7376,58.8682
96.7376,58.8682
96.8536,58.9525
96.9160,58.9978
97.0444,59.0632
97.1124,59.0979
97.1124,59.0979
97.1804,59.1200
97.3220,59.1660
97.5398,59.2005
97.5398,59.2005
97.7602,59.2005
97.7602,59.2005
97.9780,59.1660
98.1876,59.0979
98.3840,58.9978
98.5624,58.8682
98.7182,58.7124
98.7497,58.6691
98.8050,58.6264
98.8746,58.6204
98.9364,58.6531
98.9503,58.6691
98.9818,58.7124
99.1376,58.8682
99.1376,58.8682
99.2536,58.9525
99.3160,58.9978
99.4444,59.0632
99.5124,59.0979
99.5124,59.0979
99.5804,59.1200
99.7220,59.1660
99.9398,59.2005
99.9398,59.2005
100.1602,59.2005
100.1602,59.2005
100.3780,59.1660
100.5876,59.0979
100.7840,58.9978
100.9624,58.8682
101.1182,58.7124
101.1698,58.6415
101.1738,58.6369
101.1985,58.6215
101.2215,58.6038
101.2286,58.6027
101.2331,58.5999
101.2466,58.6001
101.2762,58.5957
101.2989,58.5975
101.9670,57.9294
101.9841,57.9930
102.0499,58.1070
102.1430,58.2001
102.2570,58.2659
102.3206,58.2830
101.6525,58.9511
101.6525,58.9511
101.7162,58.9974
101.9126,59.0974
102.1222,59.1655
102.3398,59.2000
102.5602,59.2000
102.7778,59.1655
102.9874,59.0974
103.1838,58.9974
103.2475,58.9511
103.2475,58.9511
102.5794,58.2830
102.6430,58.2659
102.7570,58.2001
102.8501,58.1070
102.9159,57.9930
102.9330,57.9294
103.6011,58.5975
103.6011,58.5975
103.6474,58.5338
103.6668,58.4957
103.7474,58.3374
103.8155,58.1278
103.8500,57.9102
103.8500,57.6898
103.8155,57.4722
103.7474,57.2626
103.6474,57.0662
103.6011,57.0025
103.6011,57.0025
102.9330,57.6706
102.9159,57.6070
102.8501,57.4930
102.7570,57.3999
102.6430,57.3341
102.5794,57.3170
103.2475,56.6489
103.1838,56.6026
102.9874,56.5026
102.7778,56.4345
102.5602,56.4000
102.3398,56.4000
102.1222,56.4345
101.9126,56.5026
101.7162,56.6026
101.6525,56.6489
101.6525,56.6489
102.3206,57.3170
102.2570,57.3341
102.1430,57.3999
102.0499,57.4930
101.9841,57.6070
101.9670,57.6706
101.2989,57.0025
101.2762,57.0043
101.2721,57.0034
101.2681,57.0046
101.2382,56.9963
101.2078,56.9899
101.2037,56.9867
101.2008,56.9859
101.1906,56.9764
101.1738,56.9631
101.1697,56.9585
101.1182,56.8876
100.9624,56.7318
100.9624,56.7318
100.9624,56.7318
100.7840,56.6022
100.7840,56.6022
100.7840,56.6022
100.6964,56.5575
100.5876,56.5021
100.5876,56.5021
100.3780,56.4340
100.2691,56.4167
100.1602,56.3995
99.9398,56.3995
99.9398,56.3995
99.8046,56.4209
99.7353,56.4120
99.6975,56.3861
96.3966,53.0853
114.2495,53.0853
114.2495,53.3147
114.2597,53.3918
114.2795,53.5422
114.2879,53.5739
114.3388,53.7639
114.4266,53.9759
114.4267,53.9759
114.4566,54.0278
114.5299,54.1548
114.5414,54.1746
114.6811,54.3567
114.6811,54.3567
114.8433,54.5189
114.8433,54.5189
114.8433,54.5189
114.8708,54.5400
115.0254,54.6586
115.0254,54.6586
115.0254,54.6586
115.2241,54.7733
115.2241,54.7733
115.2241,54.7733
115.3155,54.8112
115.4361,54.8612
115.6578,54.9205
115.8853,54.9505
115.8853,54.9505
116.1147,54.9505
116.1147,54.9505
116.3422,54.9205
116.5639,54.8612
116.7759,54.7733
116.9746,54.6586
117.1567,54.5189
117.1567,54.5189
117.1567,54.5189
117.3189,54.3567
117.3189,54.3567
117.3189,54.3567
117.4586,54.1746
117.5733,53.9759
117.6612,53.7639
117.7205,53.5422
117.7505,53.3147
117.7505,53.0853
117.7205,52.8578
117.6612,52.6361
117.5891,52.4622
117.5733,52.4241
117.5733,52.4241
117.5733,52.4241
117.4586,52.2254
117.4586,52.2254
117.4586,52.2254
117.3284,52.0557
117.3189,52.0433
117.3189,52.0433
117.3189,52.0433
117.1567,51.8811
117.1567,51.8811
116.9746,51.7414
116.9435,51.7234
116.8859,51.6902
116.7759,51.6267
116.7759,51.6266
116.5639,51.5388
116.3422,51.4795
116.3042,51.4744
116.1147,51.4495
116.1147,51.4495
115.8853,51.4495
115.8853,51.4495
115.6687,51.4780
115.6578,51.4795
115.5641,51.5046
115.4361,51.5388
115.2241,51.6266
115.2241,51.6267
115.0254,51.7414
114.8433,51.8811
114.6811,52.0433
114.5414,52.2254
114.4267,52.4241
114.4266,52.4241
114.3388,52.6361
114.2795,52.8578
114.2795,52.8578
114.2495,53.0853
96.3966,53.0853
95.8284,52.5170
95.7792,52.4841
95.7464,52.4622
95.7055,52.4349
95.7055,52.4349
95.7055,52.4349
95.7055,52.4349
95.5689,52.3783
95.5689,52.3783
95.4239,52.3495
95.4239,52.3495
94.6396,52.3495
94.5726,52.3298
94.5656,52.3248
94.3989,52.2134
94.3989,52.2134
94.2168,52.1379
94.2168,52.1379
94.0235,52.0995
94.0235,52.0995
93.8265,52.0995
93.8265,52.0995
93.6332,52.1379
93.6332,52.1379
93.4511,52.2134
93.4511,52.2134
93.2872,52.3229
93.2872,52.3229
93.1479,52.4622
93.1479,52.4622
93.0384,52.6261
93.0384,52.6261
92.9629,52.8082
92.9629,52.8082
92.9245,53.0015
92.9245,53.0015
92.9245,53.1985
92.9245,53.1985
92.9245,53.1985
91.4505,53.1985
91.4505,52.8687
91.4172,52.6588
91.3516,52.4566
91.2551,52.2672
91.2550,52.2672
91.2550,52.2672
91.1301,52.0952
90.9798,51.9449
90.8078,51.8200
90.6184,51.7234
90.6184,51.7234
90.6184,51.7234
90.4162,51.6578
90.4162,51.6578
90.4162,51.6578
90.2550,51.6322
90.2063,51.6245
89.9937,51.6245
89.9450,51.6322
89.7838,51.6578
89.5816,51.7234
89.3922,51.8200
89.2202,51.9449
89.0814,52.0837
89.0201,52.1172
88.9504,52.1122
88.8944,52.0703
88.8882,52.0611
88.7927,51.9063
88.6687,51.7823
88.6687,51.7823
88.5193,51.6902
88.3528,51.6350
88.3528,51.6350
88.2500,51.6245
86.9500,51.6245
86.9500,51.6245
86.8472,51.6350
86.8472,51.6350
86.6807,51.6902
86.6807,51.6902
86.5313,51.7823
86.4073,51.9063
86.3152,52.0557
86.3152,52.0557
86.3103,52.0703
86.2600,52.2222
86.2600,52.2222
86.2600,52.2222
86.2495,52.3250
67.5161,52.3250
67.4586,52.2254
67.4586,52.2254
67.4586,52.2254
67.3284,52.0557
67.3189,52.0433
67.3189,52.0433
67.3189,52.0433
67.1567,51.8811
67.1567,51.8811
66.9746,51.7414
66.9435,51.7234
66.8859,51.6902
66.7759,51.6267
66.7759,51.6266
66.5639,51.5388
66.3422,51.4795
66.3042,51.4744
66.1147,51.4495
66.1147,51.4495
65.8853,51.4495
65.8853,51.4495
65.6687,51.4780
65.6578,51.4795
65.5641,51.5046
65.4361,51.5388
65.2241,51.6266
65.2241,51.6267
65.0254,51.7414
64.8433,51.8811
64.6811,52.0433
64.5414,52.2254
64.4267,52.4241
64.4266,52.4241
64.3388,52.6361
64.2795,52.8578
64.2795,52.8578
64.2495,53.0853
56.3000,53.0853
56.3000,52.9842
56.2659,52.8570
56.2330,52.8000
57.1500,52.8000
57.1500,52.7938
57.1168,52.5839
57.1168,52.5839
57.0511,52.3818
56.9546,52.1924
56.8297,52.0205
56.8297,52.0205
56.6795,51.8703
56.6795,51.8703
56.5076,51.7454
56.3182,51.6489
56.1161,51.5832
56.0500,51.5728
56.0500,52.6170
55.9930,52.5841
55.8658,52.5500
55.7342,52.5500
55.6070,52.5841
55.5500,52.6170
55.5500,51.5728
55.5500,51.5728
55.4839,51.5832
55.2818,51.6489
55.0924,51.7454
54.9205,51.8703
54.7817,52.0091
54.7203,52.0426
54.6507,52.0376
54.5947,51.9958
54.5884,51.9866
54.4927,51.8313
54.3687,51.7073
54.3687,51.7073
54.2740,51.6489
54.2193,51.6152
54.2193,51.6152
54.2179,51.6147
54.0528,51.5600
54.0528,51.5600
53.9500,51.5495
52.6500,51.5495
52.6500,51.5495
52.5472,51.5600
52.5472,51.5600
52.3807,51.6152
52.3807,51.6152
52.2313,51.7073
52.1073,51.8313
52.0152,51.9807
52.0152,51.9807
51.9944,52.0433
51.9600,52.1472
51.9600,52.1472
51.9600,52.1472
51.9495,52.2500
50.5005,52.2500
50.5005,50.6245
50.5202,50.5575
50.5730,50.5117
50.6245,50.5005
119.3755,50.5005
Z" /> 
<path style="fill:#000000; fill-opacity:1.0000; stroke:none;fill-rule:evenodd;"
d="M 54.6250,62.0772
54.6911,62.0668
54.6911,62.0668
54.8932,62.0011
55.0826,61.9046
55.2545,61.7797
55.2545,61.7797
55.4047,61.6295
55.4047,61.6295
55.5296,61.4576
55.5342,61.4485
55.5822,61.3977
55.6500,61.3809
55.7162,61.4034
55.7552,61.4485
55.7599,61.4578
55.8849,61.6298
55.8849,61.6298
56.0352,61.7801
56.1134,61.8369
56.1561,61.8922
56.1645,61.9372
56.1645,65.5889
56.1645,65.5889
56.1645,65.5889
56.1933,65.7339
56.1933,65.7339
56.2499,65.8705
56.2499,65.8705
56.2499,65.8705
56.2626,65.8894
56.2626,65.8895
56.2626,65.8895
56.3320,65.9934
56.3321,65.9934
62.9966,72.6580
62.9966,72.6580
63.0261,72.6776
63.0703,72.7072
63.1195,72.7401
63.1195,72.7401
63.1195,72.7401
63.1195,72.7401
63.2561,72.7967
63.2561,72.7967
63.2561,72.7967
63.2561,72.7967
63.4011,72.8255
63.4011,72.8255
63.4011,72.8255
63.5489,72.8255
74.4128,72.8255
74.4798,72.8452
74.5005,72.8618
76.0632,74.4245
76.0967,74.4859
76.0995,74.5122
76.0995,78.1854
76.0798,78.2524
76.0748,78.2594
75.9634,78.4261
75.9634,78.4261
75.8880,78.6082
75.8879,78.6082
75.8577,78.7600
75.8254,78.8219
75.7646,78.8565
75.6949,78.8528
75.6484,78.8235
73.5057,76.6807
73.4722,76.6194
73.4727,76.5712
73.4715,76.5711
73.5055,76.3563
73.5055,76.1437
73.4996,76.1062
73.4722,75.9338
73.4066,75.7316
73.3101,75.5422
73.3100,75.5422
73.3100,75.5422
73.1851,75.3702
73.0348,75.2199
72.8628,75.0950
72.6734,74.9984
72.6734,74.9984
72.6734,74.9984
72.4712,74.9328
72.4712,74.9328
72.4712,74.9328
72.3100,74.9072
72.2613,74.8995
72.0487,74.8995
72.0000,74.9072
71.8388,74.9328
71.6366,74.9984
71.4472,75.0950
71.2752,75.2199
71.1249,75.3702
70.9999,75.5422
70.9955,75.5509
70.9475,75.6017
70.8797,75.6185
70.8136,75.5960
70.7745,75.5509
70.7700,75.5422
70.6451,75.3702
70.4948,75.2199
70.3228,75.0950
70.1334,74.9984
70.1334,74.9984
70.1334,74.9984
69.9312,74.9328
69.9312,74.9328
69.9312,74.9328
69.7700,74.9072
69.7213,74.8995
69.5087,74.8995
69.4600,74.9072
69.2988,74.9328
69.0966,74.9984
68.9072,75.0950
68.7352,75.2199
68.5849,75.3702
68.4599,75.5422
68.4555,75.5509
68.4075,75.6017
68.3397,75.6185
68.2736,75.5960
68.2345,75.5509
68.2300,75.5422
68.1051,75.3702
67.9548,75.2199
67.7828,75.0950
67.5934,74.9984
67.5934,74.9984
67.5934,74.9984
67.3912,74.9328
67.3912,74.9328
67.3912,74.9328
67.2300,74.9072
67.1813,74.8995
66.9687,74.8995
66.9200,74.9072
66.7588,74.9328
66.5566,74.9984
66.3672,75.0950
66.1952,75.2199
66.0449,75.3702
65.9199,75.5422
65.9155,75.5509
65.8675,75.6017
65.7997,75.6185
65.7336,75.5960
65.6945,75.5509
65.6900,75.5422
65.5651,75.3702
65.4148,75.2199
65.2428,75.0950
65.0534,74.9984
65.0534,74.9984
65.0534,74.9984
64.8512,74.9328
64.8512,74.9328
64.8512,74.9328
64.6900,74.9072
64.6413,74.8995
64.4287,74.8995
64.3800,74.9072
64.2188,74.9328
64.0166,74.9984
63.8272,75.0950
63.6552,75.2199
63.5049,75.3702
63.3799,75.5422
63.3755,75.5509
63.3275,75.6017
63.2597,75.6185
63.1936,75.5960
63.1545,75.5509
63.1501,75.5422
63.0251,75.3702
62.8748,75.2199
62.7028,75.0950
62.5134,74.9984
62.5134,74.9984
62.5134,74.9984
62.3112,74.9328
62.3112,74.9328
62.3112,74.9328
62.1500,74.9072
62.1013,74.8995
61.8887,74.8995
61.8400,74.9072
61.6788,74.9328
61.4766,74.9984
61.2872,75.0950
61.1152,75.2199
60.9649,75.3702
60.8399,75.5422
60.8355,75.5509
60.7875,75.6017
60.7197,75.6185
60.6536,75.5960
60.6145,75.5509
60.6100,75.5422
60.4851,75.3702
60.3348,75.2199
60.1628,75.0950
59.9734,74.9984
59.9734,74.9984
59.9734,74.9984
59.7712,74.9328
59.7712,74.9328
59.7712,74.9328
59.6100,74.9072
59.5613,74.8995
59.3487,74.8995
59.3000,74.9072
59.1388,74.9328
58.9366,74.9984
58.7472,75.0950
58.5752,75.2199
58.4249,75.3702
58.2999,75.5422
58.2955,75.5509
58.2475,75.6017
58.1797,75.6185
58.1136,75.5960
58.0745,75.5509
58.0700,75.5422
57.9451,75.3702
57.7948,75.2199
57.6228,75.0950
57.4334,74.9984
57.4334,74.9984
57.4334,74.9984
57.2312,74.9328
57.2312,74.9328
57.2312,74.9328
57.0700,74.9072
57.0213,74.8995
56.8087,74.8995
56.7600,74.9072
56.5988,74.9328
56.3966,74.9984
56.2072,75.0950
56.0352,75.2199
55.8849,75.3702
55.7599,75.5422
55.7555,75.5509
55.7075,75.6017
55.6397,75.6185
55.5736,75.5960
55.5345,75.5509
55.5300,75.5422
55.4051,75.3702
55.2548,75.2199
55.0828,75.0950
54.8934,74.9984
54.8934,74.9984
54.8934,74.9984
54.6912,74.9328
54.6912,74.9328
54.6912,74.9328
54.5300,74.9072
54.4813,74.8995
54.2687,74.8995
54.2200,74.9072
54.0588,74.9328
53.8566,74.9984
53.6672,75.0950
53.4952,75.2199
53.3449,75.3702
53.2199,75.5422
53.2155,75.5509
53.1675,75.6017
53.0997,75.6185
53.0336,75.5960
52.9945,75.5509
52.9900,75.5422
52.8651,75.3702
52.7148,75.2199
52.5428,75.0950
52.3534,74.9984
52.3534,74.9984
52.3534,74.9984
52.1512,74.9328
52.1512,74.9328
52.1512,74.9328
51.9900,74.9072
51.9413,74.8995
51.7287,74.8995
51.6800,74.9072
51.5188,74.9328
51.3166,74.9984
51.1272,75.0950
50.9552,75.2199
50.8049,75.3702
50.8049,75.3702
50.7248,75.4804
50.6695,75.5231
50.5999,75.5291
50.5381,75.4965
50.5037,75.4356
50.5005,75.4075
50.5005,61.5925
50.5202,61.5254
50.5730,61.4797
50.6421,61.4697
50.7057,61.4987
50.7248,61.5196
50.7291,61.5254
50.8049,61.6298
50.9552,61.7801
51.1272,61.9050
51.1272,61.9050
51.1272,61.9051
51.3166,62.0016
51.5188,62.0672
51.7287,62.1005
51.7287,62.1005
51.9413,62.1005
51.9413,62.1005
52.1512,62.0672
52.3534,62.0016
52.5428,61.9051
52.5872,61.8728
52.7148,61.7801
52.7148,61.7801
52.7148,61.7801
52.8651,61.6298
52.8651,61.6298
52.8651,61.6298
52.9409,61.5254
52.9901,61.4578
52.9948,61.4485
53.0428,61.3977
53.1106,61.3809
53.1767,61.4034
53.2158,61.4485
53.2204,61.4576
53.3453,61.6295
53.3453,61.6295
53.4955,61.7797
53.4955,61.7797
53.6674,61.9046
53.8568,62.0011
54.0589,62.0668
54.1250,62.0772
54.1250,61.1830
54.1820,61.2159
54.3092,61.2500
54.4408,61.2500
54.5680,61.2159
54.6250,61.1830
Z" /> 
<path style="fill:#000000; fill-opacity:1.0000; stroke:none;fill-rule:evenodd;"
d="M 114.5693,74.7731
114.6253,74.8150
114.6497,74.8805
114.6500,74.8893
114.6500,74.9662
114.6832,75.1761
114.6832,75.1761
114.7489,75.3782
114.8454,75.5675
114.8847,75.6217
115.5170,74.9894
115.5341,75.0530
115.5999,75.1670
115.6930,75.2601
115.8070,75.3259
115.8706,75.3430
115.2004,76.0132
115.1390,76.0467
115.1127,76.0495
115.1021,76.0495
115.1021,76.0495
115.0425,76.0559
114.9077,76.1062
114.9077,76.1062
114.7925,76.1925
114.7925,76.1925
114.7062,76.3077
114.7062,76.3077
114.6559,76.4425
114.6495,76.5021
114.6495,76.5021
114.6495,76.5021
114.6495,77.7792
114.6298,77.8462
114.6132,77.8669
114.3040,78.1761
114.2427,78.2095
114.1730,78.2046
114.1171,78.1627
114.0926,78.0972
114.0923,78.0884
114.0923,75.1990
114.1120,75.1320
114.1286,75.1113
114.4383,74.8016
114.4996,74.7681
Z" /> 
</g> 
</svg>
