<?xml version="1.0" standalone="no"?>
 <!DOCTYPE svg PUBLIC "-//W3C//DTD SVG 1.1//EN" 
 "http://www.w3.org/Graphics/SVG/1.1/DTD/svg11.dtd"> 
<svg
  xmlns:svg="http://www.w3.org/2000/svg"
  xmlns="http://www.w3.org/2000/svg"
  xmlns:xlink="http://www.w3.org/1999/xlink"
  version="1.1"
  width="297.0022mm" height="210.0072mm" viewBox="0.0000 0.0000 297.0022 210.0072">
<title>SVG Image created as control_panel-F_Cu.svg date 2026/01/23 21:13:01 </title>
  <desc>Image generated by PCBNEW </desc>
<g style="fill:#000000; fill-opacity:1.0000;stroke:#000000; stroke-opacity:1.0000;
stroke-linecap:round; stroke-linejoin:round;"
 transform="translate(0 0) scale(1 1)">
</g>
<g style="fill:#000000; fill-opacity:1.0000; stroke:none;">
<circle cx="215.4022" cy="72.0000" r="1.0000" /> 
</g>
<g style="fill:#000000; fill-opacity:1.0000; stroke:none;">
<circle cx="208.9022" cy="72.0000" r="1.0000" /> 
</g>
<g style="fill:#000000; fill-opacity:1.0000; stroke:none;">
<circle cx="215.4022" cy="76.5000" r="1.0000" /> 
</g>
<g style="fill:#000000; fill-opacity:1.0000; stroke:none;">
<circle cx="208.9022" cy="76.5000" r="1.0000" /> 
<path style="fill:#000000; fill-opacity:1.0000; stroke:none;fill-rule:evenodd;"
d="M 209.0772,61.1750
209.0198,61.1864
208.9711,61.2189
208.9386,61.2676
208.9272,61.3250
208.9272,62.0250
208.9386,62.0824
208.9711,62.1311
209.0198,62.1636
209.0772,62.1750
210.2772,62.1750
210.3346,62.1636
210.3833,62.1311
210.4158,62.0824
210.4272,62.0250
210.4272,61.3250
210.4158,61.2676
210.3833,61.2189
210.3346,61.1864
210.2772,61.1750
Z" /> 
<path style="fill:#000000; fill-opacity:1.0000; stroke:none;fill-rule:evenodd;"
d="M 211.5772,61.1750
211.5198,61.1864
211.4711,61.2189
211.4386,61.2676
211.4272,61.3250
211.4272,62.0250
211.4386,62.0824
211.4711,62.1311
211.5198,62.1636
211.5772,62.1750
212.7772,62.1750
212.8346,62.1636
212.8833,62.1311
212.9158,62.0824
212.9272,62.0250
212.9272,61.3250
212.9158,61.2676
212.8833,61.2189
212.8346,61.1864
212.7772,61.1750
Z" /> 
<path style="fill:#000000; fill-opacity:1.0000; stroke:none;fill-rule:evenodd;"
d="M 214.0772,61.1750
214.0198,61.1864
213.9711,61.2189
213.9386,61.2676
213.9272,61.3250
213.9272,62.0250
213.9386,62.0824
213.9711,62.1311
214.0198,62.1636
214.0772,62.1750
215.2772,62.1750
215.3346,62.1636
215.3833,62.1311
215.4158,62.0824
215.4272,62.0250
215.4272,61.3250
215.4158,61.2676
215.3833,61.2189
215.3346,61.1864
215.2772,61.1750
Z" /> 
<path style="fill:#000000; fill-opacity:1.0000; stroke:none;fill-rule:evenodd;"
d="M 208.3272,58.9250
208.2698,58.9364
208.2211,58.9689
208.1886,59.0176
208.1772,59.0750
208.1772,59.7750
208.1886,59.8324
208.2211,59.8811
208.2698,59.9136
208.3272,59.9250
216.0272,59.9250
216.0846,59.9136
216.1333,59.8811
216.1658,59.8324
216.1772,59.7750
216.1772,59.0750
216.1658,59.0176
216.1333,58.9689
216.0846,58.9364
216.0272,58.9250
Z" /> 
</g>
<g style="fill:#000000; fill-opacity:1.0000; stroke:none;">
<circle cx="200.2522" cy="72.0000" r="1.0000" /> 
</g>
<g style="fill:#000000; fill-opacity:1.0000; stroke:none;">
<circle cx="193.7522" cy="72.0000" r="1.0000" /> 
</g>
<g style="fill:#000000; fill-opacity:1.0000; stroke:none;">
<circle cx="200.2522" cy="76.5000" r="1.0000" /> 
</g>
<g style="fill:#000000; fill-opacity:1.0000; stroke:none;">
<circle cx="193.7522" cy="76.5000" r="1.0000" /> 
<path style="fill:#000000; fill-opacity:1.0000; stroke:none;fill-rule:evenodd;"
d="M 222.7672,56.2000
224.4672,56.2000
224.4672,54.5000
222.7672,54.5000
Z" /> 
</g>
<g style="fill:#000000; fill-opacity:1.0000; stroke:none;">
<circle cx="221.0772" cy="55.3500" r="0.8500" /> 
<path style="fill:#000000; fill-opacity:1.0000; stroke:none;fill-rule:evenodd;"
d="M 210.2522,52.3750
210.2332,52.2793
210.1790,52.1982
210.0979,52.1440
210.0022,52.1250
208.8022,52.1250
208.7065,52.1440
208.6254,52.1982
208.5712,52.2793
208.5522,52.3750
208.5522,53.8750
208.5712,53.9707
208.6254,54.0518
208.7065,54.1060
208.8022,54.1250
210.0022,54.1250
210.0979,54.1060
210.1790,54.0518
210.2332,53.9707
210.2522,53.8750
Z" /> 
</g>
<g style="fill:none; 
stroke:#000000; stroke-width:1.7000; stroke-opacity:1; 
stroke-linecap:round; stroke-linejoin:round;">
<path d="M206.9022 52.9750
L206.9022 53.2750
" />
<path style="fill:#000000; fill-opacity:1.0000; stroke:none;fill-rule:evenodd;"
d="M 180.1522,76.5500
180.1522,78.2500
181.8522,78.2500
181.8522,76.5500
Z" /> 
</g>
<g style="fill:#000000; fill-opacity:1.0000; stroke:none;">
<circle cx="181.0022" cy="74.8600" r="0.8500" /> 
</g>
<g style="fill:#000000; fill-opacity:1.0000; stroke:none;">
<circle cx="181.0022" cy="72.3200" r="0.8500" /> 
</g>
<g style="fill:#000000; fill-opacity:1.0000; stroke:none;">
<circle cx="181.0022" cy="69.7800" r="0.8500" /> 
</g>
<g style="fill:#000000; fill-opacity:1.0000; stroke:none;">
<circle cx="181.0022" cy="67.2400" r="0.8500" /> 
</g>
<g style="fill:#000000; fill-opacity:1.0000; stroke:none;">
<circle cx="181.0022" cy="64.7000" r="0.8500" /> 
</g>
<g style="fill:#000000; fill-opacity:1.0000; stroke:none;">
<circle cx="181.0022" cy="62.1600" r="0.8500" /> 
</g>
<g style="fill:#000000; fill-opacity:1.0000; stroke:none;">
<circle cx="181.0022" cy="59.6200" r="0.8500" /> 
</g>
<g style="fill:#000000; fill-opacity:1.0000; stroke:none;">
<circle cx="199.3522" cy="63.4000" r="0.9000" /> 
</g>
<g style="fill:#000000; fill-opacity:1.0000; stroke:none;">
<circle cx="196.9522" cy="63.4000" r="0.9000" /> 
</g>
<g style="fill:#000000; fill-opacity:1.0000; stroke:none;">
<circle cx="194.5522" cy="63.4000" r="0.9000" /> 
</g>
<g style="fill:#000000; fill-opacity:1.0000; stroke:none;">
<circle cx="194.5522" cy="57.8000" r="0.9000" /> 
</g>
<g style="fill:#000000; fill-opacity:1.0000; stroke:none;">
<circle cx="196.9522" cy="57.8000" r="0.9000" /> 
</g>
<g style="fill:#000000; fill-opacity:1.0000; stroke:none;">
<circle cx="199.3522" cy="57.8000" r="0.9000" /> 
<path style="fill:#000000; fill-opacity:1.0000; stroke:none;fill-rule:evenodd;"
d="M 242.9472,84.0500
244.6472,84.0500
244.6472,82.3500
242.9472,82.3500
Z" /> 
</g>
<g style="fill:#000000; fill-opacity:1.0000; stroke:none;">
<circle cx="241.2572" cy="83.2000" r="0.8500" /> 
</g>
<g style="fill:#000000; fill-opacity:1.0000; stroke:none;">
<circle cx="238.7172" cy="83.2000" r="0.8500" /> 
</g>
<g style="fill:#000000; fill-opacity:1.0000; stroke:none;">
<circle cx="236.1772" cy="83.2000" r="0.8500" /> 
</g>
<g style="fill:#000000; fill-opacity:1.0000; stroke:none;">
<circle cx="240.0872" cy="76.2500" r="0.8500" /> 
</g>
<g style="fill:#000000; fill-opacity:1.0000; stroke:none;">
<circle cx="237.5472" cy="76.2500" r="0.8500" /> 
</g>
<g style="fill:#000000; fill-opacity:1.0000; stroke:none;">
<circle cx="235.0072" cy="76.2500" r="0.8500" /> 
</g>
<g style="fill:#000000; fill-opacity:1.0000; stroke:none;">
<circle cx="240.0872" cy="60.7500" r="0.8500" /> 
</g>
<g style="fill:#000000; fill-opacity:1.0000; stroke:none;">
<circle cx="232.4672" cy="76.2500" r="0.8500" /> 
</g>
<g style="fill:#000000; fill-opacity:1.0000; stroke:none;">
<circle cx="229.9272" cy="76.2500" r="0.8500" /> 
</g>
<g style="fill:#000000; fill-opacity:1.0000; stroke:none;">
<circle cx="245.1672" cy="60.7500" r="0.8500" /> 
</g>
<g style="fill:#000000; fill-opacity:1.0000; stroke:none;">
<circle cx="227.3872" cy="76.2500" r="0.8500" /> 
</g>
<g style="fill:#000000; fill-opacity:1.0000; stroke:none;">
<circle cx="224.8472" cy="76.2500" r="0.8500" /> 
</g>
<g style="fill:#000000; fill-opacity:1.0000; stroke:none;">
<circle cx="224.8472" cy="60.7500" r="0.8500" /> 
</g>
<g style="fill:#000000; fill-opacity:1.0000; stroke:none;">
<circle cx="227.3872" cy="60.7500" r="0.8500" /> 
</g>
<g style="fill:#000000; fill-opacity:1.0000; stroke:none;">
<circle cx="229.9272" cy="60.7500" r="0.8500" /> 
</g>
<g style="fill:#000000; fill-opacity:1.0000; stroke:none;">
<circle cx="232.4672" cy="60.7500" r="0.8500" /> 
</g>
<g style="fill:#000000; fill-opacity:1.0000; stroke:none;">
<circle cx="235.0072" cy="60.7500" r="0.8500" /> 
</g>
<g style="fill:#000000; fill-opacity:1.0000; stroke:none;">
<circle cx="237.5472" cy="60.7500" r="0.8500" /> 
</g>
<g style="fill:#000000; fill-opacity:1.0000; stroke:none;">
<circle cx="242.6272" cy="60.7500" r="0.8500" /> 
</g>
<g style="fill:#000000; fill-opacity:1.0000; stroke:none;">
<circle cx="242.6272" cy="76.2500" r="0.8500" /> 
</g>
<g style="fill:#000000; fill-opacity:1.0000; stroke:none;">
<circle cx="245.1672" cy="76.2500" r="0.8500" /> 
<path style="fill:#000000; fill-opacity:1.0000; stroke:none;fill-rule:evenodd;"
d="M 244.5522,52.3000
244.5332,52.2043
244.4790,52.1232
244.3979,52.0690
244.3022,52.0500
243.1022,52.0500
243.0065,52.0690
242.9254,52.1232
242.8712,52.2043
242.8522,52.3000
242.8522,53.8000
242.8712,53.8957
242.9254,53.9768
243.0065,54.0310
243.1022,54.0500
244.3022,54.0500
244.3979,54.0310
244.4790,53.9768
244.5332,53.8957
244.5522,53.8000
Z" /> 
</g>
<g style="fill:none; 
stroke:#000000; stroke-width:1.7000; stroke-opacity:1; 
stroke-linecap:round; stroke-linejoin:round;">
<path d="M241.2022 52.9000
L241.2022 53.2000
" />
</g>
<g style="fill:#000000; fill-opacity:1.0000; stroke:none;">
<circle cx="237.5272" cy="78.8750" r="0.5000" /> 
</g>
<g style="fill:#000000; fill-opacity:1.0000; stroke:none;">
<circle cx="220.1522" cy="78.9000" r="0.5000" /> 
</g>
<g style="fill:#000000; fill-opacity:1.0000; stroke:none;">
<circle cx="240.0272" cy="78.9500" r="0.5000" /> 
</g>
<g style="fill:#000000; fill-opacity:1.0000; stroke:none;">
<circle cx="241.9272" cy="57.9000" r="0.5000" /> 
</g>
<g style="fill:#000000; fill-opacity:1.0000; stroke:none;">
<circle cx="244.3272" cy="57.9500" r="0.5000" /> 
</g>
<g style="fill:#000000; fill-opacity:1.0000; stroke:none;">
<circle cx="236.9272" cy="58.1250" r="0.5000" /> 
</g>
<g style="fill:#000000; fill-opacity:1.0000; stroke:none;">
<circle cx="203.0772" cy="53.1000" r="0.5000" /> 
</g>
<g style="fill:none; 
stroke:#000000; stroke-width:0.5000; stroke-opacity:1; 
stroke-linecap:round; stroke-linejoin:round;">
<path d="M229.9272 60.7500
L225.5502 65.1270
" />
<path d="M225.5502 65.1270
L213.1292 65.1270
" />
<path d="M213.1292 65.1270
L209.6772 61.6750
" />
<path d="M227.3872 60.7500
L223.9112 64.2260
" />
<path d="M223.9112 64.2260
L214.7282 64.2260
" />
<path d="M214.7282 64.2260
L212.1772 61.6750
" />
<path d="M224.8472 60.7500
L222.2722 63.3250
" />
<path d="M222.2722 63.3250
L216.3272 63.3250
" />
<path d="M216.3272 63.3250
L214.6772 61.6750
" />
</g>
<g style="fill:none; 
stroke:#000000; stroke-width:0.3000; stroke-opacity:1; 
stroke-linecap:round; stroke-linejoin:round;">
<path d="M237.5272 82.0100
L237.5272 78.8750
" />
<path d="M237.5272 78.8750
L237.4422 78.9600
" />
<path d="M238.7172 83.2000
L237.5272 82.0100
" />
</g>
<g style="fill:none; 
stroke:#000000; stroke-width:0.5000; stroke-opacity:1; 
stroke-linecap:round; stroke-linejoin:round;">
<path d="M236.1772 83.2000
L236.1772 80.5000
" />
<path d="M234.5772 78.9000
L220.1522 78.9000
" />
<path d="M236.1772 80.5000
L234.5772 78.9000
" />
</g>
<g style="fill:none; 
stroke:#000000; stroke-width:0.3000; stroke-opacity:1; 
stroke-linecap:round; stroke-linejoin:round;">
<path d="M241.2572 83.2000
L240.0272 81.9700
" />
<path d="M240.0272 78.9500
L239.9822 78.9950
" />
<path d="M240.0272 81.9700
L240.0272 78.9500
" />
</g>
<g style="fill:none; 
stroke:#000000; stroke-width:0.5000; stroke-opacity:1; 
stroke-linecap:round; stroke-linejoin:round;">
<path d="M243.0522 56.6750
L229.2772 56.6750
" />
<path d="M243.7022 57.3250
L243.7022 53.0500
" />
<path d="M225.7272 53.1250
L209.4022 53.1250
" />
<path d="M229.2772 56.6750
L225.7272 53.1250
" />
<path d="M244.3272 57.9500
L243.0522 56.6750
" />
<path d="M244.3272 57.9500
L243.7022 57.3250
" />
</g>
<g style="fill:none; 
stroke:#000000; stroke-width:0.3000; stroke-opacity:1; 
stroke-linecap:round; stroke-linejoin:round;">
<path d="M223.6672 55.3000
L223.6172 55.3500
" />
<path d="M228.8772 58.1250
L226.0522 55.3000
" />
<path d="M226.0522 55.3000
L223.6672 55.3000
" />
<path d="M236.9272 58.1250
L228.8772 58.1250
" />
</g>
<g style="fill:none; 
stroke:#000000; stroke-width:0.5000; stroke-opacity:1; 
stroke-linecap:round; stroke-linejoin:round;">
<path d="M206.9022 53.1250
L203.1022 53.1250
" />
<path d="M203.1022 53.1250
L203.0772 53.1000
" />
<path style="fill:#000000; fill-opacity:1.0000; stroke:none;fill-rule:evenodd;"
d="M 221.6064,53.8952
221.5607,53.9480
221.5507,54.0171
221.5797,54.0807
221.6172,54.1100
221.7848,54.1954
221.7848,54.1954
221.8389,54.2347
221.8389,54.2347
221.2066,54.8670
221.2702,54.8841
221.3842,54.9499
221.4773,55.0430
221.5431,55.1570
221.5602,55.2206
222.2304,54.5504
222.2639,54.4890
222.2667,54.4627
222.2667,54.4521
222.2667,54.4521
222.2667,54.4521
222.2731,54.3925
222.2872,54.3546
222.3234,54.2577
222.3234,54.2577
222.3856,54.1746
222.4097,54.1425
222.4680,54.0988
222.5099,54.0428
222.5149,53.9731
222.4814,53.9118
222.4201,53.8783
222.3937,53.8755
221.6735,53.8755
Z" /> 
<path style="fill:#000000; fill-opacity:1.0000; stroke:none;fill-rule:evenodd;"
d="M 177.5597,50.5202
177.5139,50.5730
177.5027,50.6245
177.5027,86.3755
177.5224,86.4425
177.5752,86.4883
177.6267,86.4995
246.3777,86.4995
246.4447,86.4798
246.4905,86.4270
246.5017,86.3755
246.5017,82.3022
245.1472,82.3022
245.1472,82.9500
244.2302,82.9500
244.2631,83.0070
244.2972,83.1342
244.2972,83.2658
244.2631,83.3930
244.2302,83.4500
245.1472,83.4500
245.1472,84.0978
245.1408,84.1574
245.1408,84.1574
245.0906,84.2921
245.0906,84.2921
245.0044,84.4072
245.0044,84.4072
244.8893,84.4933
244.8893,84.4934
244.7546,84.5436
244.7546,84.5436
244.6950,84.5500
244.6950,84.5500
244.0472,84.5500
244.0472,83.6330
243.9902,83.6659
243.8630,83.7000
243.7314,83.7000
243.6042,83.6659
243.5472,83.6330
243.5472,84.5500
242.8994,84.5500
242.8994,84.5500
242.8398,84.5436
242.8398,84.5436
242.7051,84.4934
242.7051,84.4933
242.5900,84.4072
242.5900,84.4072
242.5038,84.2921
242.5038,84.2921
242.4548,84.1605
242.4129,84.1046
242.3474,84.0802
242.2792,84.0950
242.2509,84.1162
242.1370,84.2301
241.9650,84.3550
241.9650,84.3550
241.9650,84.3551
241.7756,84.4516
241.5734,84.5172
241.3635,84.5505
241.3635,84.5505
241.1509,84.5505
241.1509,84.5505
240.9410,84.5172
240.7388,84.4516
240.5494,84.3551
240.4627,84.2921
240.3774,84.2301
240.3774,84.2301
240.3774,84.2301
240.2271,84.0798
240.2271,84.0798
240.2271,84.0798
240.1022,83.9078
240.1022,83.9078
240.1021,83.9078
240.0977,83.8991
240.0497,83.8483
239.9819,83.8315
239.9158,83.8540
239.8767,83.8991
239.8722,83.9078
239.7473,84.0798
239.5970,84.2301
239.4250,84.3550
239.4250,84.3550
239.4250,84.3551
239.2356,84.4516
239.0334,84.5172
238.8235,84.5505
238.8235,84.5505
238.6109,84.5505
238.6109,84.5505
238.4010,84.5172
238.1988,84.4516
238.0094,84.3551
237.9227,84.2921
237.8374,84.2301
237.8374,84.2301
237.8374,84.2301
237.6871,84.0798
237.6871,84.0798
237.6871,84.0798
237.5622,83.9078
237.5622,83.9078
237.5621,83.9078
237.5577,83.8991
237.5097,83.8483
237.4419,83.8315
237.3758,83.8540
237.3367,83.8991
237.3322,83.9078
237.2073,84.0798
237.0570,84.2301
236.8850,84.3550
236.8850,84.3550
236.8850,84.3551
236.6956,84.4516
236.4934,84.5172
236.2835,84.5505
236.2835,84.5505
236.0709,84.5505
236.0709,84.5505
235.8610,84.5172
235.6588,84.4516
235.4694,84.3551
235.3827,84.2921
235.2974,84.2301
235.2974,84.2301
235.2974,84.2301
235.1471,84.0798
235.1471,84.0798
235.1471,84.0798
235.0222,83.9078
235.0222,83.9078
235.0221,83.9078
234.9256,83.7184
234.8600,83.5162
234.8267,83.3063
234.8267,83.0937
234.8280,83.0853
232.7527,83.0853
232.7527,83.3147
232.7424,83.3930
232.7227,83.5422
232.6805,83.7000
232.6634,83.7639
232.5755,83.9759
232.5755,83.9759
232.4608,84.1746
232.3211,84.3567
232.3211,84.3567
232.1589,84.5189
232.1589,84.5189
232.1589,84.5189
232.1267,84.5436
231.9768,84.6586
231.9768,84.6586
231.9768,84.6586
231.7781,84.7733
231.7781,84.7733
231.7781,84.7733
231.6867,84.8112
231.5661,84.8612
231.3444,84.9205
231.1169,84.9505
231.1169,84.9505
230.8875,84.9505
230.8875,84.9505
230.6600,84.9205
230.4383,84.8612
230.2263,84.7733
230.0276,84.6586
229.8455,84.5189
229.8455,84.5189
229.8455,84.5189
229.6833,84.3567
229.6833,84.3567
229.6833,84.3567
229.5436,84.1746
229.4289,83.9759
229.3410,83.7639
229.2817,83.5422
229.2517,83.3147
229.2517,83.0853
229.2517,83.0853
182.7527,83.0853
182.7527,83.3147
182.7424,83.3930
182.7227,83.5422
182.6805,83.7000
182.6634,83.7639
182.5755,83.9759
182.5755,83.9759
182.4608,84.1746
182.3211,84.3567
182.3211,84.3567
182.1589,84.5189
182.1589,84.5189
182.1589,84.5189
182.1267,84.5436
181.9768,84.6586
181.9768,84.6586
181.9768,84.6586
181.7781,84.7733
181.7781,84.7733
181.7781,84.7733
181.6867,84.8112
181.5661,84.8612
181.3444,84.9205
181.1169,84.9505
181.1169,84.9505
180.8875,84.9505
180.8875,84.9505
180.6600,84.9205
180.4383,84.8612
180.2263,84.7733
180.0276,84.6586
179.8455,84.5189
179.8455,84.5189
179.8455,84.5189
179.6833,84.3567
179.6833,84.3567
179.6833,84.3567
179.5436,84.1746
179.4289,83.9759
179.3410,83.7639
179.2817,83.5422
179.2517,83.3147
179.2517,83.0853
179.2817,82.8578
179.3410,82.6361
179.3910,82.5155
179.4289,82.4241
179.4289,82.4241
179.4289,82.4241
179.5436,82.2254
179.5436,82.2254
179.5436,82.2254
179.6833,82.0433
179.6833,82.0433
179.8455,81.8811
179.8455,81.8811
180.0276,81.7414
180.2263,81.6267
180.2263,81.6266
180.4383,81.5388
180.6600,81.4795
180.6980,81.4744
180.8875,81.4495
180.8875,81.4495
181.1169,81.4495
181.1169,81.4495
181.3335,81.4780
181.3444,81.4795
181.4381,81.5046
181.5661,81.5388
181.7781,81.6266
181.7781,81.6267
181.9768,81.7414
182.1589,81.8811
182.3211,82.0433
182.4608,82.2254
182.5755,82.4241
182.5755,82.4241
182.6634,82.6361
182.7227,82.8578
182.7227,82.8578
182.7527,83.0853
229.2517,83.0853
229.2817,82.8578
229.3410,82.6361
229.3910,82.5155
229.4289,82.4241
229.4289,82.4241
229.4289,82.4241
229.5436,82.2254
229.5436,82.2254
229.5436,82.2254
229.6833,82.0433
229.6833,82.0433
229.8455,81.8811
229.8455,81.8811
230.0276,81.7414
230.2263,81.6267
230.2263,81.6266
230.4383,81.5388
230.6600,81.4795
230.6980,81.4744
230.8875,81.4495
230.8875,81.4495
231.1169,81.4495
231.1169,81.4495
231.3335,81.4780
231.3444,81.4795
231.4381,81.5046
231.5661,81.5388
231.7781,81.6266
231.7781,81.6267
231.9768,81.7414
232.1589,81.8811
232.3211,82.0433
232.4608,82.2254
232.5755,82.4241
232.5755,82.4241
232.6634,82.6361
232.7227,82.8578
232.7227,82.8578
232.7527,83.0853
234.8280,83.0853
234.8600,82.8838
234.9256,82.6816
235.0221,82.4922
235.0222,82.4922
235.0222,82.4922
235.1471,82.3202
235.2974,82.1699
235.2974,82.1699
235.3756,82.1131
235.4183,82.0578
235.4267,82.0128
235.4267,80.8622
235.4070,80.7952
235.3904,80.7745
234.3027,79.6868
234.2413,79.6533
234.2150,79.6505
220.8668,79.6505
220.7998,79.6702
220.7928,79.6752
220.6261,79.7866
220.6261,79.7866
220.4789,79.8476
220.4440,79.8621
220.4440,79.8621
220.4440,79.8621
220.2507,79.9005
220.2507,79.9005
220.0537,79.9005
219.9189,79.8737
219.8604,79.8621
219.6783,79.7866
219.5144,79.6771
219.3751,79.5378
219.2656,79.3739
219.1901,79.1918
219.1616,79.0485
219.1517,78.9985
219.1517,78.8015
219.1901,78.6082
219.1901,78.6082
219.1901,78.6082
219.2381,78.4923
219.2656,78.4261
219.2656,78.4261
219.3751,78.2622
219.3751,78.2622
219.5144,78.1229
219.5144,78.1229
219.6783,78.0134
219.6783,78.0134
219.8604,77.9380
219.8604,77.9379
220.0537,77.8995
220.0537,77.8995
220.2507,77.8995
220.2507,77.8995
220.4440,77.9379
220.4440,77.9380
220.6261,78.0134
220.6261,78.0134
220.7950,78.1262
220.7961,78.1247
220.8525,78.1487
220.8668,78.1495
234.6511,78.1495
234.6800,78.1552
234.6800,78.1552
234.7961,78.1783
234.7961,78.1783
234.8761,78.2115
234.8761,78.2115
234.9327,78.2349
234.9327,78.2349
234.9601,78.2532
234.9601,78.2532
235.0556,78.3171
235.0556,78.3171
236.6650,79.9265
236.6845,79.9371
236.7012,79.9516
236.7145,79.9535
236.7263,79.9599
236.7484,79.9584
236.7703,79.9615
236.7826,79.9559
236.7960,79.9550
236.8138,79.9417
236.8339,79.9325
236.8412,79.9211
236.8520,79.9131
236.8597,79.8923
236.8717,79.8737
236.8748,79.8518
236.8764,79.8476
236.8767,79.8388
236.8767,79.6908
236.8570,79.6237
236.8404,79.6031
236.7501,79.5128
236.6406,79.3489
236.5651,79.1668
236.5416,79.0485
236.5267,78.9735
236.5267,78.7765
236.5651,78.5832
236.5651,78.5832
236.5651,78.5832
236.5652,78.5832
236.6406,78.4011
236.6406,78.4011
236.7501,78.2372
236.7501,78.2372
236.8894,78.0979
236.8894,78.0979
237.0533,77.9884
237.0533,77.9884
237.2354,77.9129
237.2354,77.9129
237.4287,77.8745
237.4287,77.8745
237.6257,77.8745
237.6257,77.8745
237.8190,77.9129
237.8190,77.9129
238.0011,77.9884
238.0011,77.9884
238.1650,78.0979
238.1650,78.0979
238.3043,78.2372
238.3043,78.2372
238.4138,78.4011
238.4138,78.4011
238.4892,78.5832
238.4893,78.5832
238.5277,78.7765
238.5277,78.7765
238.5277,78.9735
238.5277,78.9735
238.5277,78.9735
238.4893,79.1668
238.4892,79.1668
238.4138,79.3489
238.4138,79.3489
238.3043,79.5128
238.3043,79.5128
238.3043,79.5128
238.2140,79.6031
238.1805,79.6644
238.1777,79.6908
238.1777,81.6892
238.1863,81.7186
238.1929,81.7486
238.1966,81.7536
238.1974,81.7562
238.2140,81.7769
238.2608,81.8236
238.2865,81.8493
238.3478,81.8828
238.3960,81.8823
238.3961,81.8835
238.5011,81.8669
238.6109,81.8495
238.8235,81.8495
238.8630,81.8558
239.0334,81.8828
239.2144,81.9415
239.2842,81.9435
239.3441,81.9075
239.3749,81.8448
239.3767,81.8236
239.3767,79.7658
239.3570,79.6987
239.3404,79.6781
239.2501,79.5878
239.1406,79.4239
239.0651,79.2418
239.0267,79.0485
239.0267,78.8515
239.0267,78.8515
239.0651,78.6582
239.0651,78.6582
239.0651,78.6582
239.0859,78.6082
239.1406,78.4761
239.1406,78.4761
239.2501,78.3122
239.2501,78.3122
239.3894,78.1729
239.3894,78.1729
239.5533,78.0634
239.5533,78.0634
239.7354,77.9879
239.7354,77.9879
239.9287,77.9495
239.9287,77.9495
240.1257,77.9495
240.1257,77.9495
240.3190,77.9879
240.3190,77.9879
240.5011,78.0634
240.5011,78.0634
240.6650,78.1729
240.6650,78.1729
240.8043,78.3122
240.8043,78.3122
240.9138,78.4761
240.9138,78.4761
240.9892,78.6582
240.9893,78.6582
241.0277,78.8515
241.0277,78.8515
241.0277,79.0485
241.0277,79.0485
241.0277,79.0485
240.9893,79.2418
240.9892,79.2418
240.9138,79.4239
240.9138,79.4239
240.8043,79.5878
240.8043,79.5878
240.8043,79.5878
240.7140,79.6781
240.6805,79.7394
240.6777,79.7658
240.6777,81.6492
240.6863,81.6786
240.6929,81.7086
240.6966,81.7136
240.6974,81.7162
240.7140,81.7369
240.8265,81.8493
240.8878,81.8828
240.9360,81.8823
240.9361,81.8835
241.0411,81.8669
241.1509,81.8495
241.3635,81.8495
241.4122,81.8572
241.5734,81.8828
241.7756,81.9484
241.9650,82.0450
242.1370,82.1699
242.2509,82.2838
242.3122,82.3173
242.3819,82.3123
242.4379,82.2704
242.4548,82.2395
242.5038,82.1079
242.5038,82.1079
242.5900,81.9928
242.5900,81.9928
242.7051,81.9066
242.7051,81.9066
242.8398,81.8564
242.8398,81.8564
242.8994,81.8500
243.5472,81.8500
243.5472,82.7670
243.6042,82.7341
243.7314,82.7000
243.8630,82.7000
243.9902,82.7341
244.0472,82.7670
244.0472,81.8500
244.6950,81.8500
244.7546,81.8564
244.7546,81.8564
244.8893,81.9066
244.8893,81.9066
245.0044,81.9928
245.0044,81.9928
245.0906,82.1079
245.0906,82.1079
245.1408,82.2426
245.1408,82.2426
245.1472,82.3022
246.5017,82.3022
246.5017,77.0925
246.4820,77.0254
246.4292,76.9797
246.3601,76.9697
246.2965,76.9987
246.2774,77.0196
246.2731,77.0254
246.1973,77.1298
246.0470,77.2801
245.8750,77.4050
245.8750,77.4050
245.8750,77.4051
245.6856,77.5016
245.4834,77.5672
245.2735,77.6005
245.2735,77.6005
245.0609,77.6005
245.0609,77.6005
244.8510,77.5672
244.6488,77.5016
244.4594,77.4051
244.4099,77.3691
244.2874,77.2801
244.2874,77.2801
244.2874,77.2801
244.1371,77.1298
244.1371,77.1298
244.1371,77.1298
244.0122,76.9578
244.0122,76.9578
244.0121,76.9578
244.0077,76.9491
243.9597,76.8983
243.8919,76.8815
243.8258,76.9040
243.7867,76.9491
243.7822,76.9578
243.6573,77.1298
243.5070,77.2801
243.3350,77.4050
243.3350,77.4050
243.3350,77.4051
243.1456,77.5016
242.9434,77.5672
242.7335,77.6005
242.7335,77.6005
242.5209,77.6005
242.5209,77.6005
242.3110,77.5672
242.1088,77.5016
241.9194,77.4051
241.8699,77.3691
241.7474,77.2801
241.7474,77.2801
241.7474,77.2801
241.5971,77.1298
241.5971,77.1298
241.5971,77.1298
241.4722,76.9578
241.4722,76.9578
241.4721,76.9578
241.4677,76.9491
241.4197,76.8983
241.3519,76.8815
241.2858,76.9040
241.2467,76.9491
241.2422,76.9578
241.1173,77.1298
240.9670,77.2801
240.7950,77.4050
240.7950,77.4050
240.7950,77.4051
240.6056,77.5016
240.4034,77.5672
240.1935,77.6005
240.1935,77.6005
239.9809,77.6005
239.9809,77.6005
239.7710,77.5672
239.5688,77.5016
239.3794,77.4051
239.3299,77.3691
239.2074,77.2801
239.2074,77.2801
239.2074,77.2801
239.0571,77.1298
239.0571,77.1298
239.0571,77.1298
238.9322,76.9578
238.9322,76.9578
238.9321,76.9578
238.9277,76.9491
238.8797,76.8983
238.8119,76.8815
238.7458,76.9040
238.7067,76.9491
238.7022,76.9578
238.5773,77.1298
238.4270,77.2801
238.2550,77.4050
238.2550,77.4050
238.2550,77.4051
238.0656,77.5016
237.8634,77.5672
237.6535,77.6005
237.6535,77.6005
237.4409,77.6005
237.4409,77.6005
237.2310,77.5672
237.0288,77.5016
236.8394,77.4051
236.7899,77.3691
236.6674,77.2801
236.6674,77.2801
236.6674,77.2801
236.5171,77.1298
236.5171,77.1298
236.5171,77.1298
236.3922,76.9578
236.3922,76.9578
236.3921,76.9578
236.3877,76.9491
236.3397,76.8983
236.2719,76.8815
236.2058,76.9040
236.1667,76.9491
236.1622,76.9578
236.0373,77.1298
235.8870,77.2801
235.7150,77.4050
235.7150,77.4050
235.7150,77.4051
235.5256,77.5016
235.3234,77.5672
235.1135,77.6005
235.1135,77.6005
234.9009,77.6005
234.9009,77.6005
234.6910,77.5672
234.4888,77.5016
234.2994,77.4051
234.2499,77.3691
234.1274,77.2801
234.1274,77.2801
234.1274,77.2801
233.9771,77.1298
233.9771,77.1298
233.9771,77.1298
233.8522,76.9578
233.8522,76.9578
233.8521,76.9578
233.8477,76.9491
233.7997,76.8983
233.7319,76.8815
233.6658,76.9040
233.6267,76.9491
233.6222,76.9578
233.4973,77.1298
233.3470,77.2801
233.1750,77.4050
233.1750,77.4050
233.1750,77.4051
232.9856,77.5016
232.7834,77.5672
232.5735,77.6005
232.5735,77.6005
232.3609,77.6005
232.3609,77.6005
232.1510,77.5672
231.9488,77.5016
231.7594,77.4051
231.7099,77.3691
231.5874,77.2801
231.5874,77.2801
231.5874,77.2801
231.4371,77.1298
231.4371,77.1298
231.4371,77.1298
231.3122,76.9578
231.3122,76.9578
231.3121,76.9578
231.3077,76.9491
231.2597,76.8983
231.1919,76.8815
231.1258,76.9040
231.0867,76.9491
231.0822,76.9578
230.9573,77.1298
230.8070,77.2801
230.6350,77.4050
230.6350,77.4050
230.6350,77.4051
230.4456,77.5016
230.2434,77.5672
230.0335,77.6005
230.0335,77.6005
229.8209,77.6005
229.8209,77.6005
229.6110,77.5672
229.4088,77.5016
229.2194,77.4051
229.1699,77.3691
229.0474,77.2801
229.0474,77.2801
229.0474,77.2801
228.8971,77.1298
228.8971,77.1298
228.8971,77.1298
228.7722,76.9578
228.7722,76.9578
228.7721,76.9578
228.7677,76.9491
228.7197,76.8983
228.6519,76.8815
228.5858,76.9040
228.5467,76.9491
228.5422,76.9578
228.4173,77.1298
228.2670,77.2801
228.0950,77.4050
228.0950,77.4050
228.0950,77.4051
227.9056,77.5016
227.7034,77.5672
227.4935,77.6005
227.4935,77.6005
227.2809,77.6005
227.2809,77.6005
227.0710,77.5672
226.8688,77.5016
226.6794,77.4051
226.6299,77.3691
226.5074,77.2801
226.5074,77.2801
226.5074,77.2801
226.3571,77.1298
226.3571,77.1298
226.3571,77.1298
226.2322,76.9578
226.2322,76.9578
226.2321,76.9578
226.2277,76.9491
226.1797,76.8983
226.1119,76.8815
226.0458,76.9040
226.0067,76.9491
226.0022,76.9578
225.8773,77.1298
225.7270,77.2801
225.5550,77.4050
225.5550,77.4050
225.5550,77.4051
225.3656,77.5016
225.1634,77.5672
224.9535,77.6005
224.9535,77.6005
224.7409,77.6005
224.7409,77.6005
224.5310,77.5672
224.3288,77.5016
224.1394,77.4051
224.0899,77.3691
223.9674,77.2801
223.9674,77.2801
223.9674,77.2801
223.8171,77.1298
223.8171,77.1298
223.8171,77.1298
223.6922,76.9578
223.6922,76.9578
223.6921,76.9578
223.5956,76.7684
223.5300,76.5662
223.5008,76.3819
216.9022,76.3819
216.9022,76.6181
216.8653,76.8512
216.7923,77.0758
216.6851,77.2862
216.6249,77.3691
216.6249,77.3691
215.9260,76.6702
215.9147,76.7123
215.8423,76.8377
215.7399,76.9401
215.6145,77.0125
215.5724,77.0238
216.2713,77.7227
216.1884,77.7829
215.9780,77.8901
215.7534,77.9631
215.7534,77.9631
215.5203,78.0000
215.2841,78.0000
215.0510,77.9631
214.8264,77.8901
214.6160,77.7829
214.6160,77.7829
214.5331,77.7227
214.5331,77.7227
215.2320,77.0238
215.1899,77.0125
215.0645,76.9401
214.9621,76.8377
214.8897,76.7123
214.8784,76.6702
214.1795,77.3691
214.1795,77.3691
214.1193,77.2862
214.1193,77.2862
214.0121,77.0758
213.9391,76.8512
213.9022,76.6181
213.9022,76.3819
210.4022,76.3819
210.4022,76.6181
210.3653,76.8512
210.2923,77.0758
210.1851,77.2862
210.1249,77.3691
210.1249,77.3691
209.4260,76.6702
209.4147,76.7123
209.3423,76.8377
209.2399,76.9401
209.1145,77.0125
209.0724,77.0238
209.7713,77.7227
209.6884,77.7829
209.4780,77.8901
209.2534,77.9631
209.2534,77.9631
209.0203,78.0000
208.7841,78.0000
208.5510,77.9631
208.3264,77.8901
208.1160,77.7829
208.1160,77.7829
208.0331,77.7227
208.0331,77.7227
208.7320,77.0238
208.6899,77.0125
208.5645,76.9401
208.4621,76.8377
208.3897,76.7123
208.3784,76.6702
207.6795,77.3691
207.6795,77.3691
207.6193,77.2862
207.6193,77.2862
207.5121,77.0758
207.4391,76.8512
207.4022,76.6181
207.4022,76.3819
201.7522,76.3819
201.7522,76.6181
201.7153,76.8512
201.6423,77.0758
201.5351,77.2862
201.4749,77.3691
201.4749,77.3691
200.7760,76.6702
200.7647,76.7123
200.6923,76.8377
200.5899,76.9401
200.4645,77.0125
200.4224,77.0238
201.1213,77.7227
201.0384,77.7829
200.8280,77.8901
200.6034,77.9631
200.6034,77.9631
200.3703,78.0000
200.1341,78.0000
199.9010,77.9631
199.6764,77.8901
199.4660,77.7829
199.4660,77.7829
199.3831,77.7227
199.3831,77.7227
200.0820,77.0238
200.0399,77.0125
199.9145,76.9401
199.8121,76.8377
199.7397,76.7123
199.7284,76.6702
199.0295,77.3691
199.0295,77.3691
198.9693,77.2862
198.9693,77.2862
198.8621,77.0758
198.7891,76.8512
198.7522,76.6181
198.7522,76.3819
195.2522,76.3819
195.2522,76.6181
195.2153,76.8512
195.1423,77.0758
195.0351,77.2862
194.9749,77.3691
194.9749,77.3691
194.2760,76.6702
194.2647,76.7123
194.1923,76.8377
194.0899,76.9401
193.9645,77.0125
193.9224,77.0238
194.6213,77.7227
194.5384,77.7829
194.3280,77.8901
194.1034,77.9631
194.1034,77.9631
193.8703,78.0000
193.6341,78.0000
193.4010,77.9631
193.1764,77.8901
192.9660,77.7829
192.9660,77.7829
192.8831,77.7227
192.8831,77.7227
193.5820,77.0238
193.5399,77.0125
193.4145,76.9401
193.3121,76.8377
193.2397,76.7123
193.2284,76.6702
192.5295,77.3691
192.5295,77.3691
192.4693,77.2862
192.4693,77.2862
192.3621,77.0758
192.2891,76.8512
192.2522,76.6181
192.2522,76.3819
192.2891,76.1488
192.3621,75.9242
192.4693,75.7138
192.5295,75.6309
192.5295,75.6309
193.2284,76.3298
193.2397,76.2877
193.3121,76.1623
193.4145,76.0599
193.5399,75.9875
193.5820,75.9762
192.8831,75.2773
192.8831,75.2773
192.9660,75.2171
193.1764,75.1099
193.4010,75.0369
193.4010,75.0369
193.6341,75.0000
193.8703,75.0000
194.1034,75.0369
194.3280,75.1099
194.5384,75.2171
194.6213,75.2773
193.9224,75.9762
193.9645,75.9875
194.0899,76.0599
194.1923,76.1623
194.2647,76.2877
194.2760,76.3298
194.9749,75.6309
195.0351,75.7138
195.1423,75.9242
195.2153,76.1488
195.2522,76.3819
198.7522,76.3819
198.7891,76.1488
198.8621,75.9242
198.9693,75.7138
199.0295,75.6309
199.0295,75.6309
199.7284,76.3298
199.7397,76.2877
199.8121,76.1623
199.9145,76.0599
200.0399,75.9875
200.0820,75.9762
199.3831,75.2773
199.3831,75.2773
199.4660,75.2171
199.6764,75.1099
199.9010,75.0369
199.9010,75.0369
200.1341,75.0000
200.3703,75.0000
200.6034,75.0369
200.8280,75.1099
201.0384,75.2171
201.1213,75.2773
200.4224,75.9762
200.4645,75.9875
200.5899,76.0599
200.6923,76.1623
200.7647,76.2877
200.7760,76.3298
201.4749,75.6309
201.5351,75.7138
201.6423,75.9242
201.7153,76.1488
201.7522,76.3819
207.4022,76.3819
207.4391,76.1488
207.5121,75.9242
207.6193,75.7138
207.6795,75.6309
207.6795,75.6309
208.3784,76.3298
208.3897,76.2877
208.4621,76.1623
208.5645,76.0599
208.6899,75.9875
208.7320,75.9762
208.0331,75.2773
208.0331,75.2773
208.1160,75.2171
208.3264,75.1099
208.5510,75.0369
208.5510,75.0369
208.7841,75.0000
209.0203,75.0000
209.2534,75.0369
209.4780,75.1099
209.6884,75.2171
209.7713,75.2773
209.0724,75.9762
209.1145,75.9875
209.2399,76.0599
209.3423,76.1623
209.4147,76.2877
209.4260,76.3298
210.1249,75.6309
210.1851,75.7138
210.2923,75.9242
210.3653,76.1488
210.4022,76.3819
213.9022,76.3819
213.9391,76.1488
214.0121,75.9242
214.1193,75.7138
214.1795,75.6309
214.1795,75.6309
214.8784,76.3298
214.8897,76.2877
214.9621,76.1623
215.0645,76.0599
215.1899,75.9875
215.2320,75.9762
214.5331,75.2773
214.5331,75.2773
214.6160,75.2171
214.8264,75.1099
215.0510,75.0369
215.0510,75.0369
215.2841,75.0000
215.5203,75.0000
215.7534,75.0369
215.9780,75.1099
216.1884,75.2171
216.2713,75.2773
215.5724,75.9762
215.6145,75.9875
215.7399,76.0599
215.8423,76.1623
215.9147,76.2877
215.9260,76.3298
216.6249,75.6309
216.6851,75.7138
216.7923,75.9242
216.8653,76.1488
216.9022,76.3819
223.5008,76.3819
223.4967,76.3563
223.4967,76.1437
223.5300,75.9338
223.5956,75.7316
223.6921,75.5422
223.6922,75.5422
223.6922,75.5422
223.7973,75.3975
223.8171,75.3702
223.9674,75.2199
224.1394,75.0950
224.3288,74.9984
224.3288,74.9984
224.3288,74.9984
224.5310,74.9328
224.5310,74.9328
224.5310,74.9328
224.6922,74.9072
224.7409,74.8995
224.9535,74.8995
225.0022,74.9072
225.1634,74.9328
225.3656,74.9984
225.5550,75.0950
225.7270,75.2199
225.8773,75.3702
226.0023,75.5422
226.0067,75.5509
226.0547,75.6017
226.1225,75.6185
226.1886,75.5960
226.2277,75.5509
226.2321,75.5422
226.3571,75.3702
226.5074,75.2199
226.6794,75.0950
226.8688,74.9984
226.8688,74.9984
226.8688,74.9984
227.0710,74.9328
227.0710,74.9328
227.0710,74.9328
227.2322,74.9072
227.2809,74.8995
227.4935,74.8995
227.5422,74.9072
227.7034,74.9328
227.9056,74.9984
228.0950,75.0950
228.2670,75.2199
228.4173,75.3702
228.5423,75.5422
228.5467,75.5509
228.5947,75.6017
228.6625,75.6185
228.7286,75.5960
228.7677,75.5509
228.7721,75.5422
228.8971,75.3702
229.0474,75.2199
229.2194,75.0950
229.4088,74.9984
229.4088,74.9984
229.4088,74.9984
229.6110,74.9328
229.6110,74.9328
229.6110,74.9328
229.7722,74.9072
229.8209,74.8995
230.0335,74.8995
230.0822,74.9072
230.2434,74.9328
230.4456,74.9984
230.6350,75.0950
230.8070,75.2199
230.9573,75.3702
231.0823,75.5422
231.0867,75.5509
231.1347,75.6017
231.2025,75.6185
231.2686,75.5960
231.3077,75.5509
231.3122,75.5422
231.4371,75.3702
231.5874,75.2199
231.7594,75.0950
231.9488,74.9984
231.9488,74.9984
231.9488,74.9984
232.1510,74.9328
232.1510,74.9328
232.1510,74.9328
232.3122,74.9072
232.3609,74.8995
232.5735,74.8995
232.6222,74.9072
232.7834,74.9328
232.9856,74.9984
233.1750,75.0950
233.3470,75.2199
233.4973,75.3702
233.6223,75.5422
233.6267,75.5509
233.6747,75.6017
233.7425,75.6185
233.8086,75.5960
233.8477,75.5509
233.8521,75.5422
233.9771,75.3702
234.1274,75.2199
234.2994,75.0950
234.4888,74.9984
234.4888,74.9984
234.4888,74.9984
234.6910,74.9328
234.6910,74.9328
234.6910,74.9328
234.8522,74.9072
234.9009,74.8995
235.1135,74.8995
235.1622,74.9072
235.3234,74.9328
235.5256,74.9984
235.7150,75.0950
235.8870,75.2199
236.0373,75.3702
236.1623,75.5422
236.1667,75.5509
236.2147,75.6017
236.2825,75.6185
236.3486,75.5960
236.3877,75.5509
236.3921,75.5422
236.5171,75.3702
236.6674,75.2199
236.8394,75.0950
237.0288,74.9984
237.0288,74.9984
237.0288,74.9984
237.2310,74.9328
237.2310,74.9328
237.2310,74.9328
237.3922,74.9072
237.4409,74.8995
237.6535,74.8995
237.7022,74.9072
237.8634,74.9328
238.0656,74.9984
238.2550,75.0950
238.4270,75.2199
238.5773,75.3702
238.7023,75.5422
238.7067,75.5509
238.7547,75.6017
238.8225,75.6185
238.8886,75.5960
238.9277,75.5509
238.9321,75.5422
239.0571,75.3702
239.2074,75.2199
239.3794,75.0950
239.5688,74.9984
239.5688,74.9984
239.5688,74.9984
239.7710,74.9328
239.7710,74.9328
239.7710,74.9328
239.9322,74.9072
239.9809,74.8995
240.1935,74.8995
240.2422,74.9072
240.4034,74.9328
240.6056,74.9984
240.7950,75.0950
240.9670,75.2199
241.1173,75.3702
241.2423,75.5422
241.2467,75.5509
241.2947,75.6017
241.3625,75.6185
241.4286,75.5960
241.4677,75.5509
241.4721,75.5422
241.5971,75.3702
241.7474,75.2199
241.9194,75.0950
242.1088,74.9984
242.1088,74.9984
242.1088,74.9984
242.3110,74.9328
242.3110,74.9328
242.3110,74.9328
242.4722,74.9072
242.5209,74.8995
242.7335,74.8995
242.7822,74.9072
242.9434,74.9328
243.1456,74.9984
243.3350,75.0950
243.5070,75.2199
243.6573,75.3702
243.7823,75.5422
243.7867,75.5509
243.8347,75.6017
243.9025,75.6185
243.9686,75.5960
244.0077,75.5509
244.0121,75.5422
244.1371,75.3702
244.2874,75.2199
244.4594,75.0950
244.6488,74.9984
244.6488,74.9984
244.6488,74.9984
244.8510,74.9328
244.8510,74.9328
244.8510,74.9328
245.0122,74.9072
245.0609,74.8995
245.2735,74.8995
245.3222,74.9072
245.4834,74.9328
245.6856,74.9984
245.8750,75.0950
246.0470,75.2199
246.1973,75.3702
246.1973,75.3702
246.2774,75.4804
246.3327,75.5231
246.4023,75.5291
246.4641,75.4965
246.4985,75.4356
246.5017,75.4075
246.5017,71.8819
216.9027,71.8819
216.9027,72.1181
216.8658,72.3514
216.7928,72.5760
216.7621,72.6362
216.6855,72.7864
216.5467,72.9775
216.3797,73.1445
216.1886,73.2833
216.0892,73.3340
215.9782,73.3906
215.9782,73.3906
215.9782,73.3906
215.8578,73.4297
215.7536,73.4636
215.5203,73.5005
215.5203,73.5005
215.2841,73.5005
215.0508,73.4636
214.8262,73.3906
214.6158,73.2833
214.4247,73.1445
214.2577,72.9775
214.1189,72.7864
214.0116,72.5760
213.9386,72.3514
213.9017,72.1181
213.9017,71.8819
210.4027,71.8819
210.4027,72.1181
210.3658,72.3514
210.2928,72.5760
210.2621,72.6362
210.1855,72.7864
210.0467,72.9775
209.8797,73.1445
209.6886,73.2833
209.5892,73.3340
209.4782,73.3906
209.4782,73.3906
209.4782,73.3906
209.3578,73.4297
209.2536,73.4636
209.0203,73.5005
209.0203,73.5005
208.7841,73.5005
208.5508,73.4636
208.3262,73.3906
208.1158,73.2833
207.9247,73.1445
207.7577,72.9775
207.6189,72.7864
207.5116,72.5760
207.4386,72.3514
207.4017,72.1181
207.4017,71.8819
201.7527,71.8819
201.7527,72.1181
201.7158,72.3514
201.6428,72.5760
201.6121,72.6362
201.5355,72.7864
201.3967,72.9775
201.2297,73.1445
201.0386,73.2833
200.9392,73.3340
200.8282,73.3906
200.8282,73.3906
200.8282,73.3906
200.7078,73.4297
200.6036,73.4636
200.3703,73.5005
200.3703,73.5005
200.1341,73.5005
199.9008,73.4636
199.6762,73.3906
199.4658,73.2833
199.2747,73.1445
199.1077,72.9775
198.9689,72.7864
198.8616,72.5760
198.7886,72.3514
198.7517,72.1181
198.7517,71.8819
195.2527,71.8819
195.2527,72.1181
195.2158,72.3514
195.1428,72.5760
195.1121,72.6362
195.0355,72.7864
194.8967,72.9775
194.7297,73.1445
194.5386,73.2833
194.4392,73.3340
194.3282,73.3906
194.3282,73.3906
194.3282,73.3906
194.2078,73.4297
194.1036,73.4636
193.8703,73.5005
193.8703,73.5005
193.6341,73.5005
193.4008,73.4636
193.1762,73.3906
192.9658,73.2833
192.7747,73.1445
192.6077,72.9775
192.4689,72.7864
192.3616,72.5760
192.2886,72.3514
192.2517,72.1181
192.2517,71.8819
192.2886,71.6486
192.3564,71.4402
192.3616,71.4240
192.3616,71.4240
192.3616,71.4240
192.4182,71.3130
192.4689,71.2136
192.6077,71.0225
192.7747,70.8555
192.9658,70.7167
193.1762,70.6094
193.4008,70.5364
193.6341,70.4995
193.6341,70.4995
193.8703,70.4995
193.8703,70.4995
194.1036,70.5364
194.3282,70.6094
194.5386,70.7167
194.6476,70.7959
194.7297,70.8555
194.7297,70.8555
194.7297,70.8555
194.8967,71.0225
194.8967,71.0225
194.8967,71.0225
194.9301,71.0684
195.0355,71.2136
195.1428,71.4240
195.2158,71.6486
195.2527,71.8819
198.7517,71.8819
198.7886,71.6486
198.8564,71.4402
198.8616,71.4240
198.8616,71.4240
198.8616,71.4240
198.9182,71.3130
198.9689,71.2136
199.1077,71.0225
199.2747,70.8555
199.4658,70.7167
199.6762,70.6094
199.9008,70.5364
200.1341,70.4995
200.1341,70.4995
200.3703,70.4995
200.3703,70.4995
200.6036,70.5364
200.8282,70.6094
201.0386,70.7167
201.1476,70.7959
201.2297,70.8555
201.2297,70.8555
201.2297,70.8555
201.3967,71.0225
201.3967,71.0225
201.3967,71.0225
201.4301,71.0684
201.5355,71.2136
201.6428,71.4240
201.7158,71.6486
201.7527,71.8819
207.4017,71.8819
207.4386,71.6486
207.5064,71.4402
207.5116,71.4240
207.5116,71.4240
207.5116,71.4240
207.5682,71.3130
207.6189,71.2136
207.7577,71.0225
207.9247,70.8555
208.1158,70.7167
208.3262,70.6094
208.5508,70.5364
208.7841,70.4995
208.7841,70.4995
209.0203,70.4995
209.0203,70.4995
209.2536,70.5364
209.4782,70.6094
209.6886,70.7167
209.7977,70.7959
209.8797,70.8555
209.8797,70.8555
209.8797,70.8555
210.0467,71.0225
210.0467,71.0225
210.0467,71.0225
210.0801,71.0684
210.1855,71.2136
210.2928,71.4240
210.3658,71.6486
210.4027,71.8819
213.9017,71.8819
213.9386,71.6486
214.0064,71.4402
214.0116,71.4240
214.0116,71.4240
214.0116,71.4240
214.0682,71.3130
214.1189,71.2136
214.2577,71.0225
214.4247,70.8555
214.6158,70.7167
214.8262,70.6094
215.0508,70.5364
215.2841,70.4995
215.2841,70.4995
215.5203,70.4995
215.5203,70.4995
215.7536,70.5364
215.9782,70.6094
216.1886,70.7167
216.2977,70.7959
216.3797,70.8555
216.3797,70.8555
216.3797,70.8555
216.5467,71.0225
216.5467,71.0225
216.5467,71.0225
216.5801,71.0684
216.6855,71.2136
216.7928,71.4240
216.8658,71.6486
216.9027,71.8819
246.5017,71.8819
246.5017,61.5925
246.4820,61.5254
246.4292,61.4797
246.3601,61.4697
246.2965,61.4987
246.2774,61.5196
246.2731,61.5254
246.1973,61.6298
246.0470,61.7801
245.8750,61.9050
245.8750,61.9050
245.8750,61.9051
245.6856,62.0016
245.4834,62.0672
245.2735,62.1005
245.2735,62.1005
245.0609,62.1005
245.0609,62.1005
244.8510,62.0672
244.6488,62.0016
244.4594,61.9051
244.4150,61.8728
244.2874,61.7801
244.2874,61.7801
244.2874,61.7801
244.1371,61.6298
244.1371,61.6298
244.1371,61.6298
244.0613,61.5254
244.0121,61.4578
244.0074,61.4485
243.9594,61.3977
243.8916,61.3809
243.8255,61.4034
243.7864,61.4485
243.7818,61.4576
243.6569,61.6295
243.6569,61.6295
243.5067,61.7797
243.5067,61.7797
243.3348,61.9046
243.1454,62.0011
242.9433,62.0668
242.8772,62.0772
242.8772,61.1830
242.8202,61.2159
242.6930,61.2500
242.5614,61.2500
242.4342,61.2159
242.3772,61.1830
242.3772,62.0772
242.3111,62.0668
242.3111,62.0668
242.1090,62.0011
241.9196,61.9046
241.7477,61.7797
241.7477,61.7797
241.5975,61.6295
241.5975,61.6295
241.4726,61.4576
241.4680,61.4485
241.4200,61.3977
241.3522,61.3809
241.2860,61.4034
241.2470,61.4485
241.2423,61.4578
241.1173,61.6298
240.9670,61.7801
240.7950,61.9050
240.7950,61.9050
240.7950,61.9051
240.6056,62.0016
240.4034,62.0672
240.1935,62.1005
240.1935,62.1005
239.9809,62.1005
239.9809,62.1005
239.7710,62.0672
239.5688,62.0016
239.3794,61.9051
239.3350,61.8728
239.2074,61.7801
239.2074,61.7801
239.2074,61.7801
239.0571,61.6298
239.0571,61.6298
239.0571,61.6298
238.9322,61.4578
238.9322,61.4578
238.9321,61.4578
238.9277,61.4491
238.8797,61.3983
238.8119,61.3815
238.7458,61.4040
238.7067,61.4491
238.7026,61.4571
238.7022,61.4578
238.5773,61.6298
238.4270,61.7801
238.2550,61.9050
238.2550,61.9050
238.2550,61.9051
238.0656,62.0016
237.8634,62.0672
237.6535,62.1005
237.6535,62.1005
237.4409,62.1005
237.4409,62.1005
237.2310,62.0672
237.0288,62.0016
236.8394,61.9051
236.7950,61.8728
236.6674,61.7801
236.6674,61.7801
236.6674,61.7801
236.5171,61.6298
236.5171,61.6298
236.5171,61.6298
236.3922,61.4578
236.3922,61.4578
236.3921,61.4578
236.3877,61.4491
236.3397,61.3983
236.2719,61.3815
236.2058,61.4040
236.1667,61.4491
236.1626,61.4571
236.1622,61.4578
236.0373,61.6298
235.8870,61.7801
235.7150,61.9050
235.7150,61.9050
235.7150,61.9051
235.5256,62.0016
235.3234,62.0672
235.1135,62.1005
235.1135,62.1005
234.9009,62.1005
234.9009,62.1005
234.6910,62.0672
234.4888,62.0016
234.2994,61.9051
234.2550,61.8728
234.1274,61.7801
234.1274,61.7801
234.1274,61.7801
233.9771,61.6298
233.9771,61.6298
233.9771,61.6298
233.8522,61.4578
233.8522,61.4578
233.8521,61.4578
233.8477,61.4491
233.7997,61.3983
233.7319,61.3815
233.6658,61.4040
233.6267,61.4491
233.6226,61.4571
233.6222,61.4578
233.4973,61.6298
233.3470,61.7801
233.1750,61.9050
233.1750,61.9050
233.1750,61.9051
232.9856,62.0016
232.7834,62.0672
232.5735,62.1005
232.5735,62.1005
232.3609,62.1005
232.3609,62.1005
232.1510,62.0672
231.9488,62.0016
231.7594,61.9051
231.7150,61.8728
231.5874,61.7801
231.5874,61.7801
231.5874,61.7801
231.4371,61.6298
231.4371,61.6298
231.4371,61.6298
231.3122,61.4578
231.3122,61.4578
231.3121,61.4578
231.3077,61.4491
231.2597,61.3983
231.1919,61.3815
231.1258,61.4040
231.0867,61.4491
231.0826,61.4571
231.0822,61.4578
230.9573,61.6298
230.8070,61.7801
230.6350,61.9050
230.6350,61.9050
230.6350,61.9051
230.4456,62.0016
230.2434,62.0672
230.0335,62.1005
230.0335,62.1005
229.8209,62.1005
229.8209,62.1005
229.7255,62.0854
229.6562,62.0943
229.6184,62.1202
226.1332,65.6054
226.1332,65.6054
226.0286,65.7099
226.0286,65.7100
225.9057,65.7921
225.9057,65.7921
225.7691,65.8487
225.7691,65.8487
225.7691,65.8487
225.7691,65.8487
225.6241,65.8775
225.6241,65.8775
213.0553,65.8775
212.9424,65.8550
212.9103,65.8487
212.7737,65.7921
212.7245,65.7592
212.6508,65.7100
210.2306,63.2898
200.7527,63.2898
200.7527,63.5102
200.7182,63.7280
200.6501,63.9376
200.6501,63.9376
200.5500,64.1340
200.4204,64.3124
200.4204,64.3124
200.2646,64.4682
200.2646,64.4682
200.1090,64.5813
200.0862,64.5978
199.9578,64.6632
199.8898,64.6979
199.8898,64.6979
199.7850,64.7320
199.6802,64.7660
199.4624,64.8005
199.4624,64.8005
199.2420,64.8005
199.2420,64.8005
199.0242,64.7660
198.8146,64.6979
198.6182,64.5978
198.4398,64.4682
198.2840,64.3124
198.2525,64.2691
198.1972,64.2264
198.1276,64.2204
198.0658,64.2531
198.0519,64.2691
198.0204,64.3124
197.8646,64.4682
197.8646,64.4682
197.7090,64.5813
197.6862,64.5978
197.5578,64.6632
197.4898,64.6979
197.4898,64.6979
197.3850,64.7320
197.2802,64.7660
197.0624,64.8005
197.0624,64.8005
196.8420,64.8005
196.8420,64.8005
196.6242,64.7660
196.4146,64.6979
196.2182,64.5978
196.0398,64.4682
195.8840,64.3124
195.8525,64.2691
195.7972,64.2264
195.7276,64.2204
195.6658,64.2531
195.6519,64.2691
195.6204,64.3124
195.4646,64.4682
195.4646,64.4682
195.3090,64.5813
195.2862,64.5978
195.1578,64.6632
195.0898,64.6979
195.0898,64.6979
194.9850,64.7320
194.8802,64.7660
194.6624,64.8005
194.6624,64.8005
194.4420,64.8005
194.4420,64.8005
194.2242,64.7660
194.0146,64.6979
193.8182,64.5978
193.6398,64.4682
193.4840,64.3124
193.3544,64.1340
193.2543,63.9376
193.1862,63.7280
193.1517,63.5102
193.1517,63.2898
193.1862,63.0720
193.2543,62.8624
193.2543,62.8624
193.3310,62.7118
193.3544,62.6660
193.4208,62.5745
193.4840,62.4876
193.4840,62.4876
193.6398,62.3318
193.6398,62.3318
193.8182,62.2022
193.8182,62.2022
193.8182,62.2022
193.9023,62.1593
193.9023,62.1593
194.0146,62.1021
194.0146,62.1021
194.1635,62.0537
182.3527,62.0537
182.3527,62.2663
182.3194,62.4762
182.2564,62.6703
182.2538,62.6784
182.1572,62.8678
182.0323,63.0398
181.8820,63.1901
181.7100,63.3150
181.7013,63.3195
181.6505,63.3675
181.6337,63.4353
181.6562,63.5014
181.7013,63.5405
181.7100,63.5449
181.8820,63.6699
182.0323,63.8202
182.1572,63.9922
182.2538,64.1816
182.3194,64.3838
182.3527,64.5937
182.3527,64.8063
182.3194,65.0162
182.2538,65.2184
182.1572,65.4078
182.0323,65.5798
181.8820,65.7301
181.7100,65.8550
181.7013,65.8595
181.6505,65.9075
181.6337,65.9753
181.6562,66.0414
181.7013,66.0805
181.7100,66.0849
181.8820,66.2099
182.0323,66.3602
182.1572,66.5322
182.2538,66.7216
182.3194,66.9238
182.3527,67.1337
182.3527,67.3463
182.3194,67.5562
182.2538,67.7584
182.1572,67.9478
182.0323,68.1198
181.8820,68.2701
181.7100,68.3950
181.7013,68.3995
181.6505,68.4475
181.6337,68.5153
181.6562,68.5814
181.7013,68.6205
181.7100,68.6249
181.8820,68.7499
182.0323,68.9002
182.1572,69.0722
182.2538,69.2616
182.3194,69.4638
182.3527,69.6737
182.3527,69.8863
182.3194,70.0962
182.2538,70.2984
182.1572,70.4878
182.0323,70.6598
181.8820,70.8101
181.7100,70.9350
181.7013,70.9395
181.6505,70.9875
181.6337,71.0553
181.6562,71.1214
181.7013,71.1605
181.7100,71.1649
181.8820,71.2899
182.0323,71.4402
182.1572,71.6122
182.2538,71.8016
182.3194,72.0038
182.3527,72.2137
182.3527,72.4263
182.3194,72.6362
182.2538,72.8384
182.1572,73.0278
182.0323,73.1998
181.8820,73.3501
181.7100,73.4750
181.7100,73.4750
181.7100,73.4751
181.7007,73.4798
181.6499,73.5278
181.6331,73.5956
181.6556,73.6617
181.7007,73.7008
181.7098,73.7054
181.7098,73.7054
181.7639,73.7447
181.7639,73.7447
181.1316,74.3770
181.1952,74.3941
181.3092,74.4599
181.4023,74.5530
181.4681,74.6670
181.4852,74.7306
182.1175,74.0983
182.1175,74.0983
182.1568,74.1524
182.2533,74.3418
182.3190,74.5439
182.3190,74.5439
182.3522,74.7538
182.3522,74.9662
182.3190,75.1761
182.3190,75.1761
182.2533,75.3782
182.1568,75.5675
182.1175,75.6217
181.4852,74.9894
181.4681,75.0530
181.4023,75.1670
181.3092,75.2601
181.1952,75.3259
181.1316,75.3430
181.8018,76.0132
181.8632,76.0467
181.8895,76.0495
181.9001,76.0495
181.9001,76.0495
181.9597,76.0559
182.0945,76.1062
182.0945,76.1062
182.2097,76.1925
182.2097,76.1925
182.2960,76.3077
182.2960,76.3077
182.3463,76.4425
182.3527,76.5021
182.3527,76.5021
182.3527,76.5021
182.3527,78.2979
182.3527,78.2979
182.3463,78.3575
182.2960,78.4923
182.2960,78.4923
182.2097,78.6075
182.2097,78.6075
182.0945,78.6938
182.0945,78.6938
181.9597,78.7441
181.9597,78.7441
181.9528,78.7448
181.9001,78.7505
180.1043,78.7505
180.0447,78.7441
179.9099,78.6938
179.7947,78.6075
179.7084,78.4923
179.6581,78.3575
179.6517,78.2979
179.6517,76.5021
179.6581,76.4425
179.6903,76.3563
179.7084,76.3077
179.7084,76.3077
179.7947,76.1925
179.7947,76.1925
179.9099,76.1062
179.9099,76.1062
180.0447,76.0559
180.0447,76.0559
180.1043,76.0495
180.1043,76.0495
180.1043,76.0495
180.1043,76.0495
180.1149,76.0495
180.1819,76.0298
180.2026,76.0132
180.8728,75.3430
180.8092,75.3259
180.6952,75.2601
180.6021,75.1670
180.5363,75.0530
180.5192,74.9894
179.8869,75.6217
179.8869,75.6217
179.8476,75.5676
179.7511,75.3782
179.6854,75.1761
179.6854,75.1761
179.6522,74.9662
179.6522,74.7538
179.6854,74.5439
179.6854,74.5439
179.7511,74.3418
179.8476,74.1524
179.8869,74.0983
179.8869,74.0983
180.5192,74.7306
180.5363,74.6670
180.6021,74.5530
180.6952,74.4599
180.8092,74.3941
180.8728,74.3770
180.2405,73.7447
180.2947,73.7054
180.2947,73.7054
180.3037,73.7008
180.3545,73.6528
180.3713,73.5850
180.3487,73.5188
180.3037,73.4798
180.2944,73.4751
180.1781,73.3906
180.1224,73.3501
180.1224,73.3501
180.1224,73.3501
179.9721,73.1998
179.9721,73.1998
179.9721,73.1998
179.8472,73.0278
179.8472,73.0278
179.8471,73.0278
179.7506,72.8384
179.6850,72.6362
179.6517,72.4263
179.6517,72.2137
179.6850,72.0038
179.7506,71.8016
179.8471,71.6122
179.8472,71.6122
179.8472,71.6122
179.9721,71.4402
180.1224,71.2899
180.2944,71.1650
180.2951,71.1646
180.3031,71.1605
180.3539,71.1125
180.3707,71.0447
180.3482,70.9786
180.3031,70.9395
180.2944,70.9351
180.1849,70.8555
180.1224,70.8101
180.1224,70.8101
180.1224,70.8101
179.9721,70.6598
179.9721,70.6598
179.9721,70.6598
179.8472,70.4878
179.8472,70.4878
179.8471,70.4878
179.7506,70.2984
179.6850,70.0962
179.6517,69.8863
179.6517,69.6737
179.6850,69.4638
179.7506,69.2616
179.8471,69.0722
179.8472,69.0722
179.8472,69.0722
179.9721,68.9002
180.1224,68.7499
180.2944,68.6250
180.2951,68.6246
180.3031,68.6205
180.3539,68.5725
180.3707,68.5047
180.3482,68.4386
180.3031,68.3995
180.2944,68.3951
180.2724,68.3791
180.1224,68.2701
180.1224,68.2701
180.1224,68.2701
179.9721,68.1198
179.9721,68.1198
179.9721,68.1198
179.8472,67.9478
179.8472,67.9478
179.8471,67.9478
179.7506,67.7584
179.6850,67.5562
179.6517,67.3463
179.6517,67.1337
179.6850,66.9238
179.7506,66.7216
179.8471,66.5322
179.8472,66.5322
179.8472,66.5322
179.9721,66.3602
180.1224,66.2099
180.2944,66.0850
180.2951,66.0846
180.3031,66.0805
180.3539,66.0325
180.3707,65.9647
180.3482,65.8986
180.3031,65.8595
180.2944,65.8551
180.2724,65.8391
180.1224,65.7301
180.1224,65.7301
180.1224,65.7301
179.9721,65.5798
179.9721,65.5798
179.9721,65.5798
179.8472,65.4078
179.8472,65.4078
179.8471,65.4078
179.7506,65.2184
179.6850,65.0162
179.6517,64.8063
179.6517,64.5937
179.6850,64.3838
179.7506,64.1816
179.8471,63.9922
179.8472,63.9922
179.8472,63.9922
179.9721,63.8202
180.1224,63.6699
180.2944,63.5450
180.2951,63.5446
180.3031,63.5405
180.3539,63.4925
180.3707,63.4247
180.3482,63.3586
180.3031,63.3195
180.2944,63.3151
180.2328,63.2703
180.1224,63.1901
180.1224,63.1901
180.1224,63.1901
179.9721,63.0398
179.9721,63.0398
179.9721,63.0398
179.8472,62.8678
179.8472,62.8678
179.8471,62.8678
179.7506,62.6784
179.6850,62.4762
179.6517,62.2663
179.6517,62.0537
179.6850,61.8438
179.7506,61.6416
179.8471,61.4522
179.8472,61.4522
179.8472,61.4522
179.9721,61.2802
180.1224,61.1299
180.2944,61.0049
180.3037,61.0002
180.3545,60.9522
180.3713,60.8844
180.3488,60.8183
180.3037,60.7792
180.2946,60.7746
180.2405,60.7353
180.2405,60.7353
180.8728,60.1030
180.8092,60.0859
180.6952,60.0201
180.6021,59.9270
180.5363,59.8130
180.5192,59.7494
179.8869,60.3817
179.8869,60.3817
179.8476,60.3276
179.7511,60.1382
179.6854,59.9361
179.6854,59.9361
179.6522,59.7262
179.6522,59.5138
179.6854,59.3039
179.6854,59.3039
179.7511,59.1018
179.8476,58.9124
179.8869,58.8583
179.8869,58.8583
180.5192,59.4906
180.5363,59.4270
180.6021,59.3130
180.6952,59.2199
180.8092,59.1541
180.8728,59.1370
180.2405,58.5047
180.2946,58.4654
180.4840,58.3689
180.6861,58.3032
180.8960,58.2700
181.1084,58.2700
181.3183,58.3032
181.3183,58.3032
181.5204,58.3689
181.7098,58.4654
181.7639,58.5047
181.7639,58.5047
181.1316,59.1370
181.1952,59.1541
181.3092,59.2199
181.4023,59.3130
181.4681,59.4270
181.4852,59.4906
182.1175,58.8583
182.1175,58.8583
182.1568,58.9124
182.2533,59.1018
182.3190,59.3039
182.3190,59.3039
182.3522,59.5138
182.3522,59.7262
182.3190,59.9361
182.3190,59.9361
182.2533,60.1382
182.1568,60.3275
182.1175,60.3817
181.4852,59.7494
181.4681,59.8130
181.4023,59.9270
181.3092,60.0201
181.1952,60.0859
181.1316,60.1030
181.7639,60.7353
181.7639,60.7353
181.7097,60.7746
181.7097,60.7746
181.7007,60.7792
181.6499,60.8272
181.6331,60.8950
181.6556,60.9612
181.7007,61.0002
181.7100,61.0049
181.8820,61.1299
182.0323,61.2802
182.1572,61.4522
182.2538,61.6416
182.3194,61.8438
182.3444,62.0011
182.3527,62.0537
194.1635,62.0537
194.2242,62.0340
194.3331,62.0167
194.4420,61.9995
194.6624,61.9995
194.6754,62.0016
194.8802,62.0340
195.0898,62.1021
195.0898,62.1021
195.2862,62.2022
195.4646,62.3318
195.4646,62.3318
195.6204,62.4876
195.6204,62.4876
195.6519,62.5309
195.7072,62.5736
195.7768,62.5796
195.8386,62.5469
195.8525,62.5309
195.8840,62.4876
195.8840,62.4876
196.0398,62.3318
196.0398,62.3318
196.2182,62.2022
196.2182,62.2022
196.2182,62.2022
196.2811,62.1701
196.4146,62.1021
196.4146,62.1021
196.6242,62.0340
196.7331,62.0167
196.8420,61.9995
197.0624,61.9995
197.0754,62.0016
197.2802,62.0340
197.4898,62.1021
197.4898,62.1021
197.6862,62.2022
197.8646,62.3318
197.8646,62.3318
198.0204,62.4876
198.0204,62.4876
198.0519,62.5309
198.1072,62.5736
198.1768,62.5796
198.2386,62.5469
198.2525,62.5309
198.2840,62.4876
198.2840,62.4876
198.4398,62.3318
198.4398,62.3318
198.6182,62.2022
198.6182,62.2022
198.6182,62.2022
198.6811,62.1701
198.8146,62.1021
198.8146,62.1021
199.0242,62.0340
199.1331,62.0167
199.2420,61.9995
199.4624,61.9995
199.4754,62.0016
199.6802,62.0340
199.8898,62.1021
199.8898,62.1021
200.0862,62.2022
200.2646,62.3318
200.2646,62.3318
200.4204,62.4876
200.4204,62.4876
200.5500,62.6660
200.6501,62.8624
200.6501,62.8624
200.7182,63.0720
200.7527,63.2898
210.2306,63.2898
209.6527,62.7118
209.5913,62.6783
209.5650,62.6755
209.0115,62.6755
209.0115,62.6755
208.9746,62.6726
208.9746,62.6726
208.9746,62.6726
208.9330,62.6605
208.8168,62.6267
208.6753,62.5431
208.5591,62.4269
208.4755,62.2854
208.4296,62.1276
208.4267,62.0907
208.4267,61.2593
208.4296,61.2224
208.4506,61.1501
208.4755,61.0646
208.4755,61.0646
208.4755,61.0646
208.5591,60.9231
208.5591,60.9231
208.5591,60.9231
208.6753,60.8069
208.6753,60.8069
208.7535,60.7607
208.8168,60.7233
208.8168,60.7233
208.8168,60.7233
208.8168,60.7233
208.9692,60.6790
208.9692,60.6790
208.9746,60.6774
208.9746,60.6774
208.9746,60.6774
209.0115,60.6745
209.0115,60.6745
210.3429,60.6745
210.3429,60.6745
210.3798,60.6774
210.3798,60.6774
210.5376,60.7233
210.5376,60.7233
210.6791,60.8069
210.6791,60.8069
210.7953,60.9231
210.7953,60.9231
210.8205,60.9657
210.8715,61.0134
210.9403,61.0259
211.0049,60.9993
211.0339,60.9657
211.0366,60.9612
211.0591,60.9231
211.0591,60.9231
211.0591,60.9231
211.1753,60.8069
211.1753,60.8069
211.2535,60.7607
211.3168,60.7233
211.3168,60.7233
211.3168,60.7233
211.3168,60.7233
211.4746,60.6774
211.4746,60.6774
211.5115,60.6745
211.5115,60.6745
212.8429,60.6745
212.8429,60.6745
212.8798,60.6774
212.8798,60.6774
213.0376,60.7233
213.0376,60.7233
213.1791,60.8069
213.1791,60.8069
213.2953,60.9231
213.2953,60.9231
213.3205,60.9657
213.3715,61.0134
213.4403,61.0259
213.5049,60.9993
213.5339,60.9657
213.5366,60.9612
213.5591,60.9231
213.5591,60.9231
213.5591,60.9231
213.6753,60.8069
213.6753,60.8069
213.7535,60.7607
213.8168,60.7233
213.8168,60.7233
213.8168,60.7233
213.8168,60.7233
213.9746,60.6774
213.9746,60.6774
214.0115,60.6745
214.0115,60.6745
215.3429,60.6745
215.3429,60.6745
215.3798,60.6774
215.3798,60.6774
215.5376,60.7233
215.5376,60.7233
215.6791,60.8069
215.6791,60.8069
215.7953,60.9231
215.7953,60.9231
215.8789,61.0646
215.8789,61.0646
215.9248,61.2224
215.9248,61.2224
215.9277,61.2593
215.9277,61.8128
215.9474,61.8798
215.9640,61.9005
216.6017,62.5382
216.6631,62.5717
216.6894,62.5745
221.9100,62.5745
221.9770,62.5548
221.9977,62.5382
223.4770,61.0588
223.5105,60.9975
223.5118,60.9517
223.5104,60.9430
223.4967,60.8563
223.4967,60.6437
223.5092,60.5648
222.1527,60.5648
222.1527,60.7852
222.1493,60.8069
222.1182,61.0030
222.0501,61.2126
222.0501,61.2126
221.9821,61.3461
221.9529,61.4034
221.9500,61.4090
221.8204,61.5874
221.8204,61.5874
221.6646,61.7432
221.6646,61.7432
221.5262,61.8438
221.4862,61.8728
221.3578,61.9382
221.2898,61.9729
221.2898,61.9729
221.2079,61.9995
221.0802,62.0410
220.8624,62.0755
220.8624,62.0755
220.6420,62.0755
220.6420,62.0755
220.4242,62.0410
220.2146,61.9729
220.0182,61.8728
219.8398,61.7432
219.6840,61.5874
219.5544,61.4090
219.4543,61.2126
219.3862,61.0030
219.3517,60.7852
219.3517,60.5648
205.2527,60.5648
205.2527,60.7852
205.2493,60.8069
205.2182,61.0030
205.1501,61.2126
205.1501,61.2126
205.0821,61.3461
205.0529,61.4034
205.0500,61.4090
204.9204,61.5874
204.9204,61.5874
204.7646,61.7432
204.7646,61.7432
204.6262,61.8438
204.5862,61.8728
204.4578,61.9382
204.3898,61.9729
204.3898,61.9729
204.3079,61.9995
204.1802,62.0410
203.9624,62.0755
203.9624,62.0755
203.7420,62.0755
203.7420,62.0755
203.5242,62.0410
203.3146,61.9729
203.1182,61.8728
202.9398,61.7432
202.7840,61.5874
202.6544,61.4090
202.5543,61.2126
202.4862,61.0030
202.4517,60.7852
202.4517,60.5648
202.4862,60.3470
202.5416,60.1766
202.5543,60.1374
202.5543,60.1374
202.6027,60.0424
202.6544,59.9410
202.7056,59.8705
202.7840,59.7626
202.7840,59.7626
202.9398,59.6068
202.9398,59.6068
203.1182,59.4772
203.1182,59.4772
203.1182,59.4772
203.2044,59.4332
203.3146,59.3771
203.3146,59.3771
203.5242,59.3090
203.6331,59.2917
203.7420,59.2745
203.9624,59.2745
204.0350,59.2860
204.1802,59.3090
204.3898,59.3771
204.3898,59.3771
204.5862,59.4772
204.7646,59.6068
204.7646,59.6068
204.9204,59.7626
204.9204,59.7626
205.0500,59.9410
205.1501,60.1374
205.1501,60.1374
205.2182,60.3470
205.2237,60.3817
205.2527,60.5648
219.3517,60.5648
219.3862,60.3470
219.4416,60.1766
219.4543,60.1374
219.4543,60.1374
219.5027,60.0424
219.5544,59.9410
219.6056,59.8705
219.6273,59.8406
216.6772,59.8406
216.6743,59.8775
216.6743,59.8775
216.6285,60.0352
216.6285,60.0352
216.5449,60.1766
216.5449,60.1766
216.4288,60.2927
216.4288,60.2927
216.2874,60.3763
216.2874,60.3763
216.1297,60.4221
216.1297,60.4221
216.0928,60.4250
216.0928,60.4250
212.4272,60.4250
211.9272,60.4250
208.2616,60.4250
208.2616,60.4250
208.2247,60.4221
208.2247,60.4221
208.0670,60.3763
208.0670,60.3763
207.9256,60.2927
207.9256,60.2927
207.8095,60.1766
207.8095,60.1766
207.7259,60.0352
207.7259,60.0352
207.6801,59.8775
207.6801,59.8775
207.6772,59.8406
207.6772,59.8406
207.6772,59.6750
211.9272,59.6750
211.9272,60.4250
212.4272,60.4250
212.4272,59.6750
216.6772,59.6750
216.6772,59.8406
219.6273,59.8406
219.6840,59.7626
219.6840,59.7626
219.8398,59.6068
219.8398,59.6068
220.0182,59.4772
220.0182,59.4772
220.0182,59.4772
220.1044,59.4332
220.2146,59.3771
220.2146,59.3771
220.4242,59.3090
220.5331,59.2917
220.6420,59.2745
220.8624,59.2745
220.9350,59.2860
221.0802,59.3090
221.2898,59.3771
221.2898,59.3771
221.4862,59.4772
221.6646,59.6068
221.6646,59.6068
221.8204,59.7626
221.8204,59.7626
221.9500,59.9410
222.0501,60.1374
222.0501,60.1374
222.1182,60.3470
222.1237,60.3817
222.1527,60.5648
223.5092,60.5648
223.5300,60.4338
223.5956,60.2316
223.6921,60.0422
223.6922,60.0422
223.6922,60.0422
223.8171,59.8702
223.9674,59.7199
224.1394,59.5950
224.3288,59.4984
224.3288,59.4984
224.3288,59.4984
224.5310,59.4328
224.5310,59.4328
224.5310,59.4328
224.6922,59.4072
224.7409,59.3995
224.9535,59.3995
225.0022,59.4072
225.1634,59.4328
225.3656,59.4984
225.5550,59.5950
225.7270,59.7199
225.8773,59.8702
226.0023,60.0422
226.0067,60.0509
226.0547,60.1017
226.1225,60.1185
226.1886,60.0960
226.2277,60.0509
226.2321,60.0422
226.3571,59.8702
226.5074,59.7199
226.6794,59.5950
226.8688,59.4984
226.8688,59.4984
226.8688,59.4984
227.0710,59.4328
227.0710,59.4328
227.0710,59.4328
227.2322,59.4072
227.2809,59.3995
227.4935,59.3995
227.5422,59.4072
227.7034,59.4328
227.9056,59.4984
228.0950,59.5950
228.2670,59.7199
228.4173,59.8702
228.5423,60.0422
228.5467,60.0509
228.5947,60.1017
228.6625,60.1185
228.7286,60.0960
228.7677,60.0509
228.7721,60.0422
228.8971,59.8702
229.0474,59.7199
229.2194,59.5950
229.4088,59.4984
229.4088,59.4984
229.4088,59.4984
229.6110,59.4328
229.6110,59.4328
229.6110,59.4328
229.7722,59.4072
229.8209,59.3995
230.0335,59.3995
230.0822,59.4072
230.2434,59.4328
230.4456,59.4984
230.6350,59.5950
230.8070,59.7199
230.9573,59.8702
231.0823,60.0422
231.0867,60.0509
231.1347,60.1017
231.2025,60.1185
231.2686,60.0960
231.3077,60.0509
231.3122,60.0422
231.4371,59.8702
231.5874,59.7199
231.7594,59.5950
231.9488,59.4984
231.9488,59.4984
231.9488,59.4984
232.1510,59.4328
232.1510,59.4328
232.1510,59.4328
232.3122,59.4072
232.3609,59.3995
232.5735,59.3995
232.6222,59.4072
232.7834,59.4328
232.9856,59.4984
233.1750,59.5950
233.3470,59.7199
233.4973,59.8702
233.6223,60.0422
233.6267,60.0509
233.6747,60.1017
233.7425,60.1185
233.8086,60.0960
233.8477,60.0509
233.8521,60.0422
233.9771,59.8702
234.1274,59.7199
234.2994,59.5950
234.4888,59.4984
234.4888,59.4984
234.4888,59.4984
234.6910,59.4328
234.6910,59.4328
234.6910,59.4328
234.8522,59.4072
234.9009,59.3995
235.1135,59.3995
235.1622,59.4072
235.3234,59.4328
235.5256,59.4984
235.7150,59.5950
235.8870,59.7199
236.0373,59.8702
236.1623,60.0422
236.1667,60.0509
236.2147,60.1017
236.2825,60.1185
236.3486,60.0960
236.3877,60.0509
236.3921,60.0422
236.5171,59.8702
236.6674,59.7199
236.8394,59.5950
237.0288,59.4984
237.0288,59.4984
237.0288,59.4984
237.2310,59.4328
237.2310,59.4328
237.2310,59.4328
237.3922,59.4072
237.4409,59.3995
237.6535,59.3995
237.7022,59.4072
237.8634,59.4328
238.0656,59.4984
238.2550,59.5950
238.4270,59.7199
238.5773,59.8702
238.7023,60.0422
238.7067,60.0509
238.7547,60.1017
238.8225,60.1185
238.8886,60.0960
238.9277,60.0509
238.9321,60.0422
239.0571,59.8702
239.2074,59.7199
239.3794,59.5950
239.5688,59.4984
239.5688,59.4984
239.5688,59.4984
239.7710,59.4328
239.7710,59.4328
239.7710,59.4328
239.9322,59.4072
239.9809,59.3995
240.1935,59.3995
240.2422,59.4072
240.4034,59.4328
240.6056,59.4984
240.7950,59.5950
240.9670,59.7199
241.1173,59.8702
241.2423,60.0422
241.2470,60.0515
241.2950,60.1023
241.3628,60.1191
241.4289,60.0965
241.4680,60.0515
241.4726,60.0424
241.5975,59.8705
241.5975,59.8705
241.7477,59.7203
241.7477,59.7203
241.9196,59.5954
242.1090,59.4989
242.3111,59.4332
242.3772,59.4228
242.3772,60.3170
242.4342,60.2841
242.5614,60.2500
242.6930,60.2500
242.8202,60.2841
242.8772,60.3170
242.8772,59.4228
242.8772,59.4228
242.9433,59.4332
243.1454,59.4989
243.3348,59.5954
243.5067,59.7203
243.5067,59.7203
243.6569,59.8705
243.6569,59.8705
243.7818,60.0424
243.7864,60.0515
243.8344,60.1023
243.9022,60.1191
243.9684,60.0965
244.0074,60.0515
244.0121,60.0422
244.0122,60.0422
244.0122,60.0422
244.1371,59.8702
244.2874,59.7199
244.4594,59.5950
244.6488,59.4984
244.6488,59.4984
244.6488,59.4984
244.8510,59.4328
244.8510,59.4328
244.8510,59.4328
245.0122,59.4072
245.0609,59.3995
245.2735,59.3995
245.3222,59.4072
245.4834,59.4328
245.6856,59.4984
245.8750,59.5950
246.0470,59.7199
246.1973,59.8702
246.1973,59.8702
246.2774,59.9804
246.3327,60.0231
246.4023,60.0291
246.4641,59.9965
246.4985,59.9356
246.5017,59.9075
246.5017,58.0485
245.3277,58.0485
245.2893,58.2418
245.2892,58.2418
245.2138,58.4239
245.2138,58.4239
245.1043,58.5878
245.1043,58.5878
244.9650,58.7271
244.9650,58.7271
244.8011,58.8366
244.8011,58.8366
244.6430,58.9021
244.6190,58.9121
244.6190,58.9121
244.6190,58.9121
244.4257,58.9505
244.4257,58.9505
244.2287,58.9505
244.0986,58.9246
244.0354,58.9121
243.8533,58.8366
243.6894,58.7271
243.5501,58.5878
243.4406,58.4239
243.3651,58.2418
243.3425,58.1278
243.3255,58.0426
243.3237,58.0429
243.3008,57.9861
243.2912,57.9754
242.7777,57.4618
242.7163,57.4283
242.6900,57.4255
237.8951,57.4255
237.8280,57.4452
237.7823,57.4980
237.7724,57.5671
237.7920,57.6184
237.8138,57.6511
237.8138,57.6511
237.8892,57.8332
237.8893,57.8332
237.9277,58.0265
237.9277,58.0265
237.9277,58.2235
237.9277,58.2235
237.9277,58.2235
237.8893,58.4168
237.8892,58.4168
237.8138,58.5989
237.8138,58.5989
237.7043,58.7628
237.7043,58.7628
237.5650,58.9021
237.5650,58.9021
237.4011,59.0116
237.4011,59.0116
237.2190,59.0870
237.2190,59.0871
237.2190,59.0871
237.2190,59.0871
237.0257,59.1255
237.0257,59.1255
236.8287,59.1255
236.6876,59.0974
236.6354,59.0871
236.4533,59.0116
236.4499,59.0093
216.6772,59.0093
216.6772,59.1750
212.4272,59.1750
211.9272,59.1750
207.6772,59.1750
207.6772,59.0094
207.6772,59.0093
207.6801,58.9725
207.6801,58.9725
207.7259,58.8148
207.7259,58.8148
207.8095,58.6734
207.8095,58.6734
207.9256,58.5573
207.9256,58.5573
208.0670,58.4737
208.0670,58.4737
208.2247,58.4279
208.2247,58.4279
208.2616,58.4250
211.9272,58.4250
211.9272,59.1750
212.4272,59.1750
212.4272,58.4250
216.0928,58.4250
216.1297,58.4279
216.1297,58.4279
216.2874,58.4737
216.2874,58.4737
216.4288,58.5573
216.4288,58.5573
216.5449,58.6734
216.5449,58.6734
216.6285,58.8148
216.6285,58.8148
216.6743,58.9725
216.6743,58.9725
216.6772,59.0093
236.4499,59.0093
236.2894,58.9021
236.1982,58.8109
236.1974,58.8102
236.1674,58.7945
236.1378,58.7783
236.1360,58.7781
236.1354,58.7779
236.1343,58.7780
236.1114,58.7755
228.8131,58.7755
228.7286,58.7587
228.6875,58.7505
228.5691,58.7015
228.5469,58.6866
228.4625,58.6303
227.9601,58.1278
227.5220,57.6898
200.7527,57.6898
200.7527,57.9102
200.7182,58.1280
200.6501,58.3376
200.6501,58.3376
200.5850,58.4654
200.5649,58.5047
200.5500,58.5340
200.4204,58.7124
200.4204,58.7124
200.2646,58.8682
200.2646,58.8682
200.2037,58.9124
200.0862,58.9978
199.9578,59.0632
199.8898,59.0979
199.8898,59.0979
199.8218,59.1200
199.6802,59.1660
199.4624,59.2005
199.4624,59.2005
199.2420,59.2005
199.2420,59.2005
199.0242,59.1660
198.8146,59.0979
198.6182,58.9978
198.4398,58.8682
198.2840,58.7124
198.2653,58.6866
198.2525,58.6691
198.1972,58.6264
198.1276,58.6204
198.0658,58.6531
198.0519,58.6691
198.0204,58.7124
197.8646,58.8682
197.8646,58.8682
197.8037,58.9124
197.6862,58.9978
197.5578,59.0632
197.4898,59.0979
197.4898,59.0979
197.4218,59.1200
197.2802,59.1660
197.0624,59.2005
197.0624,59.2005
196.8420,59.2005
196.8420,59.2005
196.6242,59.1660
196.4146,59.0979
196.2182,58.9978
196.0398,58.8682
195.8840,58.7124
195.8324,58.6415
195.8284,58.6369
195.8037,58.6215
195.7807,58.6038
195.7736,58.6027
195.7691,58.5999
195.7556,58.6001
195.7260,58.5957
195.7033,58.5975
195.0352,57.9294
195.0181,57.9930
194.9523,58.1070
194.8592,58.2001
194.7452,58.2659
194.6816,58.2830
195.3497,58.9511
195.3497,58.9511
195.2860,58.9974
195.0896,59.0974
194.8800,59.1655
194.6624,59.2000
194.4420,59.2000
194.2244,59.1655
194.0148,59.0974
193.8184,58.9974
193.7547,58.9511
193.7547,58.9511
194.4228,58.2830
194.3592,58.2659
194.2452,58.2001
194.1521,58.1070
194.0863,57.9930
194.0692,57.9294
193.4011,58.5975
193.4011,58.5975
193.3548,58.5338
193.3354,58.4957
193.2548,58.3374
193.1867,58.1278
193.1522,57.9102
193.1522,57.6898
193.1867,57.4722
193.2548,57.2626
193.3548,57.0662
193.4011,57.0025
193.4011,57.0025
194.0692,57.6706
194.0863,57.6070
194.1521,57.4930
194.2452,57.3999
194.3592,57.3341
194.4228,57.3170
193.7547,56.6489
193.8184,56.6026
194.0148,56.5026
194.2244,56.4345
194.4420,56.4000
194.6624,56.4000
194.8800,56.4345
195.0896,56.5026
195.2860,56.6026
195.3497,56.6489
195.3497,56.6489
194.6816,57.3170
194.7452,57.3341
194.8592,57.3999
194.9523,57.4930
195.0181,57.6070
195.0352,57.6706
195.7033,57.0025
195.7260,57.0043
195.7301,57.0034
195.7341,57.0046
195.7640,56.9963
195.7944,56.9899
195.7985,56.9867
195.8014,56.9859
195.8116,56.9764
195.8284,56.9631
195.8325,56.9585
195.8840,56.8876
196.0398,56.7318
196.0398,56.7318
196.0398,56.7318
196.2182,56.6022
196.2182,56.6022
196.2182,56.6022
196.3058,56.5575
196.4146,56.5021
196.4146,56.5021
196.6242,56.4340
196.7331,56.4167
196.8420,56.3995
197.0624,56.3995
197.1350,56.4110
197.2802,56.4340
197.4898,56.5021
197.4898,56.5021
197.6862,56.6022
197.8646,56.7318
197.8646,56.7318
198.0204,56.8876
198.0204,56.8876
198.0519,56.9309
198.1072,56.9736
198.1768,56.9796
198.2386,56.9469
198.2525,56.9309
198.2840,56.8876
198.2840,56.8876
198.4398,56.7318
198.4398,56.7318
198.6182,56.6022
198.6182,56.6022
198.6182,56.6022
198.7058,56.5575
198.8146,56.5021
198.8146,56.5021
199.0242,56.4340
199.1331,56.4167
199.2420,56.3995
199.4624,56.3995
199.5350,56.4110
199.6802,56.4340
199.8898,56.5021
199.8898,56.5021
200.0862,56.6022
200.2646,56.7318
200.2646,56.7318
200.4204,56.8876
200.4204,56.8876
200.5500,57.0660
200.6501,57.2624
200.6501,57.2624
200.7182,57.4720
200.7527,57.6898
227.5220,57.6898
227.4295,57.5972
225.8191,55.9868
225.7577,55.9533
225.7314,55.9505
225.0917,55.9505
225.0247,55.9702
224.9789,56.0230
224.9677,56.0745
224.9677,56.2479
224.9613,56.3075
224.9110,56.4423
224.9110,56.4423
224.8247,56.5575
224.8247,56.5575
224.7095,56.6438
224.7095,56.6438
224.5747,56.6941
224.5747,56.6941
224.5678,56.6948
224.5151,56.7005
222.7193,56.7005
222.6597,56.6941
222.5249,56.6438
222.4097,56.5575
222.3234,56.4423
222.2731,56.3075
222.2667,56.2479
222.2667,56.2240
222.2639,56.2110
222.2533,56.1915
222.2470,56.1703
222.2304,56.1496
222.2304,56.1496
222.2304,56.1496
222.2304,56.1496
221.5602,55.4794
221.5431,55.5430
221.4773,55.6570
221.3842,55.7501
221.2702,55.8159
221.2066,55.8330
221.8389,56.4653
221.8389,56.4653
221.7848,56.5046
221.5954,56.6011
221.3933,56.6668
221.1834,56.7000
220.9710,56.7000
220.7611,56.6668
220.7611,56.6668
220.5590,56.6011
220.3696,56.5046
220.3155,56.4653
220.3155,56.4653
220.9478,55.8330
220.8842,55.8159
220.7702,55.7501
220.6771,55.6570
220.6113,55.5430
220.5942,55.4794
219.9619,56.1117
219.9619,56.1117
219.9226,56.0576
219.8261,55.8682
219.7604,55.6661
219.7604,55.6661
219.7272,55.4562
219.7272,55.2438
219.7604,55.0339
219.7604,55.0339
219.8261,54.8318
219.9226,54.6424
219.9619,54.5883
219.9619,54.5883
220.5942,55.2206
220.6113,55.1570
220.6771,55.0430
220.7702,54.9499
220.8842,54.8841
220.9478,54.8670
220.3155,54.2347
220.3696,54.1954
220.5372,54.1100
220.5880,54.0620
220.6048,53.9942
220.5823,53.9281
220.5276,53.8846
220.4809,53.8755
210.8697,53.8755
210.8027,53.8952
210.7569,53.9480
210.7464,53.9869
210.7422,54.0278
210.7422,54.0278
210.6963,54.1663
210.6870,54.1943
210.5949,54.3437
210.4709,54.4677
210.3215,54.5598
210.1550,54.6150
210.0522,54.6255
208.7522,54.6255
208.6494,54.6150
208.4829,54.5598
208.3335,54.4677
208.2095,54.3437
208.1174,54.1943
208.1174,54.1943
208.1140,54.1889
208.0621,54.1422
207.9931,54.1309
207.9290,54.1588
207.9208,54.1663
207.7820,54.3051
207.6100,54.4300
207.6100,54.4300
207.6100,54.4301
207.4206,54.5266
207.2184,54.5922
207.0085,54.6255
207.0085,54.6255
206.7959,54.6255
206.7959,54.6255
206.5860,54.5922
206.3838,54.5266
206.1944,54.4301
206.1430,54.3927
206.0224,54.3051
206.0224,54.3051
206.0224,54.3051
205.8721,54.1548
205.8721,54.1548
205.8721,54.1548
205.8135,54.0742
205.7471,53.9828
205.7422,53.9731
205.7270,53.9432
205.6790,53.8924
205.6165,53.8755
203.7550,53.8755
203.6880,53.8952
203.6862,53.8964
203.5511,53.9866
203.5511,53.9866
203.4154,54.0428
203.3690,54.0621
203.3690,54.0621
203.3690,54.0621
203.1757,54.1005
203.1757,54.1005
202.9787,54.1005
202.8486,54.0746
202.7854,54.0621
202.6033,53.9866
202.4394,53.8771
202.3001,53.7378
202.1906,53.5739
202.1151,53.3918
202.0767,53.1985
202.0767,53.0853
182.7527,53.0853
182.7527,53.3147
182.7425,53.3918
182.7227,53.5422
182.7143,53.5739
182.6634,53.7639
182.5755,53.9759
182.5755,53.9759
182.5456,54.0278
182.4723,54.1548
182.4608,54.1746
182.3211,54.3567
182.3211,54.3567
182.1589,54.5189
182.1589,54.5189
182.1589,54.5189
182.1314,54.5400
181.9768,54.6586
181.9768,54.6586
181.9768,54.6586
181.7781,54.7733
181.7781,54.7733
181.7781,54.7733
181.6867,54.8112
181.5661,54.8612
181.3444,54.9205
181.1169,54.9505
181.1169,54.9505
180.8875,54.9505
180.8875,54.9505
180.6600,54.9205
180.4383,54.8612
180.2263,54.7733
180.0276,54.6586
179.8455,54.5189
179.8455,54.5189
179.8455,54.5189
179.6833,54.3567
179.6833,54.3567
179.6833,54.3567
179.5436,54.1746
179.4289,53.9759
179.3410,53.7639
179.2817,53.5422
179.2517,53.3147
179.2517,53.0853
179.2817,52.8578
179.3410,52.6361
179.4131,52.4622
179.4289,52.4241
179.4289,52.4241
179.4289,52.4241
179.5436,52.2254
179.5436,52.2254
179.5436,52.2254
179.6738,52.0557
179.6833,52.0433
179.6833,52.0433
179.6833,52.0433
179.8455,51.8811
179.8455,51.8811
180.0276,51.7414
180.0587,51.7234
180.1163,51.6902
180.2263,51.6267
180.2263,51.6266
180.4383,51.5388
180.6600,51.4795
180.6980,51.4744
180.8875,51.4495
180.8875,51.4495
181.1169,51.4495
181.1169,51.4495
181.3335,51.4780
181.3444,51.4795
181.4381,51.5046
181.5661,51.5388
181.7781,51.6266
181.7781,51.6267
181.9768,51.7414
182.1589,51.8811
182.3211,52.0433
182.4608,52.2254
182.5755,52.4241
182.5755,52.4241
182.6634,52.6361
182.7227,52.8578
182.7227,52.8578
182.7527,53.0853
202.0767,53.0853
202.0767,53.0015
202.0767,53.0015
202.1151,52.8082
202.1151,52.8082
202.1151,52.8082
202.1185,52.8000
202.1906,52.6261
202.1906,52.6261
202.3001,52.4622
202.3001,52.4622
202.4394,52.3229
202.4394,52.3229
202.6033,52.2134
202.6033,52.2134
202.7854,52.1379
202.7854,52.1379
202.9787,52.0995
202.9787,52.0995
203.1757,52.0995
203.1757,52.0995
203.3690,52.1379
203.3690,52.1379
203.5511,52.2134
203.5511,52.2134
203.7150,52.3229
203.7150,52.3229
203.7303,52.3382
203.7916,52.3717
203.8180,52.3745
205.6165,52.3745
205.6835,52.3548
205.7270,52.3068
205.7471,52.2672
205.7471,52.2672
205.8721,52.0952
206.0224,51.9449
206.1944,51.8200
206.3838,51.7234
206.3838,51.7234
206.3838,51.7234
206.5860,51.6578
206.5860,51.6578
206.5860,51.6578
206.7472,51.6322
206.7959,51.6245
207.0085,51.6245
207.0572,51.6322
207.2184,51.6578
207.4206,51.7234
207.6100,51.8200
207.7820,51.9449
207.9208,52.0837
207.9821,52.1172
208.0518,52.1122
208.1077,52.0703
208.1140,52.0611
208.2095,51.9063
208.3335,51.7823
208.3335,51.7823
208.4829,51.6902
208.6494,51.6350
208.6494,51.6350
208.7522,51.6245
210.0522,51.6245
210.0522,51.6245
210.1550,51.6350
210.1550,51.6350
210.3215,51.6902
210.3215,51.6902
210.4709,51.7823
210.5949,51.9063
210.6870,52.0557
210.6870,52.0557
210.7422,52.2222
210.7422,52.2222
210.7464,52.2631
210.7728,52.3278
210.8300,52.3679
210.8697,52.3745
225.8011,52.3745
225.9461,52.4033
225.9461,52.4033
226.0827,52.4599
226.0827,52.4599
226.2056,52.5420
226.2056,52.5421
229.5517,55.8882
229.6131,55.9217
229.6394,55.9245
242.8277,55.9245
242.8947,55.9048
242.9405,55.8520
242.9517,55.8005
242.9517,54.6303
242.9320,54.5633
242.8792,54.5175
242.8667,54.5126
242.7829,54.4848
242.6335,54.3927
242.5095,54.2687
242.4174,54.1193
242.4174,54.1193
242.4138,54.1134
242.3618,54.0667
242.2928,54.0555
242.2288,54.0833
242.2205,54.0909
242.0817,54.2297
242.0817,54.2297
241.9098,54.3546
241.7204,54.4511
241.5183,54.5168
241.4522,54.5272
241.4522,53.4830
241.3952,53.5159
241.2680,53.5500
241.1364,53.5500
241.0092,53.5159
240.9522,53.4830
240.9522,54.5272
240.8861,54.5168
240.8861,54.5168
240.6840,54.4511
240.4946,54.3546
240.3227,54.2297
240.3227,54.2297
240.1725,54.0795
240.1725,54.0795
240.0476,53.9076
239.9511,53.7182
239.8854,53.5161
239.8854,53.5161
239.8522,53.3062
239.8522,53.3000
240.7692,53.3000
240.7363,53.2430
240.7022,53.1158
240.7022,53.0853
232.7527,53.0853
232.7527,53.3147
232.7425,53.3918
232.7227,53.5422
232.7143,53.5739
232.6634,53.7639
232.5755,53.9759
232.5755,53.9759
232.5456,54.0278
232.4723,54.1548
232.4608,54.1746
232.3211,54.3567
232.3211,54.3567
232.1589,54.5189
232.1589,54.5189
232.1589,54.5189
232.1314,54.5400
231.9768,54.6586
231.9768,54.6586
231.9768,54.6586
231.7781,54.7733
231.7781,54.7733
231.7781,54.7733
231.6867,54.8112
231.5661,54.8612
231.3444,54.9205
231.1169,54.9505
231.1169,54.9505
230.8875,54.9505
230.8875,54.9505
230.6600,54.9205
230.4383,54.8612
230.2263,54.7733
230.0276,54.6586
229.8455,54.5189
229.8455,54.5189
229.8455,54.5189
229.6833,54.3567
229.6833,54.3567
229.6833,54.3567
229.5436,54.1746
229.4289,53.9759
229.3410,53.7639
229.2817,53.5422
229.2517,53.3147
229.2517,53.0853
229.2817,52.8578
229.3410,52.6361
229.4131,52.4622
229.4289,52.4241
229.4289,52.4241
229.4289,52.4241
229.5436,52.2254
229.5436,52.2254
229.5436,52.2254
229.6738,52.0557
229.6833,52.0433
229.6833,52.0433
229.6833,52.0433
229.8455,51.8811
229.8455,51.8811
230.0276,51.7414
230.0587,51.7234
230.1163,51.6902
230.2263,51.6267
230.2263,51.6266
230.4383,51.5388
230.6600,51.4795
230.6980,51.4744
230.8875,51.4495
230.8875,51.4495
231.1169,51.4495
231.1169,51.4495
231.3335,51.4780
231.3444,51.4795
231.4381,51.5046
231.5661,51.5388
231.7781,51.6266
231.7781,51.6267
231.9768,51.7414
232.1589,51.8811
232.3211,52.0433
232.4608,52.2254
232.5755,52.4241
232.5755,52.4241
232.6634,52.6361
232.7227,52.8578
232.7227,52.8578
232.7527,53.0853
240.7022,53.0853
240.7022,52.9842
240.7363,52.8570
240.7692,52.8000
239.8522,52.8000
239.8522,52.7938
239.8854,52.5839
239.8854,52.5839
239.9511,52.3818
240.0476,52.1924
240.1725,52.0205
240.1725,52.0205
240.3227,51.8703
240.3227,51.8703
240.4946,51.7454
240.6840,51.6489
240.8861,51.5832
240.9522,51.5728
240.9522,52.6170
241.0092,52.5841
241.1364,52.5500
241.2680,52.5500
241.3952,52.5841
241.4522,52.6170
241.4522,51.5728
241.4522,51.5728
241.5183,51.5832
241.7204,51.6489
241.9098,51.7454
242.0817,51.8703
242.2205,52.0091
242.2819,52.0426
242.3515,52.0376
242.4075,51.9958
242.4138,51.9866
242.5095,51.8313
242.6335,51.7073
242.6335,51.7073
242.7282,51.6489
242.7829,51.6152
242.7829,51.6152
242.7843,51.6147
242.9494,51.5600
242.9494,51.5600
243.0522,51.5495
244.3522,51.5495
244.3522,51.5495
244.4550,51.5600
244.4550,51.5600
244.6215,51.6152
244.6215,51.6152
244.7709,51.7073
244.8949,51.8313
244.9870,51.9807
244.9870,51.9807
245.0078,52.0433
245.0422,52.1472
245.0422,52.1472
245.0422,52.1472
245.0527,52.2500
245.0527,53.8500
245.0527,53.8500
245.0422,53.9528
245.0422,53.9528
244.9870,54.1193
244.9870,54.1193
244.9627,54.1588
244.8949,54.2687
244.7709,54.3927
244.6215,54.4848
244.5377,54.5126
244.4803,54.5524
244.4534,54.6169
244.4527,54.6303
244.4527,56.8531
244.4724,56.9201
244.5252,56.9659
244.5525,56.9747
244.6190,56.9879
244.6190,56.9879
244.8011,57.0634
244.8011,57.0634
244.9650,57.1729
244.9650,57.1729
245.1043,57.3122
245.1043,57.3122
245.2138,57.4761
245.2138,57.4761
245.2892,57.6582
245.2893,57.6582
245.3277,57.8515
245.3277,57.8515
245.3277,58.0485
245.3277,58.0485
245.3277,58.0485
246.5017,58.0485
246.5017,50.6245
246.4820,50.5575
246.4292,50.5117
246.3777,50.5005
177.6267,50.5005
Z" /> 
</g> 
</svg>
